<svg xmlns="http://www.w3.org/2000/svg" width="295" height="311" viewBox="0 0 295 311">
  <g id="t1-i2" transform="translate(-180 -3673)">
    <g id="Group_84223" data-name="Group 84223" transform="translate(101.266 3632.838)">
      <ellipse id="Ellipse_4107" data-name="Ellipse 4107" cx="147.5" cy="11.81" rx="147.5" ry="11.81" transform="translate(78.734 327.541)" fill="#f4aace"/>
      <g id="Group_84207" data-name="Group 84207" transform="translate(118.165 64.531)">
        <g id="Group_84193" data-name="Group 84193" transform="translate(57.093)">
          <path id="Path_147411" data-name="Path 147411" d="M175.9,102.612c4.514,2.353,8.149,22.242,8.584,44.411s-5.868,32.6-5.868,32.6l-5.217-1.957s1.087-24.777.652-34.123S166.446,97.687,175.9,102.612Z" transform="translate(-129.587 -45.914)" fill="#2c3042"/>
          <path id="Path_147412" data-name="Path 147412" d="M170.088,69.764s-1.333-5.378-9.377-5.23c-10.336.19-13.836,9.465-14.386,18.2-.949,15.1,7.151,34.063,5.771,41.148-1.411,7.245-9.573,0-3.405-3.108,0,0-6.587.3-4.561,6.59s13.981,10.595,21.535-1.706C175.947,108.926,170.079,69.441,170.088,69.764Z" transform="translate(-143.092 -64.531)" fill="#7f3200"/>
          <path id="Path_147413" data-name="Path 147413" d="M185.41,91.512S191.4,80.246,189.2,75.855c-6.091-12.121-34.369-12.942-31.256-3.35-8.907-3.392-12.824,28.432,7.637,32.561C184.9,109.2,185.41,91.512,185.41,91.512Z" transform="translate(-139.65 -63.822)" fill="#8f4517"/>
          <path id="Path_147414" data-name="Path 147414" d="M151.788,74.753a6.8,6.8,0,0,0,11.033,5.318c3.592-3.133,8.988-4.278,13.531-5.233s4.729-3.513,4.729-3.513,2.943,4.729,6.637,5.48a2.558,2.558,0,0,0,1.942-.172c-.45,5.124-4.218,12.226-4.218,12.226s-2.024,16.646-19.833,13.555C150.607,99.427,148.941,83.243,151.788,74.753Z" transform="translate(-139.682 -61.17)" fill="#7f3200"/>
          <g id="Group_84188" data-name="Group 84188" transform="translate(16.568 167.74)">
            <g id="Group_84185" data-name="Group 84185">
              <path id="Path_147415" data-name="Path 147415" d="M176.186,177.229s-.478,15.16-.462,23.242-1.257,12.635-3.242,31.836-1.1,31.587-1.1,31.587l-2.623.329s-9.4-31.891-7.9-42.5,6.277-21.738,6.277-21.738l-5.1-23.232Z" transform="translate(-151.272 -176.749)" fill="#ed9558"/>
              <path id="Path_147416" data-name="Path 147416" d="M175.742,177.229s-.478,15.16-.462,23.242c0,1.951-.069,3.7-.206,5.489-3.1-.713-6.83.158-10.978.964,1.39-4.136,2.595-6.943,2.595-6.943l-5.1-23.232Z" transform="translate(-150.829 -176.749)" fill="#e08344"/>
              <path id="Path_147417" data-name="Path 147417" d="M171.365,177.239s-.5,16.073-1.027,23.244c-.592,8.063-2.481,11.265-4.933,30.468s-3.679,33.493-3.679,33.493l-2.614-.2s-6.16-31.9-4.407-42.51,7.055-21.74,7.055-21.74l-4.532-23.233Z" transform="translate(-154.392 -176.744)" fill="#ffb476"/>
              <path id="Path_147418" data-name="Path 147418" d="M160.822,199.992l-4.532-23.233,14.136.48s-.5,16.073-1.027,23.244a57.11,57.11,0,0,1-.864,6.508,20.529,20.529,0,0,0-10.042-1.517C159.794,202.152,160.822,199.992,160.822,199.992Z" transform="translate(-153.453 -176.744)" fill="#ed9558"/>
            </g>
            <g id="Group_84186" data-name="Group 84186" transform="translate(15.385 87.145)">
              <path id="Path_147419" data-name="Path 147419" d="M172.27,246.749s3.88,1.644,3.882,2.436-4.921.888-8.043.578c-1.436-.142-1.154-4.8-2.238-7.386s-2.377-2.578.916-7.109l2.031,9.19Z" transform="translate(-164.684 -234.94)" fill="#2d313d"/>
              <path id="Path_147420" data-name="Path 147420" d="M169.216,235.049s.767,3.525,1.3,6.03a25.931,25.931,0,0,0,1.556,5.779,5.389,5.389,0,0,1-3.447.3c-1.438-.574-1.227-4.019-3.39-7.9-.774-1.389,1.5-4.1,1.5-4.1Z" transform="translate(-164.49 -235.049)" fill="#ed9558"/>
              <path id="Path_147421" data-name="Path 147421" d="M166.726,235.269a14.583,14.583,0,0,0-.024,3.447c.223,1.6.843,9.907,5.507,8.033,0,0-1.644,3.1-3.444,2.091s-2.021-4.877-2.743-6.889S163.361,239.584,166.726,235.269Z" transform="translate(-164.623 -234.94)" fill="#2d313d"/>
              <path id="Path_147422" data-name="Path 147422" d="M164.753,238.483a53.966,53.966,0,0,1,.664,9.7h.647a37.344,37.344,0,0,1,.526-6.465Z" transform="translate(-164.651 -233.35)" fill="#2d313d"/>
            </g>
            <g id="Group_84187" data-name="Group 84187" transform="translate(2.505 87.169)">
              <path id="Path_147423" data-name="Path 147423" d="M163.653,246.765s3.88,1.644,3.882,2.436-4.921.888-8.045.58c-1.435-.142-1.152-4.8-2.236-7.386s-2.377-2.578.916-7.111l2.031,9.19Z" transform="translate(-156.067 -234.956)" fill="#2d313d"/>
              <path id="Path_147424" data-name="Path 147424" d="M160.6,235.065s.767,3.526,1.3,6.03c.619,2.886.906,4.489,1.556,5.779a5.391,5.391,0,0,1-3.447.3c-1.438-.573-1.227-4.019-3.39-7.894-.774-1.39,1.5-4.1,1.5-4.1Z" transform="translate(-155.873 -235.065)" fill="#ffb476"/>
              <path id="Path_147425" data-name="Path 147425" d="M158.109,235.285a14.591,14.591,0,0,0-.024,3.448c.223,1.6.843,9.906,5.507,8.031,0,0-1.646,3.1-3.444,2.091s-2.021-4.877-2.743-6.888S154.743,239.6,158.109,235.285Z" transform="translate(-156.006 -234.956)" fill="#2d313d"/>
              <path id="Path_147426" data-name="Path 147426" d="M156.136,238.5a53.861,53.861,0,0,1,.662,9.7h.649a37.161,37.161,0,0,1,.526-6.463Z" transform="translate(-156.034 -233.365)" fill="#2d313d"/>
            </g>
          </g>
          <path id="Path_147427" data-name="Path 147427" d="M179.824,140.423c-4.079-5.363,8.489-15.043,8.918-18.082s-2.46-9.706-2.46-9.706l-.746-8.894c-14.332-5.833-21.413-4.517-33.987,1.148,0,0-1.511,5.211,1.981,15.187,3.428,9.789,12.94,15.327,10.163,20.378C163.692,140.454,178.537,148.564,179.824,140.423Z" transform="translate(-139.392 -47.004)" fill="#73859b"/>
          <path id="Path_147428" data-name="Path 147428" d="M180.389,140.559a102.125,102.125,0,0,1,11.71,25.23c-13.378,4.595-27.505,4.217-42.2.079,3.118-8.685,8.737-18.77,14.06-24.969l.117-.135.158-.184.112-.127c2.777-5.051-6.735-10.589-10.163-20.378-3.492-9.976-1.981-15.187-1.981-15.187,12.574-5.665,19.655-6.981,33.987-1.148l.746,8.894s2.889,6.665,2.46,9.706S176.31,135.2,180.389,140.559Z" transform="translate(-140.046 -47.004)" fill="#f7eee2"/>
          <path id="Path_147429" data-name="Path 147429" d="M149.9,159.279c3.118-8.685,8.737-18.77,14.06-24.969l.117-.135.158-.184.112-.127c2.777-5.051-6.735-10.589-10.163-20.378-.025-.073-.045-.141-.07-.214.868.217,6.661,5.28,21.994,4.916,9.466-.223,13.323-2.438,13.323-2.438-.429,3.039-12.837,13.17-8.759,18.534A97.334,97.334,0,0,1,191.936,159.2C182.1,162.578,170.1,163.766,149.9,159.279Z" transform="translate(-140.046 -40.415)" fill="#eadace"/>
          <path id="Path_147430" data-name="Path 147430" d="M165.99,109.055c.327.688,3.163,7.749,3.55,10.985.405,3.375-2.746,12.472-2.741,14.822a47.75,47.75,0,0,0,1.5,6.426,177.991,177.991,0,0,1,4.868,22.647c-.224.033-.451.049-.677.079a177.442,177.442,0,0,0-4.851-22.55,43.867,43.867,0,0,1-1.523-6.6c0-2.581,3.115-11.673,2.746-14.743-.374-3.127-3.408-10.607-3.487-10.774Z" transform="translate(-132.39 -42.502)" fill="#d6b5a7"/>
          <path id="Path_147431" data-name="Path 147431" d="M158.3,86.767s3.441,12.828.529,21.725l9.034,1.543,5.072-1.454a34.864,34.864,0,0,1-1.272-12.386C171.992,90.722,158.3,86.767,158.3,86.767Z" transform="translate(-135.888 -53.529)" fill="#e08344"/>
          <path id="Path_147432" data-name="Path 147432" d="M158.972,108.088c2.686-8.877-.641-21.321-.641-21.321s13.445,3.946,13.363,9.428a57.44,57.44,0,0,0,0,6.091C170,103.555,166.111,106,158.972,108.088Z" transform="translate(-135.875 -53.529)" fill="#d1652f"/>
          <path id="Path_147433" data-name="Path 147433" d="M195.36,144s8.459,21.692,7.812,70.96a159.882,159.882,0,0,1-59.864.069c1.3-47.395,9.854-70.949,9.854-70.949C169.04,147.816,183.32,148.23,195.36,144Z" transform="translate(-143.308 -25.213)" fill="#3d4359"/>
          <path id="Path_147434" data-name="Path 147434" d="M175.382,107.828c1.292-.26,3.052-2.8,4.22-4.138,2.477-2.848,4.7-6.242,2.434-13.054,0,0,3.852-18.348-10.981-18.65s-15.984,14.478-11.818,25.163A16.572,16.572,0,0,0,175.382,107.828Z" transform="translate(-136.462 -60.844)" fill="#ffb476"/>
          <path id="Path_147435" data-name="Path 147435" d="M167.333,72.2c-10.169,2.7-9,34.256,8.2,35.459a1.285,1.285,0,0,1-.152.06,16.572,16.572,0,0,1-16.145-10.679C155.451,87.34,156.09,74.3,167.333,72.2Z" transform="translate(-136.459 -60.736)" fill="#ed9558"/>
          <g id="Group_84189" data-name="Group 84189" transform="translate(18.351 31.054)">
            <path id="Path_147436" data-name="Path 147436" d="M155.588,88.584a3.138,3.138,0,1,0,2.994-3.275A3.137,3.137,0,0,0,155.588,88.584Z" transform="translate(-155.585 -85.306)" fill="#ed9558"/>
            <path id="Path_147437" data-name="Path 147437" d="M158.266,86.047a1.991,1.991,0,0,1,1.208.374,1.715,1.715,0,0,0-.541-.084,1.742,1.742,0,1,0,.155,3.481,1.616,1.616,0,0,0,.414-.1,1.975,1.975,0,0,1-1.054.4,2.034,2.034,0,1,1-.182-4.064Z" transform="translate(-155.22 -84.94)" fill="#e08344"/>
          </g>
          <g id="Group_84190" data-name="Group 84190" transform="translate(26.112 26.695)">
            <path id="Path_147438" data-name="Path 147438" d="M167.6,84.613s-.251,1.584-3.166,1.372c-2.51-.182-3.293-1.561-2.556-1.347A49.517,49.517,0,0,0,167.6,84.613Z" transform="translate(-160.364 -81.29)" fill="#6d3a31"/>
            <path id="Path_147439" data-name="Path 147439" d="M168.3,84.849l-6.121-.67-1.4-.142C161.8,82.229,167.88,81.185,168.3,84.849Z" transform="translate(-160.777 -82.39)" fill="#6d3a31"/>
            <path id="Path_147440" data-name="Path 147440" d="M167.623,84.683c-.154-.916-.685-1.987-2.909-1.9-3.1.123-3.45,2.037-2.9,2.889C162.777,87.175,168.1,87.511,167.623,84.683Z" transform="translate(-160.371 -82.197)" fill="#f7eee2"/>
            <path id="Path_147441" data-name="Path 147441" d="M163.01,84.79a2.093,2.093,0,1,0,2.055-2.13A2.092,2.092,0,0,0,163.01,84.79Z" transform="translate(-159.672 -82.257)" fill="#6d3a31"/>
          </g>
          <g id="Group_84191" data-name="Group 84191" transform="translate(39.831 26.227)">
            <path id="Path_147442" data-name="Path 147442" d="M170.017,84.409S170,86.07,172.9,85.657c1.756-.25,2.292-1.62,1.562-1.38A29.648,29.648,0,0,1,170.017,84.409Z" transform="translate(-169.924 -81.002)" fill="#6d3a31"/>
            <path id="Path_147443" data-name="Path 147443" d="M169.955,84.573l4.852-.813,1.076-.221C174.8,81.766,170.347,81.074,169.955,84.573Z" transform="translate(-169.955 -82.077)" fill="#6d3a31"/>
            <path id="Path_147444" data-name="Path 147444" d="M170,84.44c.149-.916.855-1.952,3.082-1.943a1.842,1.842,0,0,1,1.746,2.744C173.944,86.978,169.557,87.125,170,84.44Z" transform="translate(-169.95 -81.869)" fill="#f7eee2"/>
            <path id="Path_147445" data-name="Path 147445" d="M174.788,84.338a2.053,2.053,0,1,1-2.088-2.016A2.051,2.051,0,0,1,174.788,84.338Z" transform="translate(-169.595 -81.956)" fill="#6d3a31"/>
          </g>
          <path id="Path_147446" data-name="Path 147446" d="M171.1,80.443s-2.691,2.824-1.948,6.347a5.42,5.42,0,0,0,3.807,4.223s-.607,2.586-2.936,2.707,1.712-2.471,1.712-2.471-3.248-1.779-3.685-4.338C167.426,83.271,171.1,80.443,171.1,80.443Z" transform="translate(-131.103 -56.658)" fill="#e08344"/>
          <path id="Path_147447" data-name="Path 147447" d="M165.1,73.95s-4.006,1.623-4.647,7.181,1,11.158-.271,11.477c-.653.164-2.29-.976-2.29-.976s-6.241-17.306,4.212-19.613Z" transform="translate(-137.005 -60.826)" fill="#8f4517"/>
          <path id="Path_147448" data-name="Path 147448" d="M168.015,80.279c.067.339-1.256.345-3.691.99-2.226.589-3.846,1.447-3.936,1.114s1.063-1.534,3.664-2.256C166.566,79.43,167.886,79.623,168.015,80.279Z" transform="translate(-134.859 -57.032)" fill="#7f3200"/>
          <path id="Path_147449" data-name="Path 147449" d="M176.337,82.151c-.033.236-1.052-.516-2.74-.957-1.665-.435-3.306-.78-3.288-1.069.016-.245.432-.48,1.2-.478C176.218,80.181,176.387,81.8,176.337,82.151Z" transform="translate(-129.949 -57.052)" fill="#7f3200"/>
          <g id="Group_84192" data-name="Group 84192" transform="translate(32.657 38.393)">
            <path id="Path_147450" data-name="Path 147450" d="M165.814,91.064c-.04.114-.4.093-.511.052a.219.219,0,1,1,.145-.413C165.561,90.743,165.854,90.951,165.814,91.064Z" transform="translate(-165.156 -89.981)" fill="#93271c"/>
            <path id="Path_147451" data-name="Path 147451" d="M171.679,90.729c.076.093.4-.049.5-.127a.218.218,0,1,0-.278-.336C171.8,90.342,171.6,90.636,171.679,90.729Z" transform="translate(-161.937 -90.216)" fill="#93271c"/>
            <path id="Path_147452" data-name="Path 147452" d="M165.413,91.07l9.573-.593a5.913,5.913,0,0,1-4.454,3.214C167.474,93.943,165.413,91.07,165.413,91.07Z" transform="translate(-165.028 -90.087)" fill="#9a6335"/>
            <path id="Path_147453" data-name="Path 147453" d="M165.413,91.07l9.573-.593a5.913,5.913,0,0,1-4.454,3.214C167.474,93.943,165.413,91.07,165.413,91.07Z" transform="translate(-165.028 -90.087)" fill="#93271c"/>
            <path id="Path_147454" data-name="Path 147454" d="M165.894,91.184l7.752-.493s-1.354,2.577-3.93,2.535A4.781,4.781,0,0,1,165.894,91.184Z" transform="translate(-164.79 -89.981)" fill="#f7eee2"/>
            <path id="Path_147455" data-name="Path 147455" d="M165.894,91.184l7.752-.493-.4.61a7.433,7.433,0,0,0-3.4-.212,14.556,14.556,0,0,0-3.544.593S166.006,91.332,165.894,91.184Z" transform="translate(-164.79 -89.981)" fill="#d5b698"/>
          </g>
          <path id="Path_147456" data-name="Path 147456" d="M178.9,72.723s-.493,2.945-4.834,4.1c-10.033,2.671-13.158,3.054-15.7,11.581,0,0-2.182-9.389,3.206-14.369C164.769,71.086,170.734,68.626,178.9,72.723Z" transform="translate(-136.071 -61.548)" fill="#8f4517"/>
          <path id="Path_147457" data-name="Path 147457" d="M172.738,74.73c3.575-.752,4.442-2.48,4.653-3.188.142.06.29.135.433.2.208.293.489.668.864,1.123-.4.925-1.52,2.649-4.62,3.474-10.033,2.671-13.158,3.054-15.7,11.581a21.969,21.969,0,0,1-.227-7.253,5.469,5.469,0,0,0,1.064-.7C162.8,76.83,168.2,75.686,172.738,74.73Z" transform="translate(-136.068 -61.062)" fill="#7f3200"/>
          <path id="Path_147458" data-name="Path 147458" d="M160.2,77.355c.224-.2.474-.362.712-.541a11.187,11.187,0,0,0-.4,1.945c-.643,5.556,1,11.158-.271,11.477-.653.164-2.29-.976-2.29-.976s-2.773-3.572-1.839-10.46A6.363,6.363,0,0,0,160.2,77.355Z" transform="translate(-137.065 -58.454)" fill="#7f3200"/>
          <path id="Path_147459" data-name="Path 147459" d="M168.985,110.668l-10.327-8.982c5.148-1.484,9.907-1.647,14.106.088Z" transform="translate(-135.713 -46.723)" fill="#e08344"/>
          <path id="Path_147460" data-name="Path 147460" d="M143.308,215c1.3-47.395,9.854-70.949,9.854-70.949a118.317,118.317,0,0,0,11.64,2.164c-4.584,25.84-2.158,63.214-2.158,63.214,12.863,4.368,33.937,2.933,40.529.97v4.532A159.882,159.882,0,0,1,143.308,215Z" transform="translate(-143.308 -25.187)" fill="#323749"/>
          <path id="Path_147461" data-name="Path 147461" d="M167.9,111.781l-4.491,5.361-7.317-15.793Z" transform="translate(-136.982 -46.315)" fill="#d6b5a7"/>
          <path id="Path_147462" data-name="Path 147462" d="M167,111.055l5.94,3.622-.8-13.62Z" transform="translate(-131.587 -46.459)" fill="#d6b5a7"/>
          <path id="Path_147463" data-name="Path 147463" d="M165.567,112.083l3.779-8.894a27.043,27.043,0,0,1-1.1-5.525h.6l4,5.072.217,12.118-4.673-2.771-2.227,4.293Z" transform="translate(-132.295 -48.138)" fill="#fff7ee"/>
          <path id="Path_147464" data-name="Path 147464" d="M170.854,116.376l-3.894-3.425-3.7,4.347-7.172-14.127,4.2-5.507h.691a24.849,24.849,0,0,1-1.057,5.436l10.327,8.982Z" transform="translate(-136.982 -48.138)" fill="#fff7ee"/>
          <path id="Path_147465" data-name="Path 147465" d="M163.29,108.683l1.3-1.593,2.21,1.847,1.3-2.281,1.666,1.158-2.391,4.239Z" transform="translate(-133.422 -43.689)" fill="#d6b5a7"/>
          <path id="Path_147466" data-name="Path 147466" d="M157.581,101.76l-5.942,2.317s-1.957,9.344,4.238,19.886,8.151,10.541,8.369,13.475-10.217,12.715-14.238,26.081c0,0,16.626,4.132,25.212,2.719a6.1,6.1,0,0,0,4.456-4.13s1.411,2.825,4.021,3.042,8.259-1.413,8.259-1.413-2.827-8.369-5.868-15S180,141.025,180,137.222s9.345-12.172,10-15.649-2.933-10.215-2.933-10.215l-.759-8.441-3.623-1.375s2.426,14.345-5.976,21.952C176.709,123.494,161.928,121.321,157.581,101.76Z" transform="translate(-139.993 -46.219)" fill="#3d4359"/>
          <path id="Path_147467" data-name="Path 147467" d="M179.677,155.932s1.411,2.825,4.021,3.042,8.259-1.413,8.259-1.413-2.827-8.369-5.868-15S180,134.849,180,131.046c0-3.774,9.191-12.039,9.97-15.562,0,0-5.584,5.456-19.351,4.3-13.571-1.142-16.65-5.755-16.65-5.755a33.886,33.886,0,0,0,1.906,3.762c6.2,10.543,8.151,10.541,8.369,13.475s-10.217,12.715-14.238,26.081c0,0,16.626,4.132,25.212,2.719A6.1,6.1,0,0,0,179.677,155.932Z" transform="translate(-139.993 -40.043)" fill="#303347"/>
          <path id="Path_147468" data-name="Path 147468" d="M152.84,103.247c-9.852,2.03-3.477,34.774,0,47.526s22.6,33.614,22.6,33.614l4.347-2.317s-12.46-26.371-15.939-34.486C160.558,139.9,158.692,102.043,152.84,103.247Z" transform="translate(-141.193 -45.389)" fill="#3d4359"/>
          <path id="Path_147469" data-name="Path 147469" d="M154.36,148.221c-2.9-10.652-7.824-35.239-3.626-44.236-6.707,6.188-1.085,34.707,2.1,46.41,3.478,12.75,22.6,33.614,22.6,33.614l2.184-1.163C172.455,176.9,157.237,158.773,154.36,148.221Z" transform="translate(-141.191 -45.01)" fill="#303347"/>
          <path id="Path_147470" data-name="Path 147470" d="M172.7,109.507l.58,3.957,6.149-.556-.689-3.959Z" transform="translate(-128.768 -42.554)" fill="#fff7ee"/>
          <path id="Path_147471" data-name="Path 147471" d="M183.921,136.693c.434,22.17-6.955,36.3-6.955,36.3l-4.782-1.3s1.738-29.124,1.3-38.469S183.486,114.524,183.921,136.693Z" transform="translate(-129.021 -35.584)" fill="#2c3042"/>
        </g>
        <g id="Group_84206" data-name="Group 84206" transform="translate(0 52.815)">
          <g id="Group_84197" data-name="Group 84197" transform="translate(115.245)">
            <path id="Path_147472" data-name="Path 147472" d="M182.212,99.864v49.4h30.753v8.12h-9.022v1.934h22.689v-1.934h-8.95v-8.12h30.886v-49.4Z" transform="translate(-182.212 -99.864)" fill="#767284"/>
            <g id="Group_84196" data-name="Group 84196" transform="translate(2.415)">
              <rect id="Rectangle_32451" data-name="Rectangle 32451" width="63.941" height="49.432" fill="#33323d"/>
              <rect id="Rectangle_32452" data-name="Rectangle 32452" width="5.479" height="16.195" transform="translate(30.092 42.231)" fill="#2e2d38"/>
              <rect id="Rectangle_32453" data-name="Rectangle 32453" width="23.379" height="1.905" transform="translate(21.142 57.553)" fill="#2e2d38"/>
              <g id="Group_84194" data-name="Group 84194" transform="translate(0 32.435)">
                <rect id="Rectangle_32454" data-name="Rectangle 32454" width="7.861" height="1.806" fill="#454551"/>
                <rect id="Rectangle_32455" data-name="Rectangle 32455" width="7.861" height="1.806" transform="translate(0 4.028)" fill="#454551"/>
                <rect id="Rectangle_32456" data-name="Rectangle 32456" width="7.861" height="1.806" transform="translate(0 8.057)" fill="#454551"/>
                <rect id="Rectangle_32457" data-name="Rectangle 32457" width="7.861" height="1.806" transform="translate(0 12.085)" fill="#454551"/>
              </g>
              <g id="Group_84195" data-name="Group 84195" transform="translate(57.389 32.435)">
                <rect id="Rectangle_32458" data-name="Rectangle 32458" width="6.552" height="1.806" fill="#454551"/>
                <rect id="Rectangle_32459" data-name="Rectangle 32459" width="6.552" height="1.806" transform="translate(0 4.028)" fill="#454551"/>
                <rect id="Rectangle_32460" data-name="Rectangle 32460" width="6.552" height="1.806" transform="translate(0 8.057)" fill="#454551"/>
                <rect id="Rectangle_32461" data-name="Rectangle 32461" width="6.552" height="1.806" transform="translate(0 12.085)" fill="#454551"/>
              </g>
              <rect id="Rectangle_32462" data-name="Rectangle 32462" width="41.847" height="27.267" transform="translate(11.908 22.145)" fill="#2e2d38"/>
              <rect id="Rectangle_32463" data-name="Rectangle 32463" width="3.17" height="27.267" transform="translate(11.908 22.145)" fill="#454551"/>
            </g>
          </g>
          <g id="Group_84204" data-name="Group 84204" transform="translate(0 59.435)">
            <rect id="Rectangle_32464" data-name="Rectangle 32464" width="133.369" height="30.504" transform="translate(64.315 20.2)" fill="#292d3a"/>
            <rect id="Rectangle_32465" data-name="Rectangle 32465" width="58.248" height="30.504" transform="translate(6.086 20.2)" fill="#3f4654"/>
            <rect id="Rectangle_32466" data-name="Rectangle 32466" width="135.977" height="30.504" transform="translate(64.315 127.381)" fill="#292d3a"/>
            <rect id="Rectangle_32467" data-name="Rectangle 32467" width="62.16" height="30.504" transform="translate(2.173 127.381)" fill="#3f4654"/>
            <rect id="Rectangle_32468" data-name="Rectangle 32468" width="138.586" height="28.852" transform="translate(64.315)" fill="#efc0b9"/>
            <rect id="Rectangle_32469" data-name="Rectangle 32469" width="64.334" height="28.852" fill="#ffdfd7"/>
            <rect id="Rectangle_32470" data-name="Rectangle 32470" width="138.586" height="103.233" transform="translate(64.315 43.593)" fill="#efc0b9"/>
            <rect id="Rectangle_32471" data-name="Rectangle 32471" width="64.334" height="103.233" transform="translate(0 43.593)" fill="#ffdfd7"/>
            <g id="Group_84201" data-name="Group 84201" transform="translate(0 67.605)">
              <g id="Group_84198" data-name="Group 84198" opacity="0.2" style="mix-blend-mode: multiply;isolation: isolate">
                <rect id="Rectangle_32472" data-name="Rectangle 32472" width="202.9" height="1.309" fill="#dda39b"/>
              </g>
              <g id="Group_84199" data-name="Group 84199" transform="translate(0 26.951)" opacity="0.2" style="mix-blend-mode: multiply;isolation: isolate">
                <rect id="Rectangle_32473" data-name="Rectangle 32473" width="202.9" height="1.309" fill="#dda39b"/>
              </g>
              <g id="Group_84200" data-name="Group 84200" transform="translate(0 53.901)" opacity="0.2" style="mix-blend-mode: multiply;isolation: isolate">
                <rect id="Rectangle_32474" data-name="Rectangle 32474" width="202.9" height="1.309" fill="#dda39b"/>
              </g>
            </g>
            <g id="Group_84202" data-name="Group 84202" transform="translate(0 3.124)" opacity="0.1" style="mix-blend-mode: multiply;isolation: isolate">
              <path id="Path_147473" data-name="Path 147473" d="M243.938,150.734c-30.09-1.054-60.241.686-86.845,2.223-19.6,1.132-37.076,2.135-51.981,1.963v.873c1.126.013,2.26.022,3.414.022,14.161,0,30.487-.942,48.617-1.99,26.583-1.534,56.715-3.278,86.762-2.221,6.7.233-30.242.436-20.206.691,19.99.51,46.761,1.193,84.312,2.658v-.87c-37.538-1.463-64.3-2.146-84.291-2.656C213.689,151.17,250.635,150.968,243.938,150.734Z" transform="translate(-105.113 -137.415)" fill="#dda39b"/>
              <path id="Path_147474" data-name="Path 147474" d="M240.482,143.175c-22.946-2.034-64.876-2.918-135.369,4.084v.876c70.477-7,112.375-6.124,135.293-4.093,20.57,1.824,14.964,3.786,52.567,3.786,5.187,0,10.175-.118,15.04-.348v-.87c-4.865.23-9.854.348-15.04.348C255.4,146.958,261.035,145,240.482,143.175Z" transform="translate(-105.113 -141.717)" fill="#dda39b"/>
            </g>
            <g id="Group_84203" data-name="Group 84203" transform="translate(0 50.987)" opacity="0.1" style="mix-blend-mode: multiply;isolation: isolate">
              <path id="Path_147475" data-name="Path 147475" d="M151.419,194.037c23.634-2.442,8.176-5.484,58.027-1.33l3.365.3c21.38,1.9,50.668,4.492,78.505,4.492,5.655,0,11.239-.118,16.7-.36v-.863c-32.262,1.434-69.419-1.856-95.126-4.134l-3.366-.3c-49.933-4.161-34.52-1.114-58.191,1.333-16.836,1.74-30.631,3.158-46.217,1.109v.876C120.745,197.2,134.567,195.781,151.419,194.037Z" transform="translate(-105.113 -165.798)" fill="#dda39b"/>
              <path id="Path_147476" data-name="Path 147476" d="M244.51,184.262c-24.055-.063-40,.06-42.359,2.413a1.118,1.118,0,0,0-.363.8,1.324,1.324,0,0,0,.61,1.027c2.879,2.235,19.644,4.193,37.239,4.19a187.948,187.948,0,0,0,20.544-1.04V190.8c-22.42,2.57-53.294.09-57.25-2.981-.2-.157-.274-.278-.274-.341a.283.283,0,0,1,.106-.185c2.28-2.275,23.248-2.217,41.744-2.16,5.559.018,10.9.031,15.673-.013v-.87C255.41,184.292,250.072,184.279,244.51,184.262Z" transform="translate(-57.281 -168.536)" fill="#dda39b"/>
              <path id="Path_147477" data-name="Path 147477" d="M225.258,174.607c9,0-23.664.525-9.535,1.132,29.924,1.287,65.889,2.831,92.29.353v-.873c-26.341,2.481-62.323.939-92.253-.348-14.139-.608,18.519-1.133,9.5-1.133-31.744,0-36.771.242-48.919.833-10.741.519-26.625,1.288-71.226,2.377v.87c44.628-1.088,60.522-1.858,71.268-2.38C188.514,174.849,193.535,174.607,225.258,174.607Z" transform="translate(-105.113 -173.737)" fill="#dda39b"/>
              <path id="Path_147478" data-name="Path 147478" d="M154.684,210.351c0-.876,0-2.7-28.405-3.617-7.592-.247-15.3-.365-21.166-.42v.861c24.912.223,47.9,1.309,48.7,3.176a1.007,1.007,0,0,1-.356.706c-2.036,2.021-12.3,4.339-48.345,4.49v.873c29.776-.1,45.852-1.661,48.958-4.747A1.85,1.85,0,0,0,154.684,210.351Z" transform="translate(-105.113 -157.619)" fill="#dda39b"/>
              <path id="Path_147479" data-name="Path 147479" d="M201.424,210.614c25.164,0,46.04,2.332,70.215,5.031,11.529,1.288,23.341,2.6,36.374,3.755v-.871c-12.994-1.152-24.776-2.463-36.278-3.747-24.2-2.7-45.1-5.036-70.311-5.036-48.517,0-31.845,5.259-56.723,9.9-12.9,2.407-25.311,4.72-39.587,6.169v.873c14.344-1.45,26.8-3.771,39.747-6.185C169.7,215.866,152.987,210.614,201.424,210.614Z" transform="translate(-105.113 -155.921)" fill="#dda39b"/>
              <path id="Path_147480" data-name="Path 147480" d="M229.158,222.709c37.493,2.767,63.9,2.49,78.855,1.849v-.871c-14.916.641-41.3.919-78.791-1.843-60.286-4.445-38.834-.339-63.625,4.01-16.155,2.833-32.785,5.749-60.484,6.564v.87c27.774-.815,44.442-3.737,60.635-6.578C190.485,222.37,168.979,218.274,229.158,222.709Z" transform="translate(-105.113 -150.884)" fill="#dda39b"/>
              <path id="Path_147481" data-name="Path 147481" d="M134.813,240.18h4.229c15.81-3.262,32.966-6.16,43.167-6.16,21.51,0,8.416,3.251,29.366,6.16h6.052c-20.505-3.093-11.746-7.03-35.419-7.03C171.066,233.15,151.714,236.579,134.813,240.18Z" transform="translate(-90.418 -144.341)" fill="#dda39b"/>
            </g>
          </g>
          <g id="Group_84205" data-name="Group 84205" transform="translate(39.336 45.475)">
            <rect id="Rectangle_32475" data-name="Rectangle 32475" width="0.481" height="11.917" transform="translate(8.115 1.118)" fill="#292d3a"/>
            <path id="Path_147482" data-name="Path 147482" d="M146.257,139.054H132.374l.312-2.52a.951.951,0,0,1,.927-.738h11.405a.953.953,0,0,1,.928.738Z" transform="translate(-130.961 -127.562)" fill="#ffac48"/>
            <path id="Path_147483" data-name="Path 147483" d="M144.965,136.983H133.2a.35.35,0,0,1-.336-.42c.707-3.009,3.106-4.463,6.208-4.463,3.154,0,5.531,1.45,6.235,4.463A.349.349,0,0,1,144.965,136.983Z" transform="translate(-130.725 -129.39)" fill="#ffac48"/>
            <rect id="Rectangle_32476" data-name="Rectangle 32476" width="0.7" height="0.833" transform="translate(8.005 0.539)" fill="#ff8939"/>
            <path id="Path_147484" data-name="Path 147484" d="M138.916,130.607c0,.178-.638.321-1.426.321s-1.425-.144-1.425-.321.638-.32,1.425-.32S138.916,130.43,138.916,130.607Z" transform="translate(-129.134 -130.287)" fill="#ffac48"/>
            <path id="Path_147485" data-name="Path 147485" d="M133.18,135.575a6.649,6.649,0,0,0-.321.988.349.349,0,0,0,.336.42h11.77a.349.349,0,0,0,.336-.42c-.7-3.013-3.081-4.463-6.235-4.463,1.738.208,3.864,4.26-2.063,4.389C135.372,136.525,133.729,136.187,133.18,135.575Z" transform="translate(-130.725 -129.39)" fill="#ff8939"/>
            <path id="Path_147486" data-name="Path 147486" d="M145.946,136.533a.953.953,0,0,0-.928-.738H133.613a.95.95,0,0,0-.927.738l-.046.372c1.661-.667,7.474-1.546,8.685,1.682h-8.892l-.058.466h13.883Z" transform="translate(-130.961 -127.562)" fill="#ff8939"/>
            <rect id="Rectangle_32477" data-name="Rectangle 32477" width="16.711" height="2.45" transform="translate(0 11.491)" fill="#292d3a"/>
            <path id="Path_147487" data-name="Path 147487" d="M133.785,134.883c-.345-1.037,2.01-2.716,3.7-2.445s.707,1.9-.652,2.553C135.758,135.5,134.057,135.7,133.785,134.883Z" transform="translate(-130.279 -129.237)" fill="#ffd180"/>
            <path id="Path_147488" data-name="Path 147488" d="M132.866,137.254c0-.741,2.445-.967,3.206-.815s1.357,1.423-.381,1.526S132.866,137.66,132.866,137.254Z" transform="translate(-130.717 -127.266)" fill="#ffd180"/>
            <path id="Path_147489" data-name="Path 147489" d="M137.777,130.541c0,.082-.353.149-.788.149s-.788-.067-.788-.149.353-.148.788-.148S137.777,130.459,137.777,130.541Z" transform="translate(-129.067 -130.235)" fill="#ffd180"/>
            <rect id="Rectangle_32478" data-name="Rectangle 32478" width="8.884" height="2.45" transform="translate(1.414 11.491)" fill="#3f4654"/>
          </g>
        </g>
      </g>
      <g id="Group_84222" data-name="Group 84222" transform="translate(245.61 81.7)">
        <g id="Group_84212" data-name="Group 84212" transform="translate(0 53.199)">
          <g id="Group_84208" data-name="Group 84208" transform="translate(6.217 203.135)">
            <path id="Path_147490" data-name="Path 147490" d="M200.887,250.682a3.177,3.177,0,1,1-3.178-3.178A3.177,3.177,0,0,1,200.887,250.682Z" transform="translate(-194.533 -247.504)" fill="#323749"/>
            <path id="Path_147491" data-name="Path 147491" d="M222.055,250.682a3.178,3.178,0,1,1-3.178-3.178A3.177,3.177,0,0,1,222.055,250.682Z" transform="translate(-184.061 -247.504)" fill="#323749"/>
          </g>
          <path id="Path_147492" data-name="Path 147492" d="M226.806,217.567h-2.242V169.758a2.453,2.453,0,0,0-2.451-2.45H202.1a2.454,2.454,0,0,0-2.451,2.45v47.809h-2.242V169.758a4.7,4.7,0,0,1,4.694-4.692h20.01a4.7,4.7,0,0,1,4.694,4.692Z" transform="translate(-186.894 -85.157)" fill="#6ea7da"/>
          <path id="Path_147493" data-name="Path 147493" d="M213.36,161.965a12.264,12.264,0,0,0-5.179,8.176c-.244,1.755,4.371.362,4.931-.511,1.218-1.889,1.447-7.2,1.235-7.4A1.716,1.716,0,0,0,213.36,161.965Z" transform="translate(-181.568 -86.691)" fill="#ed9558"/>
          <g id="Group_84209" data-name="Group 84209" transform="translate(12.009 79.909)">
            <path id="Path_147494" data-name="Path 147494" d="M198.408,169.016v47.809h.747V169.016a2.454,2.454,0,0,1,2.451-2.45h-.747A2.454,2.454,0,0,0,198.408,169.016Z" transform="translate(-198.408 -164.324)" fill="#5288be"/>
            <path id="Path_147495" data-name="Path 147495" d="M214.182,165.066h-.747a4.7,4.7,0,0,1,4.694,4.692v47.809h.747V169.758A4.7,4.7,0,0,0,214.182,165.066Z" transform="translate(-190.973 -165.066)" fill="#5288be"/>
          </g>
          <rect id="Rectangle_32479" data-name="Rectangle 32479" width="50.426" height="73.189" rx="4.565" transform="translate(0 133.683)" fill="#bf1f2d"/>
          <rect id="Rectangle_32480" data-name="Rectangle 32480" width="34.482" height="1.273" transform="translate(7.972 132.41)" fill="#323749"/>
          <rect id="Rectangle_32481" data-name="Rectangle 32481" width="3.239" height="4.29" transform="translate(9.943 129.393)" fill="#323749"/>
          <rect id="Rectangle_32482" data-name="Rectangle 32482" width="3.239" height="4.29" transform="translate(37.098 129.393)" fill="#323749"/>
          <path id="Path_147496" data-name="Path 147496" d="M220.871,168a161.441,161.441,0,0,1-20.429,0v-3.115a175.086,175.086,0,0,1,20.429,0Z" transform="translate(-185.393 -85.394)" fill="#323749"/>
          <path id="Path_147497" data-name="Path 147497" d="M201.179,201.178s.374-2.987,9.155-2.987c8.129,0,8.969,2.987,8.969,2.987h-3.269s-.747-1.492-5.605-1.492-5.605,1.492-5.605,1.492Z" transform="translate(-185.028 -68.768)" fill="#3d4359"/>
          <path id="Path_147498" data-name="Path 147498" d="M231.473,260.017H198.41a6.74,6.74,0,0,1-6.731-6.732V230.232a6.74,6.74,0,0,1,6.731-6.732h33.063a6.74,6.74,0,0,1,6.732,6.732v23.052A6.74,6.74,0,0,1,231.473,260.017ZM198.41,224.7a5.542,5.542,0,0,0-5.537,5.535v23.052a5.542,5.542,0,0,0,5.537,5.535h33.063a5.541,5.541,0,0,0,5.535-5.535V230.232a5.541,5.541,0,0,0-5.535-5.535Z" transform="translate(-189.728 -56.246)" fill="#323749"/>
          <path id="Path_147499" data-name="Path 147499" d="M231.473,231.626H198.41a6.74,6.74,0,0,1-6.731-6.732V209.065a6.739,6.739,0,0,1,6.731-6.732h33.063a6.739,6.739,0,0,1,6.732,6.732v15.828A6.74,6.74,0,0,1,231.473,231.626Zm-33.063-28.1a5.542,5.542,0,0,0-5.537,5.535v15.828a5.542,5.542,0,0,0,5.537,5.535h33.063a5.541,5.541,0,0,0,5.535-5.535V209.065a5.541,5.541,0,0,0-5.535-5.535Z" transform="translate(-189.728 -66.719)" fill="#323749"/>
          <g id="Group_84210" data-name="Group 84210" transform="translate(1.384 143.391)">
            <path id="Path_147500" data-name="Path 147500" d="M193.124,208.691H191.8l-.5,4.3h2.326Zm-1.427,3.97.039-.442h1.456l.037.442Z" transform="translate(-191.3 -206.963)" fill="#6ea7da"/>
            <circle id="Ellipse_4108" data-name="Ellipse 4108" cx="1.144" cy="1.144" r="1.144" transform="translate(0.018)" fill="#323749"/>
          </g>
          <g id="Group_84211" data-name="Group 84211" transform="translate(1.384 172.227)">
            <path id="Path_147501" data-name="Path 147501" d="M193.124,227.983H191.8l-.5,4.3h2.326Zm-1.427,3.969.039-.441h1.456l.037.441Z" transform="translate(-191.3 -226.255)" fill="#6ea7da"/>
            <circle id="Ellipse_4109" data-name="Ellipse 4109" cx="1.144" cy="1.144" r="1.144" transform="translate(0.018)" fill="#323749"/>
          </g>
          <rect id="Rectangle_32483" data-name="Rectangle 32483" width="26.174" height="16.223" rx="2.369" transform="translate(5.069 138.394)" fill="#d0333b"/>
          <path id="Rectangle_32484" data-name="Rectangle 32484" d="M3.024,0H30.375A3.023,3.023,0,0,1,33.4,3.023V17.677A3.023,3.023,0,0,1,30.375,20.7H3.023A3.023,3.023,0,0,1,0,17.677V3.024A3.024,3.024,0,0,1,3.024,0Z" transform="translate(5.069 169.984)" fill="#d0333b"/>
          <path id="Path_147502" data-name="Path 147502" d="M213.834,161.986a32.2,32.2,0,0,0-4.09,2.556c-.709.722-1.356,2.531-1.949,3.478s-.788,1.3-.312,1.3a2.984,2.984,0,0,0,2.306-1.731c.232-.4.632-1.291,1.123-1.523a3.532,3.532,0,0,0,3.689-2.148C215.591,161.378,213.834,161.986,213.834,161.986Z" transform="translate(-182.041 -86.713)" fill="#ffb476"/>
          <path id="Path_147503" data-name="Path 147503" d="M211.013,166.809c-.075,1.061-.2,1.849.424,1.894s.685-.816.759-1.877-.2-1.773-.54-1.8S211.089,165.748,211.013,166.809Z" transform="translate(-180.194 -85.176)" fill="#ffb476"/>
          <path id="Path_147504" data-name="Path 147504" d="M210.117,167.157c-.082,1.158-.248,2.042.432,2.09s.747-.891.83-2.049-.158-2.093-.532-2.146C210.37,164.984,210.2,166,210.117,167.157Z" transform="translate(-180.645 -85.166)" fill="#ffb476"/>
          <path id="Path_147505" data-name="Path 147505" d="M209.15,167.376c-.088,1.235-.212,2.138.513,2.19s.743-.912.831-2.146-.115-2.268-.513-2.324C209.472,165.022,209.239,166.141,209.15,167.376Z" transform="translate(-181.118 -85.144)" fill="#ffb476"/>
          <path id="Path_147506" data-name="Path 147506" d="M208.219,167.428c-.209,1.1-.332,1.865.383,2s.7-.691.909-1.786.239-2.079-.149-2.179C208.863,165.337,208.428,166.334,208.219,167.428Z" transform="translate(-181.625 -84.965)" fill="#ffb476"/>
          <path id="Path_147507" data-name="Path 147507" d="M237.923,111.607c-2.445,1.155-11.339,32.423-14.6,41.951s-13,33.632-13,33.632l3.886,1.966s9.943-12.115,12.767-19.037a101.99,101.99,0,0,0,4.58-13.652c.7-2.587,9.465-19.912,14.42-27.221Z" transform="translate(-180.502 -111.607)" fill="#bf1f2d"/>
        </g>
        <g id="Group_84213" data-name="Group 84213" transform="translate(67.662 252.259)">
          <path id="Path_147508" data-name="Path 147508" d="M238.362,252.979s-2.72,1.154-2.722,1.709,3.45.623,5.64.407c1.006-.1.809-3.368,1.568-5.178s1.667-1.809-.643-4.984l-1.423,6.442Z" transform="translate(-235.64 -244.701)" fill="#2d313d"/>
          <path id="Path_147509" data-name="Path 147509" d="M239.465,244.778s-.538,2.471-.915,4.227a18.141,18.141,0,0,1-1.09,4.051,3.774,3.774,0,0,0,2.417.208c1.007-.4.859-2.818,2.375-5.534.544-.975-1.051-2.873-1.051-2.873Z" transform="translate(-234.739 -244.778)" fill="#ed9558"/>
          <path id="Path_147510" data-name="Path 147510" d="M241.3,244.933a10.228,10.228,0,0,1,.018,2.416c-.157,1.121-.592,6.945-3.861,5.631,0,0,1.152,2.17,2.414,1.466s1.417-3.419,1.922-4.83S243.664,247.957,241.3,244.933Z" transform="translate(-234.739 -244.701)" fill="#2d313d"/>
          <path id="Path_147511" data-name="Path 147511" d="M241.4,247.186a37.863,37.863,0,0,0-.465,6.8h-.453a26.186,26.186,0,0,0-.369-4.532Z" transform="translate(-233.429 -243.587)" fill="#2d313d"/>
        </g>
        <g id="Group_84214" data-name="Group 84214" transform="translate(79.247 252.277)">
          <path id="Path_147512" data-name="Path 147512" d="M246.112,252.992s-2.72,1.152-2.722,1.707,3.45.623,5.64.407c1.006-.1.809-3.368,1.568-5.178s1.667-1.807-.643-4.984l-1.423,6.442Z" transform="translate(-243.39 -244.714)" fill="#2d313d"/>
          <path id="Path_147513" data-name="Path 147513" d="M247.215,244.79s-.538,2.471-.915,4.227a18.186,18.186,0,0,1-1.09,4.051,3.785,3.785,0,0,0,2.417.208c1.007-.4.859-2.819,2.375-5.535.544-.975-1.051-2.873-1.051-2.873Z" transform="translate(-242.489 -244.79)" fill="#ffb476"/>
          <path id="Path_147514" data-name="Path 147514" d="M249.054,244.944a10.242,10.242,0,0,1,.018,2.417c-.157,1.12-.592,6.945-3.861,5.631,0,0,1.152,2.17,2.414,1.466s1.417-3.42,1.922-4.83S251.414,247.969,249.054,244.944Z" transform="translate(-242.489 -244.714)" fill="#2d313d"/>
          <path id="Path_147515" data-name="Path 147515" d="M249.146,247.2a37.889,37.889,0,0,0-.465,6.8h-.453a26.188,26.188,0,0,0-.369-4.532Z" transform="translate(-241.179 -243.599)" fill="#2d313d"/>
        </g>
        <path id="Path_147516" data-name="Path 147516" d="M250.819,178.421l-6.613-3.2-.507-23.169-15.809-4.595a41.639,41.639,0,0,0-3.677,11.815c-1.919,14.419,9.611,53.124,12.655,72.341,3.185,20.106,7.311,45.955,8.111,61.522h4.435c1.785-10.221,5.478-31.022,3.647-41.466-1.752-10-5.085-17.734-5.356-23.045C247.44,223.406,250.819,178.421,250.819,178.421Z" transform="translate(-173.737 -40.672)" fill="#323749"/>
        <path id="Path_147517" data-name="Path 147517" d="M266.808,120.368c5.078-7.238,5.713-42.81-9.185-41.32-3.287-7.667-32.671.308-30.561,11.647.873,4.691,6.292,5.673,6.292,5.673-1.3,8.842-7.646,19.445-2.3,25.433C238.291,129.923,259.158,131.267,266.808,120.368Z" transform="translate(-172.276 -76.017)" fill="#aa4017"/>
        <path id="Path_147518" data-name="Path 147518" d="M255.189,225.476c.175-4.528,14.815-41.088,11.241-65.341-.626-4.253-3.564-9.677-6.843-14.689l-25.3.111.278,6.309,3.19.927.964,23.2,3.182,2.055c1.88,22.009-.009,23.978,2.022,46.894,2.439,20.1,6.265,54.741,7.456,69.187H255.3c2.741-12.91,6.124-34.99,4.708-45.918C258.692,238.039,255.014,230,255.189,225.476Z" transform="translate(-168.648 -41.665)" fill="#3d4359"/>
        <path id="Path_147519" data-name="Path 147519" d="M267.361,119.308c7.61-8.783,3.537-25.414.067-34.91l-.007-.021c.072.332,1.729,8.1-2.253,9.268-4.069,1.193-6.876-.154-9.218-4.765-2.99-5.885-5.862-6.233-5.862-6.233s-18.3,7.511-18.677,7.885a9.936,9.936,0,0,0-.417,1.2c1.129.395,2.109.456,1.976,1.353-1.3,8.842-9.531,14.756-2.3,25.433C236.763,127.534,255.634,132.839,267.361,119.308Z" transform="translate(-171.892 -72.737)" fill="#9d330a"/>
        <path id="Path_147520" data-name="Path 147520" d="M270.578,153.89H224.663a12.617,12.617,0,0,0-.617,2.7c2.945.862,10.552,2.628,22.973,2.411,9.647-.17,18.67-1.037,24.466-1.72A14.739,14.739,0,0,0,270.578,153.89Z" transform="translate(-173.714 -37.488)" fill="#313547"/>
        <path id="Path_147521" data-name="Path 147521" d="M237.991,150.451c-5.909,9.3-11.62,16.2-13.532,25.6,13.093,2.712,28.607,2.5,46.013,0-3.161-8.752-10.445-18.909-15.825-25.149l-.117-.138-.16-.184-.114-.129c-2.81-5.087,6.773-10.689,10.208-20.567,3.5-10.067,1.97-15.318,1.97-15.318-12.691-5.689-20.13-7.87-34.57-1.963l-.439,9.839s-2.9,6.728-2.462,9.792S242.093,145.036,237.991,150.451Z" transform="translate(-173.51 -59.648)" fill="#f7eee2"/>
        <path id="Path_147522" data-name="Path 147522" d="M250.534,96.143s-3.445,12.942-.492,21.909l-9.108,1.571-5.635.043a40.243,40.243,0,0,0,1.777-13.993C236.74,100.158,250.534,96.143,250.534,96.143Z" transform="translate(-168.147 -66.059)" fill="#e08344"/>
        <path id="Path_147523" data-name="Path 147523" d="M246.114,149.1c-1.043-3.224,2.407-6.726,5.836-11.42,3.649-5.531,7.308-12.5,5.324-22.547l-9.855-4.785s-6.83,15.1-7.093,25.087c-.13,4.946,1.4,19.716,2.685,41.834,5.916-.224,12.124-.8,18.6-1.7C257.883,163.91,246.237,155.327,246.114,149.1Z" transform="translate(-165.663 -59.032)" fill="#e2adac"/>
        <path id="Path_147524" data-name="Path 147524" d="M231.883,112.445l.59,9.641s-3.43,6.281-2.692,9.792c.689,3.277,4.061,6.217,6.3,9.629,2.169,3.078,3.55,6.239,1.771,8.587-1.027,1.617-2.039,3.145-3.036,4.641-3.605,6.254-8.988,14.752-10.09,21.03a95.985,95.985,0,0,0,13.729,1.674c.108-12.78,1.575-27.031,1.828-30.321.263-3.416.265-13.135.265-16.812s-.265-20.489-.265-20.489Z" transform="translate(-173.375 -59.292)" fill="#e2adac"/>
        <path id="Path_147525" data-name="Path 147525" d="M232.535,110.9c.209,1.851,1.456,6.671,8.753,6.67a23.174,23.174,0,0,0,15.58-5.38C248.571,108.913,242.04,107.888,232.535,110.9Z" transform="translate(-169.514 -59.644)" fill="#e08344"/>
        <path id="Path_147526" data-name="Path 147526" d="M250.128,96.143s-13.794,4.015-13.457,9.531a38.34,38.34,0,0,1-.553,8.867c2.054,2.155,6.141,5.395,13.308,7.532a24.392,24.392,0,0,0,5.67-3.465,53.905,53.905,0,0,0-5.854-1.975C247.039,107.783,250.128,96.143,250.128,96.143Z" transform="translate(-167.741 -66.059)" fill="#d1652f"/>
        <path id="Path_147527" data-name="Path 147527" d="M237.967,117.518c-1.3-.26-3.087-2.819-4.269-4.172-2.505-2.868-4.758-6.293-2.483-13.175,0,0-3.924-18.52,11.054-18.854s16.166,14.589,11.979,25.386A16.739,16.739,0,0,1,237.967,117.518Z" transform="translate(-170.633 -73.397)" fill="#ffb476"/>
        <path id="Path_147528" data-name="Path 147528" d="M243.527,81.53c10.272,2.71,9.157,34.571-8.209,35.819.051.016.1.051.154.061A16.739,16.739,0,0,0,251.753,106.6C255.554,96.793,254.885,83.627,243.527,81.53Z" transform="translate(-168.137 -73.289)" fill="#ed9558"/>
        <g id="Group_84215" data-name="Group 84215" transform="translate(81.743 28.002)">
          <path id="Path_147529" data-name="Path 147529" d="M251.393,98.055a3.168,3.168,0,1,1-3.03-3.3A3.169,3.169,0,0,1,251.393,98.055Z" transform="translate(-245.06 -94.75)" fill="#ed9558"/>
          <path id="Path_147530" data-name="Path 147530" d="M247.649,95.5a2.011,2.011,0,0,0-1.218.38,1.7,1.7,0,0,1,.546-.085,1.759,1.759,0,1,1-.151,3.516,1.623,1.623,0,0,1-.417-.1,2,2,0,0,0,1.064.4,2.054,2.054,0,1,0,.176-4.1Z" transform="translate(-244.393 -94.381)" fill="#e08344"/>
        </g>
        <path id="Path_147531" data-name="Path 147531" d="M235.28,89.863s2.722,2.846,1.979,6.405a5.47,5.47,0,0,1-3.836,4.271s.617,2.611,2.969,2.729-1.731-2.492-1.731-2.492,3.275-1.8,3.712-4.389C238.992,92.712,235.28,89.863,235.28,89.863Z" transform="translate(-169.074 -69.166)" fill="#e08344"/>
        <path id="Path_147532" data-name="Path 147532" d="M242.687,83.293a18.034,18.034,0,0,1,3.28,4.5c2.677,5.191.444,14.012,1.722,14.332.659.166,2.309-.99,2.309-.99s6.269-17.487-4.29-19.8Z" transform="translate(-164.491 -73.384)" fill="#aa4017"/>
        <path id="Path_147533" data-name="Path 147533" d="M239.285,89.69c-.067.342,1.268.345,3.729.993,2.248.59,3.886,1.454,3.976,1.117s-1.076-1.547-3.7-2.271C240.745,88.829,239.413,89.027,239.285,89.69Z" transform="translate(-166.176 -69.549)" fill="#9d330a"/>
        <path id="Path_147534" data-name="Path 147534" d="M230.5,91.182c-.093.468.64-.108,2.691-.7,1.9-.553,3.188-.646,3.169-.936-.016-.248-.436-.484-1.215-.481C231.607,89.353,230.57,90.833,230.5,91.182Z" transform="translate(-170.525 -69.562)" fill="#9d330a"/>
        <g id="Group_84216" data-name="Group 84216" transform="translate(63.224 35.453)">
          <path id="Path_147535" data-name="Path 147535" d="M239.2,100.58c.04.115.4.093.516.052a.221.221,0,1,0-.147-.417C239.452,100.256,239.158,100.465,239.2,100.58Z" transform="translate(-229.443 -99.504)" fill="#93271c"/>
          <path id="Path_147536" data-name="Path 147536" d="M233.252,100.252c-.076.094-.407-.049-.5-.127a.22.22,0,1,1,.28-.341C233.125,99.862,233.33,100.158,233.252,100.252Z" transform="translate(-232.671 -99.735)" fill="#93271c"/>
          <path id="Path_147537" data-name="Path 147537" d="M242.58,100.581,232.915,100a5.972,5.972,0,0,0,4.5,3.238C240.5,103.484,242.58,100.581,242.58,100.581Z" transform="translate(-232.55 -99.605)" fill="#9a6335"/>
          <path id="Path_147538" data-name="Path 147538" d="M242.58,100.581,232.915,100a5.972,5.972,0,0,0,4.5,3.238C240.5,103.484,242.58,100.581,242.58,100.581Z" transform="translate(-232.55 -99.605)" fill="#93271c"/>
          <path id="Path_147539" data-name="Path 147539" d="M241.487,100.7l-7.828-.483s1.372,2.6,3.973,2.553A4.827,4.827,0,0,0,241.487,100.7Z" transform="translate(-232.182 -99.499)" fill="#f7eee2"/>
          <path id="Path_147540" data-name="Path 147540" d="M241.487,100.7l-7.828-.483.408.614a7.534,7.534,0,0,1,3.438-.22,14.71,14.71,0,0,1,3.58.592S241.375,100.845,241.487,100.7Z" transform="translate(-232.182 -99.499)" fill="#d5b698"/>
        </g>
        <path id="Path_147541" data-name="Path 147541" d="M248.58,109.995s-6.567,15.761-7.354,24.429,5.517,47.807,3.414,103.758H256.2s9.587-34.046,7.356-58.578c-1.314-14.447-16.794-24.676-16.549-31.783.262-7.617,14.71-15.761,11.169-33.7Z" transform="translate(-165.248 -59.205)" fill="#d0333b"/>
        <path id="Path_147542" data-name="Path 147542" d="M239.6,109.819l-8.405,2.626.589,9.641s-3.43,6.281-2.692,9.792c1.052,5,8.353,9.2,8.353,15.5,0,4.2-13.081,20.49-13.605,29.946s.779,27.571,9.921,60.942h6.365s-2.365-46.233-2.365-59.366,1.577-28.368,1.84-31.783.263-13.135.263-16.812S239.6,109.819,239.6,109.819Z" transform="translate(-173.866 -59.292)" fill="#d0333b"/>
        <path id="Path_147543" data-name="Path 147543" d="M236.4,109.621l-3.81.854c.254,1.459,1.1,4.549,3.906,5.894C236.445,112.763,236.4,109.621,236.4,109.621Z" transform="translate(-169.486 -59.39)" fill="#d1652f"/>
        <path id="Path_147544" data-name="Path 147544" d="M243.563,115.856a21.876,21.876,0,0,0,6.662-3.368l-4.411-2.142S244.813,112.566,243.563,115.856Z" transform="translate(-164.058 -59.032)" fill="#d1652f"/>
        <path id="Path_147545" data-name="Path 147545" d="M251.193,123.175s-8.142,12.084-7.88,18.124,11.031,19.964,13.135,32.836c1.982,12.144-1.646,42.049-5.813,57.526h4.5s9.587-34.046,7.356-58.578c-1.314-14.447-16.794-24.676-16.549-31.783.15-4.357,4.937-8.889,8.348-15.324C252.391,124.256,251.193,123.175,251.193,123.175Z" transform="translate(-164.184 -52.684)" fill="#bf1f2d"/>
        <path id="Path_147546" data-name="Path 147546" d="M248.557,109.995s-7.354,15.892-7.354,24.429c0,0,9.324-12.018,9.456-13.069s-3.022-3.48-2.628-4.268,6.7-4.335,6.568-4.993S248.557,109.995,248.557,109.995Z" transform="translate(-165.225 -59.205)" fill="#ff7878"/>
        <path id="Path_147547" data-name="Path 147547" d="M231.36,121.113c-.263-1.444,3.152-2.756,3.152-3.807s-4.07-4.859-3.94-5.91,5.777-1.84,5.777-1.84.395,12.608.133,24.954C236.482,134.509,231.623,122.556,231.36,121.113Z" transform="translate(-170.487 -59.423)" fill="#ff7878"/>
        <g id="Group_84219" data-name="Group 84219" transform="translate(60.206 23.151)">
          <g id="Group_84217" data-name="Group 84217" transform="translate(12.462 0.481)">
            <path id="Path_147548" data-name="Path 147548" d="M239.186,94.111s.259,1.629,3.254,1.411c2.58-.188,3.384-1.6,2.626-1.384A50.862,50.862,0,0,1,239.186,94.111Z" transform="translate(-238.891 -90.696)" fill="#6d3a31"/>
            <path id="Path_147549" data-name="Path 147549" d="M238.989,94.354l6.29-.689,1.442-.145C245.671,91.66,239.421,90.588,238.989,94.354Z" transform="translate(-238.989 -91.826)" fill="#6d3a31"/>
            <path id="Path_147550" data-name="Path 147550" d="M239.185,94.184c.158-.942.7-2.042,2.99-1.952,3.191.127,3.546,2.1,2.984,2.97C244.166,96.744,238.7,97.09,239.185,94.184Z" transform="translate(-238.907 -91.628)" fill="#f7eee2"/>
            <path id="Path_147551" data-name="Path 147551" d="M243.29,94.294a2.151,2.151,0,1,1-2.112-2.19A2.149,2.149,0,0,1,243.29,94.294Z" transform="translate(-238.989 -91.689)" fill="#6d3a31"/>
          </g>
          <g id="Group_84218" data-name="Group 84218">
            <path id="Path_147552" data-name="Path 147552" d="M236.284,93.9s.013,1.707-2.961,1.284c-1.8-.259-2.354-1.665-1.605-1.419A30.362,30.362,0,0,0,236.284,93.9Z" transform="translate(-230.286 -90.4)" fill="#6d3a31"/>
            <path id="Path_147553" data-name="Path 147553" d="M236.746,94.07l-4.987-.836-1.108-.227C231.769,91.185,236.344,90.474,236.746,94.07Z" transform="translate(-230.652 -91.505)" fill="#6d3a31"/>
            <path id="Path_147554" data-name="Path 147554" d="M236.411,93.935c-.154-.943-.88-2.007-3.167-2a1.892,1.892,0,0,0-1.794,2.821C232.355,96.543,236.861,96.692,236.411,93.935Z" transform="translate(-230.365 -91.291)" fill="#f7eee2"/>
            <path id="Path_147555" data-name="Path 147555" d="M231.158,93.828a2.11,2.11,0,1,0,2.146-2.072A2.109,2.109,0,0,0,231.158,93.828Z" transform="translate(-230.402 -91.38)" fill="#6d3a31"/>
          </g>
        </g>
        <path id="Path_147556" data-name="Path 147556" d="M233.763,158.229l-10.314-1.314s-2.1,4.2,2.17,4.991C233.524,163.362,233.763,158.229,233.763,158.229Z" transform="translate(-174.265 -35.991)" fill="#ff7878"/>
        <g id="Group_84220" data-name="Group 84220" transform="translate(84.646 120.398)">
          <path id="Path_147557" data-name="Path 147557" d="M247,158.4l13.659-1.84s2.366,3.94-5.516,5.517S247,158.4,247,158.4Z" transform="translate(-247.002 -156.563)" fill="#ff7878"/>
          <path id="Path_147558" data-name="Path 147558" d="M252.114,157.615a42.486,42.486,0,0,1,.445,4.477c.028-.006.052-.007.081-.012,3.867-.774,5.262-2.115,5.685-3.283q-.07-1.128-.169-2.235l-6.09.821C252.079,157.46,252.1,157.538,252.114,157.615Z" transform="translate(-244.496 -156.563)" fill="#ed6262"/>
        </g>
        <g id="Group_84221" data-name="Group 84221" transform="translate(84.516 54.918)">
          <g id="wrist_left" data-name="wrist left" transform="translate(12.754 73.722)">
            <path id="Path_147559" data-name="Path 147559" d="M258.009,165.075a11.792,11.792,0,0,0-1.2,2.646c-.314,1.191-.791,3.57-1.054,4.428s-.356,1.115-.277,1.235c.138.208.839.386,1.253-.915s.885-3.365.885-3.365Z" transform="translate(-255.448 -160.594)" fill="#ed9558"/>
            <path id="Path_147560" data-name="Path 147560" d="M260.727,165.782a41.859,41.859,0,0,1,.909,7.9c-.021,3.706-.308,4.158-.673,4.106s-.375-.824-.294-1.979a10.982,10.982,0,0,0-.291-1.931,12.252,12.252,0,0,0-.164,2.369c.006.366-.063,2.9-.64,2.868-.553-.03-.493-1.836-.457-2.819a11.9,11.9,0,0,0-.308-2.436,11.778,11.778,0,0,0-.188,2.558c-.013.366-.04,3.066-.577,3.052s-.689-.656-.6-2.957a14.861,14.861,0,0,0,0-2.753c-.48-.042-.152,4.714-.991,4.683-.424-.015-.433-1.088-.381-2.484.052-1.426.049-1.88.163-2.88a71.8,71.8,0,0,1,1.309-7.568A2.387,2.387,0,0,1,260.727,165.782Z" transform="translate(-255.151 -160.627)" fill="#ffb476"/>
            <path id="Path_147561" data-name="Path 147561" d="M257.217,166.96l-.509-4.882,3.88.426-.156,5.189Z" transform="translate(-254.824 -162.077)" fill="#ffb476"/>
          </g>
          <path id="Path_147562" data-name="Path 147562" d="M255.061,112.757s5.828,1.3,8.49,37.622c0,0,1.706,7.287,2.581,13.194,1.179,7.939.226,26.079.226,26.079l-5.484.489s-3.951-18.484-4.925-25.133c-.5-3.407-1.576-12.717-1.576-12.717a80.918,80.918,0,0,0-7.459-23.138C247.215,125.433,255.061,112.757,255.061,112.757Z" transform="translate(-246.915 -112.757)" fill="#d0333b"/>
          <path id="Path_147563" data-name="Path 147563" d="M262.856,162.858c-.876-5.907-2.581-13.194-2.581-13.194-1.762-24.043-4.7-31.876-6.737-35.462,1.647,5.495,3.5,14.788,5.016,35.462,0,0,1.7,7.287,2.581,13.194,1.178,7.937-.514,26.345-.514,26.345l2.46-.266S264.036,170.8,262.856,162.858Z" transform="translate(-243.638 -112.042)" fill="#bf1f2d"/>
        </g>
        <path id="Path_147564" data-name="Path 147564" d="M248.416,85.107s-.508,1.3-6.1,1.593-9.592-1.556-11.1,4c0,0-2.067-12.154,11.976-13.031C261.263,79.849,248.416,85.107,248.416,85.107Z" transform="translate(-170.22 -75.198)" fill="#aa4017"/>
        <path id="Path_147565" data-name="Path 147565" d="M229.156,91.024a8.469,8.469,0,0,0,2.735,1.888s-.489-8.937,7.078-8.423c6.115.416,11.351,1.377,10.954-1.843a7.249,7.249,0,0,1-4.274.909c-4.534-.073-10.235-1.007-13.945.674C228.552,85.656,226.787,88.4,229.156,91.024Z" transform="translate(-171.727 -72.737)" fill="#9d330a"/>
        <path id="Path_147566" data-name="Path 147566" d="M245.967,87.145c2.677,5.191.444,14.012,1.722,14.332.659.166,2.309-.99,2.309-.99a37.158,37.158,0,0,0,1.7-7.583,10.956,10.956,0,0,1-3.144-4.025c-2.99-5.885-5.862-6.233-5.862-6.233A18.034,18.034,0,0,1,245.967,87.145Z" transform="translate(-164.491 -72.737)" fill="#9d330a"/>
        <path id="Path_147567" data-name="Path 147567" d="M230.879,89.5a7.029,7.029,0,0,1,4.2-4.048c3.54-1.33,9.339-.8,10.709-1.025l-5.208-.865a15.414,15.414,0,0,0-6.366,1.58C232.646,85.968,230.54,87.771,230.879,89.5Z" transform="translate(-170.351 -72.282)" fill="#9d330a"/>
        <path id="Path_147568" data-name="Path 147568" d="M248.1,98.75a.7.7,0,1,1-.7-.7A.7.7,0,0,1,248.1,98.75Z" transform="translate(-162.512 -65.117)" fill="#f7eee2"/>
      </g>
    </g>
    <g id="Group_84228" data-name="Group 84228" transform="translate(21.903 3655.033)">
      <ellipse id="Ellipse_4110" data-name="Ellipse 4110" cx="18.019" cy="18.26" rx="18.019" ry="18.26" transform="translate(207.899 25.629)" fill="#4f3187"/>
      <circle id="Ellipse_4111" data-name="Ellipse 4111" cx="18.019" cy="18.019" r="18.019" transform="translate(202.347 32.188) rotate(-22.709)" fill="#3f4654"/>
      <circle id="Ellipse_4112" data-name="Ellipse 4112" cx="18.019" cy="18.019" r="18.019" transform="translate(203.072 32.98) rotate(-24.619)" fill="#292d3a"/>
      <circle id="Ellipse_4113" data-name="Ellipse 4113" cx="15.687" cy="15.687" r="15.687" transform="translate(208.971 54.837) rotate(-80.818)" fill="#f9e6ff"/>
      <g id="Group_84225" data-name="Group 84225" transform="translate(226.007 32.015)">
        <path id="Path_147569" data-name="Path 147569" d="M223.035,37.125a.953.953,0,1,1-.954-.952A.954.954,0,0,1,223.035,37.125Z" transform="translate(-221.129 -27.286)" fill="#292d3a"/>
        <g id="Group_84224" data-name="Group 84224" transform="translate(0.648)">
          <path id="Path_147570" data-name="Path 147570" d="M221.643,38.43l.708.742a15.721,15.721,0,0,1,1.624-1.549c3.11-2.829,8.532-8.27,8.315-8.5S226.3,34,223.267,36.88C221.7,38.369,221.643,38.43,221.643,38.43Z" transform="translate(-221.643 -29.118)" fill="#292d3a"/>
          <path id="Path_147571" data-name="Path 147571" d="M222.407,36.788l-.586.619a6.669,6.669,0,0,1,.96.908c1.742,1.76,5.138,4.749,5.317,4.56s-2.947-3.479-4.732-5.179C222.445,36.818,222.407,36.788,222.407,36.788Z" transform="translate(-221.597 -27.126)" fill="#292d3a"/>
        </g>
      </g>
      <path id="Path_147572" data-name="Path 147572" d="M236.433,28.527a15.671,15.671,0,0,1-26.08,16.489,15.679,15.679,0,1,0,26.08-16.489Z" transform="translate(2.079 2.743)" fill="#e6d1ed"/>
      <g id="Group_84226" data-name="Group 84226" transform="translate(212.97 27.858)" opacity="0.2" style="mix-blend-mode: screen;isolation: isolate">
        <path id="Path_147573" data-name="Path 147573" d="M210.78,39.7A13.995,13.995,0,0,0,228.962,26.46,13.995,13.995,0,0,0,210.78,39.7Z" transform="translate(-210.78 -25.819)" fill="#f9e6ff"/>
      </g>
      <g id="Group_84227" data-name="Group 84227" transform="translate(212.431 27.325)">
        <circle id="Ellipse_4114" data-name="Ellipse 4114" cx="0.525" cy="0.525" r="0.525" transform="translate(14.004)" fill="#292d3a"/>
        <path id="Path_147574" data-name="Path 147574" d="M222.518,48.154a.525.525,0,1,1-.525-.525A.526.526,0,0,1,222.518,48.154Z" transform="translate(-207.465 -19.621)" fill="#292d3a"/>
        <path id="Path_147575" data-name="Path 147575" d="M233.11,37.562a.525.525,0,1,1,.525-.525A.526.526,0,0,1,233.11,37.562Z" transform="translate(-204.577 -22.508)" fill="#292d3a"/>
        <path id="Path_147576" data-name="Path 147576" d="M210.877,37.562a.525.525,0,1,1,.524-.525A.525.525,0,0,1,210.877,37.562Z" transform="translate(-210.352 -22.508)" fill="#292d3a"/>
      </g>
    </g>
  </g>
</svg>
