<svg id="t2-ic2" xmlns="http://www.w3.org/2000/svg" width="100.499" height="100.499" viewBox="0 0 100.499 100.499">
  <path id="XMLID_1326_" d="M349.7,193.374H322.416A4.417,4.417,0,0,1,318,188.958V122.416A4.417,4.417,0,0,1,322.416,118H349.7a4.417,4.417,0,0,1,4.416,4.416v66.541A4.417,4.417,0,0,1,349.7,193.374Z" transform="translate(-255.581 -94.838)" fill="#ffd494"/>
  <circle id="XMLID_1325_" cx="4.711" cy="4.711" r="4.711" transform="translate(75.833 32.584)" fill="#fff"/>
  <path id="XMLID_1323_" d="M57.044,73.522a23.522,23.522,0,1,0-30.85,22.356v35.549l7.328,7.3,7.328-7.3V126.95l3.4-3.384-6.136-6.136,4.27-4.268-4.272-4.272L42.5,104.5l-4.39-4.39V96.595A23.529,23.529,0,0,0,57.044,73.522Z" transform="translate(-8.037 -40.186)" fill="#ffb74d"/>
  <circle id="XMLID_1324_" cx="4.711" cy="4.711" r="4.711" transform="translate(20.774 17.676)" fill="#fff"/>
  <path id="XMLID_1084_" d="M94.12,21.2H82.441V19.138A19.16,19.16,0,0,0,63.3,0H42.66A19.124,19.124,0,0,0,27.172,7.91c-.56-.037-1.122-.058-1.687-.058a25.488,25.488,0,0,0-9.291,49.221V91.241a1.963,1.963,0,0,0,.578,1.391l7.328,7.3a1.963,1.963,0,0,0,2.77,0l7.328-7.3a1.963,1.963,0,0,0,.578-1.391V87.58l2.819-2.808a1.963,1.963,0,0,0,0-2.779l-4.748-4.748,2.882-2.88a1.963,1.963,0,0,0,0-2.776l-2.884-2.884,3-3a1.963,1.963,0,0,0,0-2.776L32.035,59.11V57.968a25.534,25.534,0,0,0,17.142-15.23,1.963,1.963,0,0,0-3.649-1.449A21.465,21.465,0,0,1,29.692,54.483a1.963,1.963,0,0,0-1.582,1.926v3.514a1.963,1.963,0,0,0,.575,1.388l3,3-3,3a1.963,1.963,0,0,0,0,2.776l2.884,2.884-2.882,2.88a1.963,1.963,0,0,0,0,2.776l4.746,4.746-2,2a1.962,1.962,0,0,0-.577,1.391v3.66l-5.365,5.341-5.365-5.341V55.692a1.963,1.963,0,0,0-1.352-1.865,21.561,21.561,0,0,1,6.225-42.043,18.978,18.978,0,0,0-1.2,4.148,6.674,6.674,0,1,0,3.959.179,15.1,15.1,0,0,1,1.432-4.016A21.435,21.435,0,0,1,45.529,25.382a1.963,1.963,0,1,0,3.648-1.449A25.5,25.5,0,0,0,31.689,8.616a15.165,15.165,0,0,1,10.97-4.69H63.3A15.23,15.23,0,0,1,78.515,19.138V21.2H66.836a6.387,6.387,0,0,0-6.379,6.379V94.12a6.387,6.387,0,0,0,6.379,6.379H94.12A6.387,6.387,0,0,0,100.5,94.12V27.578A6.387,6.387,0,0,0,94.12,21.2ZM25.485,25.135A2.745,2.745,0,0,1,23.833,20.2a1.96,1.96,0,0,0,3.3,0,2.745,2.745,0,0,1-1.652,4.939ZM96.573,94.12a2.456,2.456,0,0,1-2.454,2.454H66.836a2.456,2.456,0,0,1-2.454-2.454V27.578a2.456,2.456,0,0,1,2.454-2.454H78.515v5.812a6.675,6.675,0,1,0,3.926-.04V25.125H94.12a2.456,2.456,0,0,1,2.454,2.454Zm-17.8-58.926a1.961,1.961,0,0,0,3.444-.072,2.747,2.747,0,1,1-3.444.072Z"/>
  <path id="XMLID_1155_" d="M425.964,265.667A1.963,1.963,0,0,0,424,267.63v32.322a1.963,1.963,0,0,0,3.926,0V267.63A1.963,1.963,0,0,0,425.964,265.667Z" transform="translate(-340.775 -213.52)"/>
  <path id="XMLID_1156_" d="M377.964,315.7A1.963,1.963,0,0,0,376,317.658V330.34a1.963,1.963,0,0,0,3.926,0V317.658A1.963,1.963,0,0,0,377.964,315.7Z" transform="translate(-302.197 -253.728)"/>
  <path id="XMLID_1158_" d="M241.542,159.833a1.963,1.963,0,0,0,0,3.926h.017a1.963,1.963,0,1,0-.017-3.926Z" transform="translate(-192.553 -128.46)"/>
</svg>
