<svg id="t2-ic5" xmlns="http://www.w3.org/2000/svg" width="74.949" height="100" viewBox="0 0 74.949 100">
  <path id="Path_151242" data-name="Path 151242" d="M142.084,104.572H73.2a1.566,1.566,0,0,1-1.566-1.566V9.068A1.566,1.566,0,0,1,73.2,7.5h51.935a3.131,3.131,0,0,1,2.214.917l15.388,15.387a3.131,3.131,0,0,1,.917,2.214v76.986A1.566,1.566,0,0,1,142.084,104.572Z" transform="translate(-70.165 -6.037)" fill="#fff"/>
  <ellipse id="Ellipse_4132" data-name="Ellipse 4132" cx="7.828" cy="7.828" rx="7.828" ry="7.828" transform="translate(29.647 71.92)" fill="#ff9800"/>
  <path id="Path_151243" data-name="Path 151243" d="M329.712,393.654h9.394a1.566,1.566,0,0,0,1.566-1.566v-6.263a1.566,1.566,0,0,0-1.566-1.566h-9.394a1.566,1.566,0,0,0-1.566,1.566v6.263A1.566,1.566,0,0,0,329.712,393.654Z" transform="translate(-276.581 -309.21)" fill="#ffd494"/>
  <g id="Group_96837" data-name="Group 96837" transform="translate(10.86 1.465)">
    <path id="Path_151244" data-name="Path 151244" d="M334.409,24.724a1.566,1.566,0,0,1-1.566-1.566V7.793a3.122,3.122,0,0,0-1.3-.291h-3.4V23.158a6.263,6.263,0,0,0,6.263,6.263h15.656v-3.4a3.119,3.119,0,0,0-.291-1.3H334.409Z" transform="translate(-287.44 -7.502)" fill="#ffd494"/>
    <rect id="Rectangle_32505" data-name="Rectangle 32505" width="53.232" height="28.181" transform="translate(0 34.443)" fill="#ffd494"/>
  </g>
  <path id="Path_151245" data-name="Path 151245" d="M137.614,23.485a1.465,1.465,0,0,0-1.465,1.465V96.969a.1.1,0,0,1-.1.1H67.16a.1.1,0,0,1-.1-.1V3.031a.1.1,0,0,1,.1-.1h51.767V17.122a3.034,3.034,0,0,0,3.031,3.031h15.656a1.465,1.465,0,0,0,1.036-2.5L121.428.429l-.037-.036h0l0,0,0,0h0l0,0h0A1.46,1.46,0,0,0,120.4,0H67.16a3.035,3.035,0,0,0-3.03,3.031V96.969A3.034,3.034,0,0,0,67.161,100h68.888a3.034,3.034,0,0,0,3.031-3.031V24.95A1.465,1.465,0,0,0,137.614,23.485ZM121.857,5l12.221,12.221h-12.12a.1.1,0,0,1-.1-.1Z" transform="translate(-64.13)"/>
  <path id="Path_151246" data-name="Path 151246" d="M123.173,55.344a1.465,1.465,0,1,0-2.93,0c0,2.34,1.972,4.246,4.7,4.755v.236a1.465,1.465,0,1,0,2.93,0V60.1c2.725-.509,4.7-2.415,4.7-4.755,0-3.27-2.612-4.643-4.7-5.434V44.8c1.085.354,1.767,1.07,1.767,1.734a1.465,1.465,0,0,0,2.93,0c0-2.34-1.972-4.246-4.7-4.755v-.236a1.465,1.465,0,1,0-2.93,0v.236c-2.725.509-4.7,2.415-4.7,4.755,0,3.269,2.612,4.643,4.7,5.434v5.107C123.855,56.723,123.173,56.008,123.173,55.344Zm6.464,0c0,.663-.682,1.379-1.767,1.734V53.106C129.338,53.824,129.637,54.452,129.637,55.344Zm-6.464-8.807c0-.663.682-1.379,1.767-1.734v3.972C123.471,48.057,123.173,47.43,123.173,46.537Z" transform="translate(-109.283 -32.254)"/>
  <path id="Path_151247" data-name="Path 151247" d="M168.388,177.821a1.465,1.465,0,0,0-1.465-1.465H113.692a1.465,1.465,0,0,0-1.465,1.465V206a1.465,1.465,0,0,0,1.465,1.465h53.232A1.465,1.465,0,0,0,168.389,206V177.821Zm-25.05,17.323V188.68h9.6v6.464Zm9.6,2.93v6.464h-9.6v-6.464Zm-37.777-9.394h25.252v6.464H115.157Zm28.182-2.93v-6.464h9.6v6.464Zm12.525,2.93h9.6v6.464h-9.6Zm9.6-2.93h-9.6v-6.464h9.6Zm-25.05-6.464v6.464H115.157v-6.464Zm-25.252,18.788h25.252v6.464H115.157Zm40.707,6.464v-6.464h9.6v6.464Z" transform="translate(-102.833 -141.912)"/>
  <path id="Path_151248" data-name="Path 151248" d="M208.42,370.021a9.293,9.293,0,1,0,9.293-9.293A9.3,9.3,0,0,0,208.42,370.021Zm15.657,0a6.363,6.363,0,1,1-6.363-6.363A6.371,6.371,0,0,1,224.077,370.021Z" transform="translate(-180.238 -290.274)"/>
  <path id="Path_151249" data-name="Path 151249" d="M240.484,395.823a3.031,3.031,0,1,0,3.031-3.031A3.034,3.034,0,0,0,240.484,395.823Z" transform="translate(-206.04 -316.075)"/>
  <path id="Path_151250" data-name="Path 151250" d="M126.216,384.776H113.691a1.465,1.465,0,0,0,0,2.93h12.525a1.465,1.465,0,0,0,0-2.93Z" transform="translate(-102.832 -309.625)"/>
  <path id="Path_151251" data-name="Path 151251" d="M139.117,416.841h-9.394a1.465,1.465,0,1,0,0,2.93h9.394a1.465,1.465,0,1,0,0-2.93Z" transform="translate(-115.733 -335.427)"/>
  <path id="Path_151252" data-name="Path 151252" d="M333.07,376.76h-9.394a3.034,3.034,0,0,0-3.03,3.031v6.262a3.034,3.034,0,0,0,3.03,3.03h9.394a3.034,3.034,0,0,0,3.031-3.03v-6.262A3.034,3.034,0,0,0,333.07,376.76Zm.1,9.293a.1.1,0,0,1-.1.1h-9.394a.1.1,0,0,1-.1-.1v-6.262a.1.1,0,0,1,.1-.1h9.394a.1.1,0,0,1,.1.1v6.262Z" transform="translate(-270.546 -303.174)"/>
  <path id="Path_151253" data-name="Path 151253" d="M277.146,59.045a1.465,1.465,0,0,0,0-2.93h-3.131a1.465,1.465,0,1,0,0,2.93Z" transform="translate(-231.844 -45.155)"/>
  <path id="Path_151254" data-name="Path 151254" d="M209.885,59.045h6.262a1.465,1.465,0,1,0,0-2.93h-6.262a1.465,1.465,0,1,0,0,2.93Z" transform="translate(-180.238 -45.155)"/>
  <path id="Path_151255" data-name="Path 151255" d="M209.885,91.11h20.353a1.465,1.465,0,1,0,0-2.93H209.885a1.465,1.465,0,1,0,0,2.93Z" transform="translate(-180.238 -70.957)"/>
  <path id="Path_151256" data-name="Path 151256" d="M301.194,120.244h-3.131a1.465,1.465,0,0,0,0,2.93h3.131a1.465,1.465,0,0,0,0-2.93Z" transform="translate(-251.194 -96.759)"/>
  <path id="Path_151257" data-name="Path 151257" d="M209.885,123.174h10.96a1.465,1.465,0,1,0,0-2.93h-10.96a1.465,1.465,0,1,0,0,2.93Z" transform="translate(-180.238 -96.759)"/>
</svg>
