<svg xmlns="http://www.w3.org/2000/svg" width="100" height="72.968" viewBox="0 0 100 72.968">
  <g id="t2-ic3" transform="translate(-1500 504.383)">
    <path id="Path_151136" data-name="Path 151136" d="M1902.973-372.016v29.133h.435v8.923h-.435v2.138a1.556,1.556,0,0,0,1.556,1.556h5.272a1.556,1.556,0,0,0,1.556-1.556v-40.193Z" transform="translate(-313.026 -102.822)" fill="#fd9600"/>
    <path id="Path_151137" data-name="Path 151137" d="M1902.973-372.016v38.056h5.467a2.917,2.917,0,0,0,2.917-2.917V-371.3a2.909,2.909,0,0,0-.093-.717Z" transform="translate(-313.026 -102.822)" fill="#fd9600" style="mix-blend-mode: multiply;isolation: isolate"/>
    <path id="Path_151138" data-name="Path 151138" d="M1526.3-352.467v-19.676h88.268v19.676Z" transform="translate(-20.43 -102.723)" fill="#fff"/>
    <path id="Path_151139" data-name="Path 151139" d="M1568.688-420.312h-23.607v-10.341a3.5,3.5,0,0,1,3.5-3.5h16.606a3.5,3.5,0,0,1,3.5,3.5v10.341Z" transform="translate(-35.018 -54.554)" fill="#fdb54e"/>
    <path id="Path_151140" data-name="Path 151140" d="M1617.893-434.152h-4.961a3.5,3.5,0,0,1,3.5,3.5v10.341h4.961v-10.341a3.5,3.5,0,0,0-3.5-3.5Z" transform="translate(-87.725 -54.555)" fill="#fdb54e" style="mix-blend-mode: multiply;isolation: isolate"/>
    <path id="Path_151141" data-name="Path 151141" d="M1628.615-372.143h64.661v19.676h-64.661Z" transform="translate(-99.907 -102.723)" fill="#dee4f0"/>
    <path id="Path_151142" data-name="Path 151142" d="M1614.568-283.993v8.168H1526.3v-8.168Z" transform="translate(-20.43 -171.197)" fill="#fd9600"/>
    <path id="Path_151143" data-name="Path 151143" d="M1515.353-428.818v-66.509a1.556,1.556,0,0,0-1.556-1.556h-4.721a1.556,1.556,0,0,0-1.556,1.556v66.509a1.556,1.556,0,0,0,1.556,1.556h4.721A1.556,1.556,0,0,0,1515.353-428.818Z" transform="translate(-5.842 -5.827)" fill="#fd9600"/>
    <path id="Path_151144" data-name="Path 151144" d="M1522.763-496.882h-4.41a1.556,1.556,0,0,1,1.556,1.556v66.509a1.556,1.556,0,0,1-1.556,1.556h4.41a1.556,1.556,0,0,0,1.556-1.556v-66.509a1.555,1.555,0,0,0-1.556-1.556Z" transform="translate(-14.256 -5.827)" fill="#fd9600" style="mix-blend-mode: multiply;isolation: isolate"/>
    <path id="Path_151145" data-name="Path 151145" d="M1628.615-283.993h64.661v8.168h-64.661Z" transform="translate(-99.907 -171.197)" fill="#fd9600" style="mix-blend-mode: multiply;isolation: isolate"/>
    <path id="Path_151146" data-name="Path 151146" d="M1712.586-396.689h-4.008v1.668h-2.917v-1.668h-54.819v37.338a2.917,2.917,0,0,0,2.917,2.917h51.9V-358.1h2.917v1.668h4.008a2.917,2.917,0,0,0,2.917-2.917v-34.421A2.917,2.917,0,0,0,1712.586-396.689Z" transform="translate(-117.173 -83.656)" fill="#fff4e4"/>
    <g id="Group_96803" data-name="Group 96803" transform="translate(1588.488 -480.345)">
      <path id="Path_151147" data-name="Path 151147" d="M1896.438-396.689h2.917v40.255h-2.917Z" transform="translate(-1896.438 396.689)" fill="#fdb54e"/>
    </g>
    <path id="Path_151148" data-name="Path 151148" d="M1913.516-396.689h-4.008v40.255h4.008a2.917,2.917,0,0,0,2.917-2.917v-34.421A2.917,2.917,0,0,0,1913.516-396.689Z" transform="translate(-318.103 -83.656)" fill="#fff4e4"/>
    <path id="Path_151149" data-name="Path 151149" d="M1595.409-482.019h-60.07v-3.188a5.18,5.18,0,0,0-5.174-5.175h-16.606a5.148,5.148,0,0,0-1.827.334v-11.106a3.233,3.233,0,0,0-3.23-3.23h-5.272a3.233,3.233,0,0,0-3.23,3.23v54.781a1.674,1.674,0,0,0,1.674,1.674,1.674,1.674,0,0,0,1.674-1.674v-54.663h5.036v66.272h-5.036v-3.8a1.674,1.674,0,0,0-1.674-1.674,1.674,1.674,0,0,0-1.674,1.674v3.915a3.233,3.233,0,0,0,3.23,3.23h5.272a3.233,3.233,0,0,0,3.23-3.23v-10.7h20.258v2.342a4.6,4.6,0,0,0,4.591,4.591h51.687v3.771a3.233,3.233,0,0,0,3.23,3.23h5.272a3.233,3.233,0,0,0,3.23-3.23v-42.783A4.6,4.6,0,0,0,1595.409-482.019Zm-63.418,24.99h-20.258v-16.163h20.258Zm-18.432-30h16.606a1.829,1.829,0,0,1,1.827,1.827v8.666h-20.259v-8.666A1.829,1.829,0,0,1,1513.558-487.033Zm-1.827,38.336v-4.82h20.258v4.82Zm23.607,5.69v-35.664h60.07a1.244,1.244,0,0,1,1.243,1.243v34.421a1.244,1.244,0,0,1-1.243,1.243h-58.827A1.244,1.244,0,0,1,1535.338-443.007Zm61.313,8.244h-5.035v-3.653h3.793c.141,0,.28-.009.418-.021l.106-.011c.125-.014.25-.033.372-.057l.035-.006c.105-.022.209-.047.312-.076v3.824Z" transform="translate(0 0)"/>
  </g>
</svg>
