<svg xmlns="http://www.w3.org/2000/svg" width="125" height="125" viewBox="0 0 125 125">
  <g id="t3-ic5" transform="translate(3704 7071)">
    <rect id="Rectangle_32640" data-name="Rectangle 32640" width="125" height="125" rx="16" transform="translate(-3704 -7071)" fill="#ffd494"/>
    <g id="notoriedad" transform="translate(-3788.477 -7202.859)">
      <g id="Group_97120" data-name="Group 97120" transform="translate(117.157 156.538)">
        <path id="Path_152277" data-name="Path 152277" d="M152.938,382.953l-7.441-4.8-13.222,0a9.282,9.282,0,0,0-9.3,9.249v17.5a1.554,1.554,0,0,0,1.554,1.554H132.8l1.68-2.375,1.68,2.375h9.309l7.337-2.375,7.312,2.375h9.268l1.68-2.375,1.68,2.375h7.8A1.554,1.554,0,0,0,182.1,404.9V387.478a9.3,9.3,0,0,0-9.249-9.321H160.12Z" transform="translate(-122.978 -329.813)" fill="#ffb74d"/>
        <path id="Path_152278" data-name="Path 152278" d="M223.4,392.124h14.648V417.3H223.4Z" transform="translate(-200.901 -340.655)" fill="#f9f6f9"/>
        <g id="Group_97118" data-name="Group 97118" transform="translate(45.597 48.344)">
          <path id="Path_152279" data-name="Path 152279" d="M331.28,378.172h-4.749a9.3,9.3,0,0,1,9.249,9.321v17.421a1.554,1.554,0,0,1-1.554,1.554h4.749a1.554,1.554,0,0,0,1.554-1.554V387.493A9.3,9.3,0,0,0,331.28,378.172Z" transform="translate(-326.531 -378.172)" fill="#ff9800"/>
        </g>
        <path id="Path_152280" data-name="Path 152280" d="M205.88,187.4H169.135V176.6a14.248,14.248,0,0,1,14.248-14.248h20.956a3.562,3.562,0,0,1,3.546,3.9Z" transform="translate(-158.796 -162.353)" fill="#245e7c"/>
        <path id="Path_152281" data-name="Path 152281" d="M311.959,162.354H307.21a3.562,3.562,0,0,1,3.546,3.9L308.751,187.4H313.5l2.005-21.151A3.562,3.562,0,0,0,311.959,162.354Z" transform="translate(-265.941 -162.354)" fill="#1a4c65"/>
        <path id="Path_152282" data-name="Path 152282" d="M170.927,261.036h-1.035a4.844,4.844,0,1,0,0,9.688h8.251Z" transform="translate(-155.624 -238.931)" fill="#ffbd86"/>
        <path id="Path_152283" data-name="Path 152283" d="M238.13,333.764V316.917H223.506v16.847a7.312,7.312,0,0,0,14.624,0Z" transform="translate(-200.987 -282.294)" fill="#f6a96c"/>
        <path id="Path_152284" data-name="Path 152284" d="M306.107,261.036h-.919l-4.48,9.688h5.515a4.844,4.844,0,0,0,4.841-5.021A4.92,4.92,0,0,0,306.107,261.036Z" transform="translate(-260.896 -238.931)" fill="#f6a96c"/>
        <path id="Path_152290" data-name="Path 152290" d="M205.787,234.017a14.59,14.59,0,0,1-14.495-14.683V209.168a14.59,14.59,0,0,1,14.495-14.683c8.005,0,14.02,6.574,14.02,14.683v10.165C219.807,227.443,213.792,234.017,205.787,234.017Z" transform="translate(-175.989 -187.287)" fill="#fed2a4"/>
        <path id="Path_152291" data-name="Path 152291" d="M247.925,194.486a14.409,14.409,0,0,0-2.331.19,14.631,14.631,0,0,1,12.164,14.493v10.165a14.631,14.631,0,0,1-12.164,14.493,14.409,14.409,0,0,0,2.331.19,14.59,14.59,0,0,0,14.495-14.683V209.169a14.59,14.59,0,0,0-14.495-14.683Z" transform="translate(-218.128 -187.288)" fill="#ffbd86"/>
      </g>
      <g id="Group_97121" data-name="Group 97121" transform="translate(115.477 154.859)">
        <path id="Path_152297" data-name="Path 152297" d="M137.971,231.5h-7.629v-8.653a1.68,1.68,0,0,0-3.36,0V231.5h-8.145v-5.851a1.68,1.68,0,1,0-3.36,0v5.978a3.238,3.238,0,0,0,3.234,3.234H175.2a3.238,3.238,0,0,0,3.234-3.234V214.206a10.982,10.982,0,0,0-10.929-11H155.979v-1.045a16.406,16.406,0,0,0,7.087-12.173,6.519,6.519,0,0,0,3.629-11.474l1.7-17.915a5.242,5.242,0,0,0-5.219-5.737H141.744a15.906,15.906,0,0,0-14.676,9.728,1.68,1.68,0,1,0,3.094,1.309,12.552,12.552,0,0,1,11.581-7.677h21.431a1.882,1.882,0,0,1,1.874,2.06l-1.589,16.759c-.131-.02-.263-.034-.4-.046a16.156,16.156,0,0,0-32.219,0,6.483,6.483,0,0,0-1.669.372v-4.639a1.68,1.68,0,0,0-3.36,0v7.436a6.519,6.519,0,0,0,5.026,9.824A16.4,16.4,0,0,0,138,202.2v1l-11.54,0h-.014a10.966,10.966,0,0,0-10.965,10.929v4.2a1.68,1.68,0,1,0,3.36,0v-4.2a7.6,7.6,0,0,1,7.607-7.571h.01l11.542,0Zm3.385-27.562a15.986,15.986,0,0,0,11.264-.026v4.1a5.632,5.632,0,0,1-11.264,0v-4.072Zm21.774-17.351V180.39a3.164,3.164,0,0,1,0,6.195Zm-34.869-3.1a3.169,3.169,0,0,1,2.519-3.1v6.195A3.169,3.169,0,0,1,128.261,183.488Zm5.879,5.1V178.42a12.816,12.816,0,1,1,25.63,0v10.165a12.816,12.816,0,1,1-25.63,0Zm7.191,26.406a8.967,8.967,0,0,0,11.288.02V231.5H141.331Zm14.648-8.428H167.5a7.5,7.5,0,0,1,5.353,2.247,7.6,7.6,0,0,1,2.218,5.394V231.5h-8.145v-8.653a1.68,1.68,0,0,0-3.36,0V231.5h-7.588Z" transform="translate(-115.477 -154.859)"/>
      </g>
    </g>
  </g>
</svg>
