<svg xmlns="http://www.w3.org/2000/svg" width="182.026" height="100" viewBox="0 0 182.026 100">
  <g id="t3-ic11" transform="translate(-180 -8812)">
    <rect id="Rectangle_32246" data-name="Rectangle 32246" width="145" height="100" transform="translate(180 8812)" fill="#fa9500" opacity="0.31"/>
    <g id="manager" transform="translate(220.231 8812)">
      <path id="Path_147263" data-name="Path 147263" d="M136.6,347.13H85.843a9.756,9.756,0,0,0-9.761,9.761v20.976h70.28V356.891A9.754,9.754,0,0,0,136.6,347.13Z" transform="translate(-6.03 -279.331)" fill="#ffb74d"/>
      <path id="Path_147264" data-name="Path 147264" d="M361.81,347.13h-5.857a9.754,9.754,0,0,1,9.761,9.761v20.976h5.857V356.891A9.755,9.755,0,0,0,361.81,347.13Z" transform="translate(-231.239 -279.331)" fill="#ff9800"/>
      <path id="Path_147265" data-name="Path 147265" d="M241.872,397.105l1.952,20.976h-7.809l1.952-20.976Z" transform="translate(-134.727 -319.546)" fill="#111e61"/>
      <path id="Path_147266" data-name="Path 147266" d="M231.642,359.077l-5.856,5.856h-3.9l-5.856-5.856,7.809-1.952Z" transform="translate(-118.641 -287.374)" fill="#111e61"/>
      <path id="Path_147267" data-name="Path 147267" d="M199.705,309.019a23.32,23.32,0,0,1-13.665-4.4v8.3l5.856,3.9,7.809-1.952,7.809,1.952,5.856-3.9v-8.3A23.318,23.318,0,0,1,199.705,309.019Z" transform="translate(-94.512 -245.125)" fill="#e6e9ed"/>
      <rect id="Rectangle_32446" data-name="Rectangle 32446" width="5.856" height="3.904" transform="translate(120.81 77.657)" fill="#ffce54"/>
      <path id="Path_147268" data-name="Path 147268" d="M323.55,417.6v9.761H305.981V417.6H323.55Z" transform="translate(-191.027 -336.035)" fill="#d2e1f1"/>
      <path id="Path_147269" data-name="Path 147269" d="M173.137,17.322s12.062.166,7.8,21.466l-4.26-8.519s-13.364,4.262-21.3,4.262-14.911-4.262-14.911-4.262l-6.386,8.513-.006.008C129.815,4.707,156.094,7.555,173.135,7.555,173.135,16.076,173.137,17.322,173.137,17.322Z" transform="translate(-52.327 -6.033)" fill="#965353"/>
      <path id="Path_147270" data-name="Path 147270" d="M311.826,17.357s0-1.246,0-9.766c-3.212,0-5.857-.05-5.857-.05,0,8.521,0,3.589,0,9.817s7.805,3.007,7.805,13.432l1.595-.485,4.26,8.519C323.888,17.523,311.826,17.357,311.826,17.357Z" transform="translate(-191.016 -6.067)" fill="#864b4c"/>
      <path id="Path_147271" data-name="Path 147271" d="M159.442,163.747a23.421,23.421,0,0,1-23.426-23.426V132.61L136,132.6l6.386-8.513s6.973,4.262,14.911,4.262,21.3-4.262,21.3-4.262l4.26,8.519v0h.006v7.711a23.425,23.425,0,0,1-23.426,23.426Z" transform="translate(-54.249 -99.853)" fill="#ffdecf"/>
      <path id="Path_147272" data-name="Path 147272" d="M267.359,132.609v0l-4.26-8.519s-.59.188-1.595.485l0,8.036v7.711a23.426,23.426,0,0,1-20.5,23.243,23.642,23.642,0,0,0,2.929.183,23.425,23.425,0,0,0,23.426-23.426v-7.711Z" transform="translate(-138.746 -99.852)" fill="#ffcdbe"/>
      <path id="Path_147273" data-name="Path 147273" d="M130.57,66.335H120.321V60.218a24.863,24.863,0,0,0,9.761-19.75v-7.6c1.737-8.817.981-15.313-2.249-19.309a10.083,10.083,0,0,0-5.56-3.53c0-1.273,0-3.762,0-8.51A1.464,1.464,0,0,0,120.808.058c-1.181,0-2.391-.013-3.673-.028-1.33-.015-2.707-.03-4.1-.03-10.6,0-21.284,1-27.669,8.229C80.557,13.677,78.9,21.76,80.3,32.939c0,.01,0,.019.006.029v7.5a24.862,24.862,0,0,0,9.761,19.75v6.117H79.813A11.238,11.238,0,0,0,68.588,77.559s0,.007,0,.011v7.8a1.464,1.464,0,0,0,2.928,0V77.559s0,0,0-.007a8.306,8.306,0,0,1,8.3-8.289H91.084L96.45,72.84l5.268,5.268L99.953,97.071H85.182V87.418a1.464,1.464,0,1,0-2.928,0v9.653H71.517V91.225a1.464,1.464,0,0,0-2.928,0v7.3s0,.008,0,.011A1.467,1.467,0,0,0,70.053,100h70.278a1.464,1.464,0,0,0,1.464-1.464V77.559A11.238,11.238,0,0,0,130.57,66.335Zm8.3,11.225V97.071H110.43l-1.765-18.962,5.268-5.268,5.367-3.578h11.27A8.306,8.306,0,0,1,138.867,77.559ZM103.846,76.1l-3.6-3.6,4.945-1.236,4.945,1.236-3.6,3.6Zm13.547-9.08-4.665,3.11-6.072-1.518V65.314a24.713,24.713,0,0,0,10.737-3.158ZM87.561,10.168c5.616-6.362,15.562-7.239,25.474-7.239,1.377,0,2.745.015,4.068.03.769.009,1.512.017,2.241.022,0,7.209,0,8.309,0,8.309a1.453,1.453,0,0,0,1.431,1.462,6.889,6.889,0,0,1,4.823,2.706c2.081,2.62,2.846,6.907,2.267,12.533l-2.205-4.411a1.464,1.464,0,0,0-1.754-.74c-.131.042-13.24,4.192-20.857,4.192-7.411,0-14.083-4.006-14.148-4.046a1.464,1.464,0,0,0-1.935.371l-4.122,5.5C82.314,20.486,83.868,14.352,87.561,10.168Zm-4.331,30.3V33.223l5.315-7.087a33.051,33.051,0,0,0,14.506,3.826c6.755,0,17.043-2.908,20.546-3.961l3.557,7.113v7.355a21.986,21.986,0,0,1-21.666,21.958,1.465,1.465,0,0,0-.3-.03,1.481,1.481,0,0,0-.3.03A21.986,21.986,0,0,1,83.23,40.468Zm20.5,24.846v3.293l-6.071,1.518-4.665-3.11V62.155A24.706,24.706,0,0,0,103.728,65.314Zm.846,13.71h1.236l1.68,18.047h-4.6Z"/>
      <path id="Path_147274" data-name="Path 147274" d="M313.122,391.573a1.464,1.464,0,0,0-1.464-1.464H305.8a1.464,1.464,0,0,0-1.464,1.464v2.44h-4.392a1.464,1.464,0,0,0-1.464,1.464v9.761a1.464,1.464,0,0,0,1.464,1.464h17.569a1.464,1.464,0,0,0,1.464-1.464v-9.761a1.464,1.464,0,0,0-1.464-1.464h-4.392v-2.44Zm-5.856,1.464h2.928v.976h-2.928Zm8.785,10.737H301.409v-6.833H316.05Z" transform="translate(-184.992 -313.916)"/>
    </g>
  </g>
</svg>
