<svg xmlns="http://www.w3.org/2000/svg" width="400" height="290" viewBox="0 0 400 290">
  <g id="t4-i3" transform="translate(-180 -1638)">
    <rect id="Rectangle_32669" data-name="Rectangle 32669" width="400" height="290" rx="20" transform="translate(180 1638)" fill="#fff1db"/>
    <path id="Path_152384" data-name="Path 152384" d="M117.835,12.658V17H114.75V4.2h5.106a5.948,5.948,0,0,1,2.6.541A4.074,4.074,0,0,1,124.2,6.282a4.2,4.2,0,0,1,.62,2.263,3.7,3.7,0,0,1-1.34,2.993,5.561,5.561,0,0,1-3.678,1.121Zm0-2.382h2.021a1.906,1.906,0,0,0,1.367-.448,1.665,1.665,0,0,0,.47-1.266,2.059,2.059,0,0,0-.483-1.433,1.712,1.712,0,0,0-1.318-.545h-2.057Zm12.981,6.9a4.889,4.889,0,0,1-3.542-1.305,4.507,4.507,0,0,1-1.354-3.4v-.246a5.84,5.84,0,0,1,.541-2.575,3.955,3.955,0,0,1,1.578-1.727,4.763,4.763,0,0,1,2.461-.611,4.117,4.117,0,0,1,3.164,1.244,4.887,4.887,0,0,1,1.16,3.467v1.151h-5.889a2.135,2.135,0,0,0,.694,1.257,2.066,2.066,0,0,0,1.389.457,2.662,2.662,0,0,0,2.2-.984l1.354,1.6A3.784,3.784,0,0,1,133,16.723,5.3,5.3,0,0,1,130.817,17.176ZM130.483,9.6q-1.3,0-1.547,1.723h2.988v-.229a1.467,1.467,0,0,0-.36-1.1A1.434,1.434,0,0,0,130.483,9.6Zm8.982-4.474V7.49h1.564V9.547h-1.564V13.9a1.111,1.111,0,0,0,.193.747,1.037,1.037,0,0,0,.765.211,4.345,4.345,0,0,0,.738-.053v2.118a5.466,5.466,0,0,1-1.67.255,3.1,3.1,0,0,1-2.259-.721,2.954,2.954,0,0,1-.729-2.188V9.547H135.29V7.49H136.5V5.126ZM145.319,17h-2.971V7.49h2.971ZM142.172,5.029a1.334,1.334,0,0,1,.457-1.043,1.934,1.934,0,0,1,2.373,0,1.334,1.334,0,0,1,.457,1.043A1.334,1.334,0,0,1,145,6.073a1.934,1.934,0,0,1-2.373,0A1.334,1.334,0,0,1,142.172,5.029Zm8.991,9.861a1.317,1.317,0,0,0,.967-.338,1.241,1.241,0,0,0,.334-.945h2.777a3.288,3.288,0,0,1-1.121,2.566,4.168,4.168,0,0,1-2.887,1,4.22,4.22,0,0,1-3.27-1.3,5.125,5.125,0,0,1-1.2-3.6v-.123A5.792,5.792,0,0,1,147.3,9.6a3.872,3.872,0,0,1,1.534-1.7,4.573,4.573,0,0,1,2.373-.593,4.116,4.116,0,0,1,2.944,1.028,3.647,3.647,0,0,1,1.09,2.786h-2.777A1.626,1.626,0,0,0,152.1,10a1.244,1.244,0,0,0-.967-.4q-1.151,0-1.345,1.468a10.357,10.357,0,0,0-.062,1.283,4.068,4.068,0,0,0,.343,1.986A1.187,1.187,0,0,0,151.163,14.891ZM159.619,17h-2.971V7.49h2.971ZM156.472,5.029a1.334,1.334,0,0,1,.457-1.043,1.934,1.934,0,0,1,2.373,0,1.334,1.334,0,0,1,.457,1.043,1.334,1.334,0,0,1-.457,1.043,1.934,1.934,0,0,1-2.373,0A1.334,1.334,0,0,1,156.472,5.029Zm4.6,7.128a5.613,5.613,0,0,1,.554-2.536,3.96,3.96,0,0,1,1.591-1.709,4.791,4.791,0,0,1,2.435-.6,4.373,4.373,0,0,1,3.366,1.323,5.076,5.076,0,0,1,1.23,3.6v.105a4.925,4.925,0,0,1-1.235,3.529,4.384,4.384,0,0,1-3.344,1.305,4.434,4.434,0,0,1-3.261-1.217,4.761,4.761,0,0,1-1.327-3.3Zm2.962.185a3.538,3.538,0,0,0,.413,1.934,1.376,1.376,0,0,0,1.222.615q1.582,0,1.617-2.435v-.3q0-2.558-1.635-2.558-1.485,0-1.608,2.206ZM174.27,7.49l.1,1.116a3.225,3.225,0,0,1,2.716-1.292A2.713,2.713,0,0,1,179.3,8.2a4.226,4.226,0,0,1,.76,2.672V17h-2.971V11a1.6,1.6,0,0,0-.29-1.059,1.342,1.342,0,0,0-1.055-.338,1.413,1.413,0,0,0-1.292.686V17h-2.962V7.49ZM186.3,17.176a4.889,4.889,0,0,1-3.542-1.305,4.507,4.507,0,0,1-1.354-3.4v-.246a5.84,5.84,0,0,1,.541-2.575,3.955,3.955,0,0,1,1.578-1.727,4.763,4.763,0,0,1,2.461-.611,4.117,4.117,0,0,1,3.164,1.244,4.887,4.887,0,0,1,1.16,3.467v1.151h-5.889a2.135,2.135,0,0,0,.694,1.257,2.066,2.066,0,0,0,1.389.457,2.662,2.662,0,0,0,2.2-.984l1.354,1.6a3.784,3.784,0,0,1-1.569,1.217A5.3,5.3,0,0,1,186.3,17.176ZM185.968,9.6q-1.3,0-1.547,1.723h2.988v-.229a1.467,1.467,0,0,0-.36-1.1A1.434,1.434,0,0,0,185.968,9.6Zm10.512,4.729a.684.684,0,0,0-.4-.606,6.016,6.016,0,0,0-1.5-.475,6.853,6.853,0,0,1-1.828-.646,3.062,3.062,0,0,1-1.1-.971,2.319,2.319,0,0,1-.378-1.31,2.628,2.628,0,0,1,1.081-2.158,4.453,4.453,0,0,1,2.83-.848,4.934,4.934,0,0,1,3.023.853,2.666,2.666,0,0,1,1.143,2.241h-2.971q0-1.143-1.2-1.143a1.194,1.194,0,0,0-.782.259.8.8,0,0,0-.316.646.737.737,0,0,0,.387.642,3.654,3.654,0,0,0,1.235.4,10.671,10.671,0,0,1,1.49.378,2.706,2.706,0,0,1,2.145,2.646,2.491,2.491,0,0,1-1.156,2.118,5.068,5.068,0,0,1-2.993.817,5.172,5.172,0,0,1-2.18-.439,3.645,3.645,0,0,1-1.494-1.2,2.707,2.707,0,0,1-.536-1.591h2.769a1.145,1.145,0,0,0,.439.962,1.808,1.808,0,0,0,1.081.3,1.422,1.422,0,0,0,.91-.246A.787.787,0,0,0,196.48,14.328Z" transform="translate(223 1862)" fill="#12263f"/>
    <g id="periodico" transform="translate(303.02 1690)">
      <g id="Group_97164" data-name="Group 97164" transform="translate(23.738 1.758)">
        <path id="Path_152368" data-name="Path 152368" d="M157.251,123.984H74.531L80.4,103.474,85.09,65.742V9.844A2.344,2.344,0,0,1,87.434,7.5h78.032a2.344,2.344,0,0,1,2.344,2.344V113.426A10.559,10.559,0,0,1,157.251,123.984Z" transform="translate(-63.972 -7.5)" fill="#f9f6f9"/>
        <path id="Path_152369" data-name="Path 152369" d="M422.716,7.5h-7.031a2.344,2.344,0,0,1,2.344,2.344V113.426a10.559,10.559,0,0,1-10.559,10.559H414.5a10.559,10.559,0,0,0,10.559-10.559V9.844A2.344,2.344,0,0,0,422.716,7.5Z" transform="translate(-318.879 -7.5)" fill="#dedbec"/>
        <path id="Path_152374" data-name="Path 152374" d="M40.039,314.008a10.485,10.485,0,0,1-3.516-.365,10.563,10.563,0,0,1-7.042-9.959v-45.34A2.344,2.344,0,0,1,31.824,256H43.566l4.688,47.684c0,5.831-2.384,10.324-8.215,10.324Z" transform="translate(-29.48 -197.758)" fill="#ffb74d"/>
        <path id="Path_152375" data-name="Path 152375" d="M66.574,256v47.684a10.561,10.561,0,0,1-7.043,9.957,10.56,10.56,0,0,0,14.074-9.957V256Z" transform="translate(-52.488 -197.758)" fill="#ff9800"/>
      </g>
      <g id="Group_97165" data-name="Group 97165" transform="translate(21.98 0)">
        <path id="Path_152376" data-name="Path 152376" d="M378.669,61.733h13.619a1.758,1.758,0,0,0,0-3.516H378.669a1.758,1.758,0,0,0,0,3.516Z" transform="translate(-346.419 -39.103)"/>
        <path id="Path_152377" data-name="Path 152377" d="M378.669,108.245h35.5a1.758,1.758,0,0,0,0-3.516h-35.5a1.758,1.758,0,0,0,0,3.516Z" transform="translate(-346.419 -74.714)"/>
        <path id="Path_152378" data-name="Path 152378" d="M378.669,154.756h22.37a1.758,1.758,0,1,0,0-3.516h-22.37a1.758,1.758,0,1,0,0,3.516Z" transform="translate(-346.419 -110.324)"/>
        <path id="Path_152379" data-name="Path 152379" d="M153.839,297.23h66.314a1.758,1.758,0,0,0,0-3.516H153.839a1.758,1.758,0,0,0,0,3.516Z" transform="translate(-121.589 -224.875)"/>
        <path id="Path_152380" data-name="Path 152380" d="M153.839,349.225h66.314a1.758,1.758,0,0,0,0-3.516H153.839a1.758,1.758,0,0,0,0,3.516Z" transform="translate(-121.589 -264.683)"/>
        <path id="Path_152381" data-name="Path 152381" d="M153.839,401.22h66.314a1.758,1.758,0,0,0,0-3.516H153.839a1.758,1.758,0,0,0,0,3.516Z" transform="translate(-121.589 -304.492)"/>
        <path id="Path_152383" data-name="Path 152383" d="M46.613,107.684a12.278,12.278,0,0,1-3.712,8.8H119.36a8.811,8.811,0,0,0,8.8-8.8V4.1a.587.587,0,0,0-.586-.586H47.2a.587.587,0,0,0-.586.586V34.781a1.758,1.758,0,1,1-3.516,0V4.1A4.106,4.106,0,0,1,47.2,0h80.376a4.106,4.106,0,0,1,4.1,4.1V107.684A12.33,12.33,0,0,1,119.36,120H34.3A12.33,12.33,0,0,1,21.98,107.684V84.693a1.758,1.758,0,1,1,3.516,0v22.991a8.8,8.8,0,0,0,17.6,0V61.758H26.082a.587.587,0,0,0-.586.586V77.032a1.758,1.758,0,1,1-3.516,0V62.344a4.106,4.106,0,0,1,4.1-4.1H43.1v-15.8a1.758,1.758,0,0,1,3.516,0Z" transform="translate(-21.98 0)"/>
      </g>
    </g>
  </g>
</svg>
