<svg xmlns="http://www.w3.org/2000/svg" width="125" height="125" viewBox="0 0 125 125">
  <g id="t4-ic7" transform="translate(3704 5865)">
    <rect id="Rectangle_32646" data-name="Rectangle 32646" width="125" height="125" rx="16" transform="translate(-3704 -5865)" fill="#ffd494"/>
    <g id="prueba" transform="translate(-3677 -5842.001)">
      <path id="Path_147728" data-name="Path 147728" d="M53.007,19.255,46.738,7.5H11.086A3.586,3.586,0,0,0,7.5,11.086V76.325a3.586,3.586,0,0,0,3.586,3.586H64.762V25.524Zm0,0" transform="translate(-6.328 -6.327)" fill="#fff"/>
      <path id="Path_147729" data-name="Path 147729" d="M258.621,7.5V21.835a3.689,3.689,0,0,0,3.69,3.689h14.335Zm0,0" transform="translate(-218.211 -6.327)" fill="#e8e8e8"/>
      <path id="Path_147730" data-name="Path 147730" d="M237.863,270.373a20.668,20.668,0,0,0-22.191,30.914h22.191Zm0,0" transform="translate(-179.429 -227.703)" fill="#e8e8e8"/>
      <path id="Path_147731" data-name="Path 147731" d="M274.631,315.857a15.987,15.987,0,1,1-15.987-15.986A15.987,15.987,0,0,1,274.631,315.857Zm0,0" transform="translate(-204.742 -253.015)" fill="#ff9800"/>
      <path id="Path_147732" data-name="Path 147732" d="M291.623,368.639l-7.712-7.712,3.879-3.879,3.834,3.833,7.491-7.49,3.879,3.879Zm0,0" transform="translate(-239.549 -298.172)" fill="#efedee"/>
      <path id="Path_147733" data-name="Path 147733" d="M293.616,346.232a1.172,1.172,0,0,0-1.658,0l-6.662,6.662-3-3a1.171,1.171,0,0,0-1.657,0l-3.879,3.879a1.171,1.171,0,0,0,0,1.657l7.712,7.712a1.183,1.183,0,0,0,1.657,0l11.37-11.369a1.183,1.183,0,0,0,0-1.658Zm-8.32,14.42-6.055-6.055,2.222-2.222,3,3a1.172,1.172,0,0,0,1.657,0l6.663-6.662,2.221,2.222Zm0,0" transform="translate(-233.223 -291.843)"/>
      <path id="Path_147737" data-name="Path 147737" d="M55.77,188.582H90.428a1.172,1.172,0,0,0,0-2.344H55.77a1.172,1.172,0,0,0,0,2.344Zm0,0" transform="translate(-46.067 -157.138)"/>
      <path id="Path_147738" data-name="Path 147738" d="M55.77,242.75H90.428a1.172,1.172,0,0,0,0-2.344H55.77a1.172,1.172,0,0,0,0,2.344Zm0,0" transform="translate(-46.067 -202.842)"/>
      <path id="Path_147739" data-name="Path 147739" d="M55.77,296.918h22.12a1.172,1.172,0,1,0,0-2.344H55.77a1.172,1.172,0,1,0,0,2.344Zm0,0" transform="translate(-46.067 -248.546)"/>
      <path id="Path_147740" data-name="Path 147740" d="M55.77,351.086H77.946a1.172,1.172,0,0,0,0-2.344H55.77a1.172,1.172,0,0,0,0,2.344Zm0,0" transform="translate(-46.067 -294.25)"/>
      <path id="Path_147741" data-name="Path 147741" d="M4.758,74.756H41.566a17.143,17.143,0,0,0,22.156,2.158,1.172,1.172,0,0,0-1.343-1.921A14.727,14.727,0,0,1,53.9,77.657,14.815,14.815,0,1,1,68.717,62.842a14.658,14.658,0,0,1-3.2,9.2A1.172,1.172,0,0,0,67.348,73.5,16.979,16.979,0,0,0,71.06,62.842,17.187,17.187,0,0,0,59.606,46.66V19.2a1.152,1.152,0,0,0-.343-.828L41.239.344A1.182,1.182,0,0,0,40.41,0H4.758A4.763,4.763,0,0,0,0,4.759V17.7a1.172,1.172,0,1,0,2.344,0V4.759A2.418,2.418,0,0,1,4.758,2.345h34.48V15.508A4.866,4.866,0,0,0,44.1,20.369H57.263V46.014a17.162,17.162,0,0,0-17.6,26.4H4.758A2.418,2.418,0,0,1,2.344,70V22.377a1.172,1.172,0,1,0-2.344,0V70a4.764,4.764,0,0,0,4.758,4.758ZM44.1,18.025a2.52,2.52,0,0,1-2.518-2.517V4L55.6,18.025Zm0,0"/>
    </g>
  </g>
</svg>
