<svg xmlns="http://www.w3.org/2000/svg" width="400" height="290" viewBox="0 0 400 290">
  <g id="t4-i3" transform="translate(-180 -1638)">
    <rect id="Rectangle_32669" data-name="Rectangle 32669" width="400" height="290" rx="20" transform="translate(180 1638)" fill="#fff1db"/>
    <text id="Peticiones" transform="translate(223 1862)" fill="#12263f" font-size="18" font-family="Roboto-Black, Roboto" font-weight="800"><tspan x="-43.053" y="17">Peticiones</tspan></text>
    <g id="periodico" transform="translate(303.02 1690)">
      <g id="Group_97164" data-name="Group 97164" transform="translate(23.738 1.758)">
        <path id="Path_152368" data-name="Path 152368" d="M157.251,123.984H74.531L80.4,103.474,85.09,65.742V9.844A2.344,2.344,0,0,1,87.434,7.5h78.032a2.344,2.344,0,0,1,2.344,2.344V113.426A10.559,10.559,0,0,1,157.251,123.984Z" transform="translate(-63.972 -7.5)" fill="#f9f6f9"/>
        <path id="Path_152369" data-name="Path 152369" d="M422.716,7.5h-7.031a2.344,2.344,0,0,1,2.344,2.344V113.426a10.559,10.559,0,0,1-10.559,10.559H414.5a10.559,10.559,0,0,0,10.559-10.559V9.844A2.344,2.344,0,0,0,422.716,7.5Z" transform="translate(-318.879 -7.5)" fill="#dedbec"/>
        <path id="Path_152374" data-name="Path 152374" d="M40.039,314.008a10.485,10.485,0,0,1-3.516-.365,10.563,10.563,0,0,1-7.042-9.959v-45.34A2.344,2.344,0,0,1,31.824,256H43.566l4.688,47.684c0,5.831-2.384,10.324-8.215,10.324Z" transform="translate(-29.48 -197.758)" fill="#ffb74d"/>
        <path id="Path_152375" data-name="Path 152375" d="M66.574,256v47.684a10.561,10.561,0,0,1-7.043,9.957,10.56,10.56,0,0,0,14.074-9.957V256Z" transform="translate(-52.488 -197.758)" fill="#ff9800"/>
      </g>
      <g id="Group_97165" data-name="Group 97165" transform="translate(21.98 0)">
        <path id="Path_152376" data-name="Path 152376" d="M378.669,61.733h13.619a1.758,1.758,0,0,0,0-3.516H378.669a1.758,1.758,0,0,0,0,3.516Z" transform="translate(-346.419 -39.103)"/>
        <path id="Path_152377" data-name="Path 152377" d="M378.669,108.245h35.5a1.758,1.758,0,0,0,0-3.516h-35.5a1.758,1.758,0,0,0,0,3.516Z" transform="translate(-346.419 -74.714)"/>
        <path id="Path_152378" data-name="Path 152378" d="M378.669,154.756h22.37a1.758,1.758,0,1,0,0-3.516h-22.37a1.758,1.758,0,1,0,0,3.516Z" transform="translate(-346.419 -110.324)"/>
        <path id="Path_152379" data-name="Path 152379" d="M153.839,297.23h66.314a1.758,1.758,0,0,0,0-3.516H153.839a1.758,1.758,0,0,0,0,3.516Z" transform="translate(-121.589 -224.875)"/>
        <path id="Path_152380" data-name="Path 152380" d="M153.839,349.225h66.314a1.758,1.758,0,0,0,0-3.516H153.839a1.758,1.758,0,0,0,0,3.516Z" transform="translate(-121.589 -264.683)"/>
        <path id="Path_152381" data-name="Path 152381" d="M153.839,401.22h66.314a1.758,1.758,0,0,0,0-3.516H153.839a1.758,1.758,0,0,0,0,3.516Z" transform="translate(-121.589 -304.492)"/>
        <path id="Path_152383" data-name="Path 152383" d="M46.613,107.684a12.278,12.278,0,0,1-3.712,8.8H119.36a8.811,8.811,0,0,0,8.8-8.8V4.1a.587.587,0,0,0-.586-.586H47.2a.587.587,0,0,0-.586.586V34.781a1.758,1.758,0,1,1-3.516,0V4.1A4.106,4.106,0,0,1,47.2,0h80.376a4.106,4.106,0,0,1,4.1,4.1V107.684A12.33,12.33,0,0,1,119.36,120H34.3A12.33,12.33,0,0,1,21.98,107.684V84.693a1.758,1.758,0,1,1,3.516,0v22.991a8.8,8.8,0,0,0,17.6,0V61.758H26.082a.587.587,0,0,0-.586.586V77.032a1.758,1.758,0,1,1-3.516,0V62.344a4.106,4.106,0,0,1,4.1-4.1H43.1v-15.8a1.758,1.758,0,0,1,3.516,0Z" transform="translate(-21.98 0)"/>
      </g>
    </g>
  </g>
</svg>
