<svg xmlns="http://www.w3.org/2000/svg" width="125" height="125" viewBox="0 0 125 125">
  <g id="t4-ic6" transform="translate(3704 6619)">
    <rect id="Rectangle_32643" data-name="Rectangle 32643" width="125" height="125" rx="16" transform="translate(-3704 -6619)" fill="#ffd494"/>
    <g id="salario" transform="translate(-3687.797 -6595.999)">
      <g id="Group_97144" data-name="Group 97144" transform="translate(8.969 1.18)">
        <g id="Group_97128" data-name="Group 97128" transform="translate(15.497)">
          <g id="Group_97127" data-name="Group 97127">
            <g id="Group_97126" data-name="Group 97126">
              <g id="Group_97123" data-name="Group 97123">
                <g id="Group_97122" data-name="Group 97122">
                  <path id="Path_152298" data-name="Path 152298" d="M145.618,21.208s7.666-9.949,5.461-12.8c-.751-.973-1.392.348-2.945.348-1.825,0-1.825-1.194-3.651-1.194s-1.825,1.194-3.651,1.194-1.825-1.194-3.65-1.194-1.825,1.194-3.65,1.194c-1.555,0-2.193-1.338-2.95-.365-2.205,2.838,5.348,12.82,5.348,12.82-33.36,21.931-22.6,51.756-2.907,51.756h15.621c19.756,0,30.446-29.753-3.025-51.756Z" transform="translate(-114.473 -7.559)" fill="#ffb74d"/>
                </g>
              </g>
              <g id="Group_97124" data-name="Group 97124" transform="translate(20.147)">
                <path id="Path_152299" data-name="Path 152299" d="M254.413,21.208s7.666-9.949,5.461-12.8c-.751-.973-1.392.348-2.945.348-1.825,0-1.825-1.194-3.651-1.194s-1.825,1.194-3.651,1.194c-.09,0-.172-.005-.253-.011-.733,3.144-4.038,8.042-5.93,10.664.745,1.093,1.281,1.8,1.281,1.8q-.668.439-1.31.882C275.289,44,264.624,72.965,245.13,72.965h12.308c19.756,0,30.446-29.752-3.025-51.756Z" transform="translate(-243.415 -7.559)" fill="#ff9800"/>
              </g>
              <g id="Group_97125" data-name="Group 97125" transform="translate(17.22 11.591)">
                <path id="Path_152300" data-name="Path 152300" d="M240.033,87.336a26.669,26.669,0,0,1-13.31,0,2.842,2.842,0,0,1-1.872-3.72l.019-.053a2.622,2.622,0,0,1,3.1-1.748,21.669,21.669,0,0,0,10.825,0,2.622,2.622,0,0,1,3.1,1.748l.019.053A2.842,2.842,0,0,1,240.033,87.336Z" transform="translate(-224.683 -81.738)" fill="#ffb74d"/>
              </g>
            </g>
          </g>
        </g>
        <g id="Group_97143" data-name="Group 97143" transform="translate(0 44.385)">
          <g id="Group_97142" data-name="Group 97142">
            <g id="Group_97141" data-name="Group 97141">
              <g id="Group_97140" data-name="Group 97140">
                <g id="Group_97139" data-name="Group 97139">
                  <g id="Group_97138" data-name="Group 97138">
                    <g id="Group_97137" data-name="Group 97137">
                      <g id="Group_97136" data-name="Group 97136">
                        <g id="Group_97135" data-name="Group 97135">
                          <g id="Group_97134" data-name="Group 97134">
                            <g id="Group_97133" data-name="Group 97133" transform="translate(6.186 4.106)">
                              <g id="Group_97132" data-name="Group 97132">
                                <g id="Group_97129" data-name="Group 97129">
                                  <path id="Path_152301" data-name="Path 152301" d="M54.883,339.928l16.964,6.314a12.909,12.909,0,0,0,4.5.811H93.832a12.91,12.91,0,0,0,6.909-2l21.89-13.871a3.842,3.842,0,0,0,.625-5.034c-1.189-1.747-3.155-2.051-5.319-1.027L96.625,334.5l.025-3.458a6.189,6.189,0,0,0-5.291-5.515l-12.978-1.494c-2.994-.424-4.49-1.427-7.1-2.954A23.26,23.26,0,0,0,59.536,317.9H54.883Z" transform="translate(-54.883 -317.896)" fill="#ffddce"/>
                                </g>
                                <g id="Group_97130" data-name="Group 97130">
                                  <path id="Path_152302" data-name="Path 152302" d="M54.883,339.928l16.964,6.314a12.909,12.909,0,0,0,4.5.811H93.832a12.91,12.91,0,0,0,6.909-2l21.89-13.871a3.842,3.842,0,0,0,.625-5.034c-1.189-1.747-3.155-2.051-5.319-1.027L96.625,334.5l.025-3.458a6.189,6.189,0,0,0-5.291-5.515l-12.978-1.494c-2.994-.424-4.49-1.427-7.1-2.954A23.26,23.26,0,0,0,59.536,317.9H54.883Z" transform="translate(-54.883 -317.896)" fill="#ffddce"/>
                                </g>
                                <path id="Path_152303" data-name="Path 152303" d="M123.257,361.973c-1.189-1.747-3.155-2.051-5.319-1.027l-5.862,2.581.51.808a3.842,3.842,0,0,1-.625,5.034l-12.755,8.082a12.907,12.907,0,0,1-5.373,1.173H76.35a12.909,12.909,0,0,1-4.5-.811L54.884,371.5v4.259l16.964,6.314a12.909,12.909,0,0,0,4.5.811H93.833a12.91,12.91,0,0,0,6.909-2l21.89-13.87A3.842,3.842,0,0,0,123.257,361.973Z" transform="translate(-54.884 -353.725)" fill="#ffcbbe"/>
                                <g id="Group_97131" data-name="Group 97131" transform="translate(40.175 9.584)">
                                  <path id="Path_152304" data-name="Path 152304" d="M312,379.236v.083l.055-.024Z" transform="translate(-312.004 -379.236)" fill="#f5dbcc"/>
                                </g>
                              </g>
                            </g>
                            <path id="Path_152305" data-name="Path 152305" d="M25.131,321.137a2.229,2.229,0,0,1-2.229,2.229H17.524a2.229,2.229,0,0,1-2.229-2.229V293.849a2.229,2.229,0,0,1,2.229-2.229H22.9a2.229,2.229,0,0,1,2.229,2.229Z" transform="translate(-15.295 -291.62)" fill="#d2e1f1"/>
                          </g>
                        </g>
                      </g>
                    </g>
                  </g>
                </g>
              </g>
            </g>
          </g>
        </g>
      </g>
      <g id="Group_97145" data-name="Group 97145" transform="translate(7.797 -0.001)">
        <path id="Path_152306" data-name="Path 152306" d="M84.5,57.259c-1.492-2.193-4.024-2.729-6.774-1.435l-1.458.642A24.1,24.1,0,0,0,77.7,40.95c-1.314-5.924-4.488-11.663-9.433-17.057a1.172,1.172,0,1,0-1.727,1.584c4.663,5.087,7.648,10.464,8.872,15.981,1.289,5.811.539,11.8-2.75,16.594L58.081,64.473l.012-1.647a1.145,1.145,0,0,0-.006-.125,7.343,7.343,0,0,0-6.293-6.559l-.03,0L38.8,54.645c-4.985-.71-6.268-3.7-13.019-5.4a25.224,25.224,0,0,1,1.859-12.4c2.566-6.362,7.587-12.544,14.548-17.924,2.594,1.839,14.168,2.068,16.758-.3,1.327,1.008,2.593,2.046,3.773,3.1a1.172,1.172,0,1,0,1.559-1.75c-1.293-1.152-2.684-2.289-4.143-3.387a4.171,4.171,0,0,0-1.4-4.156C62.406,6.86,63.473,3.218,62,1.31A2.048,2.048,0,0,0,59.19.877,1.879,1.879,0,0,1,56.942.8a4.212,4.212,0,0,0-4.934,0,1.889,1.889,0,0,1-2.367,0,4.212,4.212,0,0,0-4.934,0,1.865,1.865,0,0,1-2.245.075,2.044,2.044,0,0,0-2.814.419c-1.441,1.854-.477,5.382,2.944,10.757a3.816,3.816,0,0,0-.6.4A7.911,7.911,0,0,0,35.184,9.87a8.586,8.586,0,0,1-5.829-1.378,1.172,1.172,0,0,0-1.305,1.946A10.911,10.911,0,0,0,35.444,12.2a5.725,5.725,0,0,1,5.233,2.289q-.022.075-.04.151a20.108,20.108,0,0,0-3.715.405c-3.552.739-6.188,2.427-7.625,4.882a1.172,1.172,0,1,0,2.023,1.183c2.137-3.651,7.352-4.1,9.423-4.126.009.026.019.051.029.077-7.392,5.7-12.538,12.061-15.3,18.913a27.81,27.81,0,0,0-2.09,12.793,24.381,24.381,0,0,0-3.4-.263v-.709a3.4,3.4,0,0,0-3.4-3.4H11.2a3.4,3.4,0,0,0-3.4,3.4V75.081a3.4,3.4,0,0,0,3.4,3.4h5.379a3.4,3.4,0,0,0,3.4-3.4v-.334l11.733,4.367A14.037,14.037,0,0,0,36.621,80H54.1a14.06,14.06,0,0,0,7.536-2.187C84.961,63.028,83.545,63.948,83.68,63.828a5.025,5.025,0,0,0,.816-6.569ZM56.749,17.232a25.4,25.4,0,0,1-12.736,0c-1.839-.465-1.306-3.745.67-3.249a22.849,22.849,0,0,0,11.4,0C58.021,13.5,58.617,16.76,56.749,17.232ZM41.393,2.957l.027.014a4.157,4.157,0,0,0,4.57-.213c2-1.307,2.213.788,4.834.788a4.07,4.07,0,0,0,2.467-.788,1.89,1.89,0,0,1,2.368,0,4.179,4.179,0,0,0,4.59.21c.241.869-.3,3.46-3.779,8.633-1.725-.029-4.229,1.665-11.317.088-3.467-5.24-4-7.856-3.761-8.731ZM82.188,62.018l-21.8,13.815A11.72,11.72,0,0,1,54.1,77.657H36.621a11.7,11.7,0,0,1-4.094-.737L19.976,72.248V59.63a1.172,1.172,0,1,0-2.343,0V75.082a1.058,1.058,0,0,1-1.057,1.057H11.2a1.058,1.058,0,0,1-1.057-1.057V47.794A1.058,1.058,0,0,1,11.2,46.737h5.379a1.058,1.058,0,0,1,1.057,1.057v6.358a1.172,1.172,0,1,0,2.343,0V50.846c9.692.074,11.872,5.183,18.512,6.122l.03,0L51.48,58.464a5.005,5.005,0,0,1,4.269,4.41L55.733,65.1H43.645a1.172,1.172,0,1,0,0,2.343H56.9a1.213,1.213,0,0,0,.468-.1L78.68,57.964c1.533-.681,2.931-.779,3.878.614A2.677,2.677,0,0,1,82.188,62.018Z" transform="translate(-7.797 0.001)"/>
        <path id="Path_152307" data-name="Path 152307" d="M246.511,184.221a1.172,1.172,0,0,0,1.172-1.172v-1.942a6.865,6.865,0,0,0,5.626-5.68,6.009,6.009,0,0,0-4.14-6.874c-.537-.19-1.03-.371-1.486-.546v-7.471a4.819,4.819,0,0,1,2.279,1,1.172,1.172,0,0,0,1.582-1.728,7.262,7.262,0,0,0-3.861-1.638V156.5a1.172,1.172,0,1,0-2.343,0v1.761a8.634,8.634,0,0,0-.869.212,5.666,5.666,0,0,0-3.877,4.447,4.955,4.955,0,0,0,1.61,4.884,14.194,14.194,0,0,0,3.136,1.772v9.266a6.223,6.223,0,0,1-3.644-1.264,1.172,1.172,0,1,0-1.283,1.961,8.582,8.582,0,0,0,4.927,1.645v1.86A1.172,1.172,0,0,0,246.511,184.221Zm-2.862-18.256a2.641,2.641,0,0,1-.754-2.606,3.352,3.352,0,0,1,2.251-2.638c.065-.02.129-.037.193-.054V167A9.883,9.883,0,0,1,243.649,165.965Zm4.738,4.8a3.688,3.688,0,0,1,2.61,4.277,4.564,4.564,0,0,1-3.315,3.673v-8.2C247.91,170.592,248.143,170.676,248.387,170.762Z" transform="translate(-203.618 -131.061)"/>
      </g>
    </g>
  </g>
</svg>
