<svg xmlns="http://www.w3.org/2000/svg" width="125" height="125" viewBox="0 0 125 125">
  <g id="t4-ic3" transform="translate(3704 7879)">
    <rect id="Rectangle_32633" data-name="Rectangle 32633" width="125" height="125" rx="16" transform="translate(-3704 -7879)" fill="#ffd494"/>
    <g id="informe-seo" transform="translate(-3735.215 -7856)">
      <g id="Group_97116" data-name="Group 97116" transform="translate(64.387 1.172)">
        <path id="Path_152246" data-name="Path 152246" d="M155.146,79.733H108.18a2.756,2.756,0,0,1-2.756-2.756V10.256A2.756,2.756,0,0,1,108.18,7.5h46.966a2.756,2.756,0,0,1,2.756,2.756V76.977A2.756,2.756,0,0,1,155.146,79.733Z" transform="translate(-100.001 -7.5)" fill="#d2e1f1"/>
        <path id="Path_152247" data-name="Path 152247" d="M120.437,114.442H73.471a2.756,2.756,0,0,1-2.756-2.756V44.965a2.756,2.756,0,0,1,2.756-2.756h46.966a2.756,2.756,0,0,1,2.756,2.756v66.721A2.756,2.756,0,0,1,120.437,114.442Z" transform="translate(-70.715 -36.786)" fill="#fff"/>
        <path id="Path_152248" data-name="Path 152248" d="M357.835,42.209h-5.76a2.756,2.756,0,0,1,2.756,2.756v66.721a2.756,2.756,0,0,1-2.756,2.756h5.76a2.756,2.756,0,0,0,2.756-2.756V44.965A2.756,2.756,0,0,0,357.835,42.209Z" transform="translate(-308.112 -36.786)" fill="#f3f9ff"/>
        <g id="Group_97110" data-name="Group 97110" transform="translate(29.388 15.758)">
          <g id="Group_97107" data-name="Group 97107">
            <path id="Path_152249" data-name="Path 152249" d="M275.036,110.534H259.885a1.09,1.09,0,1,1,0-2.18h15.151a1.09,1.09,0,1,1,0,2.18Z" transform="translate(-258.795 -108.354)" fill="#3e5959"/>
          </g>
          <g id="Group_97108" data-name="Group 97108" transform="translate(0 5.099)">
            <path id="Path_152250" data-name="Path 152250" d="M275.036,143.168H259.885a1.09,1.09,0,0,1,0-2.18h15.151a1.09,1.09,0,1,1,0,2.18Z" transform="translate(-258.795 -140.988)" fill="#3e5959"/>
          </g>
          <g id="Group_97109" data-name="Group 97109" transform="translate(0 10.198)">
            <path id="Path_152251" data-name="Path 152251" d="M275.036,175.8H259.885a1.09,1.09,0,0,1,0-2.18h15.151a1.09,1.09,0,0,1,0,2.18Z" transform="translate(-258.795 -173.623)" fill="#3e5959"/>
          </g>
        </g>
        <g id="Group_97111" data-name="Group 97111" transform="translate(30.454 54.415)">
          <path id="Path_152252" data-name="Path 152252" d="M280.795,357.933H266.71a1.09,1.09,0,0,1,0-2.18h14.085a1.09,1.09,0,0,1,0,2.18Z" transform="translate(-265.62 -355.753)" fill="#3e5959"/>
        </g>
        <g id="Group_97112" data-name="Group 97112" transform="translate(5.76 43.778)">
          <path id="Path_152253" data-name="Path 152253" d="M123.818,289.86H108.667a1.09,1.09,0,0,1,0-2.18h15.151a1.09,1.09,0,1,1,0,2.18Z" transform="translate(-107.577 -287.68)" fill="#3e5959"/>
        </g>
        <g id="Group_97113" data-name="Group 97113" transform="translate(5.76 38.679)">
          <path id="Path_152254" data-name="Path 152254" d="M123.818,257.225H108.667a1.09,1.09,0,1,1,0-2.18h15.151a1.09,1.09,0,0,1,0,2.18Z" transform="translate(-107.577 -255.045)" fill="#3e5959"/>
        </g>
        <path id="Path_152255" data-name="Path 152255" d="M172.382,80.194V90.319h10.125A10.125,10.125,0,0,0,172.382,80.194Z" transform="translate(-156.497 -68.836)" fill="#ff9800"/>
        <path id="Path_152256" data-name="Path 152256" d="M117.706,80.194a10.125,10.125,0,1,0,10.125,10.125H117.706Z" transform="translate(-101.821 -68.836)" fill="#ffb74d"/>
        <path id="Path_152257" data-name="Path 152257" d="M262.845,252.119h-18.2a.727.727,0,0,1-.727-.727V240.928a.727.727,0,0,1,.727-.727h18.2a.727.727,0,0,1,.727.727v10.464A.727.727,0,0,1,262.845,252.119Z" transform="translate(-216.853 -203.841)" fill="#ff9800"/>
        <path id="Path_152258" data-name="Path 152258" d="M111.488,360.931H108.3a.727.727,0,0,1-.727-.727v-15.9a.727.727,0,0,1,.727-.727h3.184a.727.727,0,0,1,.727.727v15.9A.727.727,0,0,1,111.488,360.931Z" transform="translate(-101.817 -291.069)" fill="#ff9800"/>
        <path id="Path_152259" data-name="Path 152259" d="M166.858,383.454h-3.184a.727.727,0,0,1-.727-.727V371a.727.727,0,0,1,.727-.727h3.184a.727.727,0,0,1,.727.727v11.725A.727.727,0,0,1,166.858,383.454Z" transform="translate(-148.536 -313.591)" fill="#ffb74d"/>
        <path id="Path_152260" data-name="Path 152260" d="M222.229,411.513h-3.184a.727.727,0,0,1-.727-.727v-6.529a.727.727,0,0,1,.727-.727h3.184a.727.727,0,0,1,.727.727v6.529A.727.727,0,0,1,222.229,411.513Z" transform="translate(-195.255 -341.651)" fill="#ffb74d"/>
        <g id="Group_97114" data-name="Group 97114" transform="translate(30.454 59.77)">
          <path id="Path_152261" data-name="Path 152261" d="M280.795,392.21H266.71a1.09,1.09,0,1,1,0-2.18h14.085a1.09,1.09,0,1,1,0,2.18Z" transform="translate(-265.62 -390.03)" fill="#3e5959"/>
        </g>
        <g id="Group_97115" data-name="Group 97115" transform="translate(30.454 65.126)">
          <path id="Path_152262" data-name="Path 152262" d="M280.795,426.487H266.71a1.09,1.09,0,0,1,0-2.18h14.085a1.09,1.09,0,0,1,0,2.18Z" transform="translate(-265.62 -424.307)" fill="#3e5959"/>
        </g>
      </g>
      <g id="Group_97117" data-name="Group 97117" transform="translate(63.215 0)">
        <path id="Path_152263" data-name="Path 152263" d="M259.885,110.533h15.151a1.09,1.09,0,0,0,0-2.18H259.885a1.09,1.09,0,0,0,0,2.18Z" transform="translate(-228.236 -91.423)"/>
        <path id="Path_152264" data-name="Path 152264" d="M258.8,142.078a1.09,1.09,0,0,0,1.09,1.09h15.151a1.09,1.09,0,1,0,0-2.18H259.885A1.09,1.09,0,0,0,258.8,142.078Z" transform="translate(-228.236 -118.959)"/>
        <path id="Path_152265" data-name="Path 152265" d="M259.885,175.8h15.151a1.09,1.09,0,0,0,0-2.18H259.885a1.09,1.09,0,0,0,0,2.18Z" transform="translate(-228.236 -146.494)"/>
        <path id="Path_152266" data-name="Path 152266" d="M281.885,356.843a1.09,1.09,0,0,0-1.09-1.09H266.711a1.09,1.09,0,1,0,0,2.18H280.8A1.09,1.09,0,0,0,281.885,356.843Z" transform="translate(-233.995 -300.167)"/>
        <path id="Path_152267" data-name="Path 152267" d="M124.909,288.769a1.09,1.09,0,0,0-1.09-1.09H108.668a1.09,1.09,0,0,0,0,2.18h15.151A1.09,1.09,0,0,0,124.909,288.769Z" transform="translate(-100.646 -242.729)"/>
        <path id="Path_152268" data-name="Path 152268" d="M108.668,257.225h15.151a1.09,1.09,0,1,0,0-2.18H108.668a1.09,1.09,0,1,0,0,2.18Z" transform="translate(-100.646 -215.194)"/>
        <path id="Path_152269" data-name="Path 152269" d="M111.378,72.694a11.3,11.3,0,1,0,11.3,11.3A11.31,11.31,0,0,0,111.378,72.694Zm0,20.25a8.954,8.954,0,0,1-1.172-17.83v8.877a1.172,1.172,0,0,0,1.172,1.172h8.877A8.967,8.967,0,0,1,111.378,92.944Zm1.172-10.125V75.114a8.973,8.973,0,0,1,7.705,7.705Z" transform="translate(-94.321 -61.336)"/>
        <path id="Path_152270" data-name="Path 152270" d="M236.417,234.6v10.464a1.9,1.9,0,0,0,1.9,1.9h18.2a1.9,1.9,0,0,0,1.9-1.9V234.6a1.9,1.9,0,0,0-1.9-1.9h-18.2A1.9,1.9,0,0,0,236.417,234.6Zm2.344.445h17.312v9.574H238.761Z" transform="translate(-209.354 -196.342)"/>
        <path id="Path_152271" data-name="Path 152271" d="M100.078,353.877a1.9,1.9,0,0,0,1.9,1.9h3.184a1.9,1.9,0,0,0,1.9-1.9v-15.9a1.9,1.9,0,0,0-1.9-1.9h-3.184a1.9,1.9,0,0,0-1.9,1.9Zm2.344-15.451h2.294v15.006h-2.294Z" transform="translate(-94.318 -283.569)"/>
        <path id="Path_152272" data-name="Path 152272" d="M157.347,362.775a1.9,1.9,0,0,0-1.9,1.9V376.4a1.9,1.9,0,0,0,1.9,1.9h3.184a1.9,1.9,0,0,0,1.9-1.9V364.673a1.9,1.9,0,0,0-1.9-1.9Zm2.739,13.179h-2.294V365.119h2.294Z" transform="translate(-141.037 -306.091)"/>
        <path id="Path_152273" data-name="Path 152273" d="M212.717,406.357H215.9a1.9,1.9,0,0,0,1.9-1.9V397.93a1.9,1.9,0,0,0-1.9-1.9h-3.184a1.9,1.9,0,0,0-1.9,1.9v6.529A1.9,1.9,0,0,0,212.717,406.357Zm.445-7.982h2.294v5.638h-2.294Z" transform="translate(-187.755 -334.151)"/>
        <path id="Path_152274" data-name="Path 152274" d="M280.795,390.03H266.71a1.09,1.09,0,0,0,0,2.18h14.085a1.09,1.09,0,0,0,0-2.18Z" transform="translate(-233.994 -329.088)"/>
        <path id="Path_152275" data-name="Path 152275" d="M280.795,424.307H266.71a1.09,1.09,0,1,0,0,2.18h14.085a1.09,1.09,0,1,0,0-2.18Z" transform="translate(-233.994 -358.009)"/>
        <path id="Path_152276" data-name="Path 152276" d="M122.288,14.53a1.172,1.172,0,0,0,1.172-1.172V3.928A3.932,3.932,0,0,0,119.533,0H72.566a3.932,3.932,0,0,0-3.928,3.928v1.5h-1.5a3.932,3.932,0,0,0-3.928,3.928V59.557a1.172,1.172,0,1,0,2.344,0V9.351a1.586,1.586,0,0,1,1.584-1.584h46.966a1.586,1.586,0,0,1,1.584,1.584V76.072a1.586,1.586,0,0,1-1.584,1.584H67.143a1.586,1.586,0,0,1-1.584-1.584V65.026a1.172,1.172,0,0,0-2.344,0V76.072A3.932,3.932,0,0,0,67.143,80h46.966a3.932,3.932,0,0,0,3.928-3.928v-1.5h1.5a3.932,3.932,0,0,0,3.928-3.928V18.826a1.172,1.172,0,1,0-2.344,0V70.649a1.586,1.586,0,0,1-1.584,1.584h-1.5V9.351a3.932,3.932,0,0,0-3.928-3.928H70.982v-1.5a1.586,1.586,0,0,1,1.584-1.584h46.966a1.586,1.586,0,0,1,1.584,1.584v9.43a1.172,1.172,0,0,0,1.172,1.172Z" transform="translate(-63.215 0)"/>
      </g>
    </g>
  </g>
</svg>
