<svg xmlns="http://www.w3.org/2000/svg" width="400" height="290" viewBox="0 0 400 290">
  <g id="t4-i4" transform="translate(-600 -1638)">
    <rect id="Rectangle_32668" data-name="Rectangle 32668" width="400" height="290" rx="20" transform="translate(600 1638)" fill="#fff1db"/>
    <text id="Quejas" transform="translate(643 1862)" fill="#12263f" font-size="18" font-family="Roboto-Black, Roboto" font-weight="800"><tspan x="-28.006" y="17">Quejas</tspan></text>
    <g id="chat" transform="translate(740 1689.166)">
      <g id="Group_97150" data-name="Group 97150" transform="translate(1.764 2.597)">
        <path id="Path_152326" data-name="Path 152326" d="M162.289,173.847h67.742a5.879,5.879,0,0,1,5.879,5.879v51.117a5.879,5.879,0,0,1-5.879,5.879h-14a2.351,2.351,0,0,0-2.351,2.351v11.151a1.176,1.176,0,0,1-2.007.831L198.025,237.41a2.352,2.352,0,0,0-1.663-.689H162.289a5.879,5.879,0,0,1-5.879-5.879V179.726A5.879,5.879,0,0,1,162.289,173.847Z" transform="translate(-121.396 -134.928)" fill="#f5e878"/>
        <g id="Group_97148" data-name="Group 97148" transform="translate(103.932 38.919)" style="mix-blend-mode: multiply;isolation: isolate">
          <path id="Path_152327" data-name="Path 152327" d="M456.554,173.847H449.5a5.879,5.879,0,0,1,5.879,5.879v51.117a5.879,5.879,0,0,1-5.879,5.879h7.054a5.879,5.879,0,0,0,5.879-5.879V179.726A5.879,5.879,0,0,0,456.554,173.847Z" transform="translate(-449.5 -173.847)" fill="#eee490"/>
        </g>
        <path id="Path_152328" data-name="Path 152328" d="M81.12,8.332H13.379A5.879,5.879,0,0,0,7.5,14.211V65.328a5.879,5.879,0,0,0,5.879,5.879H29.733a2.351,2.351,0,0,1,2.351,2.351V84.708a1.176,1.176,0,0,0,2.007.831L47.736,71.9a2.352,2.352,0,0,1,1.663-.689H81.12A5.879,5.879,0,0,0,87,65.328V14.211A5.878,5.878,0,0,0,81.12,8.332Z" transform="translate(-7.5 -8.332)" fill="#ffb74d"/>
        <g id="Group_97149" data-name="Group 97149" transform="translate(68.917)">
          <path id="Path_152329" data-name="Path 152329" d="M307.643,8.332h-7.054a5.879,5.879,0,0,1,5.879,5.879V65.328a5.879,5.879,0,0,1-5.879,5.879h7.054a5.879,5.879,0,0,0,5.879-5.879V14.211a5.879,5.879,0,0,0-5.879-5.879Z" transform="translate(-300.589 -8.332)" fill="#ff9800"/>
        </g>
        <path id="Path_152330" data-name="Path 152330" d="M46.753,416.745a4.925,4.925,0,0,0,3.511,4.718,5.033,5.033,0,0,0,1.412-.03,4.688,4.688,0,1,0,0-9.376,5.033,5.033,0,0,0-1.412-.03A4.925,4.925,0,0,0,46.753,416.745Z" transform="translate(-37.523 -317.062)" fill="#eae299"/>
        <path id="Path_152332" data-name="Path 152332" d="M423.374,64.224a4.925,4.925,0,0,0,3.511,4.718,5.032,5.032,0,0,0,1.412-.03,4.688,4.688,0,1,0,0-9.376,5.032,5.032,0,0,0-1.412-.03A4.925,4.925,0,0,0,423.374,64.224Z" transform="translate(-325.585 -47.433)" fill="#eee490"/>
      </g>
      <g id="Group_97151" data-name="Group 97151" transform="translate(0 0.834)">
        <path id="Path_152334" data-name="Path 152334" d="M270.262,300.044H221.916a1.764,1.764,0,1,0,0,3.527h48.347a1.764,1.764,0,0,0,0-3.527Z" transform="translate(-168.385 -229.687)"/>
        <path id="Path_152335" data-name="Path 152335" d="M270.262,361.932H221.916a1.764,1.764,0,1,0,0,3.527h48.347a1.764,1.764,0,0,0,0-3.527Z" transform="translate(-168.385 -277.023)"/>
        <path id="Path_152336" data-name="Path 152336" d="M84.962,136.293a1.764,1.764,0,1,0-1.764,1.764A1.764,1.764,0,0,0,84.962,136.293Z" transform="translate(-62.286 -103.092)"/>
        <path id="Path_152337" data-name="Path 152337" d="M177.571,136.293a1.764,1.764,0,1,0-1.764,1.764A1.764,1.764,0,0,0,177.571,136.293Z" transform="translate(-133.119 -103.092)"/>
        <path id="Path_152338" data-name="Path 152338" d="M270.181,136.293a1.764,1.764,0,1,0-1.764,1.764A1.764,1.764,0,0,0,270.181,136.293Z" transform="translate(-203.953 -103.092)"/>
        <path id="Path_152339" data-name="Path 152339" d="M45.939,403.826a6.687,6.687,0,1,0,6.687,6.687A6.694,6.694,0,0,0,45.939,403.826Zm0,9.846a3.159,3.159,0,1,1,3.16-3.159A3.163,3.163,0,0,1,45.939,413.672Z" transform="translate(-30.023 -309.066)"/>
        <path id="Path_152340" data-name="Path 152340" d="M422.56,64.679a6.686,6.686,0,1,0-6.686-6.686A6.694,6.694,0,0,0,422.56,64.679Zm0-9.846a3.159,3.159,0,1,1-3.159,3.16,3.163,3.163,0,0,1,3.159-3.16Z" transform="translate(-318.085 -39.438)"/>
        <path id="Path_152341" data-name="Path 152341" d="M54.124,102.628H42.657a4.12,4.12,0,0,1-4.115-4.115V72.135c0-.007,0-.015,0-.022l4.706-4.706a.584.584,0,0,1,.416-.172H77.735a7.651,7.651,0,0,0,7.618-7.07h16.524a1.764,1.764,0,0,0,0-3.527h-16.5V43.281H92.7a1.764,1.764,0,0,0,0-3.527h-7.32V8.476A7.651,7.651,0,0,0,77.735.834H7.642A7.651,7.651,0,0,0,0,8.476v8.638a1.764,1.764,0,0,0,3.527,0V8.476A4.12,4.12,0,0,1,7.642,4.361H77.735A4.12,4.12,0,0,1,81.85,8.476V59.593a4.12,4.12,0,0,1-4.115,4.115H43.662a4.088,4.088,0,0,0-2.91,1.205L28.112,77.555V67.823A4.12,4.12,0,0,0,24,63.708H7.642a4.12,4.12,0,0,1-4.115-4.115V24.8A1.764,1.764,0,0,0,0,24.8V59.593a7.651,7.651,0,0,0,7.642,7.642H24a.589.589,0,0,1,.588.588V78.974A2.938,2.938,0,0,0,29.6,81.052l5.413-5.413V98.513a7.651,7.651,0,0,0,7.642,7.642H54.124a1.763,1.763,0,1,0,0-3.527Z" transform="translate(0 -0.834)"/>
        <path id="Path_152342" data-name="Path 152342" d="M308.066,166.349H295.7a1.764,1.764,0,1,0,0,3.527h12.367a4.12,4.12,0,0,1,4.115,4.115v51.117a4.12,4.12,0,0,1-4.115,4.115H291.711a4.12,4.12,0,0,0-4.115,4.115v9.731l-12.641-12.641a4.087,4.087,0,0,0-2.91-1.205h-14.92a1.764,1.764,0,0,0,0,3.527h14.92a.584.584,0,0,1,.416.172l13.645,13.645a2.939,2.939,0,0,0,5.018-2.078V233.338a.589.589,0,0,1,.588-.588h16.355a7.651,7.651,0,0,0,7.642-7.642V173.991A7.651,7.651,0,0,0,308.066,166.349Z" transform="translate(-195.316 -127.43)"/>
      </g>
    </g>
  </g>
</svg>
