<svg xmlns="http://www.w3.org/2000/svg" width="400" height="290" viewBox="0 0 400 290">
  <g id="t4-i5" transform="translate(-1020 -1638)">
    <rect id="Rectangle_32667" data-name="Rectangle 32667" width="400" height="290" rx="20" transform="translate(1020 1638)" fill="#fff1db"/>
    <text id="Reclamos" transform="translate(1063 1862)" fill="#12263f" font-size="18" font-family="Roboto-Black, Roboto" font-weight="800"><tspan x="-40.113" y="17">Reclamos</tspan></text>
    <g id="llamar" transform="translate(1154.963 1690)">
      <g id="Group_97154" data-name="Group 97154" transform="translate(1.76 1.761)">
        <path id="Path_152343" data-name="Path 152343" d="M62.344,152.655a5.862,5.862,0,0,0,6.891.808l8.217-4.667a3.908,3.908,0,0,1,3.9.02l23.035,11.333a3.908,3.908,0,0,1,1.523,5.139l-1.178,3.262-4.336,8.588A9.778,9.778,0,0,1,88.2,181.87c-24.592-9.292-47.324-32.735-47.324-32.735S17.435,126.4,8.143,101.81a9.778,9.778,0,0,1,4.733-12.189l8.588-4.336,3.027-.944a3.908,3.908,0,0,1,5.139,1.523l11.567,22.8a3.908,3.908,0,0,1,.02,3.9l-4.667,8.217a5.862,5.862,0,0,0,.808,6.891Z" transform="translate(-7.508 -66.027)" fill="#f5e878"/>
        <path id="Path_152344" data-name="Path 152344" d="M305.6,56.791c11.3-11.3,11.122-28.641-.059-40.012-6.554-6.665-14.9-9.957-23.557-8.916a29.036,29.036,0,0,0-22.143,42.52,2.509,2.509,0,0,1,.208,1.831l-3.073,11.467a1.261,1.261,0,0,0,1.545,1.544l11.467-3.073a2.515,2.515,0,0,1,1.835.211,29.008,29.008,0,0,0,10.165,3.2C290.554,66.6,299.025,63.366,305.6,56.791Z" transform="translate(-198.07 -7.655)" fill="#ffb74d"/>
        <g id="Group_97152" data-name="Group 97152" transform="translate(83.914)">
          <path id="Path_152345" data-name="Path 152345" d="M389.7,16.248A29.084,29.084,0,0,0,365.444,7.8a29.058,29.058,0,0,1,0,57.694A29.076,29.076,0,0,0,389.7,16.248Z" transform="translate(-365.444 -7.592)" fill="#ff9800"/>
        </g>
        <path id="Path_152346" data-name="Path 152346" d="M150.421,157.852l-23.5-13.677a3.908,3.908,0,0,0-3.9-.02l-8.217,4.667a5.862,5.862,0,0,1-6.891-.808L85.271,125.372a5.862,5.862,0,0,1-.808-6.891l4.667-8.217a3.908,3.908,0,0,0-.02-3.9l-13.677-23.5a3.908,3.908,0,0,0-5.139-1.523l-3.262,1.647A4.149,4.149,0,0,1,68.7,84.581L83.29,109.658a4.169,4.169,0,0,1,.022,4.157l-4.98,8.767a6.255,6.255,0,0,0,.862,7.353l24.158,24.157a6.254,6.254,0,0,0,7.352.862l8.767-4.98a4.17,4.17,0,0,1,4.157.022L148.7,164.587a4.151,4.151,0,0,1,1.593,1.665l1.647-3.262a3.908,3.908,0,0,0-1.523-5.139Z" transform="translate(-53.078 -63.73)" fill="#e4cf44"/>
      </g>
      <g id="Group_97155" data-name="Group 97155" transform="translate(0 0)">
        <path id="Path_152349" data-name="Path 152349" d="M374.734,90.98a1.758,1.758,0,0,0,1.758-1.758V70.383a1.758,1.758,0,1,0-3.517,0V89.222A1.758,1.758,0,0,0,374.734,90.98Z" transform="translate(-285.536 -52.555)"/>
        <path id="Path_152350" data-name="Path 152350" d="M372.976,181.216a1.758,1.758,0,1,0,1.758-1.758A1.758,1.758,0,0,0,372.976,181.216Z" transform="translate(-285.536 -137.404)"/>
        <path id="Path_152353" data-name="Path 152353" d="M154.8,303.065l-8.366-4.868a1.758,1.758,0,1,0-1.769,3.039l8.366,4.868a2.152,2.152,0,0,1,.838,2.827l-5.983,11.849a8.007,8.007,0,0,1-10,3.88c-23.929-9.041-46.459-32.083-46.684-32.315l-.038-.038a177.928,177.928,0,0,1-16.4-19.012,1.758,1.758,0,1,0-2.816,2.106A182.492,182.492,0,0,0,88.7,294.812a172.575,172.575,0,0,0,14.585,13.013c8.089,6.487,20.443,15.244,33.362,20.125a11.518,11.518,0,0,0,14.381-5.585l5.983-11.849A5.673,5.673,0,0,0,154.8,303.065Z" transform="translate(-54.811 -208.703)"/>
        <path id="Path_152354" data-name="Path 152354" d="M4.042,93.15a8.007,8.007,0,0,1,3.881-10l11.849-5.983a2.153,2.153,0,0,1,2.827.838l13.677,23.5a2.157,2.157,0,0,1,.011,2.143L31.62,111.87a7.589,7.589,0,0,0,1.05,8.958l.043.045,22.642,22.642.045.043a7.59,7.59,0,0,0,8.958,1.05l8.217-4.667a2.157,2.157,0,0,1,2.143.011l8.474,4.931a1.758,1.758,0,0,0,1.769-3.04l-8.474-4.931a5.685,5.685,0,0,0-5.649-.03l-8.217,4.667a4.087,4.087,0,0,1-4.8-.546L35.224,118.41a4.087,4.087,0,0,1-.546-4.8l4.667-8.217a5.686,5.686,0,0,0-.03-5.649l-13.678-23.5a5.673,5.673,0,0,0-7.452-2.208L6.338,80.013A11.516,11.516,0,0,0,.753,94.394a109.548,109.548,0,0,0,11.9,22.236,1.758,1.758,0,1,0,2.913-1.97A106.062,106.062,0,0,1,4.042,93.15Z" transform="translate(-0.001 -56.228)"/>
        <path id="Path_152355" data-name="Path 152355" d="M302.718,9.262A30.624,30.624,0,0,0,280.934.08h-.22A30.771,30.771,0,0,0,250.2,26.472a1.758,1.758,0,0,0,3.481.5A27.323,27.323,0,1,1,300.045,50.2a27.079,27.079,0,0,1-15.478,7.732A27.547,27.547,0,0,1,267.87,55a4.258,4.258,0,0,0-3.118-.358l-10.635,2.85,2.85-10.635a4.251,4.251,0,0,0-.356-3.114,27.164,27.164,0,0,1-2.933-8.986,1.758,1.758,0,1,0-3.481.5A30.668,30.668,0,0,0,253.509,45.4a.746.746,0,0,1,.061.547L250.5,57.411a3.019,3.019,0,0,0,3.7,3.7l11.467-3.073a.757.757,0,0,1,.552.064,31.058,31.058,0,0,0,14.563,3.615A30.835,30.835,0,0,0,302.718,9.262Z" transform="translate(-191.527 -0.079)"/>
      </g>
    </g>
  </g>
</svg>
