<svg xmlns="http://www.w3.org/2000/svg" width="295" height="230.895" viewBox="0 0 295 230.895">
  <g id="t4-i9" transform="translate(518.635 -82.615)">
    <g id="Group_84277" data-name="Group 84277" transform="translate(-508.021 93.129)">
      <g id="Group_84250" data-name="Group 84250" transform="translate(11.022)">
        <path id="Path_147606" data-name="Path 147606" d="M-278.85,311.346a57.193,57.193,0,0,0,6.869-47.476c-3.046-9.989-8.891-19.268-9.638-29.684-1.495-20.825,17.346-37.662,21.254-58.172,1.718-9.014-.156-19.516-7.52-24.991-7.273-5.408-17.654-4.3-25.888-.517s-15.2,9.85-23.107,14.283-17.639,7.172-25.988,3.645c-8.457-3.573-13.254-12.58-15.94-21.359s-4.006-18.128-8.591-26.081c-7.558-13.107-23.671-20.254-38.688-18.4s-28.434,11.98-35.63,25.288-8.454,29.406-4.871,44.106c1.817,7.455,4.811,14.595,6.443,22.093s1.782,15.705-1.862,22.459c-7.621,14.123-27.725,16.092-38.254,28.2-8.689,10-8.961,25.251-4.03,37.544s14.2,22.267,23.438,31.757c43.1,1.449,86.968,1.545,130.067,2.993C-314.037,317.6-295.58,312.331-278.85,311.346Z" transform="translate(487.513 -99.129)" fill="#f2d295" style="mix-blend-mode: multiply;isolation: isolate"/>
        <path id="Path_147607" data-name="Path 147607" d="M-209.264,166.626c-.114,12.19,11.474,22.8,9.457,34.822-1.079,6.433-5.98,12.954-3.132,18.821,2.521,5.192,9.739,6.092,15.257,4.4,12.919-3.952,20.772-17.157,24.527-30.135,3.532-12.207,4.41-25.842-1.248-37.221-4.558-9.168-15.075-17.262-25.754-16.514C-199.94,141.489-209.179,157.444-209.264,166.626Z" transform="translate(402.702 -110.85)" fill="#f2d295" style="mix-blend-mode: multiply;isolation: isolate"/>
        <path id="Path_147608" data-name="Path 147608" d="M-455.166,135.6a49.444,49.444,0,0,0-.986,48.112c2.537,4.657,5.966,9,10.594,11.587s10.6,3.167,15.207.539c6.987-3.986,8.533-13.386,7.977-21.411s-2.375-16.437.716-23.863c2.015-4.841,5.882-8.615,9.314-12.579s6.634-8.591,6.811-13.832c.46-13.584-13.962-12.569-22.653-9.748A49.394,49.394,0,0,0-455.166,135.6Z" transform="translate(479.712 -102.287)" fill="#f2d295" style="mix-blend-mode: multiply;isolation: isolate"/>
        <g id="Group_84249" data-name="Group 84249" transform="translate(4.828)" style="mix-blend-mode: multiply;isolation: isolate">
          <path id="Path_147609" data-name="Path 147609" d="M-278.885,312.742l-.926-.846c2.549-2.787,6.62-9.176,5.242-20.663a90.167,90.167,0,0,0-3.6-15.049c-.657-2.182-1.336-4.439-1.928-6.679a103.743,103.743,0,0,1,7.589-72.359c.989-1.959,2.061-3.925,3.1-5.826,3.072-5.635,6.249-11.463,7.614-17.758,2.4-11.047-2.339-19.326-7.754-22.344-5.193-2.9-12.525-2.454-20.113,1.215-2.777,1.342-5.474,2.983-8.083,4.57a74.8,74.8,0,0,1-10.842,5.8c-15.061,6.043-33.893.907-43.8-11.943-4.762-6.175-7.45-13.639-10.05-20.857-1.007-2.8-2.049-5.689-3.2-8.457-3.564-8.6-10.086-19.4-20.921-21.988-9.521-2.271-19.163,2.72-25.573,7.307-12.266,8.776-20.912,20.662-24.347,33.467-2.316,8.635-2.41,18.033-2.5,27.122-.135,13.535-.274,27.532-7.918,38.8-3.477,5.128-8.26,9.219-12.885,13.176-4.331,3.705-8.81,7.537-12.149,12.182-7.566,10.524-9.421,25.423-5.088,40.878,3.893,13.886,11.829,26.207,19.5,38.122l-1.055.678c-7.724-11.993-15.711-24.394-19.656-38.462-4.435-15.824-2.512-31.114,5.278-41.949,3.427-4.768,7.964-8.649,12.352-12.4,4.562-3.9,9.279-7.939,12.662-12.926,7.431-10.959,7.562-24.148,7.7-38.112.091-9.168.185-18.647,2.542-27.436,3.51-13.084,12.327-25.216,24.829-34.162,6.623-4.738,16.613-9.888,26.595-7.507,11.349,2.706,18.113,13.854,21.788,22.729,1.158,2.795,2.2,5.7,3.217,8.512,2.567,7.126,5.222,14.5,9.864,20.516,9.578,12.422,27.781,17.386,42.34,11.545a73.854,73.854,0,0,0,10.657-5.71c2.634-1.6,5.359-3.26,8.189-4.629,7.961-3.849,15.714-4.281,21.271-1.182,5.8,3.237,10.9,12.036,8.368,23.706-1.4,6.472-4.624,12.379-7.739,18.093-1.032,1.892-2.1,3.849-3.079,5.79a102.473,102.473,0,0,0-7.5,71.473c.587,2.22,1.263,4.467,1.917,6.639a91.132,91.132,0,0,1,3.648,15.261C-271.885,303.068-276.19,309.8-278.885,312.742Z" transform="translate(480.568 -97.739)" fill="#e0e8ff"/>
        </g>
      </g>
      <g id="Group_84251" data-name="Group 84251" transform="translate(0 81.98)" style="mix-blend-mode: multiply;isolation: isolate">
        <path id="Path_147610" data-name="Path 147610" d="M-468.5,265.147a17.907,17.907,0,0,0,.04-12.481,12.945,12.945,0,0,0-9.12,7.769,14.923,14.923,0,0,0-1.106,5.582q-2.077-5.445-3.7-11.072a14.713,14.713,0,0,0,8.219-7.138,18.192,18.192,0,0,0,1.77-12.459,12.885,12.885,0,0,0-10.112,6.458,15.08,15.08,0,0,0-1.869,5.415q-.858-3.771-1.511-7.6a21.109,21.109,0,0,0,2.106-11.409,21.369,21.369,0,0,0-5.384-12.547,17.424,17.424,0,0,0-4.275,13.407,17.466,17.466,0,0,0,5,10.984q.255,1.5.544,3a20.722,20.722,0,0,0-3.773-4.549c-3.563-3.2-7.768-4.564-11.688-3.794a19.417,19.417,0,0,0,6.508,13.459A12.434,12.434,0,0,0-486.139,251q1.462,5.793,3.4,11.42a20.36,20.36,0,0,0-4.36-3.924c-3.966-2.625-8.317-3.362-12.091-2.051a19.143,19.143,0,0,0,8.292,12.267,12.475,12.475,0,0,0,11,1.269q2.241,5.49,4.926,10.769a20.162,20.162,0,0,0-4.852-3.255c-4.285-2.028-8.691-2.136-12.245-.314a19.01,19.01,0,0,0,9.888,10.922,12.491,12.491,0,0,0,11.057-.288q2.974,5.112,6.364,9.966a20.1,20.1,0,0,0-5.254-2.547c-4.522-1.408-8.9-.9-12.164,1.4a19,19,0,0,0,11.3,9.432,12.487,12.487,0,0,0,10.912-1.817q3.659,4.657,7.708,9.012a20.188,20.188,0,0,0-5.569-1.805c-4.68-.774-8.944.336-11.859,3.066a19.107,19.107,0,0,0,12.534,7.806,12.472,12.472,0,0,0,10.573-3.3q4.3,4.125,8.96,7.9a20.4,20.4,0,0,0-5.8-1.034c-4.764-.131-8.838,1.556-11.344,4.668a19.368,19.368,0,0,0,13.592,6.049,12.443,12.443,0,0,0,10.05-4.72,142.756,142.756,0,0,0,16.733,10.359,1.445,1.445,0,0,0,1.993-.422,1.456,1.456,0,0,0-.786-1.868,140.162,140.162,0,0,1-12.49-7.439,14.683,14.683,0,0,0,1.639-10.785,18.326,18.326,0,0,0-6.679-10.672,12.893,12.893,0,0,0-3.59,11.441,14.99,14.99,0,0,0,2.065,5.35q-4.712-3.557-9.081-7.475a14.741,14.741,0,0,0,3.185-10.408,17.992,17.992,0,0,0-5.037-11.424,12.953,12.953,0,0,0-5.182,10.8A14.885,14.885,0,0,0-447.1,314.9q-4.122-4.142-7.873-8.6a14.775,14.775,0,0,0,4.626-9.838A17.816,17.816,0,0,0-453.71,284.5a12.977,12.977,0,0,0-6.642,9.959,14.828,14.828,0,0,0,.462,5.655q-3.485-4.651-6.574-9.574a14.777,14.777,0,0,0,5.952-9.091,17.789,17.789,0,0,0-1.673-12.32,12.973,12.973,0,0,0-7.959,8.942,14.831,14.831,0,0,0-.328,5.663q-2.805-5.085-5.185-10.4A14.754,14.754,0,0,0-468.5,265.147Z" transform="translate(503.367 -215.663)" fill="#e0e8ff"/>
      </g>
      <g id="Group_84252" data-name="Group 84252" transform="translate(180.749 118.991)" style="mix-blend-mode: multiply;isolation: isolate">
        <path id="Path_147611" data-name="Path 147611" d="M-182.143,308a15.7,15.7,0,0,1,2.066-10.747,11.35,11.35,0,0,1,6.54,8.221,13.08,13.08,0,0,1,.012,4.989q2.7-4.335,5.051-8.9a12.9,12.9,0,0,1-5.87-7.526,15.951,15.951,0,0,1,.574-11.019,11.3,11.3,0,0,1,7.615,7.261,13.223,13.223,0,0,1,.7,4.974q1.374-3.1,2.581-6.287a18.5,18.5,0,0,1,.109-10.172,18.736,18.736,0,0,1,6.745-9.891,15.28,15.28,0,0,1,1.422,12.257,15.313,15.313,0,0,1-6.153,8.609q-.473,1.251-.973,2.49a18.166,18.166,0,0,1,4.013-3.279c3.6-2.151,7.453-2.62,10.7-1.3a17.029,17.029,0,0,1-7.867,10.486,10.9,10.9,0,0,1-9.7.635q-2.233,4.738-4.845,9.254a17.864,17.864,0,0,1,4.412-2.642c3.855-1.591,7.723-1.493,10.749.271a16.784,16.784,0,0,1-9.2,9.159,10.937,10.937,0,0,1-9.676-.76q-2.852,4.347-6.052,8.438a17.7,17.7,0,0,1,4.723-1.984c4.029-1.023,7.838-.375,10.591,1.792a16.673,16.673,0,0,1-10.349,7.734,10.951,10.951,0,0,1-9.466-2.11q-3.419,3.9-7.154,7.5a17.624,17.624,0,0,1,4.95-1.306c4.128-.451,7.808.724,10.232,3.252a16.66,16.66,0,0,1-11.312,6.214,10.952,10.952,0,0,1-9.085-3.4q-3.932,3.39-8.15,6.456a17.722,17.722,0,0,1,5.1-.616c4.158.122,7.639,1.795,9.689,4.636a16.757,16.757,0,0,1-12.1,4.606,10.934,10.934,0,0,1-8.542-4.62q-4.394,2.827-9.042,5.293a17.9,17.9,0,0,1,5.165.086c4.122.69,7.343,2.827,8.976,5.927a16.979,16.979,0,0,1-12.715,2.916,10.909,10.909,0,0,1-7.853-5.754,125.122,125.122,0,0,1-16.143,6.1,1.267,1.267,0,0,1-1.644-.7,1.277,1.277,0,0,1,.99-1.475,122.656,122.656,0,0,0,12-4.3,12.873,12.873,0,0,1,.406-9.556,16.071,16.071,0,0,1,7.544-8.059,11.307,11.307,0,0,1,1.163,10.45,13.158,13.158,0,0,1-2.678,4.256q4.653-2.268,9.072-4.9a12.927,12.927,0,0,1-.988-9.493,15.772,15.772,0,0,1,6.259-8.982,11.358,11.358,0,0,1,2.64,10.164,13.047,13.047,0,0,1-2.02,4.566q4.243-2.87,8.223-6.075a12.954,12.954,0,0,1-2.325-9.244,15.621,15.621,0,0,1,4.914-9.734,11.379,11.379,0,0,1,4.038,9.688,13,13,0,0,1-1.35,4.789q3.782-3.415,7.27-7.131a12.957,12.957,0,0,1-3.592-8.825,15.6,15.6,0,0,1,3.515-10.32,11.374,11.374,0,0,1,5.343,9.035,13.018,13.018,0,0,1-.671,4.929q3.269-3.9,6.212-8.075A12.938,12.938,0,0,1-182.143,308Z" transform="translate(243.369 -268.901)" fill="#e0e8ff"/>
      </g>
      <path id="Path_147612" data-name="Path 147612" d="M-243.984,410.652H-495.638a4.667,4.667,0,0,1-4.667-4.667h0a4.667,4.667,0,0,1,4.667-4.668h251.655a4.667,4.667,0,0,1,4.667,4.668h0A4.667,4.667,0,0,1-243.984,410.652Z" transform="translate(502.434 -190.271)" fill="#e69623"/>
      <g id="Group_84266" data-name="Group 84266" transform="translate(52.519 35.675)">
        <path id="Path_147613" data-name="Path 147613" d="M-390.207,261.125a21.681,21.681,0,0,1-10.115-14.146A21.68,21.68,0,0,1-396.587,230c2.752-3.735,6.88-6.93,7.4-11.54.538-4.777-3.039-8.919-4.688-13.435a17.64,17.64,0,0,1,2.646-16.621c2.617-3.333,6.48-5.749,8.228-9.61,1.1-2.427,1.229-5.16,1.535-7.807s.865-5.41,2.608-7.425,5.01-2.932,7.133-1.323c4.023-4.154,8.759-9.19,14.092-11.428s11.736-2.554,16.726.368c3.948,2.312,6.574,6.313,10.041,9.3,2.979,2.564,6.54,4.345,9.752,6.609s6.205,5.227,7.19,9.032c1.619,6.253-2.56,12.534-2.754,18.991-.188,6.273,3.379,12.055,4.173,18.282.806,6.316-1.328,12.726-4.693,18.131s-7.905,9.963-12.4,14.468c-1.823,8.138-7.821,13.9-15.473,17.218s-16.215,3.885-24.549,3.583A46.254,46.254,0,0,1-390.207,261.125Z" transform="translate(419.567 -149.055)" fill="#6b3c00"/>
        <path id="Path_147614" data-name="Path 147614" d="M-372.837,262.036c-1.734-2.3-1.684-5.5-.96-8.28s2.034-5.4,2.606-8.219c.772-3.808.156-7.754-.635-11.558s-1.759-7.623-1.686-11.508,1.345-7.945,4.317-10.449c10.423-8.776,27.3-5.724,40.85-4.3,6.848.721,11.531,7.328,13.7,13.864s1.434,13.817-1.153,20.2-6.918,11.934-11.838,16.751c-2.934,2.874-8.134.567-12.165,1.358-3.951.775-7.358,3.186-11.071,4.743a26.986,26.986,0,0,1-18.871.674C-371.53,264.709-373.038,263.915-372.837,262.036Z" transform="translate(411.499 -166.422)" fill="#593200"/>
        <path id="Path_147615" data-name="Path 147615" d="M-307.991,281.915a36.3,36.3,0,0,0-19.741-12.908c-3.571-.893-7.274-1.237-10.787-2.339a20.483,20.483,0,0,1-2.919-1.173,64.323,64.323,0,0,1-2.013-16.463h-20.585a64.325,64.325,0,0,1-2.013,16.463,20.417,20.417,0,0,1-2.919,1.173c-3.512,1.1-7.215,1.445-10.787,2.339A36.3,36.3,0,0,0-399.5,281.915a36.292,36.292,0,0,0-7.5,22.361v50.867l91.827-1.344a14.9,14.9,0,0,0,14.686-14.9V304.276A36.3,36.3,0,0,0-307.991,281.915Z" transform="translate(421.475 -179.528)" fill="#ffc582"/>
        <path id="Path_147616" data-name="Path 147616" d="M-332.947,366.065c1.753-4.6,1.9-9.615,2.539-14.492,1.219-9.357,4.271-18.362,6.435-27.546s4.084-19.191,1.712-28.324a167.105,167.105,0,0,1-40.355-.063c-5.066,2.124-7.7,8.517-8.636,13.929s-.252,10.953-.147,16.445c.114,6.007-.474,12.019-.19,18.021s1.52,12.143,4.914,17.1A30.888,30.888,0,0,0-358.7,368.8l24.635-.36A17.739,17.739,0,0,0-332.947,366.065Z" transform="translate(410.727 -193.735)" fill="#fff"/>
        <g id="Group_84253" data-name="Group 84253" transform="translate(38.99 101.905)">
          <path id="Path_147617" data-name="Path 147617" d="M-371.252,314.358c.941-5.411,3.571-11.8,8.636-13.928a167.107,167.107,0,0,0,40.355.063,34.56,34.56,0,0,1,1.023,6.794A38.428,38.428,0,0,0-322.26,295.7a167.105,167.105,0,0,1-40.355-.063c-5.066,2.124-7.7,8.517-8.636,13.929a43.973,43.973,0,0,0-.438,9A33.349,33.349,0,0,1-371.252,314.358Z" transform="translate(371.736 -295.64)" fill="#ededed"/>
          <path id="Path_147618" data-name="Path 147618" d="M-371.365,345.973c0-.188-.013-.376-.017-.564-.088,4.121-.323,8.243-.217,12.361C-371.513,353.838-371.29,349.9-371.365,345.973Z" transform="translate(371.703 -310.81)" fill="#ededed"/>
        </g>
        <path id="Path_147619" data-name="Path 147619" d="M-345.971,257.784a43.782,43.782,0,0,0,21.178-5.734c-.04-1.006-.064-2.012-.056-3.018h-20.585A63.954,63.954,0,0,1-345.971,257.784Z" transform="translate(402.873 -179.528)" fill="#94724c"/>
        <g id="Group_84254" data-name="Group 84254" transform="translate(39.136 38.343)">
          <path id="Path_147620" data-name="Path 147620" d="M-362.379,208.777a9.554,9.554,0,0,0-3.354-3.959,3.978,3.978,0,0,0-4.838.436,5.489,5.489,0,0,0-.926,4.052,14.883,14.883,0,0,0,2.539,8.126c1.732,2.3,4.763,3.79,7.546,3.054C-361.013,216.573-360.515,212.241-362.379,208.777Z" transform="translate(371.525 -204.209)" fill="#ffc582"/>
          <path id="Path_147621" data-name="Path 147621" d="M-362.029,212.864l.3.048a17.312,17.312,0,0,0-1.323-2.767,5.807,5.807,0,0,0-2.178-2.113,3.516,3.516,0,0,0-2.966-.182,2.542,2.542,0,0,0-1.55,2.424,2.532,2.532,0,0,1,2.391-.674,2.445,2.445,0,0,1,1.805,1.643,1.864,1.864,0,0,0-1.414,1.541,3.656,3.656,0,0,0,.326,2.146,3.378,3.378,0,0,0,.672,1.082,1.6,1.6,0,0,0,1.14.508,2.367,2.367,0,0,1-1.678.95,4.561,4.561,0,0,0,4.441-.288A19.866,19.866,0,0,0-362.029,212.864Z" transform="translate(370.985 -205.243)" fill="#d6a56d"/>
        </g>
        <g id="Group_84255" data-name="Group 84255" transform="translate(84.562 39.845)">
          <path id="Path_147622" data-name="Path 147622" d="M-304.841,210.937a9.548,9.548,0,0,1,3.354-3.959,3.978,3.978,0,0,1,4.838.436,5.493,5.493,0,0,1,.926,4.052,14.887,14.887,0,0,1-2.54,8.126c-1.732,2.3-4.762,3.79-7.546,3.053C-306.207,218.733-306.705,214.4-304.841,210.937Z" transform="translate(306.183 -206.369)" fill="#ffc582"/>
          <path id="Path_147623" data-name="Path 147623" d="M-304.111,215.024l-.3.048a17.3,17.3,0,0,1,1.323-2.767,5.81,5.81,0,0,1,2.177-2.113,3.519,3.519,0,0,1,2.966-.182,2.543,2.543,0,0,1,1.55,2.425,2.531,2.531,0,0,0-2.391-.674,2.446,2.446,0,0,0-1.806,1.642,1.863,1.863,0,0,1,1.414,1.541,3.657,3.657,0,0,1-.325,2.146,3.367,3.367,0,0,1-.673,1.082,1.6,1.6,0,0,1-1.139.507,2.367,2.367,0,0,0,1.677.95,4.56,4.56,0,0,1-4.44-.289A19.866,19.866,0,0,1-304.111,215.024Z" transform="translate(305.642 -207.403)" fill="#d6a56d"/>
        </g>
        <circle id="Ellipse_4115" data-name="Ellipse 4115" cx="5.924" cy="5.924" r="5.924" transform="translate(40.397 39.932)" fill="#0094c6"/>
        <circle id="Ellipse_4116" data-name="Ellipse 4116" cx="5.924" cy="5.924" r="5.924" transform="translate(82.334 39.932)" fill="#0094c6"/>
        <ellipse id="Ellipse_4117" data-name="Ellipse 4117" cx="21.005" cy="28.248" rx="21.005" ry="28.248" transform="translate(46.249 18.891)" fill="#ffc582"/>
        <path id="Path_147624" data-name="Path 147624" d="M-359.574,200.333c-.656-.3.478-1.44,2.186-1.9,4.526-1.221,9.535-1.74,13.3,1.056.147.78-.85,1.707-1.637,1.8a5.146,5.146,0,0,1-2.3-.492A20.447,20.447,0,0,0-359.574,200.333Z" transform="translate(407.076 -163.805)" fill="#6b3c00"/>
        <path id="Path_147625" data-name="Path 147625" d="M-309.736,200.333c.656-.3-.478-1.44-2.186-1.9-4.526-1.221-9.535-1.74-13.3,1.056-.148.78.849,1.707,1.637,1.8a5.151,5.151,0,0,0,2.3-.492A20.444,20.444,0,0,1-309.736,200.333Z" transform="translate(396.551 -163.805)" fill="#6b3c00"/>
        <path id="Path_147626" data-name="Path 147626" d="M-344.68,226.068c0,.815-2.6,1.477-5.8,1.477s-5.8-.661-5.8-1.477,2.6-1.477,5.8-1.477S-344.68,225.252-344.68,226.068Z" transform="translate(406.015 -172.078)" fill="#ffa866"/>
        <path id="Path_147627" data-name="Path 147627" d="M-311.428,226.068c0,.815-2.6,1.477-5.8,1.477s-5.8-.661-5.8-1.477,2.6-1.477,5.8-1.477S-311.428,225.252-311.428,226.068Z" transform="translate(395.879 -172.078)" fill="#ffa866"/>
        <path id="Path_147628" data-name="Path 147628" d="M-334.258,224.357a4.764,4.764,0,0,1-1.339-.181,3.248,3.248,0,0,1-2.437-2.859,4.384,4.384,0,0,1,1.058-2.647l.1-.145a14.545,14.545,0,0,0,2.44-10.3,1,1,0,0,1,.846-1.133,1,1,0,0,1,1.133.846,16.565,16.565,0,0,1-2.778,11.734l-.106.151a2.9,2.9,0,0,0-.7,1.429,1.3,1.3,0,0,0,1,1.007,4.837,4.837,0,0,0,2.249-.09,1,1,0,0,1,1.185.773,1,1,0,0,1-.773,1.185A9.159,9.159,0,0,1-334.258,224.357Z" transform="translate(400.149 -167.046)" fill="#d9d9d9" style="mix-blend-mode: multiply;isolation: isolate"/>
        <g id="Group_84259" data-name="Group 84259" transform="translate(46.321 32.846)">
          <g id="Group_84256" data-name="Group 84256">
            <path id="Path_147629" data-name="Path 147629" d="M-351.834,215.016a9.368,9.368,0,0,1-9.357-9.357,9.368,9.368,0,0,1,9.357-9.357,9.368,9.368,0,0,1,9.357,9.357A9.368,9.368,0,0,1-351.834,215.016Zm0-17.191a7.843,7.843,0,0,0-7.834,7.833,7.843,7.843,0,0,0,7.834,7.834A7.843,7.843,0,0,0-344,205.659,7.843,7.843,0,0,0-351.834,197.825Z" transform="translate(361.191 -196.302)" fill="#fff"/>
          </g>
          <g id="Group_84257" data-name="Group 84257" transform="translate(23.484)">
            <path id="Path_147630" data-name="Path 147630" d="M-318.054,215.016a9.367,9.367,0,0,1-9.357-9.357,9.367,9.367,0,0,1,9.357-9.357,9.368,9.368,0,0,1,9.357,9.357A9.368,9.368,0,0,1-318.054,215.016Zm0-17.191a7.843,7.843,0,0,0-7.834,7.833,7.843,7.843,0,0,0,7.834,7.834,7.843,7.843,0,0,0,7.834-7.834A7.843,7.843,0,0,0-318.054,197.825Z" transform="translate(327.411 -196.302)" fill="#fff"/>
          </g>
          <g id="Group_84258" data-name="Group 84258" transform="translate(17.512 7.61)">
            <path id="Path_147631" data-name="Path 147631" d="M-335.12,209.617l-.881-1.242a6.328,6.328,0,0,1,7.175,0l-.884,1.24A4.859,4.859,0,0,0-335.12,209.617Z" transform="translate(336.001 -207.249)" fill="#fff"/>
          </g>
        </g>
        <path id="Path_147632" data-name="Path 147632" d="M-333.666,237.876a13.067,13.067,0,0,1-6.589-1.737,1,1,0,0,1-.361-1.367,1,1,0,0,1,1.367-.361,11.523,11.523,0,0,0,11.944-.447,1,1,0,0,1,1.39.258,1,1,0,0,1-.258,1.39,13.132,13.132,0,0,1-6.966,2.255C-333.315,237.873-333.491,237.876-333.666,237.876Z" transform="translate(400.977 -175.186)" fill="#d9d9d9" style="mix-blend-mode: multiply;isolation: isolate"/>
        <path id="Path_147633" data-name="Path 147633" d="M-331.235,243.529a9.1,9.1,0,0,1-2.906-.476,1,1,0,0,1-.628-1.267,1,1,0,0,1,1.267-.628,7.1,7.1,0,0,0,3.435.274,1,1,0,0,1,1.152.82,1,1,0,0,1-.82,1.152A9.042,9.042,0,0,1-331.235,243.529Z" transform="translate(399.169 -177.417)" fill="#d9d9d9" style="mix-blend-mode: multiply;isolation: isolate"/>
        <path id="Path_147634" data-name="Path 147634" d="M-373.493,203.986a44.242,44.242,0,0,0,15.52-20.75,26.574,26.574,0,0,0,18.877,6.842,7.96,7.96,0,0,1-3.141-3.032,31.163,31.163,0,0,1,16.531,10.712,71.478,71.478,0,0,0,5.231,6.329c1.985,1.887,4.639,3.318,7.363,3.025-1.7-7.225-3.352-14.694-6.073-21.6-1.671-4.239-3.642-8.559-7.13-11.49-4.34-3.648-10.4-4.574-16.053-4.16a38.624,38.624,0,0,0-17.147,5.4,36.875,36.875,0,0,0-15.362,18.683,13.846,13.846,0,0,0-1.046,5.313A6.329,6.329,0,0,0-373.493,203.986Z" transform="translate(412.005 -155.369)" fill="#6b3c00"/>
        <path id="Path_147635" data-name="Path 147635" d="M-362.908,224.81a1.913,1.913,0,0,1-1.912,1.913,1.913,1.913,0,0,1-1.913-1.913,1.913,1.913,0,0,1,1.913-1.912A1.913,1.913,0,0,1-362.908,224.81Z" transform="translate(409.201 -171.562)" fill="#ffee3d"/>
        <path id="Path_147636" data-name="Path 147636" d="M-297.04,224.81a1.913,1.913,0,0,1-1.913,1.913,1.913,1.913,0,0,1-1.913-1.913,1.913,1.913,0,0,1,1.913-1.912A1.913,1.913,0,0,1-297.04,224.81Z" transform="translate(389.124 -171.562)" fill="#ffee3d"/>
        <path id="Path_147637" data-name="Path 147637" d="M-347.8,205.739a1.913,1.913,0,0,0-1.609,1.39l1.609,1.609-1.609,1.61a1.913,1.913,0,0,0,1.609,1.39c1.057,0,1.912-1.343,1.912-3S-346.743,205.739-347.8,205.739Z" transform="translate(403.92 -166.332)" fill="#453e18"/>
        <path id="Path_147638" data-name="Path 147638" d="M-315.657,205.739a1.914,1.914,0,0,0-1.61,1.39l1.61,1.609-1.61,1.61a1.914,1.914,0,0,0,1.61,1.39c1.056,0,1.912-1.343,1.912-3S-314.6,205.739-315.657,205.739Z" transform="translate(394.123 -166.332)" fill="#453e18"/>
        <path id="Path_147639" data-name="Path 147639" d="M-366.529,189.135a21.178,21.178,0,0,1,.923-9.306,22.99,22.99,0,0,1,4.881-8.278,23.44,23.44,0,0,1,7.944-5.686,24.246,24.246,0,0,1,9.64-2.021,24.228,24.228,0,0,1,9.642,2.017,23.441,23.441,0,0,1,7.947,5.686,23.006,23.006,0,0,1,4.882,8.28,21.176,21.176,0,0,1,.918,9.308,25.209,25.209,0,0,0-7.9-15.488,23.2,23.2,0,0,0-15.488-6,23.182,23.182,0,0,0-15.491,5.993A25.178,25.178,0,0,0-366.529,189.135Z" transform="translate(409.191 -153.563)" fill="#fff"/>
        <g id="Group_84260" data-name="Group 84260" transform="translate(14.473 87.474)">
          <path id="Path_147640" data-name="Path 147640" d="M-302.679,276.959c-2.959-.74-6.007-1.109-8.964-1.838a695.806,695.806,0,0,0-13.164,87.139l34.687-.508a14.9,14.9,0,0,0,14.686-14.9V312.228a36.3,36.3,0,0,0-7.5-22.361A36.3,36.3,0,0,0-302.679,276.959Z" transform="translate(381.948 -274.954)" fill="#009fcf"/>
          <path id="Path_147641" data-name="Path 147641" d="M-370.133,274.881c-3.16.847-6.443,1.21-9.622,2A36.3,36.3,0,0,0-399.5,289.794a36.292,36.292,0,0,0-7.5,22.361v50.867l50.076-.733A695.814,695.814,0,0,0-370.133,274.881Z" transform="translate(407.002 -274.881)" fill="#009fcf"/>
        </g>
        <path id="Path_147642" data-name="Path 147642" d="M-372.108,277.156c-1.079.27-2.143.6-3.19.967q-3.626,10.3-6.615,20.752c3.785,2.184,7.443,4.9,11.561,6.631-1.486,3.625-3.076,7.637-4.561,11.261a340.968,340.968,0,0,1,19.4,45.868l6.235-.075a582.266,582.266,0,0,0-15.883-86.794C-367.474,276.232-369.818,276.583-372.108,277.156Z" transform="translate(413.828 -187.677)" fill="#009fcf" opacity="0.18" style="mix-blend-mode: multiply;isolation: isolate"/>
        <path id="Path_147643" data-name="Path 147643" d="M-299.142,316.794c-1.453-3.625-3.007-7.637-4.46-11.261,4.027-1.727,7.6-4.446,11.3-6.631q-2.865-10.29-6.361-20.446a35.2,35.2,0,0,0-4.021-1.272c-2.184-.546-4.416-.891-6.625-1.327a594.228,594.228,0,0,0-15.5,86.628l6.787-.1A344.828,344.828,0,0,1-299.142,316.794Z" transform="translate(396.422 -187.704)" fill="#009fcf" opacity="0.18" style="mix-blend-mode: multiply;isolation: isolate"/>
        <path id="Path_147644" data-name="Path 147644" d="M-359.959,274.881c-2.568.688-5.216,1.06-7.824,1.6q-3.221,10.98-5.84,22.123c3.117,2.184,6.128,4.9,9.52,6.631-1.224,3.625-2.533,7.637-3.756,11.261a383.888,383.888,0,0,1,15.975,45.868l5.134-.075A695.819,695.819,0,0,0-359.959,274.881Z" transform="translate(411.301 -187.407)" fill="#00ace0"/>
        <path id="Path_147645" data-name="Path 147645" d="M-303.182,276.847c-2.8-.661-5.671-1.038-8.461-1.726a695.806,695.806,0,0,0-13.164,87.139l5.711-.083a383.517,383.517,0,0,1,15.9-45.606c-1.224-3.625-2.533-7.637-3.756-11.261,3.392-1.727,6.4-4.446,9.52-6.631Q-300.007,287.687-303.182,276.847Z" transform="translate(396.422 -187.48)" fill="#00ace0"/>
        <g id="Group_84264" data-name="Group 84264" transform="translate(51.993 85.547)">
          <g id="Group_84261" data-name="Group 84261">
            <path id="Path_147646" data-name="Path 147646" d="M-351.889,274.4a1.153,1.153,0,0,1-.807-.334,1.666,1.666,0,0,1-.145-.175.959.959,0,0,1-.1-.2,1.138,1.138,0,0,1-.069-.213,1.137,1.137,0,0,1-.023-.22,1.161,1.161,0,0,1,.023-.229,1.148,1.148,0,0,1,.069-.213.941.941,0,0,1,.1-.2,1.534,1.534,0,0,1,.145-.175,1.191,1.191,0,0,1,1.028-.313,1.047,1.047,0,0,1,.213.069.85.85,0,0,1,.2.106,1.042,1.042,0,0,1,.175.138,1.466,1.466,0,0,1,.145.175,1.58,1.58,0,0,1,.107.2c.023.068.045.145.06.213a1.161,1.161,0,0,1,.023.229,1.137,1.137,0,0,1-.023.22,2.17,2.17,0,0,1-.06.213,1.633,1.633,0,0,1-.107.2,1.586,1.586,0,0,1-.145.175.758.758,0,0,1-.175.137.8.8,0,0,1-.2.106,1.009,1.009,0,0,1-.213.069A1.033,1.033,0,0,1-351.889,274.4Z" transform="translate(353.031 -272.109)" fill="#ffee3d"/>
          </g>
          <g id="Group_84262" data-name="Group 84262" transform="translate(1.076 1.706)">
            <path id="Path_147647" data-name="Path 147647" d="M-338.152,281.709h0a1.139,1.139,0,0,1-1.089-1.02h0a1.149,1.149,0,0,1-1.233.838h-.008a1.144,1.144,0,0,1-1.005-1.1h0a1.148,1.148,0,0,1-1.294.747h0a1.151,1.151,0,0,1-.929-1.18h0a1.138,1.138,0,0,1-1.371.624h0a1.132,1.132,0,0,1-.792-1.294h0a1.146,1.146,0,0,1-1.47.426h0a1.148,1.148,0,0,1-.571-1.431h0a1.15,1.15,0,0,1-1.545.129h0a1.144,1.144,0,0,1-.244-1.538h0a1.145,1.145,0,0,1-1.545-.252h0a1.15,1.15,0,0,1,.213-1.607h0a1.147,1.147,0,0,1,1.6.213h.008a1.158,1.158,0,0,1,.038,1.333h0a1.157,1.157,0,0,1,1.34.045h0a1.146,1.146,0,0,1,.365,1.3h0a1.137,1.137,0,0,1,1.333-.251h0a1.135,1.135,0,0,1,.632,1.233h0a1.137,1.137,0,0,1,1.3-.494h0a1.135,1.135,0,0,1,.807,1.149h0a1.152,1.152,0,0,1,1.257-.655h0a1.137,1.137,0,0,1,.929,1.089h0a1.147,1.147,0,0,1,1.21-.761h0a1.14,1.14,0,0,1,1.005,1.012h0a1.143,1.143,0,0,1,1.15-.845h0a1.139,1.139,0,0,1,1.073.93h0a1.153,1.153,0,0,1,1.074-.936h0a1.149,1.149,0,0,1,1.149.829h0a1.142,1.142,0,0,1,.975-1.028h0a1.147,1.147,0,0,1,1.226.708h0a1.132,1.132,0,0,1,.861-1.119h0a1.144,1.144,0,0,1,1.287.571h0a1.144,1.144,0,0,1,.723-1.2h0a1.147,1.147,0,0,1,1.348.4h0a1.141,1.141,0,0,1,.571-1.28h0a1.134,1.134,0,0,1,1.379.244h0a1.139,1.139,0,0,1,.4-1.34h0a1.132,1.132,0,0,1,1.394.054h0a1.148,1.148,0,0,1,.213-1.378h0a1.142,1.142,0,0,1,1.614.038h0a1.135,1.135,0,0,1-.038,1.614h0a1.141,1.141,0,0,1-1.516.054h0a1.141,1.141,0,0,1-.343,1.477h0a1.143,1.143,0,0,1-1.507-.16h0a1.134,1.134,0,0,1-.526,1.416h0a1.139,1.139,0,0,1-1.47-.35h0a1.15,1.15,0,0,1-.7,1.34h0a1.149,1.149,0,0,1-1.416-.526h0a1.143,1.143,0,0,1-.853,1.241h0a1.137,1.137,0,0,1-1.34-.685h0a1.154,1.154,0,0,1-.982,1.142h0a1.137,1.137,0,0,1-1.264-.822h0a1.138,1.138,0,0,1-1.081,1.043h0a1.154,1.154,0,0,1-1.18-.929h0a1.136,1.136,0,0,1-1.119.936h-.045Z" transform="translate(351.484 -274.564)" fill="#ffee3d"/>
          </g>
          <g id="Group_84263" data-name="Group 84263" transform="translate(29.331 0.042)">
            <path id="Path_147648" data-name="Path 147648" d="M-309.7,274.439a1.154,1.154,0,0,1-.806-.335,1.141,1.141,0,0,1-.336-.807,1.152,1.152,0,0,1,.336-.807,1.177,1.177,0,0,1,1.614,0,1.152,1.152,0,0,1,.335.807,1.154,1.154,0,0,1-.335.807A1.156,1.156,0,0,1-309.7,274.439Z" transform="translate(310.84 -272.169)" fill="#ffee3d"/>
          </g>
        </g>
        <g id="Group_84265" data-name="Group 84265" transform="translate(43.381 46.35)">
          <path id="Path_147649" data-name="Path 147649" d="M-348.411,235.669h-.038a38.9,38.9,0,0,1-6.577-.764,13.325,13.325,0,0,1-6.073-2.992,13.6,13.6,0,0,1-3.842-7.39,38.882,38.882,0,0,1-.459-8.177.648.648,0,0,1,.637-.618.627.627,0,0,1,.618.636,37.864,37.864,0,0,0,.435,7.914,12.356,12.356,0,0,0,3.457,6.709,12.092,12.092,0,0,0,5.511,2.7,37.863,37.863,0,0,0,6.366.733.628.628,0,0,1,.59.663A.628.628,0,0,1-348.411,235.669Z" transform="translate(365.42 -215.727)" fill="#006385"/>
        </g>
        <path id="Path_147650" data-name="Path 147650" d="M-340.387,242.7c0,.939-1.057,1.7-2.362,1.7s-2.362-.761-2.362-1.7,1.057-1.7,2.362-1.7S-340.387,241.757-340.387,242.7Z" transform="translate(402.61 -177.079)" fill="#006385"/>
        <path id="Path_147651" data-name="Path 147651" d="M-404.175,295.218c-7.107,7.3-12,16.523-15.416,26.121s-5.445,19.626-7.459,29.614c-.579,2.873-1.157,5.864-.432,8.7,1.486,5.821,7.916,9,13.882,9.7s12.076-.3,17.981.8C-391.228,345.333-393.058,317.844-404.175,295.218Z" transform="translate(427.821 -193.606)" fill="#009fcf"/>
        <path id="Path_147652" data-name="Path 147652" d="M-364.815,382.609a74.932,74.932,0,0,1,13.338-3.032,25.084,25.084,0,0,1,13.388,1.925,15.2,15.2,0,0,1,8.473,10.153c.3,1.424-2.443,1.805-3.842,2.206a13.1,13.1,0,0,1-4.336.242l-14.522-.81c-3.457-.193-7.227.657-10.126-1.237a6.649,6.649,0,0,1-2.654-4.31C-365.44,386.048-364.925,384.339-364.815,382.609Z" transform="translate(408.737 -219.266)" fill="#ffc582"/>
        <path id="Path_147653" data-name="Path 147653" d="M-407.9,373.078a344.156,344.156,0,0,1,37.988-.054c1.157,5.936,2.711,12.429,2.193,18.454a61.579,61.579,0,0,1-30.915.3C-405.607,390.064-407.992,380.255-407.9,373.078Z" transform="translate(421.751 -217.17)" fill="#009fcf"/>
        <path id="Path_147654" data-name="Path 147654" d="M-369.677,361.68a40.806,40.806,0,0,0-14.492-4.184,126.762,126.762,0,0,0,.508-21.779,57.376,57.376,0,0,1,3.1,17.966C-376.279,355.242-372.052,357.79-369.677,361.68Z" transform="translate(414.515 -205.95)" fill="#009fcf" opacity="0.18" style="mix-blend-mode: multiply;isolation: isolate"/>
      </g>
      <g id="Group_84268" data-name="Group 84268" transform="translate(78.288 145.384)">
        <path id="Rectangle_32485" data-name="Rectangle 32485" d="M0,0H144.456a0,0,0,0,1,0,0V0a4.106,4.106,0,0,1-4.106,4.106H4.106A4.106,4.106,0,0,1,0,0V0A0,0,0,0,1,0,0Z" transform="translate(0 61.557)" fill="#e0e8ff"/>
        <path id="Rectangle_32486" data-name="Rectangle 32486" d="M0,0H144.456a0,0,0,0,1,0,0V0a4.106,4.106,0,0,1-4.106,4.106H4.106A4.106,4.106,0,0,1,0,0V0A0,0,0,0,1,0,0Z" transform="translate(0 61.557)" fill="#d0d8ed" style="mix-blend-mode: multiply;isolation: isolate"/>
        <path id="Path_147655" data-name="Path 147655" d="M-340.429,396.607v-1.2h-50.325v1.2a2.911,2.911,0,0,0,2.911,2.911h44.5A2.911,2.911,0,0,0-340.429,396.607Z" transform="translate(390.754 -333.854)" fill="#d0d8ed" style="mix-blend-mode: multiply;isolation: isolate"/>
        <g id="Group_84267" data-name="Group 84267" transform="translate(50.325)">
          <path id="Path_147656" data-name="Path 147656" d="M-224.233,368.422h-94.131l20.99-57.669a6.15,6.15,0,0,1,5.3-3.888h86.355c2.147,0,3.254,1.741,2.473,3.888Z" transform="translate(318.364 -306.865)" fill="#fff"/>
          <path id="Path_147657" data-name="Path 147657" d="M-231.325,348.487c-1.215,3.339-4.907,6.045-8.246,6.045s-5.06-2.706-3.845-6.045,4.907-6.045,8.246-6.045S-230.11,345.149-231.325,348.487Z" transform="translate(295.638 -317.709)" fill="#c5cce0"/>
        </g>
        <path id="Path_147658" data-name="Path 147658" d="M-334.634,398.8H-337.9a.747.747,0,0,1-.747-.747h0a.746.746,0,0,1,.747-.747h3.267a.746.746,0,0,1,.747.747h0A.747.747,0,0,1-334.634,398.8Z" transform="translate(374.872 -334.432)" fill="#d0d8ed" style="mix-blend-mode: multiply;isolation: isolate"/>
        <path id="Path_147659" data-name="Path 147659" d="M-344.167,398.8h-3.267a.747.747,0,0,1-.747-.747h0a.746.746,0,0,1,.747-.747h3.267a.746.746,0,0,1,.747.747h0A.746.746,0,0,1-344.167,398.8Z" transform="translate(377.777 -334.432)" fill="#d0d8ed" style="mix-blend-mode: multiply;isolation: isolate"/>
        <path id="Path_147660" data-name="Path 147660" d="M-353.7,398.8h-3.267a.746.746,0,0,1-.747-.747h0a.746.746,0,0,1,.747-.747h3.267a.746.746,0,0,1,.747.747h0A.747.747,0,0,1-353.7,398.8Z" transform="translate(380.683 -334.432)" fill="#d0d8ed" style="mix-blend-mode: multiply;isolation: isolate"/>
      </g>
      <g id="Group_84270" data-name="Group 84270" transform="translate(37.588 182.28)">
        <g id="Group_84269" data-name="Group 84269" transform="translate(17.778 1.053)">
          <path id="Path_147661" data-name="Path 147661" d="M-413.8,381.315a9.942,9.942,0,0,1-9.93-9.931,9.942,9.942,0,0,1,9.93-9.931,9.942,9.942,0,0,1,9.931,9.931A9.942,9.942,0,0,1-413.8,381.315Zm0-16.758a6.834,6.834,0,0,0-6.827,6.827,6.834,6.834,0,0,0,6.827,6.827,6.834,6.834,0,0,0,6.827-6.827A6.834,6.834,0,0,0-413.8,364.557Z" transform="translate(423.727 -361.453)" fill="#d6d6d6"/>
        </g>
        <path id="Path_147662" data-name="Path 147662" d="M-449.3,380.163a13.231,13.231,0,0,0,.476,3.527,6.906,6.906,0,0,0,6.678,5.016h12.194a6.906,6.906,0,0,0,6.678-5.016,13.231,13.231,0,0,0,.476-3.527V359.939h-26.5Z" transform="translate(449.299 -359.939)" fill="#fff"/>
        <path id="Path_147663" data-name="Path 147663" d="M-424.536,359.939v20.224a13.231,13.231,0,0,1-.476,3.527,6.906,6.906,0,0,1-6.678,5.016h7.106a6.906,6.906,0,0,0,6.678-5.016,13.231,13.231,0,0,0,.476-3.527V359.939Z" transform="translate(443.932 -359.939)" opacity="0.1"/>
      </g>
      <path id="Path_147664" data-name="Path 147664" d="M-251.212,140.932a15.953,15.953,0,0,0-.1-1.758l2.506-1.081a18.309,18.309,0,0,0-.581-2.547l-2.736.113a15.8,15.8,0,0,0-1.523-3.16l1.794-2.066a18.648,18.648,0,0,0-1.631-2.044l-2.4,1.281a15.933,15.933,0,0,0-2.754-2.181l.719-2.638a18.415,18.415,0,0,0-2.355-1.136l-1.615,2.207a15.76,15.76,0,0,0-3.422-.788l-.5-2.678c-.432-.031-.868-.051-1.308-.051s-.875.021-1.308.051l-.5,2.678a15.76,15.76,0,0,0-3.422.788l-1.615-2.207a18.413,18.413,0,0,0-2.355,1.136l.719,2.638a15.932,15.932,0,0,0-2.754,2.181l-2.4-1.281a18.65,18.65,0,0,0-1.631,2.044l1.794,2.066a15.8,15.8,0,0,0-1.523,3.16l-2.736-.113a18.307,18.307,0,0,0-.581,2.547l2.506,1.081a15.95,15.95,0,0,0-.1,1.758,15.946,15.946,0,0,0,.1,1.757l-2.506,1.081a18.316,18.316,0,0,0,.581,2.548l2.736-.114a15.792,15.792,0,0,0,1.523,3.16l-1.794,2.066a18.651,18.651,0,0,0,1.631,2.044l2.4-1.281a15.96,15.96,0,0,0,2.754,2.181l-.719,2.638a18.413,18.413,0,0,0,2.355,1.136l1.615-2.207a15.8,15.8,0,0,0,3.422.787l.5,2.679c.432.031.868.051,1.308.051s.875-.021,1.308-.051l.5-2.679a15.8,15.8,0,0,0,3.422-.787l1.615,2.207a18.415,18.415,0,0,0,2.355-1.136l-.719-2.638a15.992,15.992,0,0,0,2.754-2.181l2.4,1.281a18.65,18.65,0,0,0,1.631-2.044l-1.794-2.066a15.791,15.791,0,0,0,1.523-3.16l2.736.114a18.318,18.318,0,0,0,.581-2.548l-2.506-1.081A15.95,15.95,0,0,0-251.212,140.932Zm-15.906,11.252a11.252,11.252,0,0,1-11.252-11.252,11.252,11.252,0,0,1,11.252-11.252,11.252,11.252,0,0,1,11.252,11.252A11.252,11.252,0,0,1-267.118,152.184Z" transform="translate(436.938 -105.257)" fill="#e0e8ff" style="mix-blend-mode: screen;isolation: isolate"/>
      <path id="Path_147665" data-name="Path 147665" d="M-439.206,241.841a13.4,13.4,0,0,0-.086-1.474l2.1-.907a15.453,15.453,0,0,0-.488-2.136l-2.294.1a13.264,13.264,0,0,0-1.277-2.649l1.5-1.732a15.557,15.557,0,0,0-1.367-1.714l-2.013,1.074a13.4,13.4,0,0,0-2.31-1.828l.6-2.212a15.461,15.461,0,0,0-1.974-.953l-1.354,1.851a13.239,13.239,0,0,0-2.87-.66l-.415-2.246c-.363-.025-.728-.042-1.1-.042s-.733.017-1.1.042l-.416,2.246a13.243,13.243,0,0,0-2.869.66l-1.354-1.851a15.413,15.413,0,0,0-1.974.953l.6,2.212a13.388,13.388,0,0,0-2.309,1.828l-2.013-1.074a15.557,15.557,0,0,0-1.367,1.714l1.5,1.732a13.227,13.227,0,0,0-1.277,2.649l-2.295-.1a15.545,15.545,0,0,0-.487,2.136l2.1.907a13.4,13.4,0,0,0-.086,1.474,13.392,13.392,0,0,0,.086,1.474l-2.1.907a15.523,15.523,0,0,0,.487,2.136l2.295-.1a13.209,13.209,0,0,0,1.277,2.649l-1.5,1.733a15.557,15.557,0,0,0,1.367,1.714l2.013-1.075a13.391,13.391,0,0,0,2.309,1.829l-.6,2.212a15.411,15.411,0,0,0,1.974.952l1.354-1.851a13.2,13.2,0,0,0,2.869.66l.416,2.246c.363.026.727.043,1.1.043s.734-.017,1.1-.043l.415-2.246a13.2,13.2,0,0,0,2.87-.66l1.354,1.851a15.459,15.459,0,0,0,1.974-.952l-.6-2.212a13.37,13.37,0,0,0,2.31-1.829l2.013,1.075a15.557,15.557,0,0,0,1.367-1.714l-1.5-1.733a13.245,13.245,0,0,0,1.277-2.649l2.294.1a15.431,15.431,0,0,0,.488-2.136l-2.1-.907A13.393,13.393,0,0,0-439.206,241.841Zm-13.337,9.435a9.435,9.435,0,0,1-9.435-9.435,9.435,9.435,0,0,1,9.435-9.434,9.435,9.435,0,0,1,9.435,9.434A9.435,9.435,0,0,1-452.543,251.276Z" transform="translate(492.555 -136.927)" fill="#e0e8ff" style="mix-blend-mode: screen;isolation: isolate"/>
      <path id="Path_147666" data-name="Path 147666" d="M-161.976,274.721a9.86,9.86,0,0,0-.063-1.078l1.537-.663a11.3,11.3,0,0,0-.357-1.562l-1.678.07a9.714,9.714,0,0,0-.934-1.938l1.1-1.267a11.289,11.289,0,0,0-1-1.253l-1.472.786a9.8,9.8,0,0,0-1.689-1.338l.441-1.618a11.326,11.326,0,0,0-1.445-.7l-.991,1.354a9.7,9.7,0,0,0-2.1-.482l-.3-1.643c-.266-.019-.533-.031-.8-.031s-.537.013-.8.031l-.3,1.643a9.7,9.7,0,0,0-2.1.482l-.991-1.354a11.328,11.328,0,0,0-1.445.7l.441,1.618a9.8,9.8,0,0,0-1.689,1.338l-1.472-.786a11.365,11.365,0,0,0-1,1.253l1.1,1.267a9.679,9.679,0,0,0-.934,1.938l-1.678-.07a11.2,11.2,0,0,0-.357,1.562l1.537.663a9.856,9.856,0,0,0-.063,1.078,9.857,9.857,0,0,0,.063,1.078l-1.537.663a11.2,11.2,0,0,0,.357,1.562l1.678-.07a9.679,9.679,0,0,0,.934,1.938l-1.1,1.267a11.434,11.434,0,0,0,1,1.253l1.472-.786a9.8,9.8,0,0,0,1.689,1.338l-.441,1.618a11.34,11.34,0,0,0,1.445.7l.991-1.354a9.655,9.655,0,0,0,2.1.483l.3,1.643c.266.019.532.031.8.031s.537-.013.8-.031l.3-1.643a9.655,9.655,0,0,0,2.1-.483l.991,1.354a11.338,11.338,0,0,0,1.445-.7l-.441-1.618a9.8,9.8,0,0,0,1.689-1.338l1.472.786a11.357,11.357,0,0,0,1-1.253l-1.1-1.267a9.714,9.714,0,0,0,.934-1.938l1.678.07a11.3,11.3,0,0,0,.357-1.562l-1.537-.663A9.861,9.861,0,0,0-161.976,274.721Zm-9.756,6.9a6.9,6.9,0,0,1-6.9-6.9,6.9,6.9,0,0,1,6.9-6.9,6.9,6.9,0,0,1,6.9,6.9A6.9,6.9,0,0,1-171.732,281.622Z" transform="translate(405.706 -148.22)" fill="#e0e8ff" style="mix-blend-mode: screen;isolation: isolate"/>
      <g id="Group_84271" data-name="Group 84271" transform="translate(169.083 96.288)">
        <path id="Path_147667" data-name="Path 147667" d="M-228.862,236.244h-24.189a7.1,7.1,0,0,0-7.1,7.1V254.9a7.1,7.1,0,0,0,7.1,7.1h.813l-1.645,2.325a.925.925,0,0,0,1.116,1.385l7.714-3.268a5.584,5.584,0,0,1,2.179-.443h14.012a7.1,7.1,0,0,0,7.1-7.1v-11.56A7.1,7.1,0,0,0-228.862,236.244Z" transform="translate(260.15 -236.244)" fill="#fff"/>
        <path id="Path_147668" data-name="Path 147668" d="M-225.036,247.572h-28.653a1.231,1.231,0,0,1-1.231-1.231h0a1.231,1.231,0,0,1,1.231-1.231h28.653a1.231,1.231,0,0,1,1.231,1.231h0A1.231,1.231,0,0,1-225.036,247.572Z" transform="translate(258.556 -238.946)" fill="#e69623"/>
        <path id="Path_147669" data-name="Path 147669" d="M-225.036,255.461h-28.653a1.231,1.231,0,0,1-1.231-1.231h0A1.231,1.231,0,0,1-253.689,253h28.653a1.231,1.231,0,0,1,1.231,1.231h0A1.231,1.231,0,0,1-225.036,255.461Z" transform="translate(258.556 -241.351)" fill="#e69623"/>
        <path id="Path_147670" data-name="Path 147670" d="M-237.582,263.349h-16.107a1.231,1.231,0,0,1-1.231-1.231h0a1.231,1.231,0,0,1,1.231-1.231h16.107a1.231,1.231,0,0,1,1.231,1.231h0A1.231,1.231,0,0,1-237.582,263.349Z" transform="translate(258.556 -243.755)" fill="#e69623"/>
      </g>
      <g id="Group_84276" data-name="Group 84276" transform="translate(201.419 27.165)">
        <rect id="Rectangle_32487" data-name="Rectangle 32487" width="51.307" height="51.307" rx="20.34" fill="#e69623"/>
        <g id="Group_84275" data-name="Group 84275" transform="translate(7.522 6.447)">
          <g id="Group_84274" data-name="Group 84274">
            <g id="Group_84272" data-name="Group 84272" transform="translate(0 2.159)">
              <path id="Path_147671" data-name="Path 147671" d="M-198.292,179.315a18.156,18.156,0,0,1,1.608-25.6,18.156,18.156,0,0,1,25.6,1.608,1.448,1.448,0,0,1-.128,2.043,1.448,1.448,0,0,1-2.044-.129,15.259,15.259,0,0,0-21.511-1.351,15.259,15.259,0,0,0-1.351,21.511,15.259,15.259,0,0,0,21.511,1.351,15.266,15.266,0,0,0,4.812-14.686,1.448,1.448,0,0,1,1.107-1.723,1.448,1.448,0,0,1,1.722,1.107,18.163,18.163,0,0,1-5.726,17.474A18.156,18.156,0,0,1-198.292,179.315Z" transform="translate(202.817 -149.193)" fill="#fff"/>
            </g>
            <g id="Group_84273" data-name="Group 84273" transform="translate(21.397)">
              <path id="Path_147672" data-name="Path 147672" d="M-171.677,156.879a1.443,1.443,0,0,1-.357-.845,1.448,1.448,0,0,1,1.331-1.555l6.342-.49-.491-6.342a1.448,1.448,0,0,1,1.332-1.555,1.448,1.448,0,0,1,1.555,1.331l.6,7.785a1.446,1.446,0,0,1-.344,1.053,1.45,1.45,0,0,1-.988.5l-7.785.6A1.448,1.448,0,0,1-171.677,156.879Z" transform="translate(172.038 -146.088)" fill="#fff"/>
            </g>
          </g>
          <text id="_24_7" data-name="24/7" transform="translate(6.257 22.129)" fill="#fff" font-size="9" font-family="Poppins-Bold, Poppins" font-weight="700"><tspan x="0" y="0">24/7</tspan></text>
        </g>
      </g>
    </g>
    <g id="Group_84278" data-name="Group 84278" transform="translate(-516.929 88.253)" style="mix-blend-mode: multiply;isolation: isolate">
      <circle id="Ellipse_4118" data-name="Ellipse 4118" cx="2.337" cy="2.337" r="2.337" transform="translate(16.33 69.52)" fill="#e0e8ff"/>
      <circle id="Ellipse_4119" data-name="Ellipse 4119" cx="1.496" cy="1.496" r="1.496" transform="translate(0 128.386)" fill="#e0e8ff"/>
      <path id="Path_147673" data-name="Path 147673" d="M-493.672,374.181a1.118,1.118,0,0,1-1.118,1.118,1.118,1.118,0,0,1-1.118-1.118,1.118,1.118,0,0,1,1.118-1.118A1.118,1.118,0,0,1-493.672,374.181Z" transform="translate(510.002 -176.783)" fill="#e0e8ff"/>
      <circle id="Ellipse_4120" data-name="Ellipse 4120" cx="0.923" cy="0.923" r="0.923" transform="translate(19.915 54.937) rotate(-89.032)" fill="#e0e8ff"/>
      <circle id="Ellipse_4121" data-name="Ellipse 4121" cx="1.606" cy="1.606" r="1.606" transform="translate(77.82)" fill="#e0e8ff"/>
      <path id="Path_147674" data-name="Path 147674" d="M-320,92.585a1.861,1.861,0,0,1-1.861,1.861,1.861,1.861,0,0,1-1.86-1.861,1.86,1.86,0,0,1,1.86-1.86A1.86,1.86,0,0,1-320,92.585Z" transform="translate(457.517 -90.725)" fill="#e0e8ff"/>
      <path id="Path_147675" data-name="Path 147675" d="M-303.293,118.358a2.131,2.131,0,0,1-2.131,2.131,2.13,2.13,0,0,1-2.13-2.131,2.13,2.13,0,0,1,2.13-2.13A2.13,2.13,0,0,1-303.293,118.358Z" transform="translate(452.591 -98.498)" fill="#e0e8ff"/>
      <circle id="Ellipse_4122" data-name="Ellipse 4122" cx="2.333" cy="2.333" r="2.333" transform="translate(203.426 13.064)" fill="#e0e8ff"/>
      <path id="Path_147676" data-name="Path 147676" d="M-258.269,98.679a.941.941,0,0,1-.941.941.941.941,0,0,1-.941-.941.94.94,0,0,1,.941-.94A.94.94,0,0,1-258.269,98.679Z" transform="translate(438.142 -92.863)" fill="#e0e8ff"/>
      <path id="Path_147677" data-name="Path 147677" d="M-184.291,120.808a1.516,1.516,0,0,1-1.516,1.516,1.516,1.516,0,0,1-1.516-1.516,1.516,1.516,0,0,1,1.516-1.516A1.516,1.516,0,0,1-184.291,120.808Z" transform="translate(415.944 -99.432)" fill="#e0e8ff"/>
      <path id="Path_147678" data-name="Path 147678" d="M-126.325,161.531a1.64,1.64,0,0,1-1.639,1.639,1.639,1.639,0,0,1-1.639-1.639,1.639,1.639,0,0,1,1.639-1.639A1.64,1.64,0,0,1-126.325,161.531Z" transform="translate(398.351 -111.807)" fill="#e0e8ff"/>
      <path id="Path_147679" data-name="Path 147679" d="M-129.147,219.754a2.578,2.578,0,0,1-2.578,2.577,2.577,2.577,0,0,1-2.577-2.577,2.578,2.578,0,0,1,2.577-2.578A2.578,2.578,0,0,1-129.147,219.754Z" transform="translate(399.783 -129.268)" fill="#e0e8ff"/>
      <circle id="Ellipse_4123" data-name="Ellipse 4123" cx="1.294" cy="1.294" r="1.294" transform="translate(286.01 109.791)" fill="#e0e8ff"/>
      <circle id="Ellipse_4124" data-name="Ellipse 4124" cx="1.923" cy="1.923" r="1.923" transform="translate(261.635 111.084)" fill="#e0e8ff"/>
      <circle id="Ellipse_4125" data-name="Ellipse 4125" cx="1.753" cy="1.753" r="1.753" transform="translate(274.812 189.416)" fill="#e0e8ff"/>
      <circle id="Ellipse_4126" data-name="Ellipse 4126" cx="2.453" cy="2.453" r="2.453" transform="translate(259.882 201.54)" fill="#e0e8ff"/>
    </g>
    <g id="Group_84279" data-name="Group 84279" transform="translate(-518.635 84.45)">
      <path id="Path_147680" data-name="Path 147680" d="M-464.575,107.51h0a7.131,7.131,0,0,0,6.061,6.061h0a7.131,7.131,0,0,0-6.061,6.061h0a7.13,7.13,0,0,0-6.061-6.061h0a7.13,7.13,0,0,0,6.061-6.061Z" transform="translate(504.005 -92.038)" fill="#e0e8ff" style="mix-blend-mode: multiply;isolation: isolate"/>
      <path id="Path_147681" data-name="Path 147681" d="M-106.831,194.912h0a5.526,5.526,0,0,0,4.7,4.7h0a5.526,5.526,0,0,0-4.7,4.7h0a5.526,5.526,0,0,0-4.7-4.7h0a5.526,5.526,0,0,0,4.7-4.7Z" transform="translate(394.547 -118.679)" fill="#e0e8ff" style="mix-blend-mode: multiply;isolation: isolate"/>
      <path id="Path_147682" data-name="Path 147682" d="M-513.938,347.543h0a5.526,5.526,0,0,0,4.7,4.7h0a5.526,5.526,0,0,0-4.7,4.7h0a5.526,5.526,0,0,0-4.7-4.7h0a5.526,5.526,0,0,0,4.7-4.7Z" transform="translate(518.635 -165.202)" fill="#e0e8ff" style="mix-blend-mode: multiply;isolation: isolate"/>
      <path id="Path_147683" data-name="Path 147683" d="M-103.109,336.56h0a5.525,5.525,0,0,0,4.7,4.7h0a5.525,5.525,0,0,0-4.7,4.7h0a5.527,5.527,0,0,0-4.7-4.7h0a5.527,5.527,0,0,0,4.7-4.7Z" transform="translate(393.413 -161.854)" fill="#e0e8ff" style="mix-blend-mode: multiply;isolation: isolate"/>
      <path id="Path_147684" data-name="Path 147684" d="M-513.546,213.6h0a4.474,4.474,0,0,0,3.8,3.8h0a4.474,4.474,0,0,0-3.8,3.8h0a4.474,4.474,0,0,0-3.8-3.8h0a4.474,4.474,0,0,0,3.8-3.8Z" transform="translate(518.243 -124.374)" fill="#e0e8ff" style="mix-blend-mode: multiply;isolation: isolate"/>
      <path id="Path_147685" data-name="Path 147685" d="M-288.329,85.255h0a4.474,4.474,0,0,0,3.8,3.8h0a4.473,4.473,0,0,0-3.8,3.8h0a4.473,4.473,0,0,0-3.8-3.8h0a4.474,4.474,0,0,0,3.8-3.8Z" transform="translate(449.596 -85.255)" fill="#e0e8ff" style="mix-blend-mode: multiply;isolation: isolate"/>
      <path id="Path_147686" data-name="Path 147686" d="M-139.247,109.517h0a7.126,7.126,0,0,0,6.057,6.057h0a7.127,7.127,0,0,0-6.057,6.057h0a7.127,7.127,0,0,0-6.057-6.057h0a7.126,7.126,0,0,0,6.057-6.057Z" transform="translate(404.842 -92.65)" fill="#e0e8ff" style="mix-blend-mode: multiply;isolation: isolate"/>
    </g>
    <g id="Group_84281" data-name="Group 84281" transform="translate(-493.406 116.43)">
      <rect id="Rectangle_32488" data-name="Rectangle 32488" width="60.612" height="43.095" rx="17.084" transform="translate(0 0)" fill="#e69623"/>
      <g id="Group_84280" data-name="Group 84280" transform="translate(5.869 7.109)">
        <circle id="Ellipse_4127" data-name="Ellipse 4127" cx="5.048" cy="5.048" r="5.048" transform="translate(0 9.09) rotate(-64.201)" fill="#fff"/>
        <path id="Path_147687" data-name="Path 147687" d="M-424.346,147.023h-25.539a1.553,1.553,0,0,1-1.552-1.552h0a1.553,1.553,0,0,1,1.552-1.553h25.539a1.553,1.553,0,0,1,1.552,1.553h0A1.553,1.553,0,0,1-424.346,147.023Z" transform="translate(467.055 -142.225)" fill="#fff"/>
        <path id="Path_147688" data-name="Path 147688" d="M-424.346,157.175h-25.539a1.552,1.552,0,0,1-1.552-1.552h0a1.553,1.553,0,0,1,1.552-1.552h25.539a1.553,1.553,0,0,1,1.552,1.552h0A1.552,1.552,0,0,1-424.346,157.175Z" transform="translate(467.055 -145.319)" fill="#fff"/>
        <circle id="Ellipse_4128" data-name="Ellipse 4128" cx="5.048" cy="5.048" r="5.048" transform="translate(0.281 25.105) rotate(-70.183)" fill="#fff"/>
        <path id="Path_147689" data-name="Path 147689" d="M-424.346,169.069h-25.539a1.553,1.553,0,0,1-1.552-1.552h0a1.552,1.552,0,0,1,1.552-1.552h25.539a1.552,1.552,0,0,1,1.552,1.552h0A1.553,1.553,0,0,1-424.346,169.069Z" transform="translate(467.055 -148.944)" fill="#fff"/>
        <path id="Path_147690" data-name="Path 147690" d="M-424.346,179.22h-25.539a1.553,1.553,0,0,1-1.552-1.553h0a1.553,1.553,0,0,1,1.552-1.552h25.539a1.553,1.553,0,0,1,1.552,1.552h0A1.553,1.553,0,0,1-424.346,179.22Z" transform="translate(467.055 -152.038)" fill="#fff"/>
      </g>
    </g>
    <g id="Group_84282" data-name="Group 84282" transform="translate(-502.053 222.09)">
      <rect id="Rectangle_32489" data-name="Rectangle 32489" width="40.165" height="40.165" rx="15.923" fill="#e69623"/>
      <text id="_" data-name="?" transform="translate(12.993 29.957)" fill="#fff" font-size="28" font-family="Poppins-Bold, Poppins" font-weight="700"><tspan x="0" y="0">?</tspan></text>
    </g>
    <g id="Group_84284" data-name="Group 84284" transform="translate(-409.836 82.615)">
      <rect id="Rectangle_32490" data-name="Rectangle 32490" width="51.307" height="37.403" rx="18.702" fill="#e69623"/>
      <g id="Group_84283" data-name="Group 84283" transform="translate(11.527 14.948)">
        <path id="Path_147691" data-name="Path 147691" d="M-308.2,107.871a3.754,3.754,0,0,1-3.753,3.753,3.754,3.754,0,0,1-3.753-3.753,3.753,3.753,0,0,1,3.753-3.753A3.753,3.753,0,0,1-308.2,107.871Z" transform="translate(336.457 -104.118)" fill="#fff"/>
        <circle id="Ellipse_4129" data-name="Ellipse 4129" cx="3.753" cy="3.753" r="3.753" transform="translate(10.373)" fill="#fff"/>
        <circle id="Ellipse_4130" data-name="Ellipse 4130" cx="3.753" cy="3.753" r="3.753" fill="#fff"/>
      </g>
    </g>
  </g>
</svg>
