<svg xmlns="http://www.w3.org/2000/svg" width="400" height="290" viewBox="0 0 400 290">
  <g id="t4-i7" transform="translate(-810 -1970)">
    <rect id="Rectangle_32672" data-name="Rectangle 32672" width="400" height="290" rx="20" transform="translate(810 1970)" fill="#fff1db"/>
    <text id="Felicitaciones" transform="translate(853 2194)" fill="#12263f" font-size="18" font-family="Roboto-Black, Roboto" font-weight="800"><tspan x="-56.483" y="17">Felicitaciones</tspan></text>
    <g id="pulgares-hacia-arriba" transform="translate(950 2028.118)">
      <g id="Group_97162" data-name="Group 97162" transform="translate(1.758 7.054)">
        <path id="Path_152356" data-name="Path 152356" d="M124.662,152.437a5.859,5.859,0,0,0,2.153.41h50.913c4.377,0,7.442-3.614,7.31-8.022a7.583,7.583,0,0,0-7.636-7.543h6.065a7.844,7.844,0,0,0,7.88-7.88c-.057-4.253-3.048-7.685-7.313-7.685h3.626c4.266,0,7.257-3.431,7.313-7.684a7.844,7.844,0,0,0-7.88-7.881h-1.909a7.583,7.583,0,0,0,7.636-7.543c.132-4.408-2.932-8.022-7.31-8.022h-38.65a1.172,1.172,0,0,1-1.165-1.3l3.265-29.815a10.547,10.547,0,0,0-10.484-11.695,5.152,5.152,0,0,0-5.126,4.8c-2.466,33.464-30.173,48.418-30.173,48.418l-2.344,27.35,2.344,15.6Z" transform="translate(-78.959 -47.777)" fill="#fed2a4"/>
        <path id="Path_152357" data-name="Path 152357" d="M7.5,297.956A2.344,2.344,0,0,0,9.844,300.3H27.031a2.344,2.344,0,0,0,2.344-2.344V244.265a2.344,2.344,0,0,0-2.344-2.344H9.844A2.344,2.344,0,0,0,7.5,244.265Z" transform="translate(-7.5 -196.419)" fill="#ffb74d"/>
        <path id="Path_152358" data-name="Path 152358" d="M77.865,241.921H70.834a2.344,2.344,0,0,1,2.344,2.344v53.691a2.344,2.344,0,0,1-2.344,2.344h7.031a2.344,2.344,0,0,0,2.344-2.344V244.265A2.344,2.344,0,0,0,77.865,241.921Z" transform="translate(-55.99 -196.419)" fill="#ff9800"/>
        <path id="Path_152359" data-name="Path 152359" d="M374.658,292.691h7.031a7.783,7.783,0,0,0,7.779-8.022,8,8,0,0,0-8.1-7.543h6.478a7.9,7.9,0,0,0,7.935-7.934,7.783,7.783,0,0,0-7.781-7.631h3.627a7.783,7.783,0,0,0,7.781-7.631A7.905,7.905,0,0,0,391.467,246h-2.322a8,8,0,0,0,8.105-7.543,7.782,7.782,0,0,0-7.779-8.022H382.44a7.782,7.782,0,0,1,7.779,8.022q-.005.178-.019.353a5.981,5.981,0,0,1-6.007,5.432l-15.364.234a1.422,1.422,0,0,0-1.6,1.469,1.392,1.392,0,0,0,1.523,1.577l17.584.234a6,6,0,0,1,6.017,5.542q.02.314.014.634,0,.179-.015.356a5.985,5.985,0,0,1-6.015,5.517l-17.512.234a1.422,1.422,0,0,0-1.6,1.47,1.392,1.392,0,0,0,1.523,1.577l13.959.234a5.985,5.985,0,0,1,6.015,5.517q.011.177.015.357.006.32-.014.634a6,6,0,0,1-6.017,5.542l-13.884.234a1.422,1.422,0,0,0-1.6,1.469,1.392,1.392,0,0,0,1.523,1.577l7.655.234a5.982,5.982,0,0,1,6.007,5.432q.014.175.019.353A7.783,7.783,0,0,1,374.658,292.691Z" transform="translate(-282.919 -187.622)" fill="#ffbd86"/>
      </g>
      <g id="Group_97163" data-name="Group 97163" transform="translate(0 5.296)">
        <path id="Path_152365" data-name="Path 152365" d="M55.183,315.472V275.547a1.758,1.758,0,0,0-3.516,0v39.926a1.758,1.758,0,0,0,3.516,0Z" transform="translate(-39.558 -219.059)"/>
        <path id="Path_152366" data-name="Path 152366" d="M87.4,129.78a1.758,1.758,0,0,0,0,3.516H100.2a6.242,6.242,0,0,1,6.348,5.838,6.025,6.025,0,0,1-6.022,6.212H49.615a4.082,4.082,0,0,1-1.508-.287l-20.373-8.051V96.259a64.682,64.682,0,0,0,13.7-11.486A62.607,62.607,0,0,0,57.9,46.959a3.414,3.414,0,0,1,3.373-3.169,8.789,8.789,0,0,1,8.737,9.746L66.748,83.352A2.93,2.93,0,0,0,69.66,86.6h6.03a1.758,1.758,0,1,0,0-3.516H70.314l3.194-29.165A12.3,12.3,0,0,0,61.276,40.275,6.943,6.943,0,0,0,54.4,46.7,59.117,59.117,0,0,1,38.93,82.3a64.077,64.077,0,0,1-11.2,9.767V89.88a4.106,4.106,0,0,0-4.1-4.1H13.4a1.758,1.758,0,1,0,0,3.516H23.633a.586.586,0,0,1,.586.586v53.691a.586.586,0,0,1-.586.586H4.1a.586.586,0,0,1-.586-.586V89.88a.586.586,0,0,1,.586-.586H5.743a1.758,1.758,0,1,0,0-3.516H4.1A4.106,4.106,0,0,0,0,89.88v53.691a4.106,4.106,0,0,0,4.1,4.1H23.633a4.106,4.106,0,0,0,4.1-4.1v-2.783l19.081,7.54a7.584,7.584,0,0,0,2.8.533h50.913a9.541,9.541,0,0,0,9.536-9.832,9.272,9.272,0,0,0-2.294-5.8,9.84,9.84,0,0,0,5.875-2.87,9.384,9.384,0,0,0,2.728-6.793,9.5,9.5,0,0,0-2.674-6.413,9.6,9.6,0,0,0,6.3-8.781,9.385,9.385,0,0,0-2.728-6.793,9.788,9.788,0,0,0-2.659-1.921,9.475,9.475,0,0,0-6.3-16.577H83.351a1.758,1.758,0,1,0,0,3.516H108.31a6.024,6.024,0,0,1,6.022,6.212,6.242,6.242,0,0,1-6.348,5.838H87.4a1.758,1.758,0,1,0,0,3.516h22.91a6.282,6.282,0,0,1,4.455,1.879,5.9,5.9,0,0,1,1.722,4.264,6.054,6.054,0,0,1-6.023,5.906H87.4a1.758,1.758,0,0,0,0,3.516h19.437a6.054,6.054,0,0,1,6.023,5.907,5.9,5.9,0,0,1-1.722,4.264,6.283,6.283,0,0,1-4.455,1.879H87.4Z" transform="translate(0 -40.275)"/>
      </g>
    </g>
  </g>
</svg>
