<svg xmlns="http://www.w3.org/2000/svg" width="125" height="125" viewBox="0 0 125 125">
  <g id="t4-ic4" transform="translate(3704 7445)">
    <rect id="Rectangle_32637" data-name="Rectangle 32637" width="125" height="125" rx="16" transform="translate(-3704 -7445)" fill="#ffd494"/>
    <g id="buscar" transform="translate(-3702.868 -7422)">
      <g id="Group_97105" data-name="Group 97105" transform="translate(27.04 1.094)">
        <path id="Path_152226" data-name="Path 152226" d="M89.986,118.027V53.379a3.125,3.125,0,0,0-3.125-3.125H36.493a3.125,3.125,0,0,0-3.125,3.125v64.648a3.125,3.125,0,0,0,3.125,3.125H86.861A3.125,3.125,0,0,0,89.986,118.027Z" transform="translate(-33.368 -43.496)" fill="#ffd494"/>
        <path id="Path_152227" data-name="Path 152227" d="M110.611,141V81.035a.781.781,0,0,0-.781-.781H64.149a.781.781,0,0,0-.781.781V141a.781.781,0,0,0,.781.781h45.68A.781.781,0,0,0,110.611,141Z" transform="translate(-58.681 -68.808)" fill="#fff"/>
        <path id="Path_152228" data-name="Path 152228" d="M353.243,50.254h-4.687a3.125,3.125,0,0,1,3.125,3.125v64.648a3.125,3.125,0,0,1-3.125,3.125h4.688a3.125,3.125,0,0,0,3.125-3.125V53.379A3.125,3.125,0,0,0,353.243,50.254Z" transform="translate(-299.308 -43.496)" fill="#ffb74d"/>
        <path id="Path_152229" data-name="Path 152229" d="M338.243,80.254h-4.687a.781.781,0,0,1,.781.781V141a.781.781,0,0,1-.781.781h4.688a.781.781,0,0,0,.781-.781V81.035A.781.781,0,0,0,338.243,80.254Z" transform="translate(-286.652 -68.808)" fill="#f3f9ff"/>
        <path id="Path_152230" data-name="Path 152230" d="M170.962,16.531v-6.2A3.335,3.335,0,0,1,174.3,7h7.392a3.335,3.335,0,0,1,3.335,3.335v6.2Z" transform="translate(-149.463 -7)" fill="#b0c0d2"/>
        <path id="Path_152231" data-name="Path 152231" d="M218.089,7H214.1a3.335,3.335,0,0,1,3.335,3.335v6.2h3.986v-6.2A3.335,3.335,0,0,0,218.089,7Z" transform="translate(-185.863 -7)" fill="#727997"/>
        <path id="Path_152232" data-name="Path 152232" d="M147.107,49.61H119.261a1.406,1.406,0,0,1-1.406-1.406v-9.3a1.406,1.406,0,0,1,1.406-1.406h27.846a1.406,1.406,0,0,1,1.406,1.406v9.3A1.407,1.407,0,0,1,147.107,49.61Z" transform="translate(-104.654 -32.734)" fill="#b0c0d2"/>
        <path id="Path_152233" data-name="Path 152233" d="M283.543,37.5h-3.986a1.406,1.406,0,0,1,1.406,1.406v9.3a1.406,1.406,0,0,1-1.406,1.406h3.986A1.406,1.406,0,0,0,284.95,48.2v-9.3A1.406,1.406,0,0,0,283.543,37.5Z" transform="translate(-241.09 -32.734)" fill="#727997"/>
        <path id="Path_152234" data-name="Path 152234" d="M345.846,307.067a3.4,3.4,0,0,1-4.807,0L322.577,288.6l4.807-4.807,18.462,18.462A3.4,3.4,0,0,1,345.846,307.067Z" transform="translate(-277.388 -240.548)" fill="#b0c0d2"/>
        <path id="Path_152235" data-name="Path 152235" d="M363.432,302.26,344.97,283.8l-1.55,1.55,16.912,16.912a3.4,3.4,0,0,1-.853,5.428,3.4,3.4,0,0,0,3.954-5.428Z" transform="translate(-294.974 -240.548)" fill="#727997"/>
        <circle id="Ellipse_4162" data-name="Ellipse 4162" cx="15.078" cy="15.078" r="15.078" transform="translate(30.777 28.838)" fill="#e8e8e8"/>
        <path id="Path_152236" data-name="Path 152236" d="M277.513,238.734a10.516,10.516,0,1,1,0-14.872A10.528,10.528,0,0,1,277.513,238.734Z" transform="translate(-224.223 -187.383)" fill="#dff6fd"/>
        <path id="Path_152237" data-name="Path 152237" d="M329.127,195.988a15.047,15.047,0,0,0-12.212-4.335,15.076,15.076,0,0,1,0,29.992,15.076,15.076,0,0,0,12.212-25.658Z" transform="translate(-272.611 -162.734)" fill="#afafaf"/>
        <path id="Path_152238" data-name="Path 152238" d="M325.9,223.868a10.507,10.507,0,0,0-8.986-2.96,10.51,10.51,0,0,1,0,20.792,10.512,10.512,0,0,0,8.986-17.832Z" transform="translate(-272.611 -187.388)" fill="#c8effe"/>
      </g>
      <g id="Group_97106" data-name="Group 97106" transform="translate(25.868 0)">
        <path id="Path_152239" data-name="Path 152239" d="M272.7,233.235c7.263-7.263,2.225-19.947-8.265-19.947a11.686,11.686,0,1,0,8.265,19.947Zm-8.265-17.6a9.342,9.342,0,1,1-6.607,15.946A9.352,9.352,0,0,1,264.434,215.632Z" transform="translate(-217.29 -179.962)"/>
        <path id="Path_152240" data-name="Path 152240" d="M103.134,215.634h13.209a1.172,1.172,0,0,0,0-2.344H103.134a1.172,1.172,0,0,0,0,2.344Z" transform="translate(-90.072 -179.963)"/>
        <path id="Path_152241" data-name="Path 152241" d="M103.134,279.384h13.209a1.172,1.172,0,1,0,0-2.344H103.134a1.172,1.172,0,1,0,0,2.344Z" transform="translate(-90.072 -233.753)"/>
        <path id="Path_152242" data-name="Path 152242" d="M103.134,343.134h13.209a1.172,1.172,0,1,0,0-2.344H103.134a1.172,1.172,0,1,0,0,2.344Z" transform="translate(-90.072 -287.542)"/>
        <path id="Path_152243" data-name="Path 152243" d="M103.134,151.884h33.281a1.172,1.172,0,0,0,0-2.344H103.134a1.172,1.172,0,0,0,0,2.344Z" transform="translate(-90.072 -126.174)"/>
        <path id="Path_152244" data-name="Path 152244" d="M126.806,404.521H103.134a1.172,1.172,0,1,0,0,2.344h23.672a1.172,1.172,0,1,0,0-2.344Z" transform="translate(-90.072 -341.315)"/>
        <path id="Path_152245" data-name="Path 152245" d="M96.444,61.977l-2.431-2.431A1.172,1.172,0,1,0,92.357,61.2l2.431,2.431a2.227,2.227,0,1,1-3.15,3.149L82.82,57.965a16.343,16.343,0,0,0,3.149-3.15l2.52,2.52a1.172,1.172,0,1,0,1.657-1.657L87.271,52.8a16.243,16.243,0,0,0-2-18.46V11.055a4.3,4.3,0,0,0-4.3-4.3H72a2.581,2.581,0,0,0-2.509-1.993h-5.72V4.507A4.512,4.512,0,0,0,59.266,0H51.874a4.513,4.513,0,0,0-4.507,4.508v.258h-5.72a2.581,2.581,0,0,0-2.509,1.993H30.165a4.3,4.3,0,0,0-4.3,4.3V75.7a4.3,4.3,0,0,0,4.3,4.3H38.8a1.172,1.172,0,1,0,0-2.344H30.165A1.955,1.955,0,0,1,28.212,75.7V11.055A1.955,1.955,0,0,1,30.165,9.1h8.9v2.344h-6.56A1.955,1.955,0,0,0,30.556,13.4v59.96a1.955,1.955,0,0,0,1.953,1.953H78.632a1.955,1.955,0,0,0,1.953-1.953V59.388c.074-.039.148-.08.222-.12l2.122,2.122V75.7a1.955,1.955,0,0,1-1.953,1.953H44.267a1.172,1.172,0,0,0,0,2.344H80.976a4.3,4.3,0,0,0,4.3-4.3V63.733l4.708,4.708a4.571,4.571,0,1,0,6.464-6.464ZM73.041,31.11c12.587.026,18.321,15.212,9.805,23.73h0l0,0a14.18,14.18,0,0,1-2.882,2.209c-8.659,5-16.952-1.872-14.253-.212C53.67,49.435,59.2,31.1,73.041,31.11Zm9.887-20.055V32.133a16.168,16.168,0,0,0-2.344-1.51V13.4a1.955,1.955,0,0,0-1.953-1.953h-6.56V9.1h8.9a1.955,1.955,0,0,1,1.953,1.953ZM41.413,7.344a.235.235,0,0,1,.234-.234h6.892a1.172,1.172,0,0,0,1.172-1.172V4.507a2.166,2.166,0,0,1,2.164-2.164h7.392A2.166,2.166,0,0,1,61.43,4.507v1.43A1.172,1.172,0,0,0,62.6,7.109h6.892a.235.235,0,0,1,.234.234v9.3a.235.235,0,0,1-.234.234H41.647a.235.235,0,0,1-.234-.234v-9.3ZM32.9,72.969V13.79h6.17v2.852a2.581,2.581,0,0,0,2.578,2.578H69.493a2.581,2.581,0,0,0,2.578-2.578V13.79h6.17V29.616A16.269,16.269,0,0,0,56.763,45.009h0A16.254,16.254,0,0,0,78.241,60.392V72.969Z" transform="translate(-25.868 0)"/>
      </g>
    </g>
  </g>
</svg>
