<svg xmlns="http://www.w3.org/2000/svg" width="190" height="100" viewBox="0 0 190 100">
  <g id="t4-ic2" transform="translate(-180 -2492)">
    <rect id="Rectangle_32248" data-name="Rectangle 32248" width="145" height="100" transform="translate(180 2492)" fill="#fa9500" opacity="0.31"/>
    <g id="lista-de-verificacion" transform="translate(269 2491)">
      <g id="Group_84246" data-name="Group 84246" transform="translate(2.613 2.613)">
        <g id="Group_84230" data-name="Group 84230" transform="translate(0 3.226)">
          <path id="Path_147577" data-name="Path 147577" d="M76.194,49.161V91.1a6.45,6.45,0,0,1-6.452,6.452H8.452A6.45,6.45,0,0,1,2,91.1V10.452A6.45,6.45,0,0,1,8.452,4h12.9v6.452H10.065a1.618,1.618,0,0,0-1.613,1.613V89.484A1.618,1.618,0,0,0,10.065,91.1H56.839l12.9-12.9V55.613Z" transform="translate(-2 -4)" fill="#ffd494"/>
        </g>
        <g id="Group_84231" data-name="Group 84231" transform="translate(29.032 3.226)">
          <path id="Path_147578" data-name="Path 147578" d="M20,4H36.129v6.452H20Z" transform="translate(-20 -4)" fill="#f5e0cd"/>
        </g>
        <g id="Group_84232" data-name="Group 84232" transform="translate(54.839 3.226)">
          <path id="Path_147579" data-name="Path 147579" d="M55.355,16.129a14.455,14.455,0,0,0-6.371,10.548l-.081-.016v-14.6a1.618,1.618,0,0,0-1.613-1.613H36V4H48.9a6.45,6.45,0,0,1,6.452,6.452Z" transform="translate(-36 -4)" fill="#f5e0cd"/>
        </g>
        <g id="Group_84233" data-name="Group 84233" transform="translate(6.452 9.677)">
          <path id="Path_147580" data-name="Path 147580" d="M65.677,8H7.613A1.618,1.618,0,0,0,6,9.613V87.032a1.618,1.618,0,0,0,1.613,1.613H54.387v-12.9h12.9V9.613A1.618,1.618,0,0,0,65.677,8Z" transform="translate(-6 -8)" fill="#fff"/>
        </g>
        <g id="Group_84234" data-name="Group 84234" transform="translate(45.161)">
          <path id="Path_147581" data-name="Path 147581" d="M39.677,11.677V13.29A1.618,1.618,0,0,1,38.065,14.9H31.613A1.618,1.618,0,0,1,30,13.29V3.613A1.618,1.618,0,0,1,31.613,2h6.452a1.618,1.618,0,0,1,1.613,1.613v8.065Z" transform="translate(-30 -2)" fill="#d2e1f1"/>
        </g>
        <g id="Group_84235" data-name="Group 84235" transform="translate(19.355)">
          <path id="Path_147582" data-name="Path 147582" d="M23.677,11.677V13.29A1.618,1.618,0,0,1,22.065,14.9H15.613A1.618,1.618,0,0,1,14,13.29V3.613A1.618,1.618,0,0,1,15.613,2h6.452a1.618,1.618,0,0,1,1.613,1.613v8.065Z" transform="translate(-14 -2)" fill="#d2e1f1"/>
        </g>
        <g id="Group_84236" data-name="Group 84236" transform="translate(54.839 77.419)">
          <path id="Path_147583" data-name="Path 147583" d="M48.9,50,36,62.9V50Z" transform="translate(-36 -50)" fill="#ff9800"/>
        </g>
        <g id="Group_84237" data-name="Group 84237" transform="translate(12.903 70.968)">
          <path id="Path_147584" data-name="Path 147584" d="M10,46h6.452v6.452H10Z" transform="translate(-10 -46)" fill="#ffd494"/>
        </g>
        <g id="Group_84238" data-name="Group 84238" transform="translate(12.903 58.065)">
          <path id="Path_147585" data-name="Path 147585" d="M10,38h6.452v6.452H10Z" transform="translate(-10 -38)" fill="#ffd494"/>
        </g>
        <g id="Group_84239" data-name="Group 84239" transform="translate(12.903 45.161)">
          <path id="Path_147586" data-name="Path 147586" d="M10,30h6.452v6.452H10Z" transform="translate(-10 -30)" fill="#ffd494"/>
        </g>
        <g id="Group_84240" data-name="Group 84240" transform="translate(12.903 32.258)">
          <path id="Path_147587" data-name="Path 147587" d="M10,22h6.452v6.452H10Z" transform="translate(-10 -22)" fill="#ffd494"/>
        </g>
        <g id="Group_84241" data-name="Group 84241" transform="translate(12.903 19.355)">
          <path id="Path_147588" data-name="Path 147588" d="M10,14h6.452v6.452H10Z" transform="translate(-10 -14)" fill="#ffd494"/>
        </g>
        <g id="Group_84242" data-name="Group 84242" transform="translate(25.806 66.129)">
          <path id="Path_147589" data-name="Path 147589" d="M35.742,55.9,21.645,60.6a2.6,2.6,0,0,1-.871.145A2.774,2.774,0,0,1,18,57.968a2.6,2.6,0,0,1,.145-.871L22.839,43l6.452,6.452Z" transform="translate(-18 -43)" fill="#ff9800"/>
        </g>
        <g id="Group_84243" data-name="Group 84243" transform="translate(37.097 37.677)">
          <path id="Path_147590" data-name="Path 147590" d="M68.629,29.537,62.1,36.07l-6.452,6.452L31.452,66.715,25,60.263l34.9-34.9A14.428,14.428,0,0,0,68.629,29.537Z" transform="translate(-25 -25.36)" fill="#ffd494"/>
        </g>
        <g id="Group_84244" data-name="Group 84244" transform="translate(30.645 28.952)">
          <path id="Path_147591" data-name="Path 147591" d="M62.355,28.676l-34.9,34.9L21,57.127,58.177,19.95A14.428,14.428,0,0,0,62.355,28.676Z" transform="translate(-21 -19.95)" fill="#fff4e4"/>
        </g>
        <g id="Group_84245" data-name="Group 84245" transform="translate(67.742 12.903)">
          <path id="Path_147592" data-name="Path 147592" d="M58.516,10a14.516,14.516,0,1,1,0,29.032c-.516,0-1.032-.032-1.532-.081a14.55,14.55,0,0,1-12.9-12.9c-.048-.5-.081-1.016-.081-1.532s.032-1.016.081-1.516A14.527,14.527,0,0,1,58.516,10Z" transform="translate(-44 -10)" fill="#ff9800"/>
        </g>
      </g>
      <g id="Group_84247" data-name="Group 84247" transform="translate(1 1)">
        <path id="Path_147593" data-name="Path 147593" d="M62.809,15.293l-10.15,10.15-2.085-2.085-2.281,2.281L52.659,30,65.09,17.574Z" transform="translate(27.986 7.76)"/>
        <path id="Path_147594" data-name="Path 147594" d="M84.871,13.9a16.015,16.015,0,0,0-6.452,1.356V12.29a8.074,8.074,0,0,0-8.065-8.065H59.065A3.229,3.229,0,0,0,55.839,1H49.387a3.229,3.229,0,0,0-3.226,3.226h-12.9A3.229,3.229,0,0,0,30.032,1H23.581a3.229,3.229,0,0,0-3.226,3.226H9.065A8.074,8.074,0,0,0,1,12.29V92.935A8.074,8.074,0,0,0,9.065,101h61.29a8.074,8.074,0,0,0,8.065-8.065V51.668l5.552-5.552c.3.016.6.045.9.045a16.129,16.129,0,1,0,0-32.258ZM70.355,7.452a4.845,4.845,0,0,1,4.839,4.839V17.16A16.221,16.221,0,0,0,71.968,20.4V13.9a3.229,3.229,0,0,0-3.226-3.226H59.065V7.452ZM33.963,71.727l9.213,9.213L31.566,84.81a1.178,1.178,0,0,1-1.534-1.1,1.234,1.234,0,0,1,.058-.368Zm1.576-2.985L69.466,34.815a16.093,16.093,0,0,0,2.924,5.418L39.71,72.913ZM49.387,4.226h6.452l0,9.677H49.387ZM46.161,7.452v3.226h-12.9V7.452ZM23.581,4.226h6.452l0,9.677H23.581Zm6.452,12.9A3.229,3.229,0,0,0,33.258,13.9h12.9a3.229,3.229,0,0,0,3.226,3.226h6.452A3.229,3.229,0,0,0,59.065,13.9h9.677V28.492h.077c-.048.508-.077,1.021-.077,1.54,0,.3.029.6.045.9L31.848,67.871,27.029,82.326a4.388,4.388,0,0,0,5.553,5.545l14.45-4.816,21.71-21.71V78.419h-12.9v12.9H10.677V13.9h9.677a3.229,3.229,0,0,0,3.226,3.226ZM66.461,81.645l-7.4,7.4v-7.4Zm8.732,11.29a4.845,4.845,0,0,1-4.839,4.839H9.065a4.845,4.845,0,0,1-4.839-4.839V12.29A4.845,4.845,0,0,1,9.065,7.452h11.29v3.226H10.677A3.229,3.229,0,0,0,7.452,13.9V91.323a3.229,3.229,0,0,0,3.226,3.226H58.119L71.968,80.7V58.119l3.226-3.226ZM46.161,79.365,41.99,75.194,74.669,42.513a16.121,16.121,0,0,0,5.418,2.924Zm38.71-36.429a12.9,12.9,0,1,1,12.9-12.9A12.918,12.918,0,0,1,84.871,42.935Z" transform="translate(-1 -1)"/>
        <path id="Path_147595" data-name="Path 147595" d="M9,22.677h9.677V13H9Zm3.226-6.452h3.226v3.226H12.226Z" transform="translate(3.903 6.355)"/>
        <path id="Path_147596" data-name="Path 147596" d="M9,30.677h9.677V21H9Zm3.226-6.452h3.226v3.226H12.226Z" transform="translate(3.903 11.258)"/>
        <path id="Path_147597" data-name="Path 147597" d="M9,38.677h9.677V29H9Zm3.226-6.452h3.226v3.226H12.226Z" transform="translate(3.903 16.161)"/>
        <path id="Path_147598" data-name="Path 147598" d="M9,46.677h9.677V37H9Zm3.226-6.452h3.226v3.226H12.226Z" transform="translate(3.903 21.065)"/>
        <path id="Path_147599" data-name="Path 147599" d="M9,54.677h9.677V45H9Zm3.226-6.452h3.226v3.226H12.226Z" transform="translate(3.903 25.968)"/>
        <path id="Path_147600" data-name="Path 147600" d="M17,13H55.71v3.226H17Z" transform="translate(8.806 6.355)"/>
        <path id="Path_147601" data-name="Path 147601" d="M17,17H55.71v3.226H17Z" transform="translate(8.806 8.806)"/>
        <path id="Path_147602" data-name="Path 147602" d="M17,21H36.355v3.226H17Z" transform="translate(8.806 11.258)"/>
        <path id="Path_147603" data-name="Path 147603" d="M17,25H36.355v3.226H17Z" transform="translate(8.806 13.71)"/>
        <path id="Path_147604" data-name="Path 147604" d="M17,29H33.129v3.226H17Z" transform="translate(8.806 16.161)"/>
        <path id="Path_147605" data-name="Path 147605" d="M17,33H33.129v3.226H17Z" transform="translate(8.806 18.613)"/>
      </g>
    </g>
  </g>
</svg>
