<svg xmlns="http://www.w3.org/2000/svg" width="400" height="290" viewBox="0 0 400 290">
  <g id="t4-i6" transform="translate(-390 -1970)">
    <rect id="Rectangle_32671" data-name="Rectangle 32671" width="400" height="290" rx="20" transform="translate(390 1970)" fill="#fff1db"/>
    <text id="Sugerencias_" data-name="Sugerencias  " transform="translate(433 2194)" fill="#12263f" font-size="18" font-family="Roboto-Black, Roboto" font-weight="800"><tspan x="-50.625" y="17" xml:space="preserve">Sugerencias  </tspan></text>
    <g id="contrato" transform="translate(518.735 2022)">
      <g id="Group_97146" data-name="Group 97146" transform="translate(17.023 1.758)">
        <path id="Path_152308" data-name="Path 152308" d="M411.909,74.09l-2.344,10.39v40.06l.469,8.632c0,2.4.975,2.117,3.04,3.021a5.764,5.764,0,0,0,2.344.254c3.233,0,3.509-.042,3.509-3.275V74.09Z" transform="translate(-318.909 -58.483)" fill="#ff9800"/>
        <path id="Path_152309" data-name="Path 152309" d="M426.883,51.117a5.831,5.831,0,0,0-2.344.49,5.22,5.22,0,0,1,3.509,4.895v59.082a5.528,5.528,0,0,1-3.509,5.129,5.831,5.831,0,0,0,2.344.49c3.232,0,3.509-2.386,3.509-5.619l2.344-8.632V65.133L430.392,56.5C430.392,53.269,430.115,51.117,426.883,51.117Z" transform="translate(-330.373 -40.894)" fill="#df8500"/>
        <path id="Path_152310" data-name="Path 152310" d="M416.585,64.353l2.344-8.632c0-3.232-.277-5.619-3.509-5.619a5.76,5.76,0,0,0-2.344.254,5.855,5.855,0,0,0-3.509,5.365V62.6Z" transform="translate(-318.909 -40.114)" fill="#f9f6f9"/>
        <path id="Path_152311" data-name="Path 152311" d="M432.736,63.6V54.97a5.853,5.853,0,0,0-8.2-5.363,5.853,5.853,0,0,1,3.509,5.363V63.6Z" transform="translate(-330.373 -39.363)" fill="#dedbec"/>
        <path id="Path_152312" data-name="Path 152312" d="M103.578,113.606,34.016,123.984a11.251,11.251,0,0,1-11.251-11.251V9.844A2.344,2.344,0,0,1,25.109,7.5h76.125a2.344,2.344,0,0,1,2.344,2.344Z" transform="translate(-22.765 -7.5)" fill="#f9f6f9"/>
        <path id="Path_152313" data-name="Path 152313" d="M346.6,7.5h-7.031a2.344,2.344,0,0,1,2.344,2.344V123.984h7.031V9.844A2.344,2.344,0,0,0,346.6,7.5Z" transform="translate(-265.315 -7.5)" fill="#dedbec"/>
        <path id="Path_152314" data-name="Path 152314" d="M84.364,408.1a2.344,2.344,0,0,0-2.344,2.344v8.907a11.25,11.25,0,0,1-11.2,11.25l-.047.094H152.05A11.251,11.251,0,0,0,163.3,419.439v-9a2.344,2.344,0,0,0-2.344-2.344H84.364Z" transform="translate(-59.518 -314.206)" fill="#ffb74d"/>
        <path id="Path_152315" data-name="Path 152315" d="M413.507,408.1h-7.031a2.344,2.344,0,0,1,2.344,2.344v9a11.251,11.251,0,0,1-11.251,11.251H404.6a11.251,11.251,0,0,0,11.251-11.251v-9A2.344,2.344,0,0,0,413.507,408.1Z" transform="translate(-309.724 -314.206)" fill="#ff9800"/>
        <path id="Path_152316" data-name="Path 152316" d="M409.565,289.344v8.632a5.855,5.855,0,0,0,3.509,5.365,4.68,4.68,0,0,0,2.11.254h.234c3.233,0,3.509-2.386,3.509-5.619l-2.344-8.632h-7.019Z" transform="translate(-318.909 -223.287)" fill="#f9f6f9"/>
        <path id="Path_152317" data-name="Path 152317" d="M428.048,289.344v8.632a5.853,5.853,0,0,1-3.509,5.363,5.853,5.853,0,0,0,8.2-5.363v-8.632Z" transform="translate(-330.373 -223.287)" fill="#dedbec"/>
      </g>
      <g id="Group_97147" data-name="Group 97147" transform="translate(15.265)">
        <path id="Path_152318" data-name="Path 152318" d="M80.232,68.152h54a1.758,1.758,0,0,0,0-3.516h-54a1.758,1.758,0,0,0,0,3.516Z" transform="translate(-63.659 -49.487)"/>
        <path id="Path_152319" data-name="Path 152319" d="M80.232,138.878h54a1.758,1.758,0,0,0,0-3.516h-54a1.758,1.758,0,0,0,0,3.516Z" transform="translate(-63.659 -103.637)"/>
        <path id="Path_152320" data-name="Path 152320" d="M80.232,209.6h54a1.758,1.758,0,0,0,0-3.516h-54a1.758,1.758,0,0,0,0,3.516Z" transform="translate(-63.659 -157.785)"/>
        <path id="Path_152321" data-name="Path 152321" d="M80.232,280.33h54a1.758,1.758,0,0,0,0-3.516h-54a1.758,1.758,0,0,0,0,3.516Z" transform="translate(-63.659 -211.936)"/>
        <path id="Path_152322" data-name="Path 152322" d="M80.232,342.22h9.037a1.758,1.758,0,0,0,0-3.516H80.232a1.758,1.758,0,0,0,0,3.516Z" transform="translate(-63.659 -259.32)"/>
        <path id="Path_152323" data-name="Path 152323" d="M187.982,323.988a1.758,1.758,0,0,0-2.631.694l-1.72,3.773-4.2-4.152a1.759,1.759,0,0,0-2.022-.322l-15.879,7.943a1.758,1.758,0,1,0,1.573,3.144l14.752-7.38,5.1,5.037a1.758,1.758,0,0,0,2.835-.521l1.874-4.11,8.382,6.071a1.758,1.758,0,1,0,2.062-2.847Z" transform="translate(-126.504 -247.798)"/>
        <path id="Path_152324" data-name="Path 152324" d="M420.152,56.1h-2.865V49.228a7.611,7.611,0,0,0-15.222,0V108.31a7.623,7.623,0,0,0,5.853,7.4v4.765a1.758,1.758,0,0,0,3.516,0v-4.765a7.623,7.623,0,0,0,5.853-7.4V94.323a1.758,1.758,0,0,0-3.516,0v3.6h-8.191v-38.3h8.191V86.662a1.758,1.758,0,0,0,3.516,0V59.618h2.865a.587.587,0,0,1,.586.586V80.544a1.758,1.758,0,0,0,3.516,0V60.2A4.106,4.106,0,0,0,420.152,56.1Zm-6.38,45.334v6.874a4.1,4.1,0,0,1-8.191,0v-6.874ZM405.581,56.1V49.228a4.1,4.1,0,0,1,8.191,0V56.1Z" transform="translate(-311.409 -31.863)"/>
        <path id="Path_152325" data-name="Path 152325" d="M120.806,93.889h-18.4V4.1A4.106,4.106,0,0,0,98.3,0H19.367a4.106,4.106,0,0,0-4.1,4.1V46.609a1.758,1.758,0,1,0,3.516,0V4.1a.587.587,0,0,1,.586-.586H98.3a.587.587,0,0,1,.586.586V93.889H75.518a1.758,1.758,0,0,0,0,3.516h45.288a.587.587,0,0,1,.586.586v9a9.5,9.5,0,0,1-9.493,9.493H37.051a12.98,12.98,0,0,0,4.231-9.586V97.991a.587.587,0,0,1,.586-.586H67.857a1.758,1.758,0,0,0,0-3.516H41.868a4.106,4.106,0,0,0-4.1,4.1V106.9a9.493,9.493,0,0,1-18.986.093V54.269a1.758,1.758,0,1,0-3.516,0v52.722A13.023,13.023,0,0,0,28.274,120H111.9a13.023,13.023,0,0,0,13.009-13.009v-9A4.106,4.106,0,0,0,120.806,93.889Z" transform="translate(-15.265)"/>
      </g>
    </g>
  </g>
</svg>
