<svg xmlns="http://www.w3.org/2000/svg" width="190" height="100" viewBox="0 0 190 100">
  <g id="t1-ic1" transform="translate(-180 -1637)">
    <rect id="Rectangle_32198" data-name="Rectangle 32198" width="145" height="100" transform="translate(180 1637)" fill="#fa9500" opacity="0.31"/>
    <g id="check-mark" transform="translate(270 1637)">
      <path id="Path_147275" data-name="Path 147275" d="M147.969,78H83.906A3.906,3.906,0,0,0,80,81.906v75a3.906,3.906,0,0,0,3.906,3.906h64.062a3.906,3.906,0,0,0,3.906-3.906v-75A3.906,3.906,0,0,0,147.969,78Z" transform="translate(-64.375 -62.766)" fill="#fff"/>
      <rect id="Rectangle_32447" data-name="Rectangle 32447" width="52.747" height="20.879" transform="translate(25.275 30.769)" fill="#d2e1f1"/>
      <circle id="Ellipse_4102" data-name="Ellipse 4102" cx="14.286" cy="14.286" r="14.286" transform="translate(69.231 2.198)" fill="#fff"/>
      <circle id="Ellipse_4103" data-name="Ellipse 4103" cx="14.286" cy="14.286" r="14.286" transform="translate(69.231 2.198)" fill="#ffb74d"/>
      <rect id="Rectangle_32448" data-name="Rectangle 32448" width="21.83" height="20.313" transform="translate(25 61.328)" fill="#d2e1f1"/>
      <path id="Path_147276" data-name="Path 147276" d="M23.672,245.339l7.912-2.56a5.056,5.056,0,0,1,6.508,3.79h0a5.056,5.056,0,0,1-1.849,5.012l-12.572,9.773v16.406H10V244.084l13.672-20.75Z" transform="translate(-8.047 -179.714)" fill="#ffc89f"/>
      <path id="Path_147277" data-name="Path 147277" d="M360.406,0a16.406,16.406,0,1,0,16.406,16.406A16.425,16.425,0,0,0,360.406,0Zm0,28.906a12.5,12.5,0,1,1,12.5-12.5A12.514,12.514,0,0,1,360.406,28.906Z" transform="translate(-276.813)"/>
      <path id="Path_147278" data-name="Path 147278" d="M299.572,148.572a1.952,1.952,0,1,0,1.381-.572A1.968,1.968,0,0,0,299.572,148.572Z" transform="translate(-240.602 -119.094)"/>
      <path id="Path_147279" data-name="Path 147279" d="M175.031,159.556a1.953,1.953,0,0,0-3.906,0v8.756H121.906V151.906h23.047a1.953,1.953,0,0,0,0-3.906h-25A1.953,1.953,0,0,0,118,149.953v20.313a1.953,1.953,0,0,0,1.953,1.953h53.125a1.953,1.953,0,0,0,1.953-1.953Z" transform="translate(-94.953 -119.094)"/>
      <path id="Path_147280" data-name="Path 147280" d="M302.015,356h-21.83a1.953,1.953,0,0,0,0,3.906h21.83a1.953,1.953,0,0,0,0-3.906Z" transform="translate(-223.89 -286.469)"/>
      <path id="Path_147281" data-name="Path 147281" d="M302.015,304h-21.83a1.953,1.953,0,0,0,0,3.906h21.83a1.953,1.953,0,0,0,0-3.906Z" transform="translate(-223.89 -244.625)"/>
      <path id="Path_147282" data-name="Path 147282" d="M302.015,408h-21.83a1.953,1.953,0,0,0,0,3.906h21.83a1.953,1.953,0,0,0,0-3.906Z" transform="translate(-223.89 -328.313)"/>
      <path id="Path_147283" data-name="Path 147283" d="M119.953,324.313a1.953,1.953,0,0,0,0,3.906h21.83a1.953,1.953,0,0,0,1.953-1.953V305.953A1.953,1.953,0,0,0,141.783,304H130.868a1.953,1.953,0,0,0,0,3.906h8.962v16.406Z" transform="translate(-94.953 -244.625)"/>
      <path id="Path_147284" data-name="Path 147284" d="M439.953,201.5A1.953,1.953,0,0,0,438,203.453V220.31a1.953,1.953,0,0,0,3.906,0V203.453A1.953,1.953,0,0,0,439.953,201.5Z" transform="translate(-352.453 -162.145)"/>
      <path id="Path_147285" data-name="Path 147285" d="M439.953,328a1.954,1.954,0,1,0,1.381.572A1.967,1.967,0,0,0,439.953,328Z" transform="translate(-352.453 -263.938)"/>
      <path id="Path_147286" data-name="Path 147286" d="M143.826,323.565a1.953,1.953,0,0,0-1.953,1.953v19.4a1.955,1.955,0,0,1-1.953,1.953H75.857a1.955,1.955,0,0,1-1.953-1.953V333.37l11.817-9.187a7.009,7.009,0,0,0-6.459-12.2l-7.912,2.56a1.953,1.953,0,1,0,1.2,3.717l7.912-2.56a3.1,3.1,0,0,1,2.859,5.4l-12.572,9.773A1.952,1.952,0,0,0,70,332.414v13.113c0,.158.019.205.054.175a5.867,5.867,0,0,0,5.8,5.072H139.92a5.866,5.866,0,0,0,5.859-5.859v-19.4A1.953,1.953,0,0,0,143.826,323.565Z" transform="translate(-56.326 -250.774)"/>
      <path id="Path_147287" data-name="Path 147287" d="M13.672,112.884a1.953,1.953,0,1,0,3.906,0V73.859a1.955,1.955,0,0,1,1.953-1.953H59.44a1.953,1.953,0,0,0,0-3.906H19.531a5.866,5.866,0,0,0-5.859,5.859V97.753L.322,118.014A1.955,1.955,0,0,0,0,119.089v33.677a1.953,1.953,0,0,0,3.906,0V119.674l9.766-14.822Z" transform="translate(0 -54.719)"/>
      <path id="Path_147288" data-name="Path 147288" d="M409.776,58.417l-5.03,5.031-1.825-1.825a1.953,1.953,0,0,0-2.762,2.762l3.206,3.206a1.953,1.953,0,0,0,2.762,0l6.412-6.412a1.953,1.953,0,1,0-2.762-2.762Z" transform="translate(-321.542 -46.547)"/>
    </g>
  </g>
</svg>
