<svg xmlns="http://www.w3.org/2000/svg" width="190" height="100" viewBox="0 0 190 100">
  <g id="t1-ic2" transform="translate(-180 -1969)">
    <rect id="Rectangle_32199" data-name="Rectangle 32199" width="145" height="100" transform="translate(180 1969)" fill="#fa9500" opacity="0.31"/>
    <g id="clock" transform="translate(270 1969)">
      <circle id="Ellipse_4104" data-name="Ellipse 4104" cx="48.535" cy="48.535" r="48.535" transform="translate(1.465 1.465)" fill="#eab14d"/>
      <path id="Path_147289" data-name="Path 147289" d="M245.36,7.5q-1.3,0-2.583.069a48.535,48.535,0,0,1,0,96.933q1.283.067,2.583.069a48.535,48.535,0,1,0,0-97.07Z" transform="translate(-195.36 -6.035)" fill="#e49542"/>
      <circle id="Ellipse_4105" data-name="Ellipse 4105" cx="37.821" cy="37.821" r="37.821" transform="translate(12.179 12.179)" fill="#f4fbff"/>
      <path id="Path_147290" data-name="Path 147290" d="M243.186,62.357c-1.047,0-2.084.045-3.11.128a37.821,37.821,0,0,1,0,75.386c1.026.084,2.063.128,3.11.128a37.821,37.821,0,1,0,0-75.642Z" transform="translate(-193.186 -50.178)" fill="#daf1f4"/>
      <circle id="Ellipse_4106" data-name="Ellipse 4106" cx="3.91" cy="3.91" r="3.91" transform="translate(46.09 46.09)" fill="#365e7d"/>
      <g id="Group_84139" data-name="Group 84139" transform="translate(0)">
        <path id="Path_147291" data-name="Path 147291" d="M249.965,101.029a1.465,1.465,0,0,0,1.465-1.465v-2.15a1.465,1.465,0,0,0-2.93,0v2.15A1.465,1.465,0,0,0,249.965,101.029Z" transform="translate(-199.965 -77.209)"/>
        <path id="Path_147292" data-name="Path 147292" d="M352.2,141.228a1.464,1.464,0,0,0-2.071,0l-1.52,1.52a1.465,1.465,0,0,0,2.072,2.072l1.52-1.52a1.465,1.465,0,0,0,0-2.072Z" transform="translate(-280.176 -113.299)"/>
        <path id="Path_147293" data-name="Path 147293" d="M390.693,248.5a1.465,1.465,0,0,0,0,2.93h2.15a1.465,1.465,0,0,0,0-2.93Z" transform="translate(-313.207 -199.966)"/>
        <path id="Path_147294" data-name="Path 147294" d="M350.1,348.609a1.465,1.465,0,1,0-2.072,2.072l1.52,1.52a1.465,1.465,0,1,0,2.072-2.072Z" transform="translate(-279.71 -280.176)"/>
        <path id="Path_147295" data-name="Path 147295" d="M247.683,390.694v2.15a1.465,1.465,0,0,0,2.93,0v-2.15a1.465,1.465,0,0,0-2.93,0Z" transform="translate(-199.307 -313.208)"/>
        <path id="Path_147296" data-name="Path 147296" d="M142.17,348.031l-1.52,1.52a1.465,1.465,0,0,0,2.071,2.072l1.52-1.52a1.465,1.465,0,0,0-2.071-2.072Z" transform="translate(-112.833 -279.711)"/>
        <path id="Path_147297" data-name="Path 147297" d="M97.413,247.684a1.465,1.465,0,0,0,0,2.93h2.15a1.465,1.465,0,1,0,0-2.93Z" transform="translate(-77.208 -199.308)"/>
        <path id="Path_147298" data-name="Path 147298" d="M144.82,142.171l-1.52-1.52a1.465,1.465,0,1,0-2.072,2.072l1.52,1.52a1.465,1.465,0,0,0,2.072-2.071Z" transform="translate(-113.299 -112.835)"/>
        <path id="Path_147299" data-name="Path 147299" d="M202.635,170.814l10.434,5.365a1.465,1.465,0,0,0,1.34-2.605l-10.43-5.363a5.374,5.374,0,0,0-3.8-6.232V147.047a1.465,1.465,0,0,0-2.93,0v14.931a5.394,5.394,0,0,0-3.705,3.705h-7.271a1.465,1.465,0,0,0,0,2.93h7.271a5.369,5.369,0,0,0,9.1,2.2Zm-3.925-1.221a2.445,2.445,0,1,1,2.445-2.445A2.448,2.448,0,0,1,198.709,169.593Z" transform="translate(-148.709 -117.148)"/>
        <path id="Path_147300" data-name="Path 147300" d="M131.964,92.675a1.465,1.465,0,0,0,1.349-1.572,39.287,39.287,0,1,0,0,6.08,1.465,1.465,0,0,0-2.921-.224,36.354,36.354,0,1,1,0-5.633,1.463,1.463,0,0,0,1.573,1.349Z" transform="translate(-44.143 -44.143)"/>
        <path id="Path_147301" data-name="Path 147301" d="M177.483,14.645a50.015,50.015,0,0,0-62.321-6.757,1.465,1.465,0,0,0,1.582,2.466,47.063,47.063,0,1,1,11.716,84.7,1.465,1.465,0,0,0-.849,2.8,50.006,50.006,0,0,0,49.871-83.212Z" transform="translate(-92.127)"/>
        <path id="Path_147302" data-name="Path 147302" d="M31.007,138.85A47.08,47.08,0,0,1,20.029,59.475a1.465,1.465,0,0,0-1.867-2.258A50.01,50.01,0,0,0,29.823,141.53a1.465,1.465,0,0,0,1.184-2.68Z" transform="translate(0 -45.772)"/>
      </g>
    </g>
  </g>
</svg>
