<svg xmlns="http://www.w3.org/2000/svg" width="100" height="92.598" viewBox="0 0 100 92.598">
  <g id="t2-ic1" transform="translate(-2206.143 577.502)">
    <path id="Path_151124" data-name="Path 151124" d="M2534.143-519.549v-25.926h14.815v25.926Z" transform="translate(-252.074 -24.613)" fill="#111e61"/>
    <path id="Path_151125" data-name="Path 151125" d="M2598.143-515.253v-22.222h9.259v22.222Z" transform="translate(-301.259 -30.761)" fill="#ccc"/>
    <path id="Path_151126" data-name="Path 151126" d="M2300.5-560.44l-16.376-6.8a30.263,30.263,0,0,0-22.209-.244L2233.3-556.577a5,5,0,0,0-2.842,6.475l.014.036a4.87,4.87,0,0,0,6.291,2.8l.138-.056,15.483-6.574a9.582,9.582,0,0,1,2.674-.657,4.63,4.63,0,0,0-3.511,5.527,4.629,4.629,0,0,0,4.5,3.622h14.365a11.209,11.209,0,0,1,5.013,1.183,41.411,41.411,0,0,0,18.518,4.372h6.548Z" transform="translate(-18.427 -6.169)" fill="#f2c09a"/>
    <g id="Group_96800" data-name="Group 96800" transform="translate(2211.699 -564.532)">
      <path id="Path_151127" data-name="Path 151127" d="M2346.145-485.719a11.223,11.223,0,0,0-5.013-1.183h-14.359a4.629,4.629,0,0,1-4.63-4.63,4.581,4.581,0,0,1,.4-1.839,4.629,4.629,0,0,0,4.233,2.765h14.359a11.224,11.224,0,0,1,5.013,1.183,41.4,41.4,0,0,0,18.518,4.372h6.554v3.7h-6.552a41.4,41.4,0,0,1-18.52-4.372Z" transform="translate(-2300.847 499.877)" fill="#e9937c"/>
      <path id="Path_151128" data-name="Path 151128" d="M2230.49-513.164a5.019,5.019,0,0,1,.011-3.691,4.869,4.869,0,0,0,6.3,2.771l.116-.047L2252.4-520.7a9.662,9.662,0,0,1,3.776-.77h22.115v3.715h-22.115a9.662,9.662,0,0,0-3.776.769l-15.481,6.574a4.869,4.869,0,0,1-6.374-2.606C2230.527-513.07,2230.508-513.117,2230.49-513.164Z" transform="translate(-2230.144 521.475)" fill="#e9937c"/>
    </g>
    <g id="Group_96801" data-name="Group 96801" transform="translate(2207.995 -536.755)">
      <path id="Path_151129" data-name="Path 151129" d="M2381.551-397.771v7.407h-7.408v-7.407a3.7,3.7,0,0,1,3.7-3.7A3.7,3.7,0,0,1,2381.551-397.771Z" transform="translate(-2337.106 401.475)" fill="#fd9600"/>
      <path id="Path_151130" data-name="Path 151130" d="M2295.624-213.771h0a3.7,3.7,0,0,1-3.7,3.7h-74.074a3.7,3.7,0,0,1-3.7-3.7h0a3.7,3.7,0,0,1,3.7-3.7h74.074A3.7,3.7,0,0,1,2295.624-213.771Z" transform="translate(-2214.143 260.068)" fill="#fd9600"/>
    </g>
    <path id="Path_151131" data-name="Path 151131" d="M2238.143-334.29a35.185,35.185,0,0,1,35.185-35.185,35.185,35.185,0,0,1,35.185,35.185Z" transform="translate(-24.593 -159.872)" fill="#fdb54e"/>
    <path id="Path_151132" data-name="Path 151132" d="M2309.168-571.94h-14.815a1.852,1.852,0,0,0-1.852,1.852v.706l-13.826-5.741a32.037,32.037,0,0,0-23.567-.261L2226.5-564.475a6.739,6.739,0,0,0-3.783,3.606,6.862,6.862,0,0,0-.108,5.315,6.753,6.753,0,0,0,3.687,3.783,6.63,6.63,0,0,0,5.185-.011l12.007-5.1a6.432,6.432,0,0,0-.063.681,6.481,6.481,0,0,0,6.481,6.481h14.365a9.419,9.419,0,0,1,4.187.989,43.475,43.475,0,0,0,19.346,4.567h4.695a1.852,1.852,0,0,0,1.852,1.852h14.815a1.852,1.852,0,0,0,1.852-1.852h7.407v-3.7h-7.407v-18.518h7.407v-3.7h-7.407a1.852,1.852,0,0,0-1.852-1.852Zm-21.361,24.074a39.757,39.757,0,0,1-17.69-4.176,13.1,13.1,0,0,0-5.843-1.38h-14.365a2.778,2.778,0,0,1-2.759-2.8,2.778,2.778,0,0,1,2.148-2.688c.243-.022.48-.072.726-.072h22.107v-3.7h-22.222c-.037,0-.072.011-.111.011a11.41,11.41,0,0,0-4.274.906l-15.483,6.572a2.941,2.941,0,0,1-2.309,0,3.058,3.058,0,0,1-1.667-1.724,3.178,3.178,0,0,1,.05-2.461,3.059,3.059,0,0,1,1.715-1.643l28.607-10.907a28.333,28.333,0,0,1,20.837.224l15.228,6.331v17.505Zm19.51,1.852h-11.111v-22.222h11.111Z" transform="translate(-12.284)"/>
    <path id="Path_151133" data-name="Path 151133" d="M2291.328-361.327a5.555,5.555,0,0,0-5.555-5.556h-.094a37.037,37.037,0,0,0-31.387-34.722v-2.315a5.556,5.556,0,0,0-5.556-5.556,5.555,5.555,0,0,0-5.555,5.556v2.315a37.037,37.037,0,0,0-31.387,34.722h-.094a5.556,5.556,0,0,0-5.556,5.556,5.556,5.556,0,0,0,5.556,5.556h74.074A5.555,5.555,0,0,0,2291.328-361.327Zm-44.444-40.741v-1.852a1.852,1.852,0,0,1,1.852-1.852,1.852,1.852,0,0,1,1.852,1.852v1.852Zm35.135,35.185h-66.566a33.376,33.376,0,0,1,33.283-31.481A33.376,33.376,0,0,1,2282.019-366.883Zm5.606,5.556a1.852,1.852,0,0,1-1.852,1.852H2211.7a1.852,1.852,0,0,1-1.852-1.852,1.852,1.852,0,0,1,1.852-1.852h74.074A1.852,1.852,0,0,1,2287.625-361.327Z" transform="translate(0 -129.132)"/>
    <path id="Path_151134" data-name="Path 151134" d="M2417.234-341.821a29.329,29.329,0,0,0-3.95-1.094l-.741,3.63a25.814,25.814,0,0,1,3.458.956l1.233-3.491Z" transform="translate(-158.622 -180.284)"/>
    <path id="Path_151135" data-name="Path 151135" d="M2444.132-330.707l-1.733,3.276a25.88,25.88,0,0,1,10.841,10.837l3.272-1.73A29.592,29.592,0,0,0,2444.132-330.707Z" transform="translate(-181.567 -189.666)"/>
  </g>
</svg>
