<svg xmlns="http://www.w3.org/2000/svg" width="101.333" height="101.333" viewBox="0 0 101.333 101.333">
  <g id="t2-ic4" transform="translate(-16 -15.999)">
    <path id="Path_151150" data-name="Path 151150" d="M37.933,410.133h-.422v-5.067A5.067,5.067,0,0,0,32.444,400H29.067A5.067,5.067,0,0,0,24,405.067v13.511H44.267v-2.111a6.333,6.333,0,0,0-6.333-6.333Z" transform="translate(-6.311 -302.934)" fill="#d2e1f1"/>
    <path id="Path_151151" data-name="Path 151151" d="M398.333,410.133h.422v-5.067A5.067,5.067,0,0,1,403.822,400H407.2a5.067,5.067,0,0,1,5.067,5.067v13.511H392v-2.111A6.333,6.333,0,0,1,398.333,410.133Z" transform="translate(-296.622 -302.934)" fill="#d2e1f1"/>
    <path id="Path_151152" data-name="Path 151152" d="M0,0H57.422V48.978H0Z" transform="translate(95.378 115.644) rotate(180)" fill="#ffd494"/>
    <path id="Path_151153" data-name="Path 151153" d="M120,456h15.2v6.756H120Z" transform="translate(-82.044 -347.112)" fill="#ff9800"/>
    <path id="Path_151154" data-name="Path 151154" d="M320,456h15.2v6.756H320Z" transform="translate(-239.822 -347.112)" fill="#ff9800"/>
    <g id="Group_96805" data-name="Group 96805" transform="translate(53.155 56.533)">
      <path id="Path_151155" data-name="Path 151155" d="M192,208h27.022v59.111H192Z" transform="translate(-192 -208)" fill="#fff"/>
      <path id="Path_151156" data-name="Path 151156" d="M232,424h10.133v13.511H232Z" transform="translate(-223.556 -378.4)" fill="#b0c0d2"/>
    </g>
    <path id="Path_151157" data-name="Path 151157" d="M198.769,24l4.733,9.59,10.583,1.538-7.658,7.465,1.808,10.541-9.466-4.977L189.3,53.133l1.808-10.541-7.658-7.465,10.583-1.538Z" transform="translate(-132.102 -6.312)" fill="#ff9800"/>
    <path id="Path_151158" data-name="Path 151158" d="M201.923,48.51a1.689,1.689,0,0,1-.786-.194l-8.681-4.563-8.68,4.563a1.689,1.689,0,0,1-2.451-1.781l1.658-9.665-7.022-6.845a1.689,1.689,0,0,1,.935-2.881l9.7-1.41,4.341-8.794a1.689,1.689,0,0,1,3.029,0l4.34,8.794,9.7,1.41a1.689,1.689,0,0,1,.936,2.881l-7.022,6.845,1.658,9.665a1.689,1.689,0,0,1-1.665,1.975Zm-9.467-8.354a1.687,1.687,0,0,1,.786.194l6.437,3.384-1.227-7.168a1.689,1.689,0,0,1,.486-1.495L204.144,30l-7.2-1.046a1.689,1.689,0,0,1-1.272-.924L192.457,21.5l-3.219,6.521a1.689,1.689,0,0,1-1.272.924L180.771,30l5.207,5.076a1.689,1.689,0,0,1,.486,1.495l-1.229,7.168,6.437-3.384a1.687,1.687,0,0,1,.785-.195Z" transform="translate(-125.79)"/>
    <g id="Group_96806" data-name="Group 96806" transform="translate(17.689 36.266)">
      <path id="Path_151159" data-name="Path 151159" d="M346.625,112l3.283,6.652,7.341,1.067-5.312,5.178,1.254,7.312-6.566-3.452-6.566,3.452,1.254-7.312L336,119.719l7.341-1.067Z" transform="translate(-270.134 -112)" fill="#ff9800"/>
      <path id="Path_151160" data-name="Path 151160" d="M426.259,216l2.252,4.562,5.035.732-3.643,3.551.86,5.014-4.5-2.367-4.5,2.367.86-5.014-3.643-3.551,5.035-.732Z" transform="translate(-335.59 -194.044)" fill="#ff9800"/>
      <path id="Path_151161" data-name="Path 151161" d="M85.971,112l-3.283,6.652-7.341,1.067,5.312,5.178-1.254,7.312,6.566-3.452,6.566,3.452L91.284,124.9l5.312-5.178-7.341-1.067Z" transform="translate(-64.507 -112)" fill="#ff9800"/>
      <path id="Path_151162" data-name="Path 151162" d="M31.286,216l-2.252,4.562L24,221.294l3.643,3.551-.86,5.014,4.5-2.367,4.5,2.367-.86-5.014,3.643-3.551-5.035-.732Z" transform="translate(-24 -194.044)" fill="#ff9800"/>
      <path id="Path_151163" data-name="Path 151163" d="M224,184h13.511v10.133H224Z" transform="translate(-181.778 -168.8)" fill="#e8e8e8"/>
    </g>
    <g id="Group_96807" data-name="Group 96807" transform="translate(16 34.577)">
      <path id="Path_151164" data-name="Path 151164" d="M216,320h3.378v3.378H216Z" transform="translate(-173.778 -274.4)"/>
      <path id="Path_151165" data-name="Path 151165" d="M248,320h3.378v3.378H248Z" transform="translate(-199.022 -274.4)"/>
      <path id="Path_151166" data-name="Path 151166" d="M280,320h3.378v3.378H280Z" transform="translate(-224.267 -274.4)"/>
      <path id="Path_151167" data-name="Path 151167" d="M216,352h3.378v3.378H216Z" transform="translate(-173.778 -299.645)"/>
      <path id="Path_151168" data-name="Path 151168" d="M248,352h3.378v3.378H248Z" transform="translate(-199.022 -299.645)"/>
      <path id="Path_151169" data-name="Path 151169" d="M280,352h3.378v3.378H280Z" transform="translate(-224.267 -299.645)"/>
      <path id="Path_151170" data-name="Path 151170" d="M216,384h3.378v3.378H216Z" transform="translate(-173.778 -324.889)"/>
      <path id="Path_151171" data-name="Path 151171" d="M248,384h3.378v3.378H248Z" transform="translate(-199.022 -324.889)"/>
      <path id="Path_151172" data-name="Path 151172" d="M280,384h3.378v3.378H280Z" transform="translate(-224.267 -324.889)"/>
      <path id="Path_151173" data-name="Path 151173" d="M216,256h3.378v3.378H216Z" transform="translate(-173.778 -223.911)"/>
      <path id="Path_151174" data-name="Path 151174" d="M248,256h3.378v3.378H248Z" transform="translate(-199.022 -223.911)"/>
      <path id="Path_151175" data-name="Path 151175" d="M280,256h3.378v3.378H280Z" transform="translate(-224.267 -223.911)"/>
      <path id="Path_151176" data-name="Path 151176" d="M216,288h3.378v3.378H216Z" transform="translate(-173.778 -249.156)"/>
      <path id="Path_151177" data-name="Path 151177" d="M248,288h3.378v3.378H248Z" transform="translate(-199.022 -249.156)"/>
      <path id="Path_151178" data-name="Path 151178" d="M280,288h3.378v3.378H280Z" transform="translate(-224.267 -249.156)"/>
      <path id="Path_151179" data-name="Path 151179" d="M328.51,114.618l4.676,4.558-1.1,6.437a1.689,1.689,0,0,0,2.451,1.781l5.78-3.039,5.78,3.039a1.689,1.689,0,0,0,2.45-1.781l-1.1-6.437,4.677-4.558a1.689,1.689,0,0,0-.936-2.881l-6.463-.939-2.89-5.856a1.689,1.689,0,0,0-3.029,0l-2.89,5.856-6.463.939a1.689,1.689,0,0,0-.936,2.881Zm8.763-.6a1.689,1.689,0,0,0,1.272-.924l1.769-3.584,1.769,3.584a1.689,1.689,0,0,0,1.271.924l3.955.575-2.862,2.79a1.689,1.689,0,0,0-.486,1.495l.676,3.939-3.537-1.86a1.689,1.689,0,0,0-1.572,0l-3.537,1.86.676-3.939a1.689,1.689,0,0,0-.486-1.495l-2.862-2.79Z" transform="translate(-262.133 -104)"/>
      <path id="Path_151180" data-name="Path 151180" d="M412.419,213.312a1.689,1.689,0,0,0-.936,2.881l3.007,2.931-.71,4.14a1.689,1.689,0,0,0,2.45,1.781l3.717-1.954,3.717,1.954a1.689,1.689,0,0,0,2.45-1.781l-.71-4.139,3.008-2.933a1.689,1.689,0,0,0-.936-2.881l-4.156-.6-1.858-3.766a1.689,1.689,0,0,0-3.029,0l-1.858,3.766ZM419.212,215l.737-1.493.737,1.493a1.689,1.689,0,0,0,1.27.924l1.648.24-1.193,1.162a1.689,1.689,0,0,0-.486,1.5l.282,1.641-1.474-.775a1.689,1.689,0,0,0-1.572,0l-1.474.775.281-1.641a1.689,1.689,0,0,0-.486-1.5l-1.192-1.162,1.648-.24a1.689,1.689,0,0,0,1.272-.924Z" transform="translate(-327.59 -186.046)"/>
      <path id="Path_151181" data-name="Path 151181" d="M67.859,114.618l4.677,4.558-1.1,6.437a1.689,1.689,0,0,0,2.45,1.781l5.78-3.039,5.78,3.039a1.689,1.689,0,0,0,2.451-1.781l-1.1-6.437,4.676-4.558a1.689,1.689,0,0,0-.936-2.881l-6.463-.939-2.89-5.856a1.689,1.689,0,0,0-3.029,0l-2.89,5.856-6.462.939a1.689,1.689,0,0,0-.936,2.881Zm8.763-.6a1.689,1.689,0,0,0,1.272-.924l1.769-3.584,1.769,3.584a1.689,1.689,0,0,0,1.272.924l3.955.575-2.862,2.79a1.689,1.689,0,0,0-.486,1.495l.676,3.939-3.537-1.86a1.69,1.69,0,0,0-1.572,0l-3.537,1.859.676-3.939a1.689,1.689,0,0,0-.486-1.495l-2.863-2.789Z" transform="translate(-56.509 -104.001)"/>
      <path id="Path_151182" data-name="Path 151182" d="M16.513,216.192l3.007,2.932-.71,4.14a1.689,1.689,0,0,0,2.451,1.781l3.717-1.954,3.717,1.954a1.689,1.689,0,0,0,2.45-1.781l-.71-4.14,3.007-2.932a1.689,1.689,0,0,0-.936-2.881l-4.156-.6-1.858-3.766a1.689,1.689,0,0,0-3.029,0l-1.858,3.766-4.157.6a1.689,1.689,0,0,0-.936,2.88Zm6.457-.269A1.689,1.689,0,0,0,24.241,215l.737-1.493L25.715,215a1.689,1.689,0,0,0,1.272.924l1.648.24-1.192,1.162a1.689,1.689,0,0,0-.486,1.5l.281,1.641-1.474-.775a1.689,1.689,0,0,0-1.572,0l-1.474.775L23,218.82a1.689,1.689,0,0,0-.486-1.5l-1.193-1.162Z" transform="translate(-16.003 -186.046)"/>
      <path id="Path_151183" data-name="Path 151183" d="M144,288h5.067v3.378H144Z" transform="translate(-116.978 -249.156)"/>
      <path id="Path_151184" data-name="Path 151184" d="M144,328h5.067v3.378H144Z" transform="translate(-116.978 -280.711)"/>
      <path id="Path_151185" data-name="Path 151185" d="M144,368h5.067v3.378H144Z" transform="translate(-116.978 -312.267)"/>
      <path id="Path_151186" data-name="Path 151186" d="M144,408h5.067v3.378H144Z" transform="translate(-116.978 -343.822)"/>
      <path id="Path_151187" data-name="Path 151187" d="M110.578,221.6H107.2a6.763,6.763,0,0,0-6.756,6.756v3.478a7.979,7.979,0,0,0-3.378,1.384v-8.24H93.689v8.444H81.867V194.578H93.689V221.6h3.378V192.889a1.689,1.689,0,0,0-1.689-1.689H81.867v-8.444a1.689,1.689,0,0,0-1.689-1.689H75.111v-3.378A1.689,1.689,0,0,0,73.422,176H59.911a1.689,1.689,0,0,0-1.689,1.689v3.378H53.155a1.689,1.689,0,0,0-1.689,1.689V191.2H37.956a1.689,1.689,0,0,0-1.689,1.689v10.133h3.378v-8.444H51.467v38.844H39.644V206.4H36.267v26.818a7.98,7.98,0,0,0-3.378-1.384v-3.478a6.763,6.763,0,0,0-6.756-6.756H22.756A6.763,6.763,0,0,0,16,228.355v13.511a1.689,1.689,0,0,0,1.689,1.689h97.955a1.689,1.689,0,0,0,1.689-1.689V228.355a6.763,6.763,0,0,0-6.756-6.756ZM61.6,179.378H71.733v6.756H61.6ZM19.378,228.355a3.382,3.382,0,0,1,3.378-3.378h3.378a3.382,3.382,0,0,1,3.378,3.378v3.478a8.035,8.035,0,0,0-6.756,7.922v.422H19.378Zm6.756,11.822v-.422a4.65,4.65,0,0,1,4.644-4.644h.844a4.65,4.65,0,0,1,4.644,4.644v.422ZM39.644,236.8H51.467v3.378H39.644Zm15.2-52.355h3.378v3.378a1.689,1.689,0,0,0,1.689,1.689H73.422a1.689,1.689,0,0,0,1.689-1.689v-3.378h3.378v55.733H73.422V228.355a1.689,1.689,0,0,0-1.689-1.689H61.6a1.689,1.689,0,0,0-1.689,1.689v11.822H54.844Zm8.444,55.733V230.044h6.756v10.133ZM81.867,236.8H93.689v3.378H81.867Zm15.2,3.378v-.422a4.65,4.65,0,0,1,4.644-4.644h.844a4.65,4.65,0,0,1,4.644,4.644v.422Zm16.889,0h-3.378v-.422a8.035,8.035,0,0,0-6.756-7.922v-3.478a3.382,3.382,0,0,1,3.378-3.378h3.378a3.382,3.382,0,0,1,3.378,3.378Z" transform="translate(-16 -160.8)"/>
      <path id="Path_151188" data-name="Path 151188" d="M344,368h5.067v3.378H344Z" transform="translate(-274.756 -312.267)"/>
      <path id="Path_151189" data-name="Path 151189" d="M344,408h5.067v3.378H344Z" transform="translate(-274.756 -343.822)"/>
      <path id="Path_151190" data-name="Path 151190" d="M344,288h5.067v3.378H344Z" transform="translate(-274.756 -249.156)"/>
      <path id="Path_151191" data-name="Path 151191" d="M344,328h5.067v3.378H344Z" transform="translate(-274.756 -280.711)"/>
    </g>
  </g>
</svg>
