<svg id="t2-ic7" xmlns="http://www.w3.org/2000/svg" width="100" height="92.824" viewBox="0 0 100 92.824">
  <path id="Path_151192" data-name="Path 151192" d="M15.995,387.573a7.99,7.99,0,1,0,11.186-7.334H20.789A8.036,8.036,0,0,0,15.995,387.573Zm0,0" transform="translate(64.83 -304.351)" fill="#afafaf"/>
  <path id="Path_151193" data-name="Path 151193" d="M383.995,387.573a7.99,7.99,0,1,0,11.186-7.334h-6.392A8.036,8.036,0,0,0,383.995,387.573Zm0,0" transform="translate(-376.676 -304.351)" fill="#afafaf"/>
  <path id="Path_151194" data-name="Path 151194" d="M100.682,328.957H8v6.392h92.682Zm0,0" transform="translate(-2.28 -263.313)" fill="#ff9800"/>
  <path id="Path_151195" data-name="Path 151195" d="M46.392,360.957H40v11.186h6.392Zm0,0" transform="translate(45.618 -288.921)" fill="#acabb1"/>
  <path id="Path_151196" data-name="Path 151196" d="M414.392,360.957H408v11.186h6.392Zm0,0" transform="translate(-395.888 -288.921)" fill="#e8e8e8"/>
  <path id="Path_151197" data-name="Path 151197" d="M408,64.957l1.07,1.071" transform="translate(-390.566 -52.046)" fill="#d8d7da"/>
  <path id="Path_151198" data-name="Path 151198" d="M408,12.838l10.515,10.515V72.362h6.392V20.7L412.523,8.316Zm0,0" transform="translate(-406.403 -6.718)" fill="#e8e8e8"/>
  <path id="Path_151199" data-name="Path 151199" d="M115.135,128.957H70.392A6.392,6.392,0,0,0,64,135.349v27.165a6.392,6.392,0,0,0,6.392,6.392h44.743a6.392,6.392,0,0,0,6.392-6.392V135.349A6.392,6.392,0,0,0,115.135,128.957Zm0,0" transform="translate(-34.31 -103.262)" fill="#ffb74d"/>
  <path id="Path_151200" data-name="Path 151200" d="M113.588,128.957H104v39.949h9.588Zm0,0" transform="translate(-34.361 -103.262)" fill="#fff"/>
  <path id="Path_151201" data-name="Path 151201" d="M273.588,128.957H264v39.949h9.588Zm0,0" transform="translate(-226.321 -103.262)" fill="#fff"/>
  <g id="Group_96808" data-name="Group 96808" transform="translate(0 0)">
    <path id="Path_151202" data-name="Path 151202" d="M.468,7.569a1.6,1.6,0,0,1,0-2.26L4.99.787a1.6,1.6,0,0,1,2.26,0L19.634,13.171a1.589,1.589,0,0,1,.346.523,1.606,1.606,0,0,1,.122.607V64.366h9.629a7.911,7.911,0,0,1-1.639-4.794V32.406a8,8,0,0,1,7.99-7.99h9.588V19.622a8,8,0,0,1,7.99-7.99h9.588a8,8,0,0,1,7.99,7.99v4.794h9.588a8,8,0,0,1,7.99,7.99V59.572a7.911,7.911,0,0,1-1.639,4.794H98.4a1.6,1.6,0,0,1,1.6,1.6v6.392a1.6,1.6,0,0,1-1.6,1.6H93.608v1.3a9.588,9.588,0,1,1-9.588,0v-1.3H20.1v1.3a9.588,9.588,0,1,1-9.588,0v-1.3H5.72a1.6,1.6,0,0,1-1.6-1.6V65.963a1.6,1.6,0,0,1,1.6-1.6h4.794V17.616Zm30.82,24.837V59.572a4.794,4.794,0,0,0,4.794,4.794V27.612A4.794,4.794,0,0,0,31.288,32.406Zm7.99,31.959H45.67V27.612H39.278Zm28.763,0V27.612H48.865V64.365Zm0-44.743a4.794,4.794,0,0,0-4.794-4.794H53.659a4.794,4.794,0,0,0-4.794,4.794v4.794H68.041Zm3.2,7.99V64.365h6.392V27.612ZM85.619,59.572V32.406a4.794,4.794,0,0,0-4.794-4.794V64.365A4.794,4.794,0,0,0,85.619,59.572Zm-3.2,23.969a6.392,6.392,0,1,0,11.186-4.225v4.225a1.6,1.6,0,0,1-1.6,1.6H85.619a1.6,1.6,0,0,1-1.6-1.6V79.316A6.4,6.4,0,0,0,82.423,83.541Zm4.794-7.363v5.765h3.2v-7.99h-3.2Zm-78.3,7.363A6.392,6.392,0,1,0,20.1,79.316v4.225a1.6,1.6,0,0,1-1.6,1.6H12.112a1.6,1.6,0,0,1-1.6-1.6V79.316A6.4,6.4,0,0,0,8.916,83.541Zm4.794-7.363v5.765h3.2v-7.99h-3.2Zm-6.392-5.42H96.8v-3.2H7.318Zm9.588-6.392v-49.4L6.12,4.176,3.857,6.439l9.385,9.385a1.6,1.6,0,0,1,.468,1.13V64.365Zm0,0" transform="translate(0 -0.319)"/>
    <path id="Path_151203" data-name="Path 151203" d="M121.6,167.339a1.6,1.6,0,0,1-1.6-1.6V154.555a1.6,1.6,0,0,1,3.2,0v11.186A1.6,1.6,0,0,1,121.6,167.339Zm0,0" transform="translate(-47.165 -122.468)"/>
    <path id="Path_151204" data-name="Path 151204" d="M121.6,237.751a1.6,1.6,0,0,1-1.6-1.6v-1.6a1.6,1.6,0,0,1,3.2,0v1.6A1.6,1.6,0,0,1,121.6,237.751Zm0,0" transform="translate(-47.165 -186.489)"/>
  </g>
</svg>
