<svg xmlns="http://www.w3.org/2000/svg" width="109.016" height="87.916" viewBox="0 0 109.016 87.916">
  <g id="t2-ic8" transform="translate(-8 -56)">
    <g id="Group_84289" data-name="Group 84289" transform="translate(9.758 57.758)">
      <g id="Group_84288" data-name="Group 84288" transform="translate(0)">
        <path id="Path_147715" data-name="Path 147715" d="M121.5,68.4V74.55H16V68.4A4.394,4.394,0,0,1,20.4,64H117.1a4.394,4.394,0,0,1,4.4,4.4Z" transform="translate(-16 -64)" fill="#ffb74d"/>
        <path id="Path_147716" data-name="Path 147716" d="M121.5,112v69.454a4.394,4.394,0,0,1-4.4,4.4H20.4a4.394,4.394,0,0,1-4.4-4.4V112Z" transform="translate(-16 -101.45)" fill="#fff4e4"/>
      </g>
      <path id="Path_147724" data-name="Path 147724" d="M10.229,0h32c11.64,0,11.6,10.84,11.6,22.48s.04,19.672-11.6,19.672h-32C-1.411,42.153,0,32.717,0,21.076S-1.411,0,10.229,0Z" transform="translate(25.859 26.561)" fill="#ff9800"/>
      <path id="Path_147717" data-name="Path 147717" d="M200,248.616V224l24.616,12.308Z" transform="translate(-159.559 -188.834)" fill="#fff"/>
    </g>
    <g id="Group_84290" data-name="Group 84290" transform="translate(8 56)">
      <path id="Path_147718" data-name="Path 147718" d="M110.862,56H14.154A6.161,6.161,0,0,0,8,62.154v75.608a6.161,6.161,0,0,0,6.154,6.154h96.707a6.161,6.161,0,0,0,6.154-6.154V62.154A6.161,6.161,0,0,0,110.862,56Zm2.637,81.762a2.64,2.64,0,0,1-2.637,2.637H14.154a2.64,2.64,0,0,1-2.637-2.637v-67.7H113.5Zm0-71.212H11.517v-4.4a2.64,2.64,0,0,1,2.637-2.637h96.707a2.64,2.64,0,0,1,2.637,2.637Z" transform="translate(-8 -56)"/>
      <path id="Path_147719" data-name="Path 147719" d="M33.758,83.517h1.758a1.758,1.758,0,0,0,0-3.517H33.758a1.758,1.758,0,1,0,0,3.517Z" transform="translate(-26.725 -74.725)"/>
      <path id="Path_147720" data-name="Path 147720" d="M65.758,83.517h1.758a1.758,1.758,0,0,0,0-3.517H65.758a1.758,1.758,0,0,0,0,3.517Z" transform="translate(-51.692 -74.725)"/>
      <path id="Path_147721" data-name="Path 147721" d="M97.758,83.517h1.758a1.758,1.758,0,0,0,0-3.517H97.758a1.758,1.758,0,0,0,0,3.517Z" transform="translate(-76.659 -74.725)"/>
      <path id="Path_147722" data-name="Path 147722" d="M173.716,176H138.55A10.562,10.562,0,0,0,128,186.55v24.616a10.562,10.562,0,0,0,10.55,10.55h35.166a10.562,10.562,0,0,0,10.55-10.55V186.55A10.562,10.562,0,0,0,173.716,176Zm7.033,35.166a7.041,7.041,0,0,1-7.033,7.033H138.55a7.041,7.041,0,0,1-7.033-7.033V186.55a7.041,7.041,0,0,1,7.033-7.033h35.166a7.041,7.041,0,0,1,7.033,7.033Z" transform="translate(-101.625 -149.625)"/>
      <path id="Path_147723" data-name="Path 147723" d="M219.161,228.494l-24.616-12.308A1.758,1.758,0,0,0,192,217.759v24.616a1.758,1.758,0,0,0,2.545,1.573l24.616-12.308a1.758,1.758,0,0,0,0-3.145ZM195.517,239.53V220.6l18.926,9.463Z" transform="translate(-151.559 -180.834)"/>
    </g>
  </g>
</svg>
