<svg id="t2-ic6" xmlns="http://www.w3.org/2000/svg" width="99.932" height="99.932" viewBox="0 0 99.932 99.932">
  <path id="Path_151233" data-name="Path 151233" d="M101.307,96.649H40.059v-82.2A6.447,6.447,0,0,0,33.612,8H94.86a6.447,6.447,0,0,1,6.447,6.447Z" transform="translate(-25.553 -6.388)" fill="#ececec"/>
  <g id="Group_96835" data-name="Group 96835" transform="translate(1.612 1.612)">
    <path id="Path_151234" data-name="Path 151234" d="M72,396.894h67.7a6.447,6.447,0,0,0,6.447-6.447V384H84.894v6.447a6.447,6.447,0,0,1-6.447,6.447Z" transform="translate(-59.106 -308.245)" fill="#ffb74d"/>
    <path id="Path_151235" data-name="Path 151235" d="M20.894,27.342H8V14.447A6.447,6.447,0,0,1,14.447,8h0a6.447,6.447,0,0,1,6.447,6.447Z" transform="translate(-8 -8)" fill="#ffb74d"/>
  </g>
  <path id="Path_151236" data-name="Path 151236" d="M331.283,155.672a16.122,16.122,0,0,0,0,30.756Z" transform="translate(-255.528 -124.308)" fill="#b6c1ce"/>
  <ellipse id="Ellipse_4131" data-name="Ellipse 4131" cx="15.993" cy="16.348" rx="15.993" ry="16.348" transform="translate(66.244 25.677)" fill="#ffb74d"/>
  <path id="Path_151237" data-name="Path 151237" d="M344.118,214.506A16.12,16.12,0,0,1,328.081,200c-.052.53-.081,1.067-.081,1.612a16.118,16.118,0,0,0,32.236,0c0-.545-.029-1.082-.081-1.612A16.12,16.12,0,0,1,344.118,214.506Z" transform="translate(-261.916 -159.705)" fill="#ff9800"/>
  <g id="Group_96836" data-name="Group 96836" transform="translate(1.561 7.907)">
    <rect id="Rectangle_32491" data-name="Rectangle 32491" width="19.192" height="12.794" transform="translate(0 77.477)" fill="#d2e1f1"/>
    <rect id="Rectangle_32492" data-name="Rectangle 32492" width="44.78" height="17.77" transform="translate(21.324 0)" fill="#dee4f0"/>
  </g>
  <rect id="Rectangle_32493" data-name="Rectangle 32493" width="12.794" height="4.265" transform="translate(1.561 16.436)" fill="#ff9800"/>
  <rect id="Rectangle_32494" data-name="Rectangle 32494" width="19.192" height="4.976" transform="translate(1.561 93.202)" fill="#b0c0d2"/>
  <path id="Path_151238" data-name="Path 151238" d="M33.612,206.8,32.05,194.3a6.3,6.3,0,0,1-.05-.8V179.8a6.3,6.3,0,0,1,.05-.8l1.343-10.736a4.277,4.277,0,0,1,1.309-2.8l9.218-11.855A2.8,2.8,0,0,1,46.482,152h0a3.247,3.247,0,0,1,3.248,3.248v.548a3.248,3.248,0,0,1-.6,1.887l-6.254,8.755a6.431,6.431,0,0,0-1.2,3.746v9.307a6.466,6.466,0,0,0,.68,2.884l2.543,5.085h0l7.058-7.058a3.417,3.417,0,0,1,2.418-1h0a3.419,3.419,0,0,1,3.419,3.419h0a3.417,3.417,0,0,1-1,2.418L44.894,197.13V206.8Z" transform="translate(-25.553 -121.376)" fill="#f9e0a6"/>
  <path id="Path_151239" data-name="Path 151239" d="M104,52.953h48.354V32H104Zm3.224-17.73H149.13V49.73H107.224Z" transform="translate(-83.047 -25.553)"/>
  <rect id="Rectangle_32495" data-name="Rectangle 32495" width="31.986" height="3.554" transform="translate(29.283 49.844)"/>
  <rect id="Rectangle_32496" data-name="Rectangle 32496" width="9.951" height="3.554" transform="translate(32.126 37.049)"/>
  <rect id="Rectangle_32497" data-name="Rectangle 32497" width="9.24" height="3.554" transform="translate(48.474 37.049)"/>
  <rect id="Rectangle_32498" data-name="Rectangle 32498" width="9.951" height="3.554" transform="translate(32.126 43.447)"/>
  <rect id="Rectangle_32499" data-name="Rectangle 32499" width="9.24" height="3.554" transform="translate(48.474 43.447)"/>
  <rect id="Rectangle_32500" data-name="Rectangle 32500" width="25.589" height="3.554" transform="translate(43.498 62.638)"/>
  <rect id="Rectangle_32501" data-name="Rectangle 32501" width="9.24" height="3.554" transform="translate(59.847 69.035)"/>
  <rect id="Rectangle_32502" data-name="Rectangle 32502" width="9.951" height="3.554" transform="translate(43.498 69.035)"/>
  <path id="Path_151240" data-name="Path 151240" d="M388.835,158.447a1.613,1.613,0,0,1,1.612,1.612h3.224a4.829,4.829,0,0,0-3.224-4.539V152h-3.224v3.52a4.824,4.824,0,0,0,1.612,9.374,1.612,1.612,0,1,1-1.612,1.612H384a4.829,4.829,0,0,0,3.224,4.539v3.52h3.224v-3.52a4.824,4.824,0,0,0-1.612-9.374,1.612,1.612,0,0,1,0-3.224Z" transform="translate(-306.634 -121.376)"/>
  <rect id="Rectangle_32503" data-name="Rectangle 32503" width="2.843" height="2.843" transform="translate(90.411 40.603)"/>
  <rect id="Rectangle_32504" data-name="Rectangle 32504" width="2.843" height="2.843" transform="translate(71.22 40.603)"/>
  <path id="Path_151241" data-name="Path 151241" d="M97.032,51.628A17.706,17.706,0,0,0,77.366,24.864V8.059A8.068,8.068,0,0,0,69.307,0H8.059A8.068,8.068,0,0,0,0,8.059V22.565H12.894v12.01L6.367,42.966a5.956,5.956,0,0,0-1.739,3.723L3.286,57.427a8.3,8.3,0,0,0-.063,1v13.7a8.276,8.276,0,0,0,.063,1L4.621,83.814H0V99.932H22.565V91.873H82.2a8.068,8.068,0,0,0,8.059-8.059V75.755H77.366V58.95a17.637,17.637,0,0,0,17.391-4.526l-2.282-2.276a14.479,14.479,0,1,1,1.862-2.29ZM3.224,19.342V8.059a4.835,4.835,0,0,1,9.671,0V19.342ZM6.484,72.731a5.016,5.016,0,0,1-.037-.6v-13.7a4.969,4.969,0,0,1,.037-.6L7.825,47.09a2.834,2.834,0,0,1,.7-1.733l9.5-12.132.15-.23a1.2,1.2,0,0,1,1.14-.759,1.637,1.637,0,0,1,1.636,1.636v.548a1.632,1.632,0,0,1-.3.951L14.4,44.126a8,8,0,0,0-1.5,4.682v9.307a8.135,8.135,0,0,0,.849,3.6l1.378,2.753h-.616V67.7H18.4l7.53-7.53a1.808,1.808,0,0,1,3.085,1.278,1.793,1.793,0,0,1-.529,1.278L16.118,75.087v8.726H7.87ZM19.342,96.708H3.224V87.037H19.342Zm67.7-12.894A4.841,4.841,0,0,1,82.2,88.649H27.4a8.016,8.016,0,0,0,1.615-4.835V78.978H87.037ZM64.472,41.907A17.738,17.738,0,0,0,74.143,57.68V75.755H25.789v8.059a4.829,4.829,0,0,1-3.224,4.539V83.814H19.342V76.422L30.763,65a5.031,5.031,0,0,0-3.557-8.588,5.064,5.064,0,0,0-3.557,1.473l-5.477,5.477-1.544-3.085a4.87,4.87,0,0,1-.509-2.163V48.809a4.809,4.809,0,0,1,.9-2.811l6.254-8.755a4.826,4.826,0,0,0,.9-2.824V33.87a4.866,4.866,0,0,0-4.86-4.858,4.321,4.321,0,0,0-3.2,1.376V8.059a7.976,7.976,0,0,0-1.654-4.835H69.307a4.841,4.841,0,0,1,4.835,4.835V26.134A17.738,17.738,0,0,0,64.472,41.907Z"/>
</svg>
