<svg xmlns="http://www.w3.org/2000/svg" width="382" height="230" viewBox="0 0 382 230">
  <g id="t3-d3" transform="translate(-3318.77 3447.931)">
    <rect id="Rectángulo_32677" data-name="Rectángulo 32677" width="382" height="230" transform="translate(3318.77 -3447.931)" fill="none"/>
    <g id="Group_98113" data-name="Group 98113">
      <g id="Group_98078" data-name="Group 98078">
        <g id="Group_98074" data-name="Group 98074">
          <path id="Path_152568" data-name="Path 152568" d="M3387.025-3331.65l13.148-7.591-13.148-7.591-13.148,7.591h0l-13.148,7.591,13.148,7.591h0l13.148,7.591,13.148-7.591-13.148-7.591Z" fill="#d4ecff"/>
          <path id="Path_152569" data-name="Path 152569" d="M3387.025-3350.559v-55.669l13.148-7.591v55.669Z" fill="#173d7a"/>
          <path id="Path_152570" data-name="Path 152570" d="M3387.025-3406.228l-13.148-7.591v55.669l13.148,7.591Z" fill="#396caa"/>
          <path id="Path_152571" data-name="Path 152571" d="M3400.173-3413.819l-13.148-7.591-13.148,7.591,13.148,7.591Z" fill="#d4ecff"/>
        </g>
        <g id="Group_98075" data-name="Group 98075">
          <path id="Path_152572" data-name="Path 152572" d="M3400.173-3348.029l-13.148-7.591v5.061l13.148,7.591Z" fill="#95d359"/>
        </g>
        <g id="Group_98076" data-name="Group 98076">
          <path id="Path_152573" data-name="Path 152573" d="M3373.876-3342.968v-40.487l13.148-7.591v40.487Z" fill="#c13d1a"/>
          <path id="Path_152574" data-name="Path 152574" d="M3373.876-3383.454l-13.148-7.591v40.487l13.148,7.591Z" fill="#db5126"/>
          <path id="Path_152575" data-name="Path 152575" d="M3387.025-3391.045l-13.148-7.591-13.148,7.591,13.148,7.591Z" fill="#ef602e"/>
          <path id="Path_152576" data-name="Path 152576" d="M3373.876-3342.968v-40.487l13.148-7.591v40.487Z" fill="#396caa"/>
          <path id="Path_152577" data-name="Path 152577" d="M3373.876-3383.454l-13.148-7.591v40.487l13.148,7.591Z" fill="#5793ce"/>
          <path id="Path_152578" data-name="Path 152578" d="M3387.025-3391.045l-13.148-7.591-13.148,7.591,13.148,7.591Z" fill="#d4ecff"/>
        </g>
        <g id="Group_98077" data-name="Group 98077">
          <path id="Path_152579" data-name="Path 152579" d="M3387.025-3335.376v-22.774l13.148-7.591v22.774Z" fill="#173d7a"/>
          <path id="Path_152580" data-name="Path 152580" d="M3387.025-3358.15l-13.148-7.591v22.774l13.148,7.591Z" fill="#396caa"/>
          <path id="Path_152581" data-name="Path 152581" d="M3400.173-3365.741l-13.148-7.591-13.148,7.591,13.148,7.591Z" fill="#d4ecff"/>
        </g>
      </g>
      <g id="Group_98079" data-name="Group 98079">
        <rect id="Rectangle_32696" data-name="Rectangle 32696" width="1.338" height="3.885" transform="translate(3634.517 -3318.099) rotate(75.627)" fill="#5793ce"/>
        <rect id="Rectangle_32697" data-name="Rectangle 32697" width="1.338" height="3.885" transform="translate(3632.596 -3316.227) rotate(75.624)" fill="#5793ce"/>
        <rect id="Rectangle_32698" data-name="Rectangle 32698" width="1.338" height="3.885" transform="translate(3630.677 -3314.354) rotate(75.624)" fill="#5793ce"/>
        <rect id="Rectangle_32699" data-name="Rectangle 32699" width="1.338" height="3.885" transform="translate(3628.756 -3312.48) rotate(75.627)" fill="#5793ce"/>
      </g>
      <g id="Group_98085" data-name="Group 98085">
        <g id="Group_98082" data-name="Group 98082">
          <path id="Path_152582" data-name="Path 152582" d="M3535.263-3221.577l-84.315-48.68c-2.386-1.377-2.086-3.782.668-5.372l57.412-33.136c2.754-1.59,6.921-1.763,9.306-.386l84.315,48.68c2.385,1.377,2.086,3.782-.668,5.372l-57.413,33.136C3541.814-3220.373,3537.648-3220.2,3535.263-3221.577Z" fill="#d4ecff"/>
          <g id="Group_98080" data-name="Group 98080">
            <path id="Path_152583" data-name="Path 152583" d="M3605.768-3356.229l-85.707-49.441a3.281,3.281,0,0,0-2.934-.394l0-.01-.141.065-.034.016-2.79,1.313,3.029,1.507c0,.057-.006.11-.006.168l.026,70.394c0,3.523,2.181,7.636,4.87,9.187l83.42,48.122.475,3.927,3.046-1.453c1-.59,1.639-1.922,1.638-3.82l-.026-70.394C3610.636-3350.565,3608.456-3354.678,3605.768-3356.229Z" fill="#173d7a"/>
            <path id="Path_152584" data-name="Path 152584" d="M3605.768-3356.229l-85.707-49.441a3.281,3.281,0,0,0-2.934-.394l0-.01-.141.065-.034.016-2.79,1.313,3.029,1.507c0,.057-.006.11-.006.168l.017,46.394,39,30.818,52.96-26.652A9.605,9.605,0,0,0,3605.768-3356.229Z" fill="#396caa"/>
            <path id="Path_152585" data-name="Path 152585" d="M3607.2-3355.121l-8.4,3.533,6.342,4.886,5.295-2.255A12.325,12.325,0,0,0,3607.2-3355.121Z" fill="#274f89"/>
            <path id="Path_152586" data-name="Path 152586" d="M3602.977-3271.748l-85.706-49.441c-2.688-1.551-4.869-5.664-4.87-9.187l-.026-70.394c0-3.523,2.177-5.122,4.865-3.571l85.706,49.441c2.689,1.551,4.869,5.664,4.87,9.187l.027,70.394C3607.844-3271.8,3605.666-3270.2,3602.977-3271.748Z" fill="#d4ecff"/>
            <path id="Path_152587" data-name="Path 152587" d="M3600.126-3276.984l-80.045-46.154c-2.46-1.419-4.455-5.182-4.457-8.406l-.023-64.417c0-3.223,1.992-4.686,4.452-3.267l80.045,46.153c2.46,1.419,4.455,5.183,4.456,8.406l.024,64.417C3604.579-3277.028,3602.586-3275.565,3600.126-3276.984Z" fill="#fff"/>
            <path id="Path_152588" data-name="Path 152588" d="M3600.126-3276.984l-80.045-46.154c-2.46-1.419-4.455-5.182-4.457-8.406l-.023-64.417c0-3.223,1.992-4.686,4.452-3.267l80.045,46.153c2.46,1.419,4.455,5.183,4.456,8.406l.024,64.417C3604.579-3277.028,3602.586-3275.565,3600.126-3276.984Z" fill="#fff"/>
          </g>
          <path id="Path_152589" data-name="Path 152589" d="M3604.257-3269.562l-11.525-1.522-74.4-42.953c-2.385-1.378-6.552-1.2-9.306.385l-52.718,30.426-6.969-.92v3.954h.007a2.713,2.713,0,0,0,1.6,2.443l84.315,48.679c2.385,1.377,6.551,1.2,9.305-.386l57.413-33.136c1.549-.894,2.321-2.047,2.276-3.129h0Z" fill="#173d7a"/>
          <path id="Path_152590" data-name="Path 152590" d="M3548.357-3296.7l-5.286-3.052h-58.112l-28.649,16.529-6.969-.92v3.954h.007a2.713,2.713,0,0,0,1.6,2.443l84.315,48.679a8.723,8.723,0,0,0,4.8.9Z" fill="#396caa"/>
          <path id="Path_152591" data-name="Path 152591" d="M3452.433-3283.738l-3.092-.408v3.954h.007a2.713,2.713,0,0,0,1.6,2.443l1.485.857Z" fill="#5793ce"/>
          <path id="Path_152592" data-name="Path 152592" d="M3536.112-3228.675a10.8,10.8,0,0,0,7.907-.49v-8.821h-7.907Z" fill="#274f89"/>
          <path id="Path_152593" data-name="Path 152593" d="M3535.263-3233.019l-84.315-48.679c-2.386-1.377-2.086-3.783.668-5.373l57.412-33.136c2.754-1.59,6.921-1.762,9.306-.385l84.315,48.679c2.385,1.377,2.086,3.783-.668,5.373l-57.413,33.136C3541.814-3231.814,3537.648-3231.642,3535.263-3233.019Z" fill="#d4ecff"/>
          <path id="Path_152594" data-name="Path 152594" d="M3601.981-3267.985l-57.413,33.136c-2.754,1.59-6.92,1.763-9.305.386l-84.315-48.679a3.143,3.143,0,0,1-1.483-1.622c-.373,1.128.1,2.269,1.483,3.066l84.315,48.679c2.385,1.378,6.551,1.205,9.305-.385l57.413-33.136c1.851-1.069,2.587-2.5,2.151-3.751A4.485,4.485,0,0,1,3601.981-3267.985Z" fill="#fff"/>
          <g id="Group_98081" data-name="Group 98081">
            <path id="Path_152595" data-name="Path 152595" d="M3486.808-3297.814l-3.815-2.2c-.306-.177-.268-.486.086-.69l4.5-2.6a1.331,1.331,0,0,1,1.2-.05l3.815,2.2c.306.177.268.486-.086.69l-4.5,2.6A1.328,1.328,0,0,1,3486.808-3297.814Z" fill="#173d7a"/>
            <path id="Path_152596" data-name="Path 152596" d="M3492.7-3294.412l-3.815-2.2c-.306-.177-.267-.486.086-.69l4.5-2.6a1.329,1.329,0,0,1,1.2-.049l3.815,2.2c.306.177.268.486-.086.69l-4.5,2.6A1.332,1.332,0,0,1,3492.7-3294.412Z" fill="#173d7a"/>
            <path id="Path_152597" data-name="Path 152597" d="M3498.591-3291.011l-3.815-2.2c-.306-.176-.268-.485.086-.69l4.5-2.6a1.328,1.328,0,0,1,1.2-.05l3.815,2.2c.306.177.267.486-.086.69l-4.5,2.6A1.325,1.325,0,0,1,3498.591-3291.011Z" fill="#173d7a"/>
            <path id="Path_152598" data-name="Path 152598" d="M3506.739-3293.82l-3.815-2.2c-.306-.176-.268-.485.086-.69l3.78-2.182a1.328,1.328,0,0,1,1.2-.049l3.815,2.2c.306.177.268.486-.086.69l-3.78,2.182A1.325,1.325,0,0,1,3506.739-3293.82Z" fill="#173d7a"/>
            <path id="Path_152599" data-name="Path 152599" d="M3512.63-3290.419l-3.815-2.2c-.306-.177-.267-.486.086-.69l3.78-2.182a1.325,1.325,0,0,1,1.2-.05l3.815,2.2c.306.176.268.485-.086.689l-3.78,2.183A1.328,1.328,0,0,1,3512.63-3290.419Z" fill="#173d7a"/>
            <path id="Path_152600" data-name="Path 152600" d="M3518.522-3287.017l-3.815-2.2c-.307-.177-.268-.486.086-.69l3.78-2.182a1.332,1.332,0,0,1,1.2-.05l3.815,2.2c.306.177.267.486-.086.69l-3.78,2.182A1.329,1.329,0,0,1,3518.522-3287.017Z" fill="#173d7a"/>
            <path id="Path_152601" data-name="Path 152601" d="M3524.413-3283.616l-3.815-2.2c-.306-.177-.268-.486.086-.69l3.78-2.183a1.328,1.328,0,0,1,1.195-.049l3.815,2.2c.306.177.268.486-.086.69l-3.78,2.183A1.328,1.328,0,0,1,3524.413-3283.616Z" fill="#173d7a"/>
            <path id="Path_152602" data-name="Path 152602" d="M3530.3-3280.214l-3.814-2.2c-.307-.177-.268-.486.085-.69l3.78-2.182a1.326,1.326,0,0,1,1.2-.05l3.815,2.2c.307.177.268.485-.085.69l-3.78,2.182A1.334,1.334,0,0,1,3530.3-3280.214Z" fill="#173d7a"/>
            <path id="Path_152603" data-name="Path 152603" d="M3536.2-3276.813l-3.815-2.2c-.306-.176-.268-.485.086-.69l3.78-2.182a1.327,1.327,0,0,1,1.195-.049l3.815,2.2c.306.177.268.486-.086.69l-3.78,2.182A1.325,1.325,0,0,1,3536.2-3276.813Z" fill="#173d7a"/>
            <path id="Path_152604" data-name="Path 152604" d="M3542.087-3273.412l-3.815-2.2c-.306-.177-.268-.486.086-.69l3.78-2.182a1.326,1.326,0,0,1,1.2-.05l3.815,2.2c.306.176.268.485-.086.689l-3.78,2.183A1.329,1.329,0,0,1,3542.087-3273.412Z" fill="#173d7a"/>
            <path id="Path_152605" data-name="Path 152605" d="M3547.979-3270.01l-3.815-2.2c-.307-.177-.268-.486.086-.69l3.779-2.182a1.333,1.333,0,0,1,1.2-.05l3.814,2.2c.307.177.268.486-.085.69l-3.78,2.182A1.328,1.328,0,0,1,3547.979-3270.01Z" fill="#173d7a"/>
            <path id="Path_152606" data-name="Path 152606" d="M3553.87-3266.609l-3.815-2.2c-.306-.177-.268-.486.086-.69l3.78-2.183a1.329,1.329,0,0,1,1.2-.049l3.815,2.2c.306.177.268.486-.086.69l-3.78,2.183A1.328,1.328,0,0,1,3553.87-3266.609Z" fill="#173d7a"/>
            <path id="Path_152607" data-name="Path 152607" d="M3559.761-3263.207l-3.814-2.2c-.307-.177-.268-.486.085-.69l3.78-2.182a1.325,1.325,0,0,1,1.2-.05l3.815,2.2c.307.177.268.485-.086.69l-3.78,2.182A1.331,1.331,0,0,1,3559.761-3263.207Z" fill="#173d7a"/>
            <path id="Path_152608" data-name="Path 152608" d="M3515.42-3295.43l-3.815-2.2c-.307-.177-.268-.486.085-.69l3.78-2.182a1.328,1.328,0,0,1,1.2-.05l3.815,2.2c.307.177.268.486-.086.69l-3.779,2.182A1.331,1.331,0,0,1,3515.42-3295.43Z" fill="#396caa"/>
            <path id="Path_152609" data-name="Path 152609" d="M3509.44-3298.883l-3.815-2.2c-.306-.177-.268-.486.086-.69l3.78-2.182a1.325,1.325,0,0,1,1.2-.05l3.815,2.2c.306.176.268.485-.086.69l-3.78,2.182A1.329,1.329,0,0,1,3509.44-3298.883Z" fill="#396caa"/>
            <path id="Path_152610" data-name="Path 152610" d="M3503.451-3302.34l-8.216-4.744c-.307-.177-.268-.486.085-.69l3.78-2.182a1.327,1.327,0,0,1,1.2-.05l8.216,4.744c.306.177.268.486-.086.69l-3.78,2.182A1.332,1.332,0,0,1,3503.451-3302.34Z" fill="#173d7a"/>
            <path id="Path_152611" data-name="Path 152611" d="M3507.637-3306.545l-6.667-3.85c-.307-.177-.268-.486.085-.69l3.78-2.182a1.326,1.326,0,0,1,1.2-.05l6.668,3.85c.307.177.268.485-.086.69l-3.78,2.182A1.332,1.332,0,0,1,3507.637-3306.545Z" fill="#173d7a"/>
            <path id="Path_152612" data-name="Path 152612" d="M3521.311-3292.029l-3.815-2.2c-.306-.176-.268-.485.086-.69l3.78-2.182a1.327,1.327,0,0,1,1.195-.049l3.815,2.2c.306.177.268.486-.086.69l-3.78,2.182A1.325,1.325,0,0,1,3521.311-3292.029Z" fill="#396caa"/>
            <path id="Path_152613" data-name="Path 152613" d="M3527.2-3288.628l-3.815-2.2c-.306-.177-.267-.486.086-.69l3.78-2.182a1.325,1.325,0,0,1,1.2-.05l3.815,2.2c.306.176.268.485-.086.69l-3.78,2.182A1.328,1.328,0,0,1,3527.2-3288.628Z" fill="#173d7a"/>
            <path id="Path_152614" data-name="Path 152614" d="M3533.094-3285.226l-3.815-2.2c-.306-.177-.268-.485.086-.69l3.78-2.182a1.332,1.332,0,0,1,1.2-.05l3.815,2.2c.306.177.267.486-.086.69l-3.78,2.182A1.329,1.329,0,0,1,3533.094-3285.226Z" fill="#173d7a"/>
            <path id="Path_152615" data-name="Path 152615" d="M3538.985-3281.825l-3.815-2.2c-.306-.177-.268-.486.086-.69l3.78-2.183a1.328,1.328,0,0,1,1.2-.049l3.815,2.2c.306.177.268.486-.086.69l-3.78,2.183A1.328,1.328,0,0,1,3538.985-3281.825Z" fill="#173d7a"/>
            <path id="Path_152616" data-name="Path 152616" d="M3544.876-3278.423l-3.814-2.2c-.307-.177-.268-.486.085-.69l3.78-2.182a1.329,1.329,0,0,1,1.2-.05l3.815,2.2c.307.177.268.486-.086.69l-3.779,2.182A1.334,1.334,0,0,1,3544.876-3278.423Z" fill="#173d7a"/>
            <path id="Path_152617" data-name="Path 152617" d="M3550.768-3275.022l-3.815-2.2c-.306-.176-.268-.485.086-.689l3.78-2.183a1.327,1.327,0,0,1,1.195-.049l3.815,2.2c.306.177.268.486-.086.69l-3.78,2.182A1.325,1.325,0,0,1,3550.768-3275.022Z" fill="#173d7a"/>
            <path id="Path_152618" data-name="Path 152618" d="M3556.659-3271.621l-3.815-2.2c-.306-.177-.268-.486.086-.69l3.78-2.182a1.326,1.326,0,0,1,1.2-.05l3.815,2.2c.306.176.268.485-.086.69l-3.78,2.182A1.329,1.329,0,0,1,3556.659-3271.621Z" fill="#173d7a"/>
            <path id="Path_152619" data-name="Path 152619" d="M3562.551-3268.219l-3.815-2.2c-.307-.177-.268-.486.086-.69l3.78-2.182a1.329,1.329,0,0,1,1.194-.05l3.815,2.2c.307.177.268.486-.085.69l-3.78,2.182A1.328,1.328,0,0,1,3562.551-3268.219Z" fill="#173d7a"/>
            <path id="Path_152620" data-name="Path 152620" d="M3568.442-3264.818l-3.815-2.2c-.306-.177-.268-.486.086-.69l3.78-2.183a1.329,1.329,0,0,1,1.2-.049l3.815,2.2c.306.177.268.486-.086.69l-3.78,2.183A1.329,1.329,0,0,1,3568.442-3264.818Z" fill="#173d7a"/>
            <path id="Path_152621" data-name="Path 152621" d="M3578.916-3258.771l-8.324-4.806c-.307-.176-.268-.485.086-.69l3.78-2.182a1.328,1.328,0,0,1,1.2-.049l8.323,4.8c.307.177.268.486-.085.69l-3.78,2.183A1.328,1.328,0,0,1,3578.916-3258.771Z" fill="#173d7a"/>
            <path id="Path_152622" data-name="Path 152622" d="M3590.385-3265.393l-7.025-4.056c-.306-.177-.268-.486.086-.69l3.78-2.183a1.328,1.328,0,0,1,1.195-.049l7.025,4.056c.307.177.268.486-.086.69l-3.78,2.182A1.325,1.325,0,0,1,3590.385-3265.393Z" fill="#173d7a"/>
            <path id="Path_152623" data-name="Path 152623" d="M3531.628-3292.7l-3.815-2.2c-.306-.177-.268-.486.086-.69l3.78-2.182a1.325,1.325,0,0,1,1.2-.05l3.815,2.2c.306.177.268.485-.086.69l-3.78,2.182A1.329,1.329,0,0,1,3531.628-3292.7Z" fill="#173d7a"/>
            <path id="Path_152624" data-name="Path 152624" d="M3525.59-3296.181l-3.815-2.2c-.306-.177-.268-.486.086-.69l3.78-2.182a1.325,1.325,0,0,1,1.195-.05l3.815,2.2c.306.176.268.485-.086.69l-3.78,2.182A1.328,1.328,0,0,1,3525.59-3296.181Z" fill="#173d7a"/>
            <path id="Path_152625" data-name="Path 152625" d="M3519.552-3299.666l-3.815-2.2c-.306-.177-.268-.486.086-.69l3.78-2.182a1.325,1.325,0,0,1,1.2-.05l3.815,2.2c.306.177.268.485-.086.69l-3.78,2.182A1.331,1.331,0,0,1,3519.552-3299.666Z" fill="#396caa"/>
            <path id="Path_152626" data-name="Path 152626" d="M3513.514-3303.153l-3.815-2.2c-.306-.177-.268-.486.086-.69l3.78-2.182a1.326,1.326,0,0,1,1.2-.05l3.815,2.2c.306.176.268.485-.086.69l-3.78,2.182A1.329,1.329,0,0,1,3513.514-3303.153Z" fill="#173d7a"/>
            <path id="Path_152627" data-name="Path 152627" d="M3537.519-3289.293l-3.814-2.2c-.307-.176-.268-.485.085-.69l3.78-2.182a1.328,1.328,0,0,1,1.195-.049l3.815,2.2c.307.177.268.486-.086.69l-3.78,2.182A1.325,1.325,0,0,1,3537.519-3289.293Z" fill="#173d7a"/>
            <path id="Path_152628" data-name="Path 152628" d="M3543.411-3285.892l-3.815-2.2c-.306-.177-.268-.486.086-.69l3.78-2.183a1.329,1.329,0,0,1,1.2-.049l3.815,2.2c.306.177.267.486-.086.69l-3.78,2.183A1.329,1.329,0,0,1,3543.411-3285.892Z" fill="#173d7a"/>
            <path id="Path_152629" data-name="Path 152629" d="M3549.3-3282.49l-3.815-2.2c-.306-.177-.268-.486.086-.69l3.78-2.182a1.328,1.328,0,0,1,1.2-.05l3.815,2.2c.306.177.268.486-.086.69l-3.78,2.182A1.328,1.328,0,0,1,3549.3-3282.49Z" fill="#173d7a"/>
            <path id="Path_152630" data-name="Path 152630" d="M3555.194-3279.089l-3.815-2.2c-.307-.177-.268-.486.085-.69l3.78-2.183a1.329,1.329,0,0,1,1.2-.049l3.815,2.2c.307.177.268.486-.085.69l-3.78,2.183A1.328,1.328,0,0,1,3555.194-3279.089Z" fill="#173d7a"/>
            <path id="Path_152631" data-name="Path 152631" d="M3561.085-3275.687l-3.815-2.2c-.306-.177-.268-.486.086-.69l3.78-2.182a1.325,1.325,0,0,1,1.2-.05l3.815,2.2c.306.177.268.485-.086.69l-3.78,2.182A1.331,1.331,0,0,1,3561.085-3275.687Z" fill="#173d7a"/>
            <path id="Path_152632" data-name="Path 152632" d="M3566.976-3272.286l-3.815-2.2c-.306-.176-.267-.485.086-.69l3.78-2.182a1.328,1.328,0,0,1,1.195-.049l3.815,2.2c.306.177.268.486-.086.69l-3.78,2.182A1.325,1.325,0,0,1,3566.976-3272.286Z" fill="#173d7a"/>
            <path id="Path_152633" data-name="Path 152633" d="M3572.868-3268.885l-3.815-2.2c-.306-.177-.268-.486.086-.69l3.78-2.183a1.328,1.328,0,0,1,1.2-.049l3.815,2.2c.306.177.267.486-.086.69l-3.78,2.183A1.328,1.328,0,0,1,3572.868-3268.885Z" fill="#173d7a"/>
            <path id="Path_152634" data-name="Path 152634" d="M3578.759-3265.483l-3.815-2.2c-.306-.177-.268-.486.086-.69l3.78-2.182a1.329,1.329,0,0,1,1.195-.05l3.815,2.2c.306.177.268.486-.086.69l-3.78,2.182A1.329,1.329,0,0,1,3578.759-3265.483Z" fill="#173d7a"/>
            <path id="Path_152635" data-name="Path 152635" d="M3584.651-3262.082l-3.815-2.2c-.307-.177-.268-.486.085-.69l3.78-2.183a1.328,1.328,0,0,1,1.2-.049l3.815,2.2c.307.177.268.486-.085.69l-3.78,2.183A1.328,1.328,0,0,1,3584.651-3262.082Z" fill="#173d7a"/>
            <path id="Path_152636" data-name="Path 152636" d="M3528.526-3301.108l-3.815-2.2c-.306-.177-.268-.486.086-.69l3.78-2.182a1.325,1.325,0,0,1,1.2-.05l3.815,2.2c.306.176.267.485-.086.689l-3.78,2.183A1.328,1.328,0,0,1,3528.526-3301.108Z" fill="#173d7a"/>
            <path id="Path_152637" data-name="Path 152637" d="M3522.664-3304.492l-3.815-2.2c-.306-.177-.268-.485.086-.69l3.78-2.182a1.331,1.331,0,0,1,1.195-.05l3.815,2.2c.306.177.267.486-.086.69l-3.78,2.182A1.325,1.325,0,0,1,3522.664-3304.492Z" fill="#173d7a"/>
            <path id="Path_152638" data-name="Path 152638" d="M3516.8-3307.877l-3.815-2.2c-.307-.177-.268-.486.086-.69l3.78-2.182a1.323,1.323,0,0,1,1.194-.05l3.815,2.2c.307.176.268.485-.085.689l-3.78,2.183A1.328,1.328,0,0,1,3516.8-3307.877Z" fill="#173d7a"/>
            <path id="Path_152639" data-name="Path 152639" d="M3510.94-3311.261l-3.815-2.2c-.307-.176-.268-.485.085-.69l3.78-2.182a1.328,1.328,0,0,1,1.2-.049l3.815,2.2c.307.177.268.486-.085.69l-3.78,2.182A1.325,1.325,0,0,1,3510.94-3311.261Z" fill="#173d7a"/>
            <path id="Path_152640" data-name="Path 152640" d="M3516.968-3314.741l-3.815-2.2c-.307-.177-.268-.486.085-.69l1.25-.721a1.328,1.328,0,0,1,1.2-.05l3.815,2.2c.306.177.268.485-.086.69l-1.249.721A1.331,1.331,0,0,1,3516.968-3314.741Z" fill="#173d7a"/>
            <path id="Path_152641" data-name="Path 152641" d="M3524.618-3310.325l-3.815-2.2c-.307-.177-.268-.486.085-.69l1.25-.722a1.328,1.328,0,0,1,1.2-.049l3.815,2.2c.306.176.268.485-.086.689l-1.249.722A1.328,1.328,0,0,1,3524.618-3310.325Z" fill="#173d7a"/>
            <path id="Path_152642" data-name="Path 152642" d="M3530.455-3306.954l-3.815-2.2c-.306-.177-.268-.486.086-.69l1.25-.721a1.328,1.328,0,0,1,1.195-.05l3.815,2.2c.306.177.268.486-.086.69l-1.25.721A1.328,1.328,0,0,1,3530.455-3306.954Z" fill="#173d7a"/>
            <path id="Path_152643" data-name="Path 152643" d="M3536.293-3303.584l-3.815-2.2c-.306-.177-.268-.486.086-.69l1.249-.722a1.328,1.328,0,0,1,1.2-.049l3.815,2.2c.307.177.268.486-.086.69l-1.249.722A1.328,1.328,0,0,1,3536.293-3303.584Z" fill="#173d7a"/>
            <path id="Path_152644" data-name="Path 152644" d="M3542.131-3300.213l-3.815-2.2c-.307-.177-.268-.486.085-.69l1.25-.721a1.325,1.325,0,0,1,1.2-.05l3.815,2.2c.306.176.268.485-.086.69l-1.249.721A1.332,1.332,0,0,1,3542.131-3300.213Z" fill="#173d7a"/>
            <path id="Path_152645" data-name="Path 152645" d="M3574.721-3281.4l-3.815-2.2c-.306-.177-.268-.486.086-.69l1.25-.721a1.328,1.328,0,0,1,1.2-.05l3.815,2.2c.306.177.268.486-.086.69l-1.25.721A1.328,1.328,0,0,1,3574.721-3281.4Z" fill="#173d7a"/>
            <path id="Path_152646" data-name="Path 152646" d="M3580.559-3278.027l-3.815-2.2c-.306-.177-.268-.486.086-.69l1.249-.722a1.328,1.328,0,0,1,1.195-.049l3.815,2.2c.307.177.268.486-.085.69l-1.25.722A1.328,1.328,0,0,1,3580.559-3278.027Z" fill="#173d7a"/>
            <path id="Path_152647" data-name="Path 152647" d="M3586.4-3274.656l-3.815-2.2c-.307-.177-.268-.486.086-.69l1.249-.721a1.325,1.325,0,0,1,1.2-.05l3.815,2.2c.306.177.268.485-.086.69l-1.249.721A1.331,1.331,0,0,1,3586.4-3274.656Z" fill="#173d7a"/>
            <path id="Path_152648" data-name="Path 152648" d="M3592.234-3271.286l-3.815-2.2c-.306-.176-.268-.485.086-.69l1.25-.721a1.331,1.331,0,0,1,1.2-.05l3.815,2.2c.306.177.268.486-.086.69l-1.25.721A1.326,1.326,0,0,1,3592.234-3271.286Z" fill="#173d7a"/>
            <path id="Path_152649" data-name="Path 152649" d="M3534.417-3297.706l-3.815-2.2c-.306-.177-.268-.486.086-.69l3.78-2.182a1.331,1.331,0,0,1,1.2-.05l3.815,2.2c.306.177.268.486-.086.69l-3.78,2.182A1.328,1.328,0,0,1,3534.417-3297.706Z" fill="#173d7a"/>
            <path id="Path_152650" data-name="Path 152650" d="M3540.309-3294.3l-3.815-2.2c-.307-.177-.268-.486.086-.69l3.779-2.183a1.328,1.328,0,0,1,1.2-.049l3.815,2.2c.307.177.268.486-.085.69l-3.78,2.183A1.328,1.328,0,0,1,3540.309-3294.3Z" fill="#173d7a"/>
            <path id="Path_152651" data-name="Path 152651" d="M3546.2-3290.9l-3.815-2.2c-.306-.177-.268-.486.086-.69l3.78-2.182a1.325,1.325,0,0,1,1.2-.05l3.815,2.2c.306.177.268.485-.086.69l-3.78,2.182A1.332,1.332,0,0,1,3546.2-3290.9Z" fill="#173d7a"/>
            <path id="Path_152652" data-name="Path 152652" d="M3552.091-3287.5l-3.815-2.2c-.306-.176-.267-.485.086-.69l3.78-2.182a1.328,1.328,0,0,1,1.195-.049l3.815,2.2c.306.177.268.486-.086.69l-3.78,2.182A1.325,1.325,0,0,1,3552.091-3287.5Z" fill="#173d7a"/>
            <path id="Path_152653" data-name="Path 152653" d="M3557.983-3284.1l-3.815-2.2c-.306-.177-.268-.486.086-.69l3.78-2.183a1.329,1.329,0,0,1,1.2-.049l3.815,2.2c.306.177.267.486-.086.69l-3.78,2.183A1.329,1.329,0,0,1,3557.983-3284.1Z" fill="#173d7a"/>
            <path id="Path_152654" data-name="Path 152654" d="M3563.874-3280.7l-3.815-2.2c-.306-.177-.268-.486.086-.69l3.78-2.182a1.328,1.328,0,0,1,1.2-.05l3.815,2.2c.306.177.268.486-.086.69l-3.78,2.182A1.328,1.328,0,0,1,3563.874-3280.7Z" fill="#173d7a"/>
            <path id="Path_152655" data-name="Path 152655" d="M3569.766-3277.3l-3.815-2.2c-.307-.177-.268-.486.085-.69l3.78-2.183a1.329,1.329,0,0,1,1.2-.049l3.815,2.2c.307.177.268.486-.085.69l-3.78,2.183A1.328,1.328,0,0,1,3569.766-3277.3Z" fill="#173d7a"/>
            <path id="Path_152656" data-name="Path 152656" d="M3575.657-3273.9l-3.815-2.2c-.306-.177-.268-.486.086-.69l3.78-2.182a1.325,1.325,0,0,1,1.2-.05l3.815,2.2c.306.177.268.485-.086.69l-3.78,2.182A1.331,1.331,0,0,1,3575.657-3273.9Z" fill="#173d7a"/>
            <path id="Path_152657" data-name="Path 152657" d="M3581.548-3270.5l-3.815-2.2c-.306-.176-.267-.485.086-.69l3.78-2.182a1.328,1.328,0,0,1,1.195-.049l3.815,2.2c.306.177.268.486-.086.69l-3.78,2.182A1.325,1.325,0,0,1,3581.548-3270.5Z" fill="#173d7a"/>
            <path id="Path_152658" data-name="Path 152658" d="M3500.735-3297.286l-11.235-6.487c-.307-.177-.268-.486.086-.69l3.78-2.182a1.325,1.325,0,0,1,1.2-.05l11.235,6.487c.306.177.268.486-.086.69l-3.78,2.182A1.328,1.328,0,0,1,3500.735-3297.286Z" fill="#173d7a"/>
            <path id="Path_152659" data-name="Path 152659" d="M3573.112-3255.5l-11.235-6.487c-.306-.177-.268-.486.086-.69l3.78-2.182a1.325,1.325,0,0,1,1.2-.05l11.235,6.487c.306.177.268.486-.086.69l-3.78,2.182A1.328,1.328,0,0,1,3573.112-3255.5Z" fill="#173d7a"/>
            <path id="Path_152660" data-name="Path 152660" d="M3549.552-3261.589l-3.815-2.2c-.306-.177-.268-.486.086-.69l4.5-2.6a1.329,1.329,0,0,1,1.2-.049l3.815,2.2c.306.177.267.486-.086.69l-4.5,2.6A1.329,1.329,0,0,1,3549.552-3261.589Z" fill="#173d7a"/>
            <path id="Path_152661" data-name="Path 152661" d="M3506.768-3286.29l-6.1-3.522c-.306-.177-.268-.486.086-.69l4.5-2.6a1.328,1.328,0,0,1,1.195-.049l6.1,3.522c.306.177.268.486-.086.69l-4.5,2.6A1.327,1.327,0,0,1,3506.768-3286.29Z" fill="#173d7a"/>
            <path id="Path_152662" data-name="Path 152662" d="M3543.875-3264.866l-6.1-3.522c-.306-.177-.268-.486.086-.69l4.5-2.6a1.328,1.328,0,0,1,1.2-.05l6.1,3.523c.307.177.268.486-.086.69l-4.5,2.6A1.328,1.328,0,0,1,3543.875-3264.866Z" fill="#173d7a"/>
            <path id="Path_152663" data-name="Path 152663" d="M3515.268-3281.382l-6.1-3.523c-.306-.177-.268-.485.086-.69l4.5-2.6a1.325,1.325,0,0,1,1.195-.05l6.1,3.523c.306.176.268.485-.086.69l-4.5,2.6A1.328,1.328,0,0,1,3515.268-3281.382Z" fill="#173d7a"/>
            <path id="Path_152664" data-name="Path 152664" d="M3514.992-3288.22l26.526,15.315a.363.363,0,0,1,0,.688l-4.591,2.651a1.318,1.318,0,0,1-1.192,0l-26.526-15.315Z" fill="#173d7a"/>
            <path id="Path_152665" data-name="Path 152665" d="M3566.017-3255.422l4.25,2.454c.251.145.219.4-.071.565l-1.842,1.064a1.088,1.088,0,0,1-.979.04l-4.25-2.453c-.251-.145-.219-.4.071-.565l1.842-1.064A1.093,1.093,0,0,1,3566.017-3255.422Z" fill="#173d7a"/>
            <path id="Path_152666" data-name="Path 152666" d="M3560.077-3258.851l4.25,2.453c.251.145.219.4-.071.566l-1.842,1.063a1.086,1.086,0,0,1-.979.041l-4.25-2.454c-.251-.144-.219-.4.071-.565l1.842-1.064A1.089,1.089,0,0,1,3560.077-3258.851Z" fill="#173d7a"/>
            <path id="Path_152667" data-name="Path 152667" d="M3554.186-3262.253l4.249,2.454c.251.145.22.4-.07.565l-1.842,1.064a1.1,1.1,0,0,1-.98.041l-4.249-2.454c-.251-.145-.22-.4.07-.565l1.842-1.064A1.091,1.091,0,0,1,3554.186-3262.253Z" fill="#173d7a"/>
            <path id="Path_152668" data-name="Path 152668" d="M3563.33-3260.729l4.25,2.453c.251.145.219.4-.07.565l-1.842,1.064a1.091,1.091,0,0,1-.98.041l-4.249-2.454c-.252-.145-.22-.4.07-.565l1.842-1.064A1.089,1.089,0,0,1,3563.33-3260.729Z" fill="#173d7a"/>
          </g>
        </g>
        <g id="Group_98084" data-name="Group 98084">
          <g id="Group_98083" data-name="Group 98083">
            <path id="Path_152669" data-name="Path 152669" d="M3569.655-3344.485l-3.649-2.106a1.508,1.508,0,0,1-.626-1.177h0c-.007-.455.261-.665.6-.47l3.648,2.107a1.506,1.506,0,0,1,.627,1.177h0C3570.262-3344.5,3569.994-3344.289,3569.655-3344.485Z" fill="#d4ecff"/>
            <path id="Path_152670" data-name="Path 152670" d="M3578.346-3339.467l-5.38-3.106a1.5,1.5,0,0,1-.626-1.177h0c-.008-.455.261-.665.6-.469l5.381,3.106a1.506,1.506,0,0,1,.626,1.177h0C3578.953-3339.481,3578.685-3339.271,3578.346-3339.467Z" fill="#d4ecff"/>
            <path id="Path_152671" data-name="Path 152671" d="M3567.847-3325.028l-3.649-2.106a1.512,1.512,0,0,1-.626-1.177h0c-.007-.455.261-.665.6-.469l3.648,2.106a1.51,1.51,0,0,1,.627,1.177h0C3568.454-3325.042,3568.186-3324.832,3567.847-3325.028Z" fill="#d4ecff"/>
            <path id="Path_152672" data-name="Path 152672" d="M3575.595-3320.554l-5.38-3.107a1.507,1.507,0,0,1-.627-1.177h0c-.007-.454.261-.664.6-.469l5.38,3.106a1.506,1.506,0,0,1,.626,1.177h0C3576.2-3320.569,3575.933-3320.359,3575.595-3320.554Z" fill="#d4ecff"/>
            <path id="Path_152673" data-name="Path 152673" d="M3559.65-3346.844l-2.279-1.316a1.505,1.505,0,0,1-.626-1.177h0c-.008-.455.261-.665.6-.47l2.28,1.316a1.512,1.512,0,0,1,.626,1.177h0C3560.257-3346.859,3559.989-3346.649,3559.65-3346.844Z" fill="#d4ecff"/>
            <path id="Path_152674" data-name="Path 152674" d="M3567.434-3338.934l-6.964-4.02a1.509,1.509,0,0,1-.627-1.177h0c-.007-.455.261-.665.6-.47l6.964,4.021a1.506,1.506,0,0,1,.626,1.177h0C3568.041-3338.948,3567.772-3338.738,3567.434-3338.934Z" fill="#d4ecff"/>
            <path id="Path_152675" data-name="Path 152675" d="M3562.861-3334.74l-2.28-1.316a1.508,1.508,0,0,1-.626-1.177h0c-.007-.455.261-.665.6-.469l2.279,1.316a1.5,1.5,0,0,1,.626,1.177h0C3563.468-3334.755,3563.2-3334.545,3562.861-3334.74Z" fill="#d4ecff"/>
            <path id="Path_152676" data-name="Path 152676" d="M3578.285-3312.168l-6.088-3.515a1.5,1.5,0,0,1-.626-1.176h0c-.008-.455.261-.665.6-.47l6.088,3.515a1.506,1.506,0,0,1,.626,1.177h0C3578.892-3312.182,3578.623-3311.972,3578.285-3312.168Z" fill="#d4ecff"/>
            <path id="Path_152677" data-name="Path 152677" d="M3562.156-3328.313l-1.463-.845a1.505,1.505,0,0,1-.626-1.177h0c-.007-.455.261-.665.6-.469l1.463.845a1.505,1.505,0,0,1,.626,1.177h0C3562.763-3328.328,3562.5-3328.118,3562.156-3328.313Z" fill="#d4ecff"/>
            <path id="Path_152678" data-name="Path 152678" d="M3562.622-3321.211l-1.817-1.049a1.5,1.5,0,0,1-.626-1.177h0c-.008-.454.261-.664.6-.469l1.817,1.049a1.507,1.507,0,0,1,.627,1.177h0C3563.229-3321.225,3562.96-3321.015,3562.622-3321.211Z" fill="#d4ecff"/>
            <path id="Path_152679" data-name="Path 152679" d="M3569.69-3317.13l-4.79-2.765a1.509,1.509,0,0,1-.626-1.177h0c-.008-.455.261-.665.6-.47l4.791,2.766a1.507,1.507,0,0,1,.626,1.177h0C3570.3-3317.144,3570.029-3316.934,3569.69-3317.13Z" fill="#d4ecff"/>
            <path id="Path_152680" data-name="Path 152680" d="M3564.3-3316.822l-3.444-1.989a1.5,1.5,0,0,1-.626-1.177h0c-.008-.454.261-.664.6-.469l3.444,1.989a1.507,1.507,0,0,1,.627,1.177h0C3564.912-3316.837,3564.644-3316.627,3564.3-3316.822Z" fill="#d4ecff"/>
            <path id="Path_152681" data-name="Path 152681" d="M3583.512-3309.135l-2.212-1.277a1.5,1.5,0,0,1-.626-1.177h0c-.008-.455.261-.665.6-.469l2.212,1.277a1.5,1.5,0,0,1,.626,1.177h0C3584.119-3309.15,3583.85-3308.94,3583.512-3309.135Z" fill="#d4ecff"/>
            <path id="Path_152682" data-name="Path 152682" d="M3571.339-3329.845l-6.087-3.515a1.506,1.506,0,0,1-.627-1.177h0c-.007-.454.261-.664.6-.469l6.088,3.515a1.506,1.506,0,0,1,.626,1.177h0C3571.946-3329.86,3571.678-3329.649,3571.339-3329.845Z" fill="#d4ecff"/>
            <path id="Path_152683" data-name="Path 152683" d="M3571.136-3333.379l-10.611-6.126a1.512,1.512,0,0,1-.626-1.177h0c-.007-.455.261-.665.6-.469l10.61,6.126a1.506,1.506,0,0,1,.627,1.177h0C3571.743-3333.394,3571.475-3333.184,3571.136-3333.379Z" fill="#d4ecff"/>
            <path id="Path_152684" data-name="Path 152684" d="M3566.725-3329.092l-6.088-3.515a1.509,1.509,0,0,1-.626-1.177h0c-.007-.455.261-.665.6-.469l6.088,3.515a1.508,1.508,0,0,1,.626,1.177h0C3567.332-3329.107,3567.064-3328.9,3566.725-3329.092Z" fill="#d4ecff"/>
            <path id="Path_152685" data-name="Path 152685" d="M3575.957-3327.179l-2.212-1.277a1.506,1.506,0,0,1-.626-1.177h0c-.008-.455.261-.665.6-.469l2.212,1.277a1.5,1.5,0,0,1,.626,1.177h0C3576.564-3327.194,3576.295-3326.984,3575.957-3327.179Z" fill="#d4ecff"/>
            <path id="Path_152686" data-name="Path 152686" d="M3594.756-3329.992l-13.1-7.563a1.509,1.509,0,0,1-.626-1.177h0c-.007-.455.261-.665.6-.469l13.1,7.562a1.509,1.509,0,0,1,.627,1.177h0C3595.363-3330.007,3595.095-3329.8,3594.756-3329.992Z" fill="#d4ecff"/>
            <path id="Path_152687" data-name="Path 152687" d="M3568.067-3321.484l-7.318-4.225a1.5,1.5,0,0,1-.626-1.177h0c-.008-.454.261-.665.6-.469l7.319,4.225a1.511,1.511,0,0,1,.626,1.177h0C3568.674-3321.5,3568.406-3321.288,3568.067-3321.484Z" fill="#d4ecff"/>
            <path id="Path_152688" data-name="Path 152688" d="M3562.7-3348.5l-5.38-3.106a1.506,1.506,0,0,1-.626-1.177h0c-.008-.455.261-.665.6-.47l5.38,3.107a1.5,1.5,0,0,1,.627,1.177h0C3563.3-3348.518,3563.034-3348.308,3562.7-3348.5Z" fill="#d4ecff"/>
            <path id="Path_152689" data-name="Path 152689" d="M3564.1-3313.521l-6.231-3.6a1.505,1.505,0,0,1-.626-1.177h0c-.008-.455.261-.665.6-.47l6.231,3.6a1.506,1.506,0,0,1,.627,1.177h0C3564.712-3313.535,3564.444-3313.325,3564.1-3313.521Z" fill="#d4ecff"/>
          </g>
        </g>
      </g>
      <g id="Group_98092" data-name="Group 98092">
        <g id="Group_98086" data-name="Group 98086">
          <path id="Path_152690" data-name="Path 152690" d="M3404.785-3308.1l32.095-18.687c6.358-3.672,12.354-4.252,16.884-1.639s7.023,8.1,7.023,15.44v2.352c-.227.153-.465.3-.708.452v-2.8c0-7.078-2.368-12.343-6.669-14.827s-10.047-1.9-16.176,1.638l-32.095,18.687a.352.352,0,0,1-.484-.129A.353.353,0,0,1,3404.785-3308.1Z" fill="#d4ecff"/>
          <path id="Path_152691" data-name="Path 152691" d="M3504.874-3330.365v-72.327c0-14.478,10.2-32.146,22.739-39.384,6.14-3.545,11.933-4.107,16.309-1.582s6.785,7.822,6.785,14.913v5.044l-.708.707v-5.751c0-6.827-2.284-11.9-6.431-14.3s-9.688-1.833-15.6,1.58c-12.343,7.126-22.385,24.519-22.385,38.772v72.327c0,12-7.061,26.2-16.636,34.749v-.949C3498.143-3305.016,3504.874-3318.741,3504.874-3330.365Z" fill="#d4ecff"/>
          <path id="Path_152692" data-name="Path 152692" d="M3550.707-3421.488h0a28.4,28.4,0,0,1,14.489-7.093c8.956-1.369,12.656,9.1,12.656,9.1a57.77,57.77,0,0,1,1,8.66c-.037,3.219-.268,14.912-.268,14.912l-28.39-16.354v0a.351.351,0,0,1-.2-.312v-8.3C3550.235-3421.112,3550.471-3421.252,3550.707-3421.488Z" fill="#111e61"/>
        </g>
        <g id="Group_98090" data-name="Group 98090">
          <g id="Group_98088" data-name="Group 98088">
            <path id="Path_152693" data-name="Path 152693" d="M3570.831-3428.144l-26.909-15.514.1.387c-4.148-2.679-10.415-2.968-18.8,3.18-16.653,12.213-18.654,29.215-19.5,32.4s-.5,23.37-.5,23.37-.055,48.684-.111,54.346-1.7,12.015-4.885,18.874-11.352,15.183-11.352,15.183v9.909c1.3,10.714,5.857,13.212,12.629,13.822,5.466.493,11.29-3.453,15.943-7.754l-.282.292v9.909c1.3,10.714,5.856,13.212,12.629,13.823s14.1-5.593,19.059-10.844,9.147-13.269,11.472-20.5,1.555-16.58,1.555-16.58.055-53.217.111-63.709.388-8.66,3.83-19.207,12.565-17.93,12.565-17.93l21.891-6.52Z" fill="#d4ecff"/>
            <path id="Path_152694" data-name="Path 152694" d="M3523.986-3256.807c-.369-.5-5.164-3.717-6.385-9.379a44.133,44.133,0,0,1-.611-7.938s.02-2.664.084-5.084c.053-.048.108-.091.162-.138v-.95c-.044.04-.09.077-.133.117.018-.547.039-1.06.063-1.5.139-2.516-1.721-7.883-1.721-7.883s-2.637-7.188-10.492-7.466c-6.974-.246-14.315,4.771-15.876,5.9v-3.246c-.1.07-.216.137-.323.206.009-.435.019-.879.03-1.316.054-.047.109-.09.162-.138v-.949c-.044.04-.089.077-.133.116.018-.546.039-1.059.063-1.494.139-2.517-1.721-7.883-1.721-7.883s-2.637-7.189-10.492-7.466c-6.974-.247-14.314,4.77-15.876,5.9v-3.246c-.227.153-.465.3-.708.452v5.683c0,6.885,2.294,12.06,6.46,14.63l.017.019.145.084c.039.023.076.05.115.073s.053.023.078.038l28.8,16.582c-.007-.01-.026-.027-.037-.039Z" fill="#111e61"/>
            <g id="Group_98087" data-name="Group 98087">
              <path id="Path_152695" data-name="Path 152695" d="M3482.054-3312.159s-.216-.112-.6-.266c-.117-.056-.229-.123-.348-.176l-27.345-15.828a14.677,14.677,0,0,0-11.1-.416c-6.077,2.224-37.919,21.327-37.919,21.327l28.447,16.389.005,0a.361.361,0,0,0,.076.02l28.208,16.252s15.96-9.887,27-16.266l.707-.408c4.515-2.6,8.1-4.534,9.224-4.832,6.807-1.8,11.544.394,12.777,1.071Z" fill="#d4ecff"/>
              <path id="Path_152696" data-name="Path 152696" d="M3511.189-3295.295l.329.19S3511.4-3295.18,3511.189-3295.295Z" fill="#d4ecff"/>
            </g>
          </g>
          <path id="Path_152697" data-name="Path 152697" d="M3579-3405.219h0a28.41,28.41,0,0,1,14.489-7.093c8.956-1.369,12.657,9.1,12.657,9.1a57.818,57.818,0,0,1,1,8.66c-.037,3.22-.267,14.912-.267,14.912l-28.391-16.354v0a.351.351,0,0,1-.195-.312v-8.3C3578.525-3404.843,3578.76-3404.983,3579-3405.219Z" fill="#111e61"/>
          <g id="Group_98089" data-name="Group 98089">
            <path id="Path_152698" data-name="Path 152698" d="M3529.518-3255.52a20.7,20.7,0,0,0,10.181-3.116c12.447-7.186,22.574-24.727,22.574-39.1v-72.328c0-14.252,10.042-31.645,22.386-38.772,5.913-3.412,11.452-3.974,15.6-1.58s6.431,7.473,6.431,14.3v16.169a.353.353,0,0,0,.354.354.354.354,0,0,0,.354-.354v-16.169c0-7.091-2.41-12.387-6.785-14.913s-10.168-1.964-16.308,1.581c-12.539,7.239-22.74,24.907-22.74,39.384v72.328c0,14.148-9.968,31.413-22.22,38.487-5.868,3.387-11.367,3.946-15.484,1.568s-6.383-7.417-6.383-14.193v-8.486c0-7.341-2.494-12.825-7.024-15.44s-10.525-2.033-16.883,1.638l-32.095,18.688a.353.353,0,0,0-.129.483.355.355,0,0,0,.483.129l32.095-18.687c6.129-3.539,11.875-4.121,16.176-1.638s6.669,7.749,6.669,14.827v8.486c0,7.04,2.393,12.3,6.737,14.806A11.872,11.872,0,0,0,3529.518-3255.52Z" fill="#3148c2"/>
          </g>
        </g>
        <path id="Path_152699" data-name="Path 152699" d="M3531.734-3352.336l-4.745-2.739a1.957,1.957,0,0,1-.814-1.531h0c-.01-.591.339-.864.779-.61l4.745,2.74a1.957,1.957,0,0,1,.814,1.53h0C3532.523-3352.355,3532.174-3352.082,3531.734-3352.336Z" fill="#5793ce"/>
        <path id="Path_152700" data-name="Path 152700" d="M3541.808-3346.519l-7-4.039a1.958,1.958,0,0,1-.814-1.531h0c-.01-.591.339-.864.779-.61l7,4.039a1.962,1.962,0,0,1,.814,1.531h0C3542.6-3346.538,3542.248-3346.265,3541.808-3346.519Z" fill="#5793ce"/>
        <path id="Path_152701" data-name="Path 152701" d="M3531.2-3370.418l-9.056-5.229a1.956,1.956,0,0,1-.814-1.53h0c-.01-.592.339-.865.779-.611l9.056,5.229a1.957,1.957,0,0,1,.815,1.53h0C3531.985-3370.437,3531.636-3370.164,3531.2-3370.418Z" fill="#5793ce"/>
        <path id="Path_152702" data-name="Path 152702" d="M3525.25-3364.965l-2.964-1.712a1.957,1.957,0,0,1-.815-1.53h0c-.009-.591.34-.865.78-.61l2.964,1.711a1.956,1.956,0,0,1,.814,1.53h0C3526.039-3364.985,3525.69-3364.711,3525.25-3364.965Z" fill="#5793ce"/>
        <path id="Path_152703" data-name="Path 152703" d="M3524.333-3356.608l-1.9-1.1a1.956,1.956,0,0,1-.814-1.53h0c-.01-.591.339-.864.779-.61l1.9,1.1a1.958,1.958,0,0,1,.814,1.531h0C3525.123-3356.627,3524.774-3356.354,3524.333-3356.608Z" fill="#5793ce"/>
        <path id="Path_152704" data-name="Path 152704" d="M3536.275-3358.6l-7.917-4.571a1.96,1.96,0,0,1-.814-1.53h0c-.01-.591.339-.864.78-.61l7.916,4.57a1.96,1.96,0,0,1,.814,1.531h0C3537.064-3358.619,3536.715-3358.346,3536.275-3358.6Z" fill="#5793ce"/>
        <path id="Path_152705" data-name="Path 152705" d="M3536.01-3363.2l-13.8-7.966a1.96,1.96,0,0,1-.815-1.53h0c-.009-.591.34-.865.78-.61l13.8,7.966a1.959,1.959,0,0,1,.814,1.53h0C3536.8-3363.215,3536.45-3362.942,3536.01-3363.2Z" fill="#5793ce"/>
        <path id="Path_152706" data-name="Path 152706" d="M3530.275-3357.621l-7.917-4.571a1.957,1.957,0,0,1-.814-1.53h0c-.01-.591.339-.864.78-.61l7.916,4.57a1.958,1.958,0,0,1,.814,1.531h0C3531.064-3357.64,3530.715-3357.367,3530.275-3357.621Z" fill="#5793ce"/>
        <path id="Path_152707" data-name="Path 152707" d="M3542.279-3355.133l-2.876-1.661a1.96,1.96,0,0,1-.815-1.53h0c-.009-.592.34-.865.78-.611l2.876,1.661a1.959,1.959,0,0,1,.815,1.531h0C3543.068-3355.152,3542.719-3354.879,3542.279-3355.133Z" fill="#5793ce"/>
        <g id="Group_98091" data-name="Group 98091">
          <path id="Path_152708" data-name="Path 152708" d="M3534.084-3377.637l-4.744-2.739a1.961,1.961,0,0,1-.815-1.531h0c-.009-.591.34-.864.78-.61l4.745,2.739a1.961,1.961,0,0,1,.814,1.531h0C3534.874-3377.656,3534.525-3377.383,3534.084-3377.637Z" fill="#5793ce"/>
          <path id="Path_152709" data-name="Path 152709" d="M3545.386-3371.112l-7-4.039a1.958,1.958,0,0,1-.814-1.531h0c-.01-.591.339-.864.779-.61l7,4.04a1.959,1.959,0,0,1,.814,1.53h0C3546.175-3371.131,3545.826-3370.858,3545.386-3371.112Z" fill="#5793ce"/>
          <path id="Path_152710" data-name="Path 152710" d="M3531.734-3352.336l-4.745-2.739a1.957,1.957,0,0,1-.814-1.531h0c-.01-.591.339-.864.779-.61l4.745,2.74a1.957,1.957,0,0,1,.814,1.53h0C3532.523-3352.355,3532.174-3352.082,3531.734-3352.336Z" fill="#5793ce"/>
          <path id="Path_152711" data-name="Path 152711" d="M3541.808-3346.519l-7-4.039a1.958,1.958,0,0,1-.814-1.531h0c-.01-.591.339-.864.779-.61l7,4.039a1.962,1.962,0,0,1,.814,1.531h0C3542.6-3346.538,3542.248-3346.265,3541.808-3346.519Z" fill="#5793ce"/>
          <path id="Path_152712" data-name="Path 152712" d="M3521.075-3380.705l-2.964-1.712a1.96,1.96,0,0,1-.815-1.53h0c-.009-.591.34-.864.78-.61l2.964,1.711a1.958,1.958,0,0,1,.814,1.531h0C3521.864-3380.724,3521.515-3380.451,3521.075-3380.705Z" fill="#5793ce"/>
          <path id="Path_152713" data-name="Path 152713" d="M3531.2-3370.418l-9.056-5.229a1.956,1.956,0,0,1-.814-1.53h0c-.01-.592.339-.865.779-.611l9.056,5.229a1.957,1.957,0,0,1,.815,1.53h0C3531.985-3370.437,3531.636-3370.164,3531.2-3370.418Z" fill="#5793ce"/>
          <path id="Path_152714" data-name="Path 152714" d="M3525.25-3364.965l-2.964-1.712a1.957,1.957,0,0,1-.815-1.53h0c-.009-.591.34-.865.78-.61l2.964,1.711a1.956,1.956,0,0,1,.814,1.53h0C3526.039-3364.985,3525.69-3364.711,3525.25-3364.965Z" fill="#5793ce"/>
          <path id="Path_152715" data-name="Path 152715" d="M3545.306-3335.613l-7.916-4.571a1.956,1.956,0,0,1-.814-1.53h0c-.01-.591.339-.864.779-.61l7.917,4.57a1.958,1.958,0,0,1,.814,1.531h0C3546.1-3335.632,3545.747-3335.359,3545.306-3335.613Z" fill="#5793ce"/>
          <path id="Path_152716" data-name="Path 152716" d="M3524.333-3356.608l-1.9-1.1a1.956,1.956,0,0,1-.814-1.53h0c-.01-.591.339-.864.779-.61l1.9,1.1a1.958,1.958,0,0,1,.814,1.531h0C3525.123-3356.627,3524.774-3356.354,3524.333-3356.608Z" fill="#5793ce"/>
          <path id="Path_152717" data-name="Path 152717" d="M3524.939-3347.372l-2.363-1.365a1.959,1.959,0,0,1-.814-1.53h0c-.01-.591.339-.864.78-.61l2.362,1.364a1.96,1.96,0,0,1,.815,1.53h0C3525.728-3347.391,3525.379-3347.118,3524.939-3347.372Z" fill="#5793ce"/>
          <path id="Path_152718" data-name="Path 152718" d="M3534.13-3342.066l-6.229-3.6a1.957,1.957,0,0,1-.814-1.531h0c-.01-.591.339-.864.78-.61l6.229,3.6a1.957,1.957,0,0,1,.814,1.53h0C3534.92-3342.085,3534.571-3341.812,3534.13-3342.066Z" fill="#5793ce"/>
          <path id="Path_152719" data-name="Path 152719" d="M3527.128-3341.666l-4.479-2.585a1.96,1.96,0,0,1-.814-1.531h0c-.01-.591.339-.864.779-.61l4.479,2.586a1.956,1.956,0,0,1,.814,1.53h0C3527.917-3341.685,3527.568-3341.411,3527.128-3341.666Z" fill="#5793ce"/>
          <path id="Path_152720" data-name="Path 152720" d="M3536.275-3358.6l-7.917-4.571a1.96,1.96,0,0,1-.814-1.53h0c-.01-.591.339-.864.78-.61l7.916,4.57a1.96,1.96,0,0,1,.814,1.531h0C3537.064-3358.619,3536.715-3358.346,3536.275-3358.6Z" fill="#5793ce"/>
          <path id="Path_152721" data-name="Path 152721" d="M3536.01-3363.2l-13.8-7.966a1.96,1.96,0,0,1-.815-1.53h0c-.009-.591.34-.865.78-.61l13.8,7.966a1.959,1.959,0,0,1,.814,1.53h0C3536.8-3363.215,3536.45-3362.942,3536.01-3363.2Z" fill="#5793ce"/>
          <path id="Path_152722" data-name="Path 152722" d="M3530.275-3357.621l-7.917-4.571a1.957,1.957,0,0,1-.814-1.53h0c-.01-.591.339-.864.78-.61l7.916,4.57a1.958,1.958,0,0,1,.814,1.531h0C3531.064-3357.64,3530.715-3357.367,3530.275-3357.621Z" fill="#5793ce"/>
          <path id="Path_152723" data-name="Path 152723" d="M3542.279-3355.133l-2.876-1.661a1.96,1.96,0,0,1-.815-1.53h0c-.009-.592.34-.865.78-.611l2.876,1.661a1.959,1.959,0,0,1,.815,1.531h0C3543.068-3355.152,3542.719-3354.879,3542.279-3355.133Z" fill="#5793ce"/>
          <path id="Path_152724" data-name="Path 152724" d="M3532.02-3347.727l-9.516-5.495a1.958,1.958,0,0,1-.815-1.53h0c-.009-.591.34-.864.78-.61l9.516,5.494a1.956,1.956,0,0,1,.814,1.53h0C3532.809-3347.746,3532.46-3347.473,3532.02-3347.727Z" fill="#5793ce"/>
          <path id="Path_152725" data-name="Path 152725" d="M3525.034-3382.862l-7-4.04a1.955,1.955,0,0,1-.814-1.53h0c-.01-.591.339-.864.779-.61l7,4.039a1.958,1.958,0,0,1,.815,1.531h0C3525.823-3382.881,3525.474-3382.608,3525.034-3382.862Z" fill="#5793ce"/>
          <path id="Path_152726" data-name="Path 152726" d="M3526.868-3337.373l-8.1-4.678a1.956,1.956,0,0,1-.814-1.53h0c-.01-.592.339-.865.779-.61l8.1,4.678a1.956,1.956,0,0,1,.814,1.53h0C3527.657-3337.392,3527.308-3337.119,3526.868-3337.373Z" fill="#5793ce"/>
        </g>
        <path id="Path_152727" data-name="Path 152727" d="M3530.618-3309.774l-4.744-2.739a1.958,1.958,0,0,1-.815-1.53h0c-.009-.591.34-.865.78-.61l4.745,2.739a1.96,1.96,0,0,1,.814,1.53h0C3531.408-3309.793,3531.058-3309.519,3530.618-3309.774Z" fill="#5793ce"/>
        <path id="Path_152728" data-name="Path 152728" d="M3540.693-3303.957l-7-4.039a1.96,1.96,0,0,1-.815-1.531h0c-.009-.591.34-.864.78-.61l7,4.04a1.96,1.96,0,0,1,.815,1.53h0C3541.482-3303.976,3541.133-3303.7,3540.693-3303.957Z" fill="#5793ce"/>
        <path id="Path_152729" data-name="Path 152729" d="M3530.081-3327.856l-9.056-5.229a1.957,1.957,0,0,1-.814-1.53h0c-.01-.591.339-.865.779-.61l9.056,5.228a1.962,1.962,0,0,1,.815,1.531h0C3530.87-3327.875,3530.521-3327.6,3530.081-3327.856Z" fill="#5793ce"/>
        <path id="Path_152730" data-name="Path 152730" d="M3524.134-3322.4l-2.964-1.712a1.956,1.956,0,0,1-.814-1.53h0c-.01-.591.339-.864.78-.61l2.963,1.711a1.957,1.957,0,0,1,.815,1.53h0C3524.923-3322.422,3524.574-3322.149,3524.134-3322.4Z" fill="#5793ce"/>
        <path id="Path_152731" data-name="Path 152731" d="M3523.218-3314.046l-1.9-1.1a1.961,1.961,0,0,1-.815-1.531h0c-.009-.591.34-.864.78-.61l1.9,1.1a1.959,1.959,0,0,1,.815,1.531h0C3524.007-3314.065,3523.658-3313.792,3523.218-3314.046Z" fill="#5793ce"/>
        <path id="Path_152732" data-name="Path 152732" d="M3535.16-3316.038l-7.917-4.57a1.961,1.961,0,0,1-.814-1.531h0c-.01-.591.339-.864.779-.61l7.917,4.571a1.956,1.956,0,0,1,.814,1.53h0C3535.949-3316.057,3535.6-3315.784,3535.16-3316.038Z" fill="#5793ce"/>
        <path id="Path_152733" data-name="Path 152733" d="M3534.9-3320.634l-13.8-7.966a1.957,1.957,0,0,1-.815-1.53h0c-.009-.591.34-.864.78-.61l13.8,7.966a1.96,1.96,0,0,1,.815,1.53h0C3535.684-3320.653,3535.335-3320.38,3534.9-3320.634Z" fill="#5793ce"/>
        <path id="Path_152734" data-name="Path 152734" d="M3529.159-3315.059l-7.916-4.571a1.957,1.957,0,0,1-.814-1.53h0c-.01-.591.339-.864.779-.61l7.917,4.57a1.963,1.963,0,0,1,.814,1.531h0C3529.949-3315.078,3529.6-3314.8,3529.159-3315.059Z" fill="#5793ce"/>
        <path id="Path_152735" data-name="Path 152735" d="M3541.164-3312.571l-2.876-1.661a1.957,1.957,0,0,1-.815-1.53h0c-.009-.591.34-.865.78-.61l2.876,1.66a1.961,1.961,0,0,1,.815,1.531h0C3541.953-3312.59,3541.6-3312.317,3541.164-3312.571Z" fill="#5793ce"/>
      </g>
      <g id="Group_98095" data-name="Group 98095">
        <path id="Path_152736" data-name="Path 152736" d="M3621.939-3255.067l10.127-5.847,10.127,5.847-10.127,5.847Z" fill="#d4ecff"/>
        <path id="Path_152737" data-name="Path 152737" d="M3643.435-3267.644l10.127-5.847,10.127,5.847-10.127,5.847Z" fill="#d4ecff"/>
        <path id="Path_152738" data-name="Path 152738" d="M3664.866-3279.921l10.127-5.847,10.127,5.847-10.127,5.847Z" fill="#d4ecff"/>
        <g id="Group_98094" data-name="Group 98094">
          <path id="Path_152739" data-name="Path 152739" d="M3653.562-3267.644v-31.182l-10.127-5.847v31.182Z" fill="#c13d1a"/>
          <path id="Path_152740" data-name="Path 152740" d="M3653.562-3298.826l10.127-5.847v31.182l-10.127,5.847Z" fill="#fd9600"/>
          <path id="Path_152741" data-name="Path 152741" d="M3653.562-3267.644v-31.182l-10.127-5.847v31.182Z" fill="#fdb03f"/>
          <g id="Group_98093" data-name="Group 98093">
            <path id="Path_152742" data-name="Path 152742" d="M3632.066-3255.067v-17.54l-10.127-5.847v17.54Z" fill="#fdb03f"/>
            <path id="Path_152743" data-name="Path 152743" d="M3632.066-3272.607l10.127-5.847v17.54l-10.127,5.847Z" fill="#fd9600"/>
            <path id="Path_152744" data-name="Path 152744" d="M3621.939-3278.454l10.127-5.847,10.127,5.847-10.127,5.847Z" fill="#fdc472"/>
          </g>
          <path id="Path_152745" data-name="Path 152745" d="M3674.992-3279.921V-3322.8l-10.127-5.847v42.876Z" fill="#fdb03f"/>
          <path id="Path_152746" data-name="Path 152746" d="M3674.992-3322.8l10.127-5.847v42.876l-10.127,5.847Z" fill="#fd9600"/>
          <path id="Path_152747" data-name="Path 152747" d="M3664.866-3328.643l10.127-5.847,10.127,5.847-10.127,5.847Z" fill="#fdc472"/>
          <path id="Path_152748" data-name="Path 152748" d="M3643.435-3304.673l10.127-5.847,10.127,5.847-10.127,5.847Z" fill="#fdc472"/>
        </g>
      </g>
      <g id="Group_98100" data-name="Group 98100">
        <g id="Group_98099" data-name="Group 98099">
          <g id="Group_98096" data-name="Group 98096">
            <path id="Path_152749" data-name="Path 152749" d="M3440.286-3261.466s-2.713-1.368-4.379.669-4.047,6.845-4.121,10.094,2.572,3.03,4.144,2.261,6.165-7.431,6.443-8.737a4.533,4.533,0,0,0-.77-3.416C3441.162-3260.94,3440.286-3261.466,3440.286-3261.466Z" fill="#5793ce"/>
            <path id="Path_152750" data-name="Path 152750" d="M3440.878-3262.12l.125,2.811a1.594,1.594,0,0,1-.794,1.462,3.13,3.13,0,0,1-2.092.325c-2.044-.328-2.226-.912-2.372-3.722S3440.878-3262.12,3440.878-3262.12Z" fill="#d4ecff"/>
            <path id="Path_152751" data-name="Path 152751" d="M3430.357-3266.869s-2.713-1.368-4.379.668-4.047,6.846-4.121,10.095,2.571,3.03,4.144,2.261,6.165-7.432,6.443-8.737a4.531,4.531,0,0,0-.77-3.416C3431.232-3266.344,3430.357-3266.869,3430.357-3266.869Z" fill="#5793ce"/>
            <path id="Path_152752" data-name="Path 152752" d="M3430.948-3267.523l.126,2.81a1.592,1.592,0,0,1-.794,1.462,3.124,3.124,0,0,1-2.093.325c-2.043-.328-2.225-.912-2.371-3.721S3430.948-3267.523,3430.948-3267.523Z" fill="#d4ecff"/>
            <path id="Path_152753" data-name="Path 152753" d="M3455.152-3319.118c-.8-13.063-14.146,1.922-14.146,1.922l-9.133,8.952-8.224,9.034a8.106,8.106,0,0,0-2.043,6.512l3.327,25.333a2.49,2.49,0,0,0,2.5,2.164,8.643,8.643,0,0,0,1.233-.108,3.1,3.1,0,0,0,2.749-3.284l-.609-23.694,17.272-10.411S3455.955-3306.055,3455.152-3319.118Z" fill="#111e61"/>
            <path id="Path_152754" data-name="Path 152754" d="M3465.082-3314.141c-.8-13.063-14.147,1.922-14.147,1.922l-9.133,8.952-8.224,9.034a8.11,8.11,0,0,0-2.043,6.512l3.327,25.333a2.49,2.49,0,0,0,2.5,2.164,8.6,8.6,0,0,0,1.232-.108,3.1,3.1,0,0,0,2.749-3.284l-.608-23.694L3458-3297.721S3465.884-3301.078,3465.082-3314.141Z" fill="#111e61"/>
            <path id="Path_152755" data-name="Path 152755" d="M3457.187-3356.073c10.117,4.194,9.914,10.174,9.914,10.174s-1.981,21.924-1.305,36.566c.283,6.121-32.52,6.588-27.628-9.742,5.768-19.254,3.606-34.841,6.306-37.192S3454.571-3357.158,3457.187-3356.073Z" fill="#5793ce"/>
            <path id="Path_152756" data-name="Path 152756" d="M3460.442-3350.77c-.529,2.054-3.22,3.136-6.011,2.417s-4.624-2.966-4.095-5.02,3.221-3.137,6.011-2.418S3460.971-3352.824,3460.442-3350.77Z" fill="#ffc2b0"/>
            <path id="Path_152757" data-name="Path 152757" d="M3456.139-3347.649a7.332,7.332,0,0,1-1.829-.236,6.721,6.721,0,0,1-3.546-2.172,3.868,3.868,0,0,1-.9-3.437c.594-2.31,3.555-3.551,6.6-2.765a6.719,6.719,0,0,1,3.546,2.172,3.861,3.861,0,0,1,.9,3.437h0C3460.437-3348.81,3458.461-3347.649,3456.139-3347.649Zm-1.524-7.882c-1.878,0-3.449.875-3.811,2.279a2.932,2.932,0,0,0,.709,2.584,5.763,5.763,0,0,0,3.039,1.847c2.525.65,4.96-.278,5.422-2.071h0a2.93,2.93,0,0,0-.709-2.584,5.768,5.768,0,0,0-3.039-1.847A6.468,6.468,0,0,0,3454.615-3355.531Z" fill="#fff"/>
            <path id="Path_152758" data-name="Path 152758" d="M3453.131-3356.529a25.053,25.053,0,0,1-.088,3.612c-.055,1.007,3.474,1.949,4.386,1.037s.548-1.861.767-5.291S3453.131-3356.529,3453.131-3356.529Z" fill="#ffc2b0"/>
            <path id="Path_152759" data-name="Path 152759" d="M3458.2-3357.171s-.869,3.18-5.153,4.4l.065-2.891Z" fill="#ea9c92"/>
            <circle id="Ellipse_4166" data-name="Ellipse 4166" cx="7.787" cy="7.787" r="7.787" transform="translate(3442.725 -3360.481) rotate(-59.844)" fill="#ffc2b0"/>
            <path id="Path_152760" data-name="Path 152760" d="M3455.159-3363.016s-4.288,1.836-7.256,1.857-2.315-2.465-2.315-2.465l8.813-1.273Z" fill="#ea9c92"/>
            <path id="Path_152761" data-name="Path 152761" d="M3447.018-3362.532a13.9,13.9,0,0,1,7.011-.925,3.431,3.431,0,0,1,1.98,1.177,1.166,1.166,0,0,0,.6.433c.581.132,1.532-2.279,2.661-2.334s1.883.745.957,2.227-.613,3.142-.186,3.38,4.945-3.223.958-11.12-14.111-3.643-15.686-2.043c0,0-1.659,1.446-3.008.159C3442.3-3371.578,3440.791-3360.249,3447.018-3362.532Z" fill="#fd9600"/>
            <path id="Path_152762" data-name="Path 152762" d="M3461.426-3329.881v5.924a2.417,2.417,0,0,1-.787,1.784l-12.17,11.1,1.383,2.114,16.071-11.656a3.266,3.266,0,0,0,1.331-2.3l1.086-10.332Z" fill="#ffc2b0"/>
            <path id="Path_152763" data-name="Path 152763" d="M3466.245-3348.861s3.692,5.553,5.067,20.168c0,0-6.307,2.039-9.886.882S3466.245-3348.861,3466.245-3348.861Z" fill="#5793ce"/>
            <path id="Path_152764" data-name="Path 152764" d="M3460.752-3341.84a102.854,102.854,0,0,0-1.528,11.371,2.321,2.321,0,0,0,1.528,2.241h0Z" fill="#396caa"/>
          </g>
          <g id="Group_98097" data-name="Group 98097">
            <path id="Path_152765" data-name="Path 152765" d="M3457.595-3303.375l-2.69-.355-17.363-10.025a2.416,2.416,0,0,0-2.172.09l-12.3,7.1-1.627-.215v1.619h0a.631.631,0,0,0,.374.57l19.677,11.361a2.414,2.414,0,0,0,2.171-.09l13.4-7.733a.879.879,0,0,0,.532-.73h0Z" fill="#5793ce"/>
            <path id="Path_152766" data-name="Path 152766" d="M3444.549-3309.71l-1.234-.712h-13.562l-6.686,3.858-1.627-.215v1.619h0a.631.631,0,0,0,.374.57l19.677,11.361a2.031,2.031,0,0,0,1.121.21Z" fill="#396caa"/>
            <path id="Path_152767" data-name="Path 152767" d="M3422.162-3306.684l-.722-.095v1.619h0a.631.631,0,0,0,.374.57l.346.2Z" fill="#5793ce"/>
            <path id="Path_152768" data-name="Path 152768" d="M3441.691-3293.137a2.52,2.52,0,0,0,1.845-.114v-2.755h-1.845Z" fill="#fff"/>
            <path id="Path_152769" data-name="Path 152769" d="M3441.493-3294.847l-19.677-11.361c-.557-.321-.487-.882.155-1.253l13.4-7.734a2.416,2.416,0,0,1,2.172-.09l19.677,11.361c.557.321.487.883-.156,1.254l-13.4,7.733A2.414,2.414,0,0,1,3441.493-3294.847Z" fill="#fff"/>
            <path id="Path_152770" data-name="Path 152770" d="M3441.16-3296.569l-16.362-9.446c-.462-.267-.4-.734.13-1.043l7.18-4.037a2.007,2.007,0,0,1,1.806-.075l16.361,9.446c.463.267.405.734-.129,1.043l-7.18,4.037A2.007,2.007,0,0,1,3441.16-3296.569Z" fill="#d4ecff"/>
          </g>
          <path id="Path_152771" data-name="Path 152771" d="M3436.131-3315.568l-.2,1.358a10.051,10.051,0,0,0,.089,3.482l.242,1.2a1.685,1.685,0,0,0,1.348,1.322h0a.929.929,0,0,0,1.089-.81l.325-2.9s.742.973,1.1.973-.4-2.907-1.212-4.552S3436.131-3315.568,3436.131-3315.568Z" fill="#ffc2b0"/>
          <path id="Path_152772" data-name="Path 152772" d="M3442.8-3337.146l-2.111,4.179a8.187,8.187,0,0,0-.864,3.172l-.917,14.293-2.778-.066-1.261-16.052a5.85,5.85,0,0,1,.072-1.483l1.44-8.14Z" fill="#ffc2b0"/>
          <g id="Group_98098" data-name="Group 98098">
            <path id="Path_152773" data-name="Path 152773" d="M3440.826-3293.756l-1.65-2.154-17.35-10.045a2.412,2.412,0,0,1-1.006-1.927l.015-14.206-1-1.3.937-.543v0a.632.632,0,0,1,.68.039l19.664,11.384a2.414,2.414,0,0,1,1,1.927l-.016,15.471a.877.877,0,0,1-.368.824h0Z" fill="#173d7a"/>
            <path id="Path_152774" data-name="Path 152774" d="M3428.828-3301.9l-1.233-.714-6.767-11.753.007-7.72-1-1.3.937-.543v0a.632.632,0,0,1,.68.039l19.664,11.384a2.042,2.042,0,0,1,.741.867Z" fill="#396caa"/>
            <path id="Path_152775" data-name="Path 152775" d="M3420.28-3322.812l-.442-.578.937-.543v0a.632.632,0,0,1,.68.039l.347.2Z" fill="#5793ce"/>
            <path id="Path_152776" data-name="Path 152776" d="M3441.3-3312.382a2.521,2.521,0,0,1,.822,1.656l-1.922,1.11-.92-1.6Z" fill="#274f89"/>
            <path id="Path_152777" data-name="Path 152777" d="M3440.183-3311.965l-19.663-11.385c-.556-.322-1.008.019-1.009.761l-.017,15.47a2.418,2.418,0,0,0,1.006,1.927l19.663,11.385c.557.322,1.008-.019,1.009-.761l.017-15.47A2.411,2.411,0,0,0,3440.183-3311.965Z" fill="#5793ce"/>
          </g>
          <path id="Path_152778" data-name="Path 152778" d="M3449.852-3308.964l-.315.653a4.378,4.378,0,0,1-1.644,1.822l-1.953,1.2a1.946,1.946,0,0,1-1.994.046c-.022-.013-.045-.026-.067-.04a1.177,1.177,0,0,1-.166-1.806l2.041-2.1s-1.146.879-1.468.525c-.235-.26,1.112-1.525,2.147-1.566a4.089,4.089,0,0,0,2.036-.854Z" fill="#ffc2b0"/>
          <path id="Path_152779" data-name="Path 152779" d="M3444.676-3356.3s-7.482,8.141-10.5,15.61a15.272,15.272,0,0,0,8.822,6.418C3449.26-3332.46,3444.676-3356.3,3444.676-3356.3Z" fill="#5793ce"/>
          <path id="Path_152780" data-name="Path 152780" d="M3441.588-3334.752l1.213-11.715-2.858,10.976A16.25,16.25,0,0,0,3441.588-3334.752Z" fill="#396caa"/>
          <path id="Path_152781" data-name="Path 152781" d="M3450.28-3357.94l-2.01-.553a4.853,4.853,0,0,0,2.361,1.9c1.4.385,1.619-.8,1.619-.8Z" fill="#fff"/>
        </g>
        <path id="Path_152782" data-name="Path 152782" d="M3461.02-3361.159a1.12,1.12,0,0,1-1.12,1.12,1.12,1.12,0,0,1-1.12-1.12,1.12,1.12,0,0,1,1.12-1.119A1.12,1.12,0,0,1,3461.02-3361.159Z" fill="#fff"/>
      </g>
      <path id="Path_152783" data-name="Path 152783" d="M3628.177-3356.879l-3.372-6.859,6.859-3.373,3.372,6.86Zm-1.325-6.162,2.022,4.116,4.116-2.023-2.023-4.116Z" fill="#fd9600"/>
      <path id="Path_152784" data-name="Path 152784" d="M3338.529-3286.074l-3.372-6.859,6.859-3.373,3.372,6.86Zm-1.325-6.162,2.023,4.116,4.115-2.023-2.023-4.116Z" fill="#fd9600"/>
      <g id="Group_98106" data-name="Group 98106">
        <path id="Path_152785" data-name="Path 152785" d="M3394.615-3260.357c-8.865-5.118-23.237-5.118-32.1,0s-8.864,13.415,0,18.533,23.236,5.118,32.1,0S3403.479-3255.239,3394.615-3260.357Zm-8.672,13.526a16.305,16.305,0,0,1-14.756,0c-4.075-2.352-4.075-6.167,0-8.519a16.307,16.307,0,0,1,14.755,0C3390.017-3253,3390.017-3249.183,3385.943-3246.831Z" fill="#d4ecff"/>
        <g id="Group_98105" data-name="Group 98105">
          <g id="Group_98101" data-name="Group 98101">
            <path id="Path_152786" data-name="Path 152786" d="M3359.166-3263.389l8.1.126a8.6,8.6,0,0,1,2.557-2.15c4.453-2.571,11.454-2.77,16.3-.6l4.811-4.525,7.409.116c-.366-.24-.742-.476-1.139-.7-10.3-5.944-26.988-5.945-37.283,0a19.592,19.592,0,0,0-4.633,3.609Z" fill="#fd9600"/>
            <path id="Path_152787" data-name="Path 152787" d="M3398.345-3282.18v11.758l-7.408-.115V-3282.3Z" fill="#fdb03f"/>
            <path id="Path_152788" data-name="Path 152788" d="M3386.125-3277.771v11.758l4.812-4.525V-3282.3Z" fill="#c27300"/>
            <path id="Path_152789" data-name="Path 152789" d="M3367.263-3275.021v11.758l10.651-8.68,8.211,5.93v-11.758l-7.56-3.668s-10.408,3.186-10.949,3.322S3367.263-3275.021,3367.263-3275.021Z" fill="#fd9600"/>
            <path id="Path_152790" data-name="Path 152790" d="M3359.166-3275.147v11.758l8.1.126v-11.758Z" fill="#c27300"/>
            <path id="Path_152791" data-name="Path 152791" d="M3355.29-3279.277v11.758l3.876,4.129v-11.758Z" fill="#fdb03f"/>
            <path id="Path_152792" data-name="Path 152792" d="M3359.166-3275.147l8.1.126a8.6,8.6,0,0,1,2.557-2.15c4.453-2.571,11.454-2.77,16.3-.6l4.811-4.525,7.409.115c-.366-.239-.742-.475-1.139-.7-10.3-5.944-26.988-5.945-37.283,0a19.592,19.592,0,0,0-4.633,3.609Z" fill="#fdc472"/>
          </g>
          <g id="Group_98103" data-name="Group 98103">
            <path id="Path_152793" data-name="Path 152793" d="M3388.564-3276.325v10.809l7.008-1.679s-.411-6.325-.56-6.494S3388.564-3276.325,3388.564-3276.325Z" fill="#5793ce"/>
            <g id="Group_98102" data-name="Group 98102">
              <path id="Path_152794" data-name="Path 152794" d="M3383.26-3265.516v11.758l.757.807,4.941-2.849s-.766-8.976-.856-9.156A47.081,47.081,0,0,0,3383.26-3265.516Z" fill="#173d7a"/>
              <path id="Path_152795" data-name="Path 152795" d="M3392.8-3268.551l-4.237,3.984c3.529,2.793,3.112,6.73-1.255,9.251a15.024,15.024,0,0,1-4.049,1.558l4.379,4.666-3.88,3.65a35.253,35.253,0,0,0,13.448-4.16c8.85-5.11,10.084-12.947,3.718-18.823Z" fill="#396caa"/>
              <path id="Path_152796" data-name="Path 152796" d="M3383.759-3257.2v11.758l9.608-3.71,11.556-11.025-.043-12.485-12.226,9.691Z" fill="#396caa"/>
              <path id="Path_152797" data-name="Path 152797" d="M3392.8-3280.31l-4.237,3.985c3.529,2.793,3.112,6.73-1.255,9.251a15.024,15.024,0,0,1-4.049,1.558l4.379,4.666-3.88,3.649a35.252,35.252,0,0,0,13.448-4.159c8.85-5.11,10.084-12.947,3.718-18.823Z" fill="#d4ecff"/>
            </g>
          </g>
          <g id="Group_98104" data-name="Group 98104">
            <path id="Path_152798" data-name="Path 152798" d="M3383.727-3249.153l-3.86-4.113a18.458,18.458,0,0,1-10.047-2.05c-2.837-1.638-4.005-3.874-3.509-6.005l-9.192-.143-3.535-3.766c-3.092,5.306-.982,11.4,6.339,15.628,5.38,3.106,12.507,4.586,19.555,4.446Z" fill="#396caa"/>
            <path id="Path_152799" data-name="Path 152799" d="M3379.478-3256.915v11.758l-27.27-15.112v-11.764l3.982,1.61Z" fill="#396caa"/>
            <path id="Path_152800" data-name="Path 152800" d="M3383.727-3260.911v11.758l-4.25,4v-11.758Z" fill="#173d7a"/>
            <path id="Path_152801" data-name="Path 152801" d="M3383.727-3260.911l-3.86-4.113a18.458,18.458,0,0,1-10.047-2.05c-2.837-1.638-4.005-3.874-3.509-6.005l-9.192-.143-3.535-3.766c-3.092,5.306-.982,11.4,6.339,15.628,5.38,3.106,12.507,4.586,19.555,4.445Z" fill="#5793ce"/>
          </g>
        </g>
      </g>
      <path id="Path_152802" data-name="Path 152802" d="M3340.273-3361.318a5.858,5.858,0,0,1-5.852-5.851,5.858,5.858,0,0,1,5.852-5.851,5.857,5.857,0,0,1,5.851,5.851A5.858,5.858,0,0,1,3340.273-3361.318Zm0-9.9a4.055,4.055,0,0,0-4.051,4.051,4.055,4.055,0,0,0,4.051,4.05,4.055,4.055,0,0,0,4.05-4.05A4.055,4.055,0,0,0,3340.273-3371.22Z" fill="#5793ce"/>
      <path id="Path_152803" data-name="Path 152803" d="M3474.452-3235.985a4.734,4.734,0,0,1-4.729-4.729,4.734,4.734,0,0,1,4.729-4.728,4.733,4.733,0,0,1,4.728,4.728A4.734,4.734,0,0,1,3474.452-3235.985Zm0-8a3.278,3.278,0,0,0-3.274,3.274,3.278,3.278,0,0,0,3.274,3.274,3.277,3.277,0,0,0,3.273-3.274A3.277,3.277,0,0,0,3474.452-3243.988Z" fill="#5793ce"/>
      <path id="Path_152804" data-name="Path 152804" d="M3410.561-3231.708a3.607,3.607,0,0,1-3.606,3.606,3.606,3.606,0,0,1-3.606-3.606,3.605,3.605,0,0,1,3.606-3.606A3.606,3.606,0,0,1,3410.561-3231.708Z" fill="#d4ecff"/>
      <path id="Path_152805" data-name="Path 152805" d="M3482.786-3390.069a3.606,3.606,0,0,1-3.606,3.606,3.607,3.607,0,0,1-3.606-3.606,3.606,3.606,0,0,1,3.606-3.606A3.605,3.605,0,0,1,3482.786-3390.069Z" fill="#d4ecff"/>
      <g id="Group_98109" data-name="Group 98109">
        <g id="Group_98107" data-name="Group 98107">
          <path id="Path_152806" data-name="Path 152806" d="M3571.689-3393.613l-20.437-11.8a1.047,1.047,0,0,0-1.057-.084l0-.014-1.983,1.146,1.393.509v14.883a3.938,3.938,0,0,0,1.645,3.142l19.534,11.278v1.746l2-1.153-.011,0a1.457,1.457,0,0,0,.556-1.311v-15.2A3.939,3.939,0,0,0,3571.689-3393.613Z" fill="#fd9600"/>
          <path id="Path_152807" data-name="Path 152807" d="M3569.671-3372.868l-20.438-11.8a3.939,3.939,0,0,1-1.644-3.142v-15.2c0-1.211.736-1.767,1.644-1.243l20.438,11.8a3.937,3.937,0,0,1,1.644,3.141v15.2C3571.315-3372.9,3570.579-3372.343,3569.671-3372.868Z" fill="#fdb03f"/>
        </g>
        <g id="Group_98108" data-name="Group 98108">
          <path id="Path_152808" data-name="Path 152808" d="M3556.106-3389.9c0,.879-.617,1.236-1.379.8a3.048,3.048,0,0,1-1.379-2.388c0-.88.617-1.236,1.379-.8A3.047,3.047,0,0,1,3556.106-3389.9Z" fill="#fff"/>
          <path id="Path_152809" data-name="Path 152809" d="M3560.283-3387.492c0,.879-.617,1.235-1.379.8a3.05,3.05,0,0,1-1.379-2.389c0-.879.618-1.235,1.379-.8A3.048,3.048,0,0,1,3560.283-3387.492Z" fill="#fff"/>
          <path id="Path_152810" data-name="Path 152810" d="M3564.461-3385.08c0,.879-.618,1.235-1.379.8a3.048,3.048,0,0,1-1.379-2.389c0-.879.617-1.236,1.379-.8A3.05,3.05,0,0,1,3564.461-3385.08Z" fill="#fff"/>
        </g>
      </g>
      <g id="Group_98112" data-name="Group 98112">
        <g id="Group_98110" data-name="Group 98110">
          <path id="Path_152811" data-name="Path 152811" d="M3368.118-3423.6l-23.613-13.633a1.209,1.209,0,0,0-1.221-.1l0-.015-2.29,1.323,1.609.588v17.2a4.551,4.551,0,0,0,1.9,3.63l22.569,13.031v2.017l2.314-1.332-.012,0a1.683,1.683,0,0,0,.642-1.514v-17.558A4.551,4.551,0,0,0,3368.118-3423.6Z" fill="#5793ce"/>
          <path id="Path_152812" data-name="Path 152812" d="M3365.786-3399.63l-23.614-13.633a4.549,4.549,0,0,1-1.9-3.63v-17.557c0-1.4.85-2.042,1.9-1.437l23.614,13.633a4.55,4.55,0,0,1,1.9,3.63v17.558C3367.685-3399.667,3366.835-3399.024,3365.786-3399.63Z" fill="#d4ecff"/>
        </g>
        <g id="Group_98111" data-name="Group 98111">
          <path id="Path_152813" data-name="Path 152813" d="M3350.113-3419.313c0,1.016-.713,1.428-1.593.92a3.521,3.521,0,0,1-1.593-2.76c0-1.016.713-1.427,1.593-.919A3.52,3.52,0,0,1,3350.113-3419.313Z" fill="#fff"/>
          <path id="Path_152814" data-name="Path 152814" d="M3354.94-3416.526c0,1.016-.714,1.427-1.593.919a3.522,3.522,0,0,1-1.594-2.759c0-1.016.714-1.428,1.594-.92A3.524,3.524,0,0,1,3354.94-3416.526Z" fill="#fff"/>
          <path id="Path_152815" data-name="Path 152815" d="M3359.766-3413.74c0,1.016-.713,1.428-1.593.92a3.519,3.519,0,0,1-1.593-2.759c0-1.016.713-1.428,1.593-.92A3.52,3.52,0,0,1,3359.766-3413.74Z" fill="#fff"/>
        </g>
      </g>
    </g>
  </g>
</svg>
