<svg xmlns="http://www.w3.org/2000/svg" width="190" height="130" viewBox="0 0 190 130">
  <g id="t3-ic1" transform="translate(-180 -1806)">
    <rect id="Rectangle_32200" data-name="Rectangle 32200" width="132" height="130" transform="translate(180 1806)" fill="#fa9500" opacity="0.31"/>
    <g id="Analysis_Report" data-name="Analysis Report" transform="translate(238 1804)">
      <path id="Path_147367" data-name="Path 147367" d="M81.935,39.833H43V3A38.989,38.989,0,0,1,81.935,39.841Z" transform="translate(47.833 1.167)" fill="#d2e1f1"/>
      <path id="Path_147368" data-name="Path 147368" d="M81.935,39.833H73.268A39,39,0,0,0,43,3.975V3A38.989,38.989,0,0,1,81.935,39.841Z" transform="translate(47.833 1.167)" fill="#b0c0d2"/>
      <path id="Path_147369" data-name="Path 147369" d="M93.347,24c.043.715.065,1.452.065,2.167a39,39,0,0,1-39,39,37.049,37.049,0,0,1-8.667-1A38.458,38.458,0,0,1,25.79,52.622L54.412,24Z" transform="translate(27.755 25.667)" fill="#ff9800"/>
      <path id="Path_147370" data-name="Path 147370" d="M60,7V43.833L31.379,72.455A38.95,38.95,0,0,1,51.334,8,37.05,37.05,0,0,1,60,7Z" transform="translate(22.166 5.833)" fill="#ffd494"/>
      <path id="Path_147371" data-name="Path 147371" d="M72.333,88.67v40H3V20.333H20.333V3h52v9.663A38.95,38.95,0,0,0,52.378,77.122,38.458,38.458,0,0,0,72.333,88.67ZM55,102.667A17.333,17.333,0,0,0,37.775,85.333h-.108A17.333,17.333,0,1,0,37.558,120h.108A17.333,17.333,0,0,0,55,102.667Z" transform="translate(1.167 1.167)" fill="#fff"/>
      <path id="Path_147372" data-name="Path 147372" d="M28.471,41h-.108a17.333,17.333,0,1,0-.108,34.667h.108A17.333,17.333,0,1,0,28.471,41Z" transform="translate(10.471 45.5)" fill="#ffb74d"/>
      <path id="Path_147373" data-name="Path 147373" d="M20.333,3V20.333H3Z" transform="translate(1.167 1.167)" fill="#ffb74d"/>
      <path id="Path_147374" data-name="Path 147374" d="M38.69,58.333A17.333,17.333,0,0,1,21.357,75.667h-.108a17.686,17.686,0,0,1-4.182-.542,17.344,17.344,0,0,0-.087-33.583A18.2,18.2,0,0,1,21.357,41h.108A17.333,17.333,0,0,1,38.69,58.333Z" transform="translate(17.477 45.5)" fill="#ff9800"/>
      <path id="Path_147375" data-name="Path 147375" d="M123.333,49.667a2.167,2.167,0,0,0-2.167-2.167H84.333V12.833a2.167,2.167,0,0,0-2.167-2.167,40.277,40.277,0,0,0-6.5.563V4.167A2.167,2.167,0,0,0,73.5,2h-52a2.238,2.238,0,0,0-1.538.628L2.628,19.962A2.238,2.238,0,0,0,2,21.5V129.833A2.167,2.167,0,0,0,4.167,132H73.5a2.167,2.167,0,0,0,2.167-2.167v-37.4a40.277,40.277,0,0,0,6.5.563,41.2,41.2,0,0,0,41.167-41.167c0-.585-.022-1.17-.043-1.755a2.4,2.4,0,0,0,.043-.412ZM80,15.065V48.778L53.653,75.125A36.814,36.814,0,0,1,80,15.065ZM19.333,9.388v9.945H9.388Zm52,118.278h-65v-104H21.5A2.167,2.167,0,0,0,23.667,21.5V6.333H71.333v5.828a41.108,41.108,0,0,0,0,79.343Zm10.833-39A36.678,36.678,0,0,1,56.6,78.287L83.055,51.833H119A36.885,36.885,0,0,1,82.167,88.667Z" transform="translate(0 0)"/>
      <path id="Path_147376" data-name="Path 147376" d="M44.167,43.167h39v-.013a2.152,2.152,0,0,0,2.1-2.271A41.13,41.13,0,0,0,44.167,2,2.167,2.167,0,0,0,42,4.167V41A2.167,2.167,0,0,0,44.167,43.167Zm36.578-4.333H46.333V6.4A36.8,36.8,0,0,1,80.744,38.833Z" transform="translate(46.667 0)"/>
      <path id="Path_147377" data-name="Path 147377" d="M29.5,40A19.5,19.5,0,1,0,49,59.5,19.5,19.5,0,0,0,29.5,40Zm0,34.667A15.167,15.167,0,1,1,44.667,59.5,15.167,15.167,0,0,1,29.5,74.667Z" transform="translate(9.333 44.333)"/>
      <path id="Path_147378" data-name="Path 147378" d="M29,60.333a6.522,6.522,0,0,1-4.333,6.11V69H20.333V66.443A6.522,6.522,0,0,1,16,60.333h4.333A2.167,2.167,0,1,0,22.5,58.167a6.5,6.5,0,0,1-2.167-12.61V43h4.333v2.557A6.522,6.522,0,0,1,29,51.667H24.667A2.167,2.167,0,1,0,22.5,53.833a6.52,6.52,0,0,1,6.5,6.5Z" transform="translate(16.333 47.833)"/>
      <path id="Path_147379" data-name="Path 147379" d="M8,16H29.667v4.333H8Z" transform="translate(7 16.333)"/>
      <path id="Path_147380" data-name="Path 147380" d="M8,22H29.667v4.333H8Z" transform="translate(7 23.333)"/>
      <path id="Path_147381" data-name="Path 147381" d="M8,28H29.667v4.333H8Z" transform="translate(7 30.333)"/>
      <path id="Path_147382" data-name="Path 147382" d="M8,34H29.667v4.333H8Z" transform="translate(7 37.333)"/>
      <path id="Path_147383" data-name="Path 147383" d="M40,48h8.667v4.333H40Z" transform="translate(44.333 53.667)"/>
      <path id="Path_147384" data-name="Path 147384" d="M46,48H80.667v4.333H46Z" transform="translate(51.333 53.667)"/>
      <path id="Path_147385" data-name="Path 147385" d="M40,54h8.667v4.333H40Z" transform="translate(44.333 60.667)"/>
      <path id="Path_147386" data-name="Path 147386" d="M46,54H80.667v4.333H46Z" transform="translate(51.333 60.667)"/>
      <path id="Path_147387" data-name="Path 147387" d="M40,60h8.667v4.333H40Z" transform="translate(44.333 67.667)"/>
      <path id="Path_147388" data-name="Path 147388" d="M46,60H80.667v4.333H46Z" transform="translate(51.333 67.667)"/>
    </g>
  </g>
</svg>
