<svg xmlns="http://www.w3.org/2000/svg" xmlns:xlink="http://www.w3.org/1999/xlink" width="406.384" height="344.183" viewBox="0 0 406.384 344.183">
  <defs>
    <clipPath id="clip-path">
      <path id="Path_147326" data-name="Path 147326" d="M604.9,107.879A98.917,98.917,0,1,1,505.985,8.967,98.919,98.919,0,0,1,604.9,107.879Z" transform="translate(-407.069 -8.967)" fill="#111e61"/>
    </clipPath>
    <clipPath id="clip-path-2">
      <path id="Path_147349" data-name="Path 147349" d="M483.593,117.2a98.917,98.917,0,1,1-98.918-98.917A98.917,98.917,0,0,1,483.593,117.2Z" transform="translate(-285.76 -18.286)" fill="none"/>
    </clipPath>
    <filter id="Path_147350" x="199.082" y="218.407" width="168.487" height="125.776" filterUnits="userSpaceOnUse">
      <feOffset dy="3" input="SourceAlpha"/>
      <feGaussianBlur stdDeviation="3" result="blur"/>
      <feFlood flood-opacity="0.161"/>
      <feComposite operator="in" in2="blur"/>
      <feComposite in="SourceGraphic"/>
    </filter>
    <filter id="Path_147350-2" x="38" y="1" width="173.082" height="150.973" filterUnits="userSpaceOnUse">
      <feOffset dy="3" input="SourceAlpha"/>
      <feGaussianBlur stdDeviation="3" result="blur-2"/>
      <feFlood flood-opacity="0.161"/>
      <feComposite operator="in" in2="blur-2"/>
      <feComposite in="SourceGraphic"/>
    </filter>
  </defs>
  <g id="t3-i3" transform="translate(-180 -3219)">
    <g id="Group_84176" data-name="Group 84176" transform="translate(0 -52)">
      <g id="Group_84157" data-name="Group 84157" transform="translate(388.551 3271)">
        <g id="Group_84156" data-name="Group 84156" transform="translate(0 0)">
          <g id="Group_84155" data-name="Group 84155" clip-path="url(#clip-path)">
            <path id="Path_147303" data-name="Path 147303" d="M604.9,107.879A98.917,98.917,0,1,1,505.985,8.967,98.919,98.919,0,0,1,604.9,107.879Z" transform="translate(-407.069 -8.967)" fill="#111e61"/>
            <g id="Group_84154" data-name="Group 84154" transform="translate(40.267 16.045)">
              <path id="Path_147304" data-name="Path 147304" d="M488.721,74.458s14.589.22,15.589,18.4c0,0,4.895,68.5,4.7,71.94H494.718s-8.892-58.55-10.293-64.747C484.425,100.055,483.927,84.23,488.721,74.458Z" transform="translate(-391.715 22.087)" fill="#e89363"/>
              <path id="Path_147305" data-name="Path 147305" d="M488.721,74.458s14.589.22,15.589,18.4c0,0,4.895,68.5,4.7,71.94H494.718s-8.892-58.55-10.293-64.747C484.425,100.055,483.927,84.23,488.721,74.458Z" transform="translate(-391.715 22.087)" fill="#ffb74d"/>
              <path id="Path_147306" data-name="Path 147306" d="M499.318,154.761c-1.86-4.654-5.226-19.7-4.025-31.373,1.4-13.588-5.754-31.366-5.754-31.366l-3.039-3.6L485,95.473c2.74,16.127,9.3,59.289,9.3,59.289Z" transform="translate(-391.291 32.127)" fill="#ff9800"/>
              <path id="Path_147307" data-name="Path 147307" d="M450.78,74.458s-14.587.22-15.586,18.4c0,0-4.9,68.5-4.7,71.94h14.29s8.892-58.55,10.289-64.747C455.076,100.055,455.577,84.23,450.78,74.458Z" transform="translate(-430.492 22.087)" fill="#ffb74d"/>
              <path id="Path_147308" data-name="Path 147308" d="M445.894,90.652S440.5,103.8,441.1,118.386c.474,11.534-3.174,28.058-5.513,34.77h5.532s5.782-38.074,8.754-56.062Z" transform="translate(-426.826 33.733)" fill="#ff9800"/>
              <path id="Path_147309" data-name="Path 147309" d="M492.281,46.976s3.241,33.309-6.416,47.4L471.41,87.478l-6-20.082,20.451-23.381Z" transform="translate(-405.376 0.194)" fill="#351b10"/>
              <path id="Path_147310" data-name="Path 147310" d="M471.41,86.35l7.7,3.674c9.8-21.507,6.756-44.439,6.756-44.439L480.6,48.908l-15.184,17.36Z" transform="translate(-405.376 1.323)" fill="#1c0f0a"/>
              <path id="Path_147311" data-name="Path 147311" d="M447.743,92.31l16.675-1.464,3.813-22.781-18.285-22.48Z" transform="translate(-418.084 1.323)" fill="#1c0f0a"/>
              <g id="Group_84153" data-name="Group 84153" transform="translate(16.668 3.162)">
                <path id="Path_147312" data-name="Path 147312" d="M522.824,100.371s.488-21.07-2.3-21.7c0,0-12.742-2.907-33.5-9.736-2.056-.676-3.872-.143-5.862.012v.062c-1.991-.155-3.806-.686-5.862-.012-20.762,6.829-33.507,9.736-33.507,9.736-2.785.631-1.1,21.041-1.1,21.041s3.908,29.437,7.449,46.658c0,0,1.771,16.181,1.076,22.647h31.94v-.064H513.1c-.695-6.467,1.074-22.645,1.074-22.645C517.716,129.147,522.824,100.371,522.824,100.371Z" transform="translate(-440.187 14.713)" fill="#ffb74d"/>
                <path id="Path_147313" data-name="Path 147313" d="M462.108,66.1l-9.392,8.194-1.6,20.783s6.479-5.6,6.837-7.193l14.914,7.193Z" transform="translate(-432.327 12.914)" fill="#fff"/>
                <path id="Path_147314" data-name="Path 147314" d="M474.528,66.03l9.392,8.194,1.6,20.786s-6.478-5.6-6.835-7.2l-14.912,7.2Z" transform="translate(-423.228 12.863)" fill="#fff"/>
                <g id="Group_84141" data-name="Group 84141" transform="translate(9.214)">
                  <path id="Path_147315" data-name="Path 147315" d="M483.381,83.227S477.87,65.932,480.063,55.7H457.85s.712,18.058-2.756,27.526l14.914,19.329Z" transform="translate(-438.68 5.436)" fill="#d88e64"/>
                  <path id="Path_147316" data-name="Path 147316" d="M456.921,55.7a132.522,132.522,0,0,1-.535,16.487,49.5,49.5,0,0,0,25.605,9.486c-1.279-4.468-4.654-17.589-2.857-25.973Z" transform="translate(-437.751 5.436)" fill="#c17551"/>
                  <g id="Group_84140" data-name="Group 84140">
                    <path id="Path_147317" data-name="Path 147317" d="M450.624,42.1s-2.433-5.235-4.478-.43c0,0-2.046,5.335,1.423,9.868a31.037,31.037,0,0,1,2.653,3.034s1.671,4.291,2.878,1.717Z" transform="translate(-445.546 -6.116)" fill="#dfa072"/>
                    <path id="Path_147318" data-name="Path 147318" d="M479.784,42.1s2.433-5.235,4.478-.43c0,0,2.044,5.335-1.422,9.868a30.823,30.823,0,0,0-2.653,3.034s-1.671,4.291-2.878,1.717Z" transform="translate(-422.703 -6.116)" fill="#d28c62"/>
                    <path id="Path_147319" data-name="Path 147319" d="M497.268,73.913A149.857,149.857,0,0,0,501,54.233c0-21.194-11.628-33.871-26.1-34.094h-.29c-14.472.223-26.107,14.785-26.107,35.982a106.351,106.351,0,0,0,3.2,17.792s.836,4.276,1.939,5.5,14.857,17.413,17.62,18.027c0,0,4.659.921,6.988-.411a66.46,66.46,0,0,0,16.516-15.876C496.209,79.1,496.262,77.569,497.268,73.913Z" transform="translate(-443.422 -20.139)" fill="#e59d70"/>
                    <path id="Path_147320" data-name="Path 147320" d="M486.733,24.835c-1.109-.368-23.993,6.077-24.675,6.376-.418.184-7.329,6.493-12.614,11.491a52.818,52.818,0,0,0-.944,10.052,107.108,107.108,0,0,0,1.594,10.968l.193-.287s12.051-3.38,23.7-17.836c0,0,8.529-9.892,10.776-10.189,0,0,13.272,15.653,13.272,19.033,0,0-2.931,21.735-5.329,23.307,0,0-11.01,14.2-20.192,16.5,1.549.181,4.167.3,5.737-.591a66.46,66.46,0,0,0,16.516-15.876c1.448-2.056,1.5-3.583,2.507-7.239A149.858,149.858,0,0,0,501,50.867a45.019,45.019,0,0,0-3.153-17.288C496,32.26,487.84,25.2,486.733,24.835Z" transform="translate(-443.422 -16.772)" fill="#d28b60"/>
                  </g>
                </g>
              </g>
              <path id="Path_147321" data-name="Path 147321" d="M522.72,88.948s.009-.389.019-1.05c-2.78,7.489-6.235,19.831-7.71,24.522-2.2,6.982-18.405,4.4-22.4,3.208s-16.186-2-22.181.2-17.964,3.2-21.146,1.4-8.967-32.738-8.967-32.738v0c.129,2.288.26,3.863.26,3.863s3.908,29.437,7.449,46.658c0,0,1.771,16.181,1.076,22.647h31.94v-.064H513c-.695-6.467,1.074-22.645,1.074-22.645C517.613,117.723,522.72,88.948,522.72,88.948Z" transform="translate(-423.415 29.298)" fill="#ff9800"/>
              <path id="Path_147322" data-name="Path 147322" d="M487.8,19.945c-39.818-8.991-42.2,21.282-42.2,32.372,0,8.714,1.482,40.165,0,52.459s11.974,15.883,11.974,15.883c-2.436-4.248-4.422-60.394-4.422-60.394,2.209.258,16.71-8.479,23-17.238,5.482-7.637,11.644-7.2,11.644-7.2Z" transform="translate(-419.712 -18.3)" fill="#351b10"/>
              <path id="Path_147323" data-name="Path 147323" d="M470.094,35.142s14.2,15.906,15.216,20.993c0,0,1.87-3.507,4.141.191,0,0,2.065-19.856-3.985-29.874-4.26-7.055-15.373-7.195-15.373-7.195Z" transform="translate(-402.011 -17.611)" fill="#351b10"/>
              <path id="Path_147324" data-name="Path 147324" d="M487.747,23.413c-13.619-.689-29.723,6.56-32.625,6.975-2.094.3-3.542-1.716-4.468-3.808-4.585,7.585-5.108,16.923-5.108,22.093,0,.708.01,1.578.028,2.563,10.245.559,32.946-22.523,38.625-24.146a7.108,7.108,0,0,1,3.548-.067Z" transform="translate(-419.664 -14.656)" fill="#3d1e13"/>
              <path id="Path_147325" data-name="Path 147325" d="M489.79,45.817a67,67,0,0,0-1.351-14.389c-1.322.65-2.972-1.028-2.972-1.028-3.691-4.807-9.285-6.7-15.373-7.006V27c5.168,1.171,10.349,7.463,14.735,13.557C487.133,43.759,488.721,45.2,489.79,45.817Z" transform="translate(-402.011 -14.636)" fill="#3d1e13"/>
            </g>
          </g>
        </g>
      </g>
      <g id="Group_84173" data-name="Group 84173" transform="translate(180 3413.168)">
        <g id="Group_84172" data-name="Group 84172" transform="translate(0 -0.001)" clip-path="url(#clip-path-2)">
          <path id="Path_147327" data-name="Path 147327" d="M483.593,117.2a98.917,98.917,0,1,1-98.918-98.917A98.917,98.917,0,0,1,483.593,117.2Z" transform="translate(-285.76 -18.286)" fill="#ffd494"/>
          <g id="Group_84171" data-name="Group 84171" transform="translate(27.292 12.871)">
            <path id="Path_147328" data-name="Path 147328" d="M388.624,146.451H371.241l-1.667-19.062h17.383Z" transform="translate(-252.775 47.306)" fill="#e89363"/>
            <g id="Group_84170" data-name="Group 84170">
              <path id="Path_147329" data-name="Path 147329" d="M370.052,174.924c-.036-.024-.076-.041-.113-.064,0,0-4.195-76.46,2.859-86.976,0,0,14.585,3.631,15.756,13.14,0,0,4.018,65.409,4.736,73.9Z" transform="translate(-253.403 18.896)" fill="#002034"/>
              <g id="Group_84169" data-name="Group 84169" transform="translate(0 10.029)">
                <g id="Group_84168" data-name="Group 84168">
                  <g id="Group_84167" data-name="Group 84167">
                    <path id="Path_147330" data-name="Path 147330" d="M304.121,146.451H321.5l1.667-19.062H305.788Z" transform="translate(-299.847 37.277)" fill="#e89363"/>
                    <path id="Path_147331" data-name="Path 147331" d="M325.686,174.924c.038-.024.076-.041.113-.064,0,0,4.195-76.46-2.859-86.976,0,0-14.587,3.631-15.756,13.14,0,0-4.829,65.409-5.549,73.9Z" transform="translate(-301.635 8.868)" fill="#002034"/>
                    <path id="Path_147332" data-name="Path 147332" d="M317.014,126.049c2.457,9.172-4.907,33.654-11.168,43.521h16.812c.038-.024.076-.041.113-.064,0,0,2.7-49.307.117-74.175l-1.282,2.548S314.15,115.363,317.014,126.049Z" transform="translate(-298.607 14.223)" fill="#001926"/>
                    <g id="Group_84166" data-name="Group 84166" transform="translate(19.654)">
                      <g id="Group_84165" data-name="Group 84165">
                        <g id="Group_84164" data-name="Group 84164">
                          <g id="Group_84163" data-name="Group 84163">
                            <g id="Group_84162" data-name="Group 84162">
                              <g id="Group_84161" data-name="Group 84161">
                                <g id="Group_84160" data-name="Group 84160">
                                  <path id="Path_147333" data-name="Path 147333" d="M412.23,93.366s-25.671-10.114-48.463-13.1c-22.794,2.99-48.432,13.1-48.432,13.1-2.785.631-2.219,7.686-2.219,7.686s4.348,45.592,9.727,59.485c0,0,1.668,13.339.971,19.8h79.936c-.695-6.466.973-19.8.973-19.8,5.379-13.893,9.727-59.485,9.727-59.485S415.015,94,412.23,93.366Z" transform="translate(-313.068 3.386)" fill="#002034"/>
                                  <path id="Path_147334" data-name="Path 147334" d="M352.276,85.868h0l-23.042,1.611s19.5,56.172,20.042,59.445,3,15.407,3,15.407h0s2.452-12.136,3-15.407,20.042-59.445,20.042-59.445Z" transform="translate(-301.441 7.417)" fill="#b9e1f1"/>
                                  <path id="Path_147335" data-name="Path 147335" d="M348.069,91.722h-4.7s-4.119,23.523-4.917,37.813c2.347,7.007,4.045,12.246,4.2,13.179.545,3.272,3,15.407,3,15.407h0s2.452-12.136,3-15.407c.172-1.032,2.228-7.322,4.96-15.454C352.118,114.382,349.483,93.276,348.069,91.722Z" transform="translate(-294.814 11.627)" fill="#060f14"/>
                                  <path id="Path_147336" data-name="Path 147336" d="M351.216,88.953l-6-2.482V86.4l-.086.034-.086-.034v.07l-6,2.482s2.146,6.9,3.272,8.231a18.72,18.72,0,0,0,2.725.81v.029c.026,0,.059-.01.086-.015s.06.012.086.015v-.029a18.765,18.765,0,0,0,2.727-.81C349.068,95.855,351.216,88.953,351.216,88.953Z" transform="translate(-294.382 7.8)" fill="#060f14"/>
                                  <g id="Group_84159" data-name="Group 84159" transform="translate(20.24)">
                                    <path id="Path_147337" data-name="Path 147337" d="M331.965,67.169s4.754,16.705.342,26.174c0,0,15.784,12.712,36.008,1.351,0,0-4.018-17.295-.473-27.526Z" transform="translate(-319.717 -6.03)" fill="#d88e64"/>
                                    <path id="Path_147338" data-name="Path 147338" d="M367.536,90.641a80.261,80.261,0,0,1-1.154-13.062,35.876,35.876,0,0,1,1.209-10.41H331.965a66.243,66.243,0,0,1,1.508,7.226,11.829,11.829,0,0,1,.278,1.36c3.756,3.191,11.463,11.826,14.379,12.218,0,0,5.109,1.353,7.367-.433,0,0-1.444,8.114-4.15,11.857a31.674,31.674,0,0,0,4.52-.328c.542-.081,1.086-.174,1.637-.284Z" transform="translate(-319.717 -6.03)" fill="#c27754"/>
                                    <g id="Group_84158" data-name="Group 84158">
                                      <path id="Path_147339" data-name="Path 147339" d="M329.918,53.565s-2.433-5.235-4.478-.43c0,0-2.044,5.336,1.423,9.868a30.815,30.815,0,0,1,2.651,3.034s1.671,4.294,2.88,1.719Z" transform="translate(-324.841 -17.583)" fill="#dfa072"/>
                                      <path id="Path_147340" data-name="Path 147340" d="M359.078,53.565s2.433-5.235,4.478-.43c0,0,2.046,5.336-1.423,9.868a31.249,31.249,0,0,0-2.653,3.034s-1.668,4.294-2.876,1.719Z" transform="translate(-301.998 -17.583)" fill="#d28c62"/>
                                      <path id="Path_147341" data-name="Path 147341" d="M377,85.383a112.7,112.7,0,0,0,3.29-19.683c0-21.2-11.632-33.871-26.1-34.094H353.9c-14.47.223-26.107,14.787-26.107,35.982a80.267,80.267,0,0,0,2.747,17.8s.853,4.272,1.977,5.5,14.317,18.713,17.589,19.325c0,0,5.522.921,8.285-.407s10.327-9.2,16.054-17.18C375.922,90.563,375.974,89.036,377,85.383Z" transform="translate(-322.717 -31.606)" fill="#e59d70"/>
                                      <path id="Path_147342" data-name="Path 147342" d="M353.818,31.606h-.289c-12.118.187-22.243,10.434-25.219,26.207l3.251.265s.772-6.973,3.031-7.382c0,0,14.835,4.908,19.079,4.908s12.424-1.226,14.061-2.25,3.885-2.453,4.5-1.635-2.044,12.065,0,14.725-1.021,19.837-2.864,23.927-11.149,17.382-15.7,17.589-5.658-.239-9.808-2.88c2.524,2.785,4.766,4.922,5.871,5.128,0,0,5.522.921,8.285-.407s10.327-9.2,16.054-17.18c1.477-2.058,1.528-3.584,2.556-7.238A112.7,112.7,0,0,0,379.92,65.7c0-15.484-6.211-26.415-15.2-31.27-2.378-.823-4.8-1.657-7.2-2.479A24.586,24.586,0,0,0,353.818,31.606Z" transform="translate(-322.345 -31.606)" fill="#d28b60"/>
                                    </g>
                                  </g>
                                </g>
                              </g>
                            </g>
                          </g>
                        </g>
                      </g>
                    </g>
                    <path id="Path_147343" data-name="Path 147343" d="M378.14,88.117c-1.212-1.329-7.355-11.257-8.773-11.575,0,0-11.3,13.129-16.451,16.033-5.145-2.9-16.451-16.033-16.451-16.033-1.42.318-4.343,5.952-8.023,11.372-.712,1.047,2.658,15.175,2.814,16.4a.8.8,0,0,0,1.245.669c5.493-3.679,17.341-9.029,18.973-9.81a2.684,2.684,0,0,0,1.442-1.686,2.679,2.679,0,0,0,1.442,1.686c1.631.781,13.48,6.131,18.974,9.81a.8.8,0,0,0,1.241-.669C374.731,103.089,378.993,89.052,378.14,88.117Z" transform="translate(-282.427 0.71)" fill="#fff"/>
                  </g>
                </g>
              </g>
              <path id="Path_147344" data-name="Path 147344" d="M329.529,73.454a24.69,24.69,0,0,1,3.1-7.11,4.846,4.846,0,0,0,0-5.591S333,53.825,335.1,52.62c0,0,14.575,1.248,18.462,3.191s15.44-1.227,16.566-2.455,4.294-1.167,5.52-.736,1.821,4.623,1.883,6.77.368,5.623,1.289,6.34,1.506,6.493,1.836,7.724c0,0,3.583-9.258,2.868-11.814s-1.023-5.941-.308-7.884.818-6.648,0-8.285a42.761,42.761,0,0,0-4.484-8.579c-2.728-4.226-7.771-8.761-10.943-9.885s-23.417-2.352-26.484.615-7.686,2.826-9.627,7.09a10.036,10.036,0,0,0-4.635,6.952c-.82,4.908-2.113,10.7-.273,17.451A131.141,131.141,0,0,1,329.529,73.454Z" transform="translate(-284.232 -25.773)" fill="#1c1510"/>
            </g>
            <path id="Path_147345" data-name="Path 147345" d="M330.054,135.826c-4.195-1.649-11.451-18.419-15.041-27.285,1.714,12.249,3.963,25.289,6.43,31.66,0,0,1.668,13.339.971,19.8H336.76c-2.189-7.239-6.027-18.223-4.851-19.886C333.355,138.075,330.054,135.826,330.054,135.826Z" transform="translate(-292.014 33.751)" fill="#001926"/>
            <path id="Path_147346" data-name="Path 147346" d="M382.419,105.683c-.958-4.265-1.8-6.239-2.02-2.429-.591,10.43-17.238,40.7-17.238,40.7-1.236,7.054-6.878,18.015-8.639,21.318h19.415c-.695-6.466.973-19.8.973-19.8C377.935,137.649,380.634,119.8,382.419,105.683Z" transform="translate(-263.6 28.488)" fill="#001926"/>
            <path id="Path_147347" data-name="Path 147347" d="M376.317,161.037c-5.319-3.777-1.228-34.469-1.829-38.561-.579-3.93-5.34-14.46-5.713-15.282-.428,24.746,1.164,53.779,1.164,53.779.038.022.077.04.113.064Z" transform="translate(-253.403 32.783)" fill="#001926"/>
            <path id="Path_147348" data-name="Path 147348" d="M377.025,65.73c.92.715,1.506,6.493,1.836,7.724,0,0,3.583-9.258,2.868-11.814s-1.023-5.941-.308-7.884.818-6.648,0-8.285a42.76,42.76,0,0,0-4.484-8.579c-2.728-4.226-7.771-8.761-10.942-9.885s-23.417-2.352-26.484.615c-2.345,2.266-5.594,2.727-7.863,4.719.385-.15,10.4-4.045,15.11-2.24,4.805,1.841,12.167,1.362,15.643.885s7.838,2.386,7.8,4.023-3.877,9.816-9.32,11.453-31.811-1.061-32.532,3.151c-.261,1.521,1.635,2.813,4.157,3.844a2.435,2.435,0,0,1,.794-.839s14.575,1.248,18.462,3.191,15.44-1.227,16.566-2.455,4.294-1.167,5.52-.736,1.821,4.623,1.883,6.77S376.1,65.013,377.025,65.73Z" transform="translate(-282.437 -25.773)" fill="#110d0b"/>
          </g>
        </g>
      </g>
    </g>
    <g id="Group_84177" data-name="Group 84177" transform="translate(-1.918 -36.316)">
      <g id="Group_84174" data-name="Group 84174" transform="matrix(-0.966, 0.259, -0.259, -0.966, 643.057, 3755.121)">
        <g transform="matrix(-0.97, -0.26, 0.26, -0.97, 316.07, 602.13)" filter="url(#Path_147350)">
          <path id="Path_147350-3" data-name="Path 147350" d="M181.76,276.07,151,223.677c-1.314-2.238-4.464-1.492-5.639,1.337l-4.136,9.952-1.027,2.472c-9.091-3.645-78.8-28.735-93.593,52.622,0,0,42.384-44.1,76.833-12.295l-2.015,4.848-4.136,9.953c-1.175,2.828.517,5.587,3.031,4.94l58.834-15.159A4.554,4.554,0,0,0,181.76,276.07Z" transform="matrix(-0.97, 0.26, -0.26, -0.97, 461.14, 499.8)" fill="#fff"/>
        </g>
        <path id="Path_147351" data-name="Path 147351" d="M183.693,283.178,157.168,238c-1.133-1.93-3.849-1.286-4.863,1.153l-3.567,8.583-.886,2.131c-7.839-3.143-71.527-30.3-90.926,40.728,0,0,40.255-37.338,76.473-5.952l-1.738,4.181-3.567,8.583c-1.013,2.439.446,4.818,2.613,4.26l50.736-13.072A3.927,3.927,0,0,0,183.693,283.178Z" transform="translate(-5.806 -8.155)" fill="#111e61"/>
        <path id="Path_147352" data-name="Path 147352" d="M185.416,305.421a3.206,3.206,0,0,1-1.906,4.457L139.4,321.127c-1.836.459-3.073-1.5-2.214-3.508l3.022-7.068,1.472-3.443c-35.359-32.18-75.833-.457-75.833-.457.517-1.841,26.54-31.134,55.351-29.212S185.416,305.421,185.416,305.421Z" transform="translate(-10.82 -30.924)" fill="#2039b8"/>
      </g>
      <g id="Group_84175" data-name="Group 84175" transform="translate(77.374 3160.863) rotate(-30)">
        <g transform="matrix(0.87, 0.5, -0.5, 0.87, 43.31, 134.07)" filter="url(#Path_147350-2)">
          <path id="Path_147350-4" data-name="Path 147350" d="M181.76,276.07,151,223.677c-1.314-2.238-4.464-1.492-5.639,1.337l-4.136,9.952-1.027,2.472c-9.091-3.645-78.8-28.735-93.593,52.622,0,0,42.384-44.1,76.833-12.295l-2.015,4.848-4.136,9.953c-1.175,2.828.517,5.587,3.031,4.94l58.834-15.159A4.554,4.554,0,0,0,181.76,276.07Z" transform="translate(-104.54 -94.45) rotate(-30)" fill="#fff"/>
        </g>
        <path id="Path_147351-2" data-name="Path 147351" d="M183.693,283.178,157.168,238c-1.133-1.93-3.849-1.286-4.863,1.153l-3.567,8.583-.886,2.131c-7.839-3.143-71.527-30.3-90.926,40.728,0,0,40.255-37.338,76.473-5.952l-1.738,4.181-3.567,8.583c-1.013,2.439.446,4.818,2.613,4.26l50.736-13.072A3.927,3.927,0,0,0,183.693,283.178Z" transform="translate(-5.806 -8.155)" fill="#ff9800"/>
        <path id="Path_147352-2" data-name="Path 147352" d="M185.416,305.421a3.206,3.206,0,0,1-1.906,4.457L139.4,321.127c-1.836.459-3.073-1.5-2.214-3.508l3.022-7.068,1.472-3.443c-35.359-32.18-75.833-.457-75.833-.457.517-1.841,26.54-31.134,55.351-29.212S185.416,305.421,185.416,305.421Z" transform="translate(-10.82 -30.924)" fill="#ffb74d"/>
      </g>
    </g>
  </g>
</svg>
