<svg xmlns="http://www.w3.org/2000/svg" width="190" height="100" viewBox="0 0 190 100">
  <g id="t3-ic8" transform="translate(-180 -5841)">
    <rect id="Rectangle_32232" data-name="Rectangle 32232" width="145" height="100" transform="translate(180 5841)" fill="#fa9500" opacity="0.31"/>
    <g id="reporte" transform="translate(235.389 5841)">
      <path id="Path_147209" data-name="Path 147209" d="M134.8,147.606H68.686a4.377,4.377,0,0,1-4.377-4.377V65.363a4.377,4.377,0,0,1,4.377-4.377H134.8a4.377,4.377,0,0,1,4.377,4.377v77.867A4.377,4.377,0,0,1,134.8,147.606Z" transform="translate(-6.035 -49.071)" fill="#ffb74d"/>
      <path id="Path_147210" data-name="Path 147210" d="M411.375,65.359v77.867A4.376,4.376,0,0,1,407,147.6h-4.4a4.376,4.376,0,0,0,4.378-4.376V65.359a4.378,4.378,0,0,0-4.378-4.378H407A4.378,4.378,0,0,1,411.375,65.359Z" transform="translate(-278.229 -49.067)" fill="#ff9800"/>
      <path id="Path_147211" data-name="Path 147211" d="M163.488,127.465V60.985H104.2V136.57a3.146,3.146,0,0,0,3.146,3.146H150.5Z" transform="translate(-38.136 -49.07)" fill="#fff4e4"/>
      <path id="Path_147212" data-name="Path 147212" d="M354.149,401.262h-9.844a3.145,3.145,0,0,0-3.145,3.145v9.105Z" transform="translate(-228.797 -322.867)" fill="#cdbfba"/>
      <path id="Path_147213" data-name="Path 147213" d="M199.55,14.289a1.1,1.1,0,0,1-1.08-.844,7.662,7.662,0,0,0-14.934,0,1.1,1.1,0,0,1-1.08.844h-6.1A1.113,1.113,0,0,0,175.24,15.4v6.244a1.113,1.113,0,0,0,1.113,1.113h29.3a1.113,1.113,0,0,0,1.113-1.113V15.4a1.113,1.113,0,0,0-1.113-1.113Z" transform="translate(-95.293 -6.035)" fill="#9c9c9c"/>
      <path id="Path_147214" data-name="Path 147214" d="M206.764,43.361v6.245a1.113,1.113,0,0,1-1.114,1.112h-29.3a1.113,1.113,0,0,1-1.114-1.112V47.488H202.2a1.113,1.113,0,0,0,1.114-1.112V42.249h2.333A1.113,1.113,0,0,1,206.764,43.361Z" transform="translate(-95.29 -33.995)" fill="#838383"/>
      <path id="Path_147215" data-name="Path 147215" d="M296.465,159.729h12.019a.9.9,0,0,1,.9.9v5.645a.9.9,0,0,1-.9.9H296.465a.9.9,0,0,1-.9-.9v-5.645A.9.9,0,0,1,296.465,159.729Z" transform="translate(-192.112 -128.523)" fill="#ff9800"/>
      <path id="Path_147216" data-name="Path 147216" d="M128.769,10.449H112.939V9.367a2.581,2.581,0,0,0-2.578-2.578h-5.828a9.128,9.128,0,0,0-17.646,0H81.06a2.581,2.581,0,0,0-2.578,2.578v1.083H62.651a5.849,5.849,0,0,0-5.842,5.842V94.158A5.849,5.849,0,0,0,62.651,100h17.3a1.465,1.465,0,0,0,0-2.931h-17.3a2.915,2.915,0,0,1-2.912-2.911V16.292a2.915,2.915,0,0,1,2.912-2.911H64.6V87.5a4.616,4.616,0,0,0,4.611,4.611h43.148a1.775,1.775,0,0,0,1.006-.4l12.988-12.25a1.446,1.446,0,0,0,.133-.146,1.462,1.462,0,0,0,.321-.8c0-.016,0-.032,0-.048s0-.049,0-.073v-33.8a1.465,1.465,0,1,0-2.931,0V76.93h-8.378a4.616,4.616,0,0,0-4.61,4.61v7.64H69.214a1.682,1.682,0,0,1-1.68-1.68V13.38H78.482v2.23a2.581,2.581,0,0,0,2.578,2.578h29.3a2.581,2.581,0,0,0,2.578-2.578V13.38h10.948V37.789a1.465,1.465,0,1,0,2.931,0V13.38h1.952a2.915,2.915,0,0,1,2.911,2.911V94.158a2.915,2.915,0,0,1-2.911,2.911H86.723a1.465,1.465,0,0,0,0,2.931h42.046a5.849,5.849,0,0,0,5.842-5.842V16.292A5.849,5.849,0,0,0,128.769,10.449ZM113.828,81.54a1.682,1.682,0,0,1,1.68-1.68h6.154l-7.834,7.389Zm-3.82-66.282h-28.6V9.719h5.751a2.553,2.553,0,0,0,2.508-1.982,6.2,6.2,0,0,1,12.077,0,2.552,2.552,0,0,0,2.508,1.982h5.751v5.539Z"/>
      <path id="Path_147217" data-name="Path 147217" d="M303.345,219.664H289.531a1.465,1.465,0,1,0,0,2.931h13.814a1.465,1.465,0,1,0,0-2.931Z" transform="translate(-186.076 -176.748)"/>
      <path id="Path_147218" data-name="Path 147218" d="M303.345,248.506H289.531a1.465,1.465,0,1,0,0,2.931h13.814a1.465,1.465,0,1,0,0-2.931Z" transform="translate(-186.076 -199.955)"/>
      <path id="Path_147219" data-name="Path 147219" d="M182.657,301.977H139.538a1.465,1.465,0,1,0,0,2.931h43.118a1.465,1.465,0,0,0,0-2.931Z" transform="translate(-65.387 -242.979)"/>
      <path id="Path_147220" data-name="Path 147220" d="M182.657,330.937H139.538a1.465,1.465,0,1,0,0,2.931h43.118a1.465,1.465,0,0,0,0-2.931Z" transform="translate(-65.387 -266.281)"/>
      <path id="Path_147221" data-name="Path 147221" d="M184.122,361.362a1.465,1.465,0,0,0-1.465-1.465H139.538a1.465,1.465,0,1,0,0,2.931h43.118A1.465,1.465,0,0,0,184.122,361.362Z" transform="translate(-65.387 -289.583)"/>
      <path id="Path_147222" data-name="Path 147222" d="M139.538,388.857a1.465,1.465,0,1,0,0,2.931h28.079a1.465,1.465,0,1,0,0-2.931Z" transform="translate(-65.387 -312.885)"/>
      <path id="Path_147223" data-name="Path 147223" d="M302.447,152.229H290.428a2.365,2.365,0,0,0-2.363,2.361v5.644a2.365,2.365,0,0,0,2.363,2.361h12.019a2.364,2.364,0,0,0,2.363-2.361V154.59A2.364,2.364,0,0,0,302.447,152.229Zm-.568,7.436H291V155.16h10.884Z" transform="translate(-186.075 -122.488)"/>
      <path id="Path_147224" data-name="Path 147224" d="M145.572,188.548a8.031,8.031,0,0,0,8.031,8.031h6.188a8.031,8.031,0,0,0,8.031-8.031V177.275H145.572v11.273Z" transform="translate(-71.421 -142.641)" fill="#f6a96c"/>
      <path id="Path_147225" data-name="Path 147225" d="M211.953,177.273v11.274a8.031,8.031,0,0,1-8.031,8.031h-3.5a8.032,8.032,0,0,0,8.031-8.031V177.273Z" transform="translate(-115.554 -142.639)" fill="#ea9b58"/>
      <path id="Path_147226" data-name="Path 147226" d="M146.792,127.9l1.114.584a3.055,3.055,0,0,0,2.836,0l.868-.455a3.055,3.055,0,0,1,2.836,0l.868.455a3.055,3.055,0,0,0,2.836,0l.869-.455a3.055,3.055,0,0,1,2.836,0l.869.456a3.055,3.055,0,0,0,2.836,0l1.115-.585a.8.8,0,0,1,1.172.709V144.4a.264.264,0,0,1-.456.182,10.431,10.431,0,0,1-2.848-5.314.67.67,0,0,0-.817-.561c-.507.112-1.1.24-1.158.251a31.94,31.94,0,0,1-5.007.458l-.829-.008-.829.008a31.943,31.943,0,0,1-5.007-.458c-.063-.011-.651-.139-1.159-.251a.681.681,0,0,0-.818.572,10.44,10.44,0,0,1-2.847,5.3.264.264,0,0,1-.455-.183V128.611a.8.8,0,0,1,1.172-.709Z" transform="translate(-71.46 -102.736)" fill="#5a5a5a"/>
      <path id="Path_147227" data-name="Path 147227" d="M245.02,129.138v15.794a.265.265,0,0,1-.456.183,10.446,10.446,0,0,1-2.847-5.315.672.672,0,0,0-.19-.382V129.356a3.014,3.014,0,0,0,1.205-.343l1.116-.583A.8.8,0,0,1,245.02,129.138Z" transform="translate(-148.629 -103.264)" fill="#444"/>
      <path id="Path_147228" data-name="Path 147228" d="M163.244,122.577a2.266,2.266,0,0,0-3.318-2.007l-1.115.585a1.59,1.59,0,0,1-1.476,0l-.869-.456a4.522,4.522,0,0,0-4.2,0l-.869.455a1.589,1.589,0,0,1-1.476,0l-.868-.455a4.521,4.521,0,0,0-4.2,0l-.868.455a1.589,1.589,0,0,1-1.476,0l-1.115-.584a2.266,2.266,0,0,0-3.318,2.007l-.009,20.033a9.507,9.507,0,0,0,9.5,9.5h6.188a9.507,9.507,0,0,0,9.5-9.5Zm-22.231,1.1.141.074a4.521,4.521,0,0,0,4.2,0l.868-.455a1.589,1.589,0,0,1,1.476,0l.869.455a4.521,4.521,0,0,0,4.2,0l.869-.455a1.589,1.589,0,0,1,1.476,0l.869.456a4.521,4.521,0,0,0,4.2,0l.142-.074v10.756a6.165,6.165,0,0,1-.388-1.4,2.143,2.143,0,0,0-2.582-1.78c-.848.187-1.053.23-1.1.24a30.409,30.409,0,0,1-4.748.435l-.815-.007h-.027l-.815.007a30.4,30.4,0,0,1-4.748-.435c-.04-.008-.232-.048-1.1-.24a2.146,2.146,0,0,0-2.583,1.789,6.175,6.175,0,0,1-.387,1.4V123.676Zm12.744,25.5H147.57A6.573,6.573,0,0,1,141,142.609V139.62c.019-.018.039-.035.057-.054a12.306,12.306,0,0,0,3.077-5.287c.369.08.409.087.443.093a33.365,33.365,0,0,0,5.238.479h.029l.816-.007.816.007h.029a33.346,33.346,0,0,0,5.238-.479c.036-.006.073-.013.443-.093a12.31,12.31,0,0,0,3.076,5.286c.018.019.039.034.058.052v2.992a6.573,6.573,0,0,1-6.565,6.565Z" transform="translate(-65.388 -96.702)"/>
      <path id="Path_147229" data-name="Path 147229" d="M174.5,221.846a1.465,1.465,0,0,1-1.465-1.465v-1.6a1.465,1.465,0,1,1,2.931,0v1.6A1.465,1.465,0,0,1,174.5,221.846Z" transform="translate(-93.517 -174.857)"/>
      <path id="Path_147230" data-name="Path 147230" d="M218.459,221.846a1.465,1.465,0,0,1-1.465-1.465v-1.6a1.465,1.465,0,1,1,2.931,0v1.6A1.465,1.465,0,0,1,218.459,221.846Z" transform="translate(-128.889 -174.857)"/>
    </g>
  </g>
</svg>
