<svg xmlns="http://www.w3.org/2000/svg" width="125" height="125" viewBox="0 0 125 125">
  <g id="t3-ic2" transform="translate(-370 -3821)">
    <rect id="Rectangle_32208" data-name="Rectangle 32208" width="125" height="125" rx="16" transform="translate(370 3821)" fill="#ffd494"/>
    <g id="business-and-finance" transform="translate(390 3844)">
      <path id="Path_147353" data-name="Path 147353" d="M85.695,275.9h17.283l16.757,6.936a5.712,5.712,0,0,1,3.075,7.5l-.057.134a5.877,5.877,0,0,1-7.53,3.217c-4.755-1.834-10.992-4.232-10.992-4.232l16.058,6.173a18.248,18.248,0,0,0,10.622.755l16.451-3.767a5.521,5.521,0,0,1,2.592,10.733l-19.629,4.989a18.252,18.252,0,0,1-11.16-.7l-25.334-9.936H85.695Zm0,0" transform="translate(-71.61 -230.552)" fill="#ffd4be"/>
      <path id="Path_147354" data-name="Path 147354" d="M85.695,275.9h17.283l16.757,6.936a5.712,5.712,0,0,1,3.075,7.5l-.057.134a5.877,5.877,0,0,1-7.53,3.217c-4.755-1.834-10.992-4.232-10.992-4.232l16.058,6.173a18.248,18.248,0,0,0,10.622.755l16.451-3.767a5.521,5.521,0,0,1,2.592,10.733l-19.629,4.989a18.252,18.252,0,0,1-11.16-.7l-25.334-9.936H85.695Zm0,0" transform="translate(-71.61 -230.552)" fill="#ffd4be"/>
      <path id="Path_147355" data-name="Path 147355" d="M10,252.316H22.441v28.89H10Zm0,0" transform="translate(-8.357 -210.846)" fill="#d2e1f1"/>
      <path id="Path_147356" data-name="Path 147356" d="M142.622,166.871v19.7l-4.311-1.784H127.977V166.871Zm0,0" transform="translate(-106.943 -139.444)" fill="#ffd494"/>
      <path id="Path_147357" data-name="Path 147357" d="M231.739,101.37v37.2a5.7,5.7,0,0,0-2.2-1.617L217.094,131.8V101.32Zm0,0" transform="translate(-181.413 -84.667)" fill="#ff9800"/>
      <path id="Path_147358" data-name="Path 147358" d="M320.841,218.41v28.639l-5.67,1.3a18.249,18.249,0,0,1-8.976-.21v-4.323a5.927,5.927,0,0,0,.818-1.38l.056-.134a5.708,5.708,0,0,0-.874-5.888v-18Zm0,0" transform="translate(-255.87 -182.512)" fill="#ffb74d"/>
      <path id="Path_147359" data-name="Path 147359" d="M418.477,112.221a2.483,2.483,0,1,1-2.483-2.483A2.482,2.482,0,0,1,418.477,112.221Zm0,0" transform="translate(-345.548 -91.702)" fill="#98a1b3"/>
      <path id="Path_147360" data-name="Path 147360" d="M362.945,39.748a2.483,2.483,0,1,1-2.483-2.483A2.483,2.483,0,0,1,362.945,39.748Zm0,0" transform="translate(-299.143 -31.141)" fill="#98a1b3"/>
      <path id="Path_147361" data-name="Path 147361" d="M84,142.3a7.164,7.164,0,0,0-8.613-5.526l-8.771,2.008V135.2a34.646,34.646,0,0,0,4.894-5.8,33.991,33.991,0,0,0,4.8-11.316,34.672,34.672,0,0,0,.066-14.718,1.644,1.644,0,0,0-3.215.688,31.345,31.345,0,0,1-.06,13.312,30.718,30.718,0,0,1-4.342,10.225,29.264,29.264,0,0,1-2.148,2.835V112.209a1.643,1.643,0,0,0-1.644-1.644h-13V93.013a1.644,1.644,0,0,0-1.638-1.644L35.686,91.32h-.005a1.644,1.644,0,0,0-1.644,1.644v9.13h-13a1.644,1.644,0,0,0-1.644,1.644v16.276H15.728v-2.232a1.643,1.643,0,0,0-1.644-1.643H12.4a31.107,31.107,0,0,1,1.342-16.12c.306-.845.654-1.687,1.034-2.5a1.643,1.643,0,1,0-2.98-1.387c-.421.9-.806,1.835-1.144,2.77a34.346,34.346,0,0,0-1.587,17.24H1.643A1.643,1.643,0,0,0,0,117.782v28.89a1.643,1.643,0,0,0,1.644,1.644H14.084a1.643,1.643,0,0,0,1.644-1.644v-1.563h6.183l25.045,9.823a19.782,19.782,0,0,0,12.164.761l19.63-4.989A7.151,7.151,0,0,0,84,142.3Zm-20.671-28.45v25.685l-4.394,1.006c-.473.108-.95.193-1.43.26a16.685,16.685,0,0,1-5.511-.16l-.023-.005v-2.492a7.612,7.612,0,0,0,1.012-6.4,7.381,7.381,0,0,0-.774-1.723q-.113-.183-.235-.358l0-.005v-15.8H63.328Zm-26-19.239,11.358.038v32.394l-6.348-2.627-5.01-2.074ZM22.677,105.381H34.035v15.6L32,120.138a1.641,1.641,0,0,0-.629-.125H22.677ZM12.441,145.028H3.287v-25.6h9.154Zm65.5,2.49-19.63,4.989a16.518,16.518,0,0,1-10.154-.635l-25.334-9.937a1.641,1.641,0,0,0-.6-.113H15.728V123.3H31.041l10.634,4.4,5.819,2.409a4.111,4.111,0,0,1,2.2,5.326,4.7,4.7,0,0,1-.658,1.155,4.237,4.237,0,0,1-4.308,1.486l-.039-.01c-.1-.024-.189-.051-.283-.082l-11.059-4.251-.137-.053a1.644,1.644,0,1,0-1.179,3.068s6.235,2.4,10.99,4.231c.1.037.191.072.286.1l3.651,1.4a30.188,30.188,0,0,0,3.351,1.14,19.941,19.941,0,0,0,9.358.117l5.67-1.3.017-.005,10.764-2.464a3.877,3.877,0,0,1,1.82,7.537Zm0,0" transform="translate(0 -76.311)"/>
      <path id="Path_147362" data-name="Path 147362" d="M119.521,11.69a1.637,1.637,0,0,0,1.1-.424,30.885,30.885,0,0,1,22.821-7.913A30.828,30.828,0,0,1,152.4,5.305a1.643,1.643,0,1,0,1.17-3.071,34.106,34.106,0,0,0-9.915-2.16,34.175,34.175,0,0,0-25.239,8.753,1.644,1.644,0,0,0,1.1,2.863Zm0,0" transform="translate(-98.503)"/>
      <path id="Path_147363" data-name="Path 147363" d="M352.011,48.689a1.645,1.645,0,0,0,2.319-.162l13.522-15.566a1.643,1.643,0,0,0-2.481-2.156L351.849,46.371a1.643,1.643,0,0,0,.162,2.318Zm0,0" transform="translate(-293.683 -25.27)"/>
      <path id="Path_147364" data-name="Path 147364" d="M407.638,99.738a4.126,4.126,0,1,0,4.126,4.126A4.131,4.131,0,0,0,407.638,99.738Zm0,4.965a.839.839,0,1,1,.839-.839A.84.84,0,0,1,407.638,104.7Zm0,0" transform="translate(-337.191 -83.345)"/>
      <path id="Path_147365" data-name="Path 147365" d="M352.107,35.518a4.126,4.126,0,1,0-4.126-4.126A4.131,4.131,0,0,0,352.107,35.518Zm0-4.966a.839.839,0,1,1-.839.84A.84.84,0,0,1,352.107,30.552Zm0,0" transform="translate(-290.787 -22.784)"/>
      <path id="Path_147366" data-name="Path 147366" d="M91.7,83.094a1.643,1.643,0,1,0,.6-2,1.657,1.657,0,0,0-.6,2Zm0,0" transform="translate(-76.529 -67.541)"/>
    </g>
  </g>
</svg>
