<svg xmlns="http://www.w3.org/2000/svg" width="97.78" height="97.767" viewBox="0 0 97.78 97.767">
  <g id="t3-ic9" transform="translate(0 -0.5)">
    <path id="Path_147692" data-name="Path 147692" d="M96,187.156H14.519V128.488H8v65.187H47.666a3.338,3.338,0,0,1,3.1,1.907,4.888,4.888,0,0,0,9,0,3.338,3.338,0,0,1,3.1-1.907h39.666V128.488H96Zm0,0" transform="translate(-6.37 -101.916)" fill="#ffd494"/>
    <path id="Path_147693" data-name="Path 147693" d="M40,96.488h81.483v65.187H40Zm0,0" transform="translate(-31.851 -76.435)" fill="#fff"/>
    <path id="Path_147694" data-name="Path 147694" d="M72,176.488H98.075v19.556H72Zm0,0" transform="translate(-57.333 -140.138)" fill="#d2e1f1"/>
    <path id="Path_147695" data-name="Path 147695" d="M173.618,31.3a22.827,22.827,0,0,1-15.743,21.691L150.8,65.634,143.73,52.988A22.815,22.815,0,1,1,173.618,31.3Zm0,0" transform="translate(-101.912 -6.354)" fill="#ff9800"/>
    <path id="Path_147696" data-name="Path 147696" d="M272,312.488h27.7v13.037H272Zm0,0" transform="translate(-216.591 -248.434)" fill="#d2e1f1"/>
    <path id="Path_147697" data-name="Path 147697" d="M224,112.488h6.519v16.3H224Zm0,0" transform="translate(-178.369 -89.175)" fill="#fff"/>
    <path id="Path_147698" data-name="Path 147698" d="M230.519,59.748a3.259,3.259,0,1,1-3.259-3.259A3.26,3.26,0,0,1,230.519,59.748Zm0,0" transform="translate(-178.369 -44.583)" fill="#fff"/>
    <path id="Path_147699" data-name="Path 147699" d="M40,216.488V257.23H77.482C56.765,257.23,40,239.007,40,216.488Zm0,0" transform="translate(-31.851 -171.99)" fill="#e8e8e8"/>
    <g id="Group_84286" data-name="Group 84286" transform="translate(0 0.5)">
      <path id="Path_147700" data-name="Path 147700" d="M91.262,24.942V18.424H72.426a24.414,24.414,0,0,0-47.071,0H6.519v6.519H0V93.389H41.3a1.714,1.714,0,0,1,1.592.9,6.518,6.518,0,0,0,11.994.021,1.719,1.719,0,0,1,1.6-.924h41.3V24.942ZM48.89,3.757a21.186,21.186,0,0,1,6.567,41.327l-.606.2L48.89,55.94l-5.962-10.66-.606-.2A21.186,21.186,0,0,1,48.89,3.757ZM9.778,21.683h14.91A24.213,24.213,0,0,0,40.7,47.975L48.89,62.619l8.189-14.644A24.213,24.213,0,0,0,73.093,21.683H88V83.61H50.52V65.684H47.261V83.61H9.778ZM94.521,90.129H56.485a4.956,4.956,0,0,0-4.6,2.911,3.259,3.259,0,0,1-5.994-.023A4.947,4.947,0,0,0,41.3,90.129H3.26V28.2H6.519V86.87H91.262V28.2h3.259Zm0,0" transform="translate(0 -0.5)" fill="#231f20"/>
      <path id="Path_147701" data-name="Path 147701" d="M91.7,188.044H67.259v-16.3h8.148v-3.259H64V191.3H91.7Zm0,0" transform="translate(-50.963 -134.267)" fill="#231f20"/>
      <path id="Path_147702" data-name="Path 147702" d="M64,296.488h3.259v3.259H64Zm0,0" transform="translate(-50.963 -236.193)" fill="#231f20"/>
      <path id="Path_147703" data-name="Path 147703" d="M96,296.488h22.815v3.259H96Zm0,0" transform="translate(-76.444 -236.193)" fill="#231f20"/>
      <path id="Path_147704" data-name="Path 147704" d="M64,328.488h3.259v3.259H64Zm0,0" transform="translate(-50.963 -261.674)" fill="#231f20"/>
      <path id="Path_147705" data-name="Path 147705" d="M96,328.488h22.815v3.259H96Zm0,0" transform="translate(-76.444 -261.674)" fill="#231f20"/>
      <path id="Path_147706" data-name="Path 147706" d="M64,360.488h3.259v3.259H64Zm0,0" transform="translate(-50.963 -287.155)" fill="#231f20"/>
      <path id="Path_147707" data-name="Path 147707" d="M96,360.488h22.815v3.259H96Zm0,0" transform="translate(-76.444 -287.155)" fill="#231f20"/>
      <path id="Path_147708" data-name="Path 147708" d="M294.964,304.488H264v16.3h30.964ZM291.7,317.525H267.259v-9.778H291.7Zm0,0" transform="translate(-210.221 -242.563)" fill="#231f20"/>
      <path id="Path_147709" data-name="Path 147709" d="M304,272.488h22.815v3.259H304Zm0,0" transform="translate(-242.073 -217.082)" fill="#231f20"/>
      <path id="Path_147710" data-name="Path 147710" d="M304,240.488h22.815v3.259H304Zm0,0" transform="translate(-242.073 -191.6)" fill="#231f20"/>
      <path id="Path_147711" data-name="Path 147711" d="M344,208.488h14.667v3.259H344Zm0,0" transform="translate(-273.924 -166.119)" fill="#231f20"/>
      <path id="Path_147712" data-name="Path 147712" d="M360,176.488h11.408v3.259H360Zm0,0" transform="translate(-286.665 -140.638)" fill="#231f20"/>
      <path id="Path_147713" data-name="Path 147713" d="M225.778,104.488H216v19.556h9.778Zm-3.259,16.3h-3.259V107.747h3.259Zm0,0" transform="translate(-171.999 -83.305)" fill="#231f20"/>
      <path id="Path_147714" data-name="Path 147714" d="M220.889,58.266A4.889,4.889,0,1,0,216,53.377,4.889,4.889,0,0,0,220.889,58.266Zm0-6.519a1.63,1.63,0,1,1-1.63,1.63A1.63,1.63,0,0,1,220.889,51.748Zm0,0" transform="translate(-171.999 -38.713)" fill="#231f20"/>
    </g>
  </g>
</svg>
