<svg xmlns="http://www.w3.org/2000/svg" width="400" height="290" viewBox="0 0 400 290">
  <g id="t4-i6" transform="translate(-390 -1970)">
    <rect id="Rectangle_32671" data-name="Rectangle 32671" width="400" height="290" rx="20" transform="translate(390 1970)" fill="#fff1db"/>
    <path id="Path_152387" data-name="Path 152387" d="M113.779,13.6a1.268,1.268,0,0,0-.479-1.055,5.954,5.954,0,0,0-1.683-.782,16.147,16.147,0,0,1-1.969-.782q-2.487-1.222-2.487-3.357a3.011,3.011,0,0,1,.62-1.876,4.008,4.008,0,0,1,1.753-1.266,6.823,6.823,0,0,1,2.549-.453,5.969,5.969,0,0,1,2.474.492,3.917,3.917,0,0,1,1.7,1.4A3.661,3.661,0,0,1,116.864,8h-3.076a1.547,1.547,0,0,0-.479-1.213,1.867,1.867,0,0,0-1.3-.431,2.106,2.106,0,0,0-1.305.365,1.074,1.074,0,0,0,.048,1.819,6.65,6.65,0,0,0,1.854.826,11.36,11.36,0,0,1,2.18.918,3.663,3.663,0,0,1,2.074,3.3,3.125,3.125,0,0,1-1.266,2.637,5.629,5.629,0,0,1-3.472.958,6.888,6.888,0,0,1-2.817-.558,4.247,4.247,0,0,1-1.9-1.529,3.985,3.985,0,0,1-.637-2.237h3.094a1.963,1.963,0,0,0,.532,1.516,2.513,2.513,0,0,0,1.727.488,1.985,1.985,0,0,0,1.208-.33A1.088,1.088,0,0,0,113.779,13.6Zm10.2,2.373a3.054,3.054,0,0,1-2.54,1.2,3,3,0,0,1-2.369-.91,3.826,3.826,0,0,1-.8-2.615V7.49h2.962v6.179a1.065,1.065,0,0,0,1.187,1.222,1.548,1.548,0,0,0,1.45-.729V7.49h2.979V17h-2.777Zm4.14-3.8a6.421,6.421,0,0,1,.475-2.549,3.821,3.821,0,0,1,1.362-1.709,3.591,3.591,0,0,1,2.065-.6,2.855,2.855,0,0,1,2.32,1l.105-.826h2.689V16.64a4.009,4.009,0,0,1-.584,2.184,3.75,3.75,0,0,1-1.692,1.424,6.219,6.219,0,0,1-2.566.5,5.365,5.365,0,0,1-2.026-.4,3.657,3.657,0,0,1-1.5-1.028L130,17.58a2.716,2.716,0,0,0,2.18.976,1.764,1.764,0,0,0,1.969-2.021v-.3a2.781,2.781,0,0,1-2.153.94,3.437,3.437,0,0,1-2.812-1.332,5.517,5.517,0,0,1-1.072-3.564Zm2.971.185a3.383,3.383,0,0,0,.439,1.85,1.387,1.387,0,0,0,1.23.681,1.573,1.573,0,0,0,1.4-.642v-4a1.534,1.534,0,0,0-1.38-.65,1.4,1.4,0,0,0-1.239.708A3.858,3.858,0,0,0,131.085,12.359Zm12.331,4.816a4.889,4.889,0,0,1-3.542-1.305,4.507,4.507,0,0,1-1.354-3.4v-.246a5.84,5.84,0,0,1,.541-2.575,3.955,3.955,0,0,1,1.578-1.727,4.763,4.763,0,0,1,2.461-.611,4.117,4.117,0,0,1,3.164,1.244,4.887,4.887,0,0,1,1.16,3.467v1.151h-5.889a2.135,2.135,0,0,0,.694,1.257,2.066,2.066,0,0,0,1.389.457,2.662,2.662,0,0,0,2.2-.984l1.354,1.6a3.784,3.784,0,0,1-1.569,1.217A5.3,5.3,0,0,1,143.416,17.176ZM143.082,9.6q-1.3,0-1.547,1.723h2.988v-.229a1.467,1.467,0,0,0-.36-1.1A1.434,1.434,0,0,0,143.082,9.6Zm11.285.571-.976-.07a1.752,1.752,0,0,0-1.793.879V17h-2.962V7.49h2.777l.1,1.222a2.294,2.294,0,0,1,2.083-1.4,2.888,2.888,0,0,1,.826.105Zm5.5,7a4.889,4.889,0,0,1-3.542-1.305,4.507,4.507,0,0,1-1.354-3.4v-.246a5.84,5.84,0,0,1,.541-2.575,3.955,3.955,0,0,1,1.578-1.727,4.763,4.763,0,0,1,2.461-.611,4.117,4.117,0,0,1,3.164,1.244,4.887,4.887,0,0,1,1.16,3.467v1.151h-5.889a2.135,2.135,0,0,0,.694,1.257,2.066,2.066,0,0,0,1.389.457,2.662,2.662,0,0,0,2.2-.984l1.354,1.6a3.784,3.784,0,0,1-1.569,1.217A5.3,5.3,0,0,1,159.869,17.176ZM159.535,9.6q-1.3,0-1.547,1.723h2.988v-.229a1.467,1.467,0,0,0-.36-1.1A1.434,1.434,0,0,0,159.535,9.6Zm8.253-2.109.1,1.116A3.225,3.225,0,0,1,170.6,7.314a2.713,2.713,0,0,1,2.219.888,4.226,4.226,0,0,1,.76,2.672V17h-2.971V11a1.6,1.6,0,0,0-.29-1.059,1.342,1.342,0,0,0-1.055-.338,1.413,1.413,0,0,0-1.292.686V17h-2.962V7.49Zm11.452,7.4a1.317,1.317,0,0,0,.967-.338,1.241,1.241,0,0,0,.334-.945h2.777a3.288,3.288,0,0,1-1.121,2.566,4.168,4.168,0,0,1-2.887,1,4.22,4.22,0,0,1-3.27-1.3,5.125,5.125,0,0,1-1.2-3.6v-.123a5.792,5.792,0,0,1,.532-2.544,3.872,3.872,0,0,1,1.534-1.7,4.573,4.573,0,0,1,2.373-.593,4.116,4.116,0,0,1,2.944,1.028,3.647,3.647,0,0,1,1.09,2.786h-2.777a1.626,1.626,0,0,0-.36-1.134,1.244,1.244,0,0,0-.967-.4q-1.151,0-1.345,1.468a10.357,10.357,0,0,0-.062,1.283,4.068,4.068,0,0,0,.343,1.986A1.187,1.187,0,0,0,179.24,14.891ZM187.7,17h-2.971V7.49H187.7ZM184.549,5.029a1.334,1.334,0,0,1,.457-1.043,1.934,1.934,0,0,1,2.373,0,1.334,1.334,0,0,1,.457,1.043,1.334,1.334,0,0,1-.457,1.043,1.934,1.934,0,0,1-2.373,0A1.334,1.334,0,0,1,184.549,5.029ZM194.876,17a3.344,3.344,0,0,1-.281-.853,2.754,2.754,0,0,1-2.285,1.028,3.374,3.374,0,0,1-2.285-.813,2.588,2.588,0,0,1-.94-2.043,2.66,2.66,0,0,1,1.143-2.338,5.821,5.821,0,0,1,3.322-.791h.914v-.5q0-1.316-1.134-1.316a.927.927,0,0,0-1.055,1.042h-2.962a2.655,2.655,0,0,1,1.173-2.239,4.931,4.931,0,0,1,2.993-.86,4.323,4.323,0,0,1,2.874.888,3.086,3.086,0,0,1,1.081,2.435v4.21a4.311,4.311,0,0,0,.4,2V17Zm-1.854-1.934a1.652,1.652,0,0,0,.918-.237,1.487,1.487,0,0,0,.523-.536V12.772H193.6q-1.547,0-1.547,1.389a.848.848,0,0,0,.272.655A.986.986,0,0,0,193.021,15.066Zm11.03-.738a.684.684,0,0,0-.4-.606,6.016,6.016,0,0,0-1.5-.475,6.853,6.853,0,0,1-1.828-.646,3.062,3.062,0,0,1-1.1-.971,2.319,2.319,0,0,1-.378-1.31,2.628,2.628,0,0,1,1.081-2.158,4.453,4.453,0,0,1,2.83-.848,4.934,4.934,0,0,1,3.023.853,2.666,2.666,0,0,1,1.143,2.241h-2.971q0-1.143-1.2-1.143a1.194,1.194,0,0,0-.782.259.8.8,0,0,0-.316.646.737.737,0,0,0,.387.642,3.654,3.654,0,0,0,1.235.4,10.671,10.671,0,0,1,1.49.378,2.706,2.706,0,0,1,2.145,2.646,2.491,2.491,0,0,1-1.156,2.118,5.068,5.068,0,0,1-2.993.817,5.172,5.172,0,0,1-2.18-.439,3.645,3.645,0,0,1-1.494-1.2,2.707,2.707,0,0,1-.536-1.591h2.769a1.145,1.145,0,0,0,.439.962,1.808,1.808,0,0,0,1.081.3,1.422,1.422,0,0,0,.91-.246A.787.787,0,0,0,204.052,14.328Z" transform="translate(433 2194)" fill="#12263f"/>
    <g id="contrato" transform="translate(518.735 2022)">
      <g id="Group_97146" data-name="Group 97146" transform="translate(17.023 1.758)">
        <path id="Path_152308" data-name="Path 152308" d="M411.909,74.09l-2.344,10.39v40.06l.469,8.632c0,2.4.975,2.117,3.04,3.021a5.764,5.764,0,0,0,2.344.254c3.233,0,3.509-.042,3.509-3.275V74.09Z" transform="translate(-318.909 -58.483)" fill="#ff9800"/>
        <path id="Path_152309" data-name="Path 152309" d="M426.883,51.117a5.831,5.831,0,0,0-2.344.49,5.22,5.22,0,0,1,3.509,4.895v59.082a5.528,5.528,0,0,1-3.509,5.129,5.831,5.831,0,0,0,2.344.49c3.232,0,3.509-2.386,3.509-5.619l2.344-8.632V65.133L430.392,56.5C430.392,53.269,430.115,51.117,426.883,51.117Z" transform="translate(-330.373 -40.894)" fill="#df8500"/>
        <path id="Path_152310" data-name="Path 152310" d="M416.585,64.353l2.344-8.632c0-3.232-.277-5.619-3.509-5.619a5.76,5.76,0,0,0-2.344.254,5.855,5.855,0,0,0-3.509,5.365V62.6Z" transform="translate(-318.909 -40.114)" fill="#f9f6f9"/>
        <path id="Path_152311" data-name="Path 152311" d="M432.736,63.6V54.97a5.853,5.853,0,0,0-8.2-5.363,5.853,5.853,0,0,1,3.509,5.363V63.6Z" transform="translate(-330.373 -39.363)" fill="#dedbec"/>
        <path id="Path_152312" data-name="Path 152312" d="M103.578,113.606,34.016,123.984a11.251,11.251,0,0,1-11.251-11.251V9.844A2.344,2.344,0,0,1,25.109,7.5h76.125a2.344,2.344,0,0,1,2.344,2.344Z" transform="translate(-22.765 -7.5)" fill="#f9f6f9"/>
        <path id="Path_152313" data-name="Path 152313" d="M346.6,7.5h-7.031a2.344,2.344,0,0,1,2.344,2.344V123.984h7.031V9.844A2.344,2.344,0,0,0,346.6,7.5Z" transform="translate(-265.315 -7.5)" fill="#dedbec"/>
        <path id="Path_152314" data-name="Path 152314" d="M84.364,408.1a2.344,2.344,0,0,0-2.344,2.344v8.907a11.25,11.25,0,0,1-11.2,11.25l-.047.094H152.05A11.251,11.251,0,0,0,163.3,419.439v-9a2.344,2.344,0,0,0-2.344-2.344H84.364Z" transform="translate(-59.518 -314.206)" fill="#ffb74d"/>
        <path id="Path_152315" data-name="Path 152315" d="M413.507,408.1h-7.031a2.344,2.344,0,0,1,2.344,2.344v9a11.251,11.251,0,0,1-11.251,11.251H404.6a11.251,11.251,0,0,0,11.251-11.251v-9A2.344,2.344,0,0,0,413.507,408.1Z" transform="translate(-309.724 -314.206)" fill="#ff9800"/>
        <path id="Path_152316" data-name="Path 152316" d="M409.565,289.344v8.632a5.855,5.855,0,0,0,3.509,5.365,4.68,4.68,0,0,0,2.11.254h.234c3.233,0,3.509-2.386,3.509-5.619l-2.344-8.632h-7.019Z" transform="translate(-318.909 -223.287)" fill="#f9f6f9"/>
        <path id="Path_152317" data-name="Path 152317" d="M428.048,289.344v8.632a5.853,5.853,0,0,1-3.509,5.363,5.853,5.853,0,0,0,8.2-5.363v-8.632Z" transform="translate(-330.373 -223.287)" fill="#dedbec"/>
      </g>
      <g id="Group_97147" data-name="Group 97147" transform="translate(15.265)">
        <path id="Path_152318" data-name="Path 152318" d="M80.232,68.152h54a1.758,1.758,0,0,0,0-3.516h-54a1.758,1.758,0,0,0,0,3.516Z" transform="translate(-63.659 -49.487)"/>
        <path id="Path_152319" data-name="Path 152319" d="M80.232,138.878h54a1.758,1.758,0,0,0,0-3.516h-54a1.758,1.758,0,0,0,0,3.516Z" transform="translate(-63.659 -103.637)"/>
        <path id="Path_152320" data-name="Path 152320" d="M80.232,209.6h54a1.758,1.758,0,0,0,0-3.516h-54a1.758,1.758,0,0,0,0,3.516Z" transform="translate(-63.659 -157.785)"/>
        <path id="Path_152321" data-name="Path 152321" d="M80.232,280.33h54a1.758,1.758,0,0,0,0-3.516h-54a1.758,1.758,0,0,0,0,3.516Z" transform="translate(-63.659 -211.936)"/>
        <path id="Path_152322" data-name="Path 152322" d="M80.232,342.22h9.037a1.758,1.758,0,0,0,0-3.516H80.232a1.758,1.758,0,0,0,0,3.516Z" transform="translate(-63.659 -259.32)"/>
        <path id="Path_152323" data-name="Path 152323" d="M187.982,323.988a1.758,1.758,0,0,0-2.631.694l-1.72,3.773-4.2-4.152a1.759,1.759,0,0,0-2.022-.322l-15.879,7.943a1.758,1.758,0,1,0,1.573,3.144l14.752-7.38,5.1,5.037a1.758,1.758,0,0,0,2.835-.521l1.874-4.11,8.382,6.071a1.758,1.758,0,1,0,2.062-2.847Z" transform="translate(-126.504 -247.798)"/>
        <path id="Path_152324" data-name="Path 152324" d="M420.152,56.1h-2.865V49.228a7.611,7.611,0,0,0-15.222,0V108.31a7.623,7.623,0,0,0,5.853,7.4v4.765a1.758,1.758,0,0,0,3.516,0v-4.765a7.623,7.623,0,0,0,5.853-7.4V94.323a1.758,1.758,0,0,0-3.516,0v3.6h-8.191v-38.3h8.191V86.662a1.758,1.758,0,0,0,3.516,0V59.618h2.865a.587.587,0,0,1,.586.586V80.544a1.758,1.758,0,0,0,3.516,0V60.2A4.106,4.106,0,0,0,420.152,56.1Zm-6.38,45.334v6.874a4.1,4.1,0,0,1-8.191,0v-6.874ZM405.581,56.1V49.228a4.1,4.1,0,0,1,8.191,0V56.1Z" transform="translate(-311.409 -31.863)"/>
        <path id="Path_152325" data-name="Path 152325" d="M120.806,93.889h-18.4V4.1A4.106,4.106,0,0,0,98.3,0H19.367a4.106,4.106,0,0,0-4.1,4.1V46.609a1.758,1.758,0,1,0,3.516,0V4.1a.587.587,0,0,1,.586-.586H98.3a.587.587,0,0,1,.586.586V93.889H75.518a1.758,1.758,0,0,0,0,3.516h45.288a.587.587,0,0,1,.586.586v9a9.5,9.5,0,0,1-9.493,9.493H37.051a12.98,12.98,0,0,0,4.231-9.586V97.991a.587.587,0,0,1,.586-.586H67.857a1.758,1.758,0,0,0,0-3.516H41.868a4.106,4.106,0,0,0-4.1,4.1V106.9a9.493,9.493,0,0,1-18.986.093V54.269a1.758,1.758,0,1,0-3.516,0v52.722A13.023,13.023,0,0,0,28.274,120H111.9a13.023,13.023,0,0,0,13.009-13.009v-9A4.106,4.106,0,0,0,120.806,93.889Z" transform="translate(-15.265)"/>
      </g>
    </g>
  </g>
</svg>
