<svg xmlns="http://www.w3.org/2000/svg" width="400" height="290" viewBox="0 0 400 290">
  <g id="t4-i5" transform="translate(-1020 -1638)">
    <rect id="Rectangle_32667" data-name="Rectangle 32667" width="400" height="290" rx="20" transform="translate(1020 1638)" fill="#fff1db"/>
    <path id="Path_152386" data-name="Path 152386" d="M122.445,12.474h-1.67V17H117.69V4.2h5.036a5.621,5.621,0,0,1,3.56,1.01,3.421,3.421,0,0,1,1.283,2.853,4.155,4.155,0,0,1-.541,2.213,3.837,3.837,0,0,1-1.692,1.422l2.672,5.167V17h-3.3Zm-1.67-2.373h1.951a1.751,1.751,0,0,0,1.323-.463,1.788,1.788,0,0,0,.444-1.291,1.809,1.809,0,0,0-.448-1.3,1.735,1.735,0,0,0-1.318-.471h-1.951ZM133.9,17.176a4.889,4.889,0,0,1-3.542-1.305,4.507,4.507,0,0,1-1.354-3.4v-.246a5.84,5.84,0,0,1,.541-2.575,3.955,3.955,0,0,1,1.578-1.727,4.763,4.763,0,0,1,2.461-.611,4.117,4.117,0,0,1,3.164,1.244,4.887,4.887,0,0,1,1.16,3.467v1.151h-5.889a2.135,2.135,0,0,0,.694,1.257,2.066,2.066,0,0,0,1.389.457,2.662,2.662,0,0,0,2.2-.984l1.354,1.6a3.784,3.784,0,0,1-1.569,1.217A5.3,5.3,0,0,1,133.9,17.176ZM133.563,9.6q-1.3,0-1.547,1.723H135v-.229a1.467,1.467,0,0,0-.36-1.1A1.434,1.434,0,0,0,133.563,9.6Zm9.554,5.291a1.317,1.317,0,0,0,.967-.338,1.241,1.241,0,0,0,.334-.945H147.2a3.288,3.288,0,0,1-1.121,2.566,4.168,4.168,0,0,1-2.887,1,4.22,4.22,0,0,1-3.27-1.3,5.125,5.125,0,0,1-1.2-3.6v-.123a5.792,5.792,0,0,1,.532-2.544,3.872,3.872,0,0,1,1.534-1.7,4.573,4.573,0,0,1,2.373-.593,4.116,4.116,0,0,1,2.944,1.028,3.647,3.647,0,0,1,1.09,2.786h-2.777a1.626,1.626,0,0,0-.36-1.134,1.244,1.244,0,0,0-.967-.4q-1.151,0-1.345,1.468a10.357,10.357,0,0,0-.062,1.283,4.068,4.068,0,0,0,.343,1.986A1.187,1.187,0,0,0,143.117,14.891ZM151.572,17H148.6V3.5h2.971Zm7.181,0a3.344,3.344,0,0,1-.281-.853,2.754,2.754,0,0,1-2.285,1.028,3.374,3.374,0,0,1-2.285-.813,2.588,2.588,0,0,1-.94-2.043,2.66,2.66,0,0,1,1.143-2.338,5.821,5.821,0,0,1,3.322-.791h.914v-.5q0-1.316-1.134-1.316a.927.927,0,0,0-1.055,1.042h-2.962a2.655,2.655,0,0,1,1.173-2.239,4.931,4.931,0,0,1,2.993-.86,4.323,4.323,0,0,1,2.874.888,3.086,3.086,0,0,1,1.081,2.435v4.21a4.311,4.311,0,0,0,.4,2V17ZM156.9,15.066a1.652,1.652,0,0,0,.918-.237,1.487,1.487,0,0,0,.523-.536V12.772h-.861q-1.547,0-1.547,1.389a.848.848,0,0,0,.272.655A.986.986,0,0,0,156.9,15.066Zm8.851-7.576.1,1.116a3.27,3.27,0,0,1,2.716-1.292A2.407,2.407,0,0,1,171,8.747a3.165,3.165,0,0,1,2.795-1.433q2.892,0,2.971,3.5V17h-2.971V11a1.813,1.813,0,0,0-.246-1.063,1.048,1.048,0,0,0-.9-.334,1.4,1.4,0,0,0-1.31.782l.009.123V17h-2.971V11.015a1.906,1.906,0,0,0-.237-1.081,1.045,1.045,0,0,0-.905-.334,1.42,1.42,0,0,0-1.3.782V17h-2.962V7.49Zm12.331,4.667a5.613,5.613,0,0,1,.554-2.536,3.96,3.96,0,0,1,1.591-1.709,4.791,4.791,0,0,1,2.435-.6,4.373,4.373,0,0,1,3.366,1.323,5.076,5.076,0,0,1,1.23,3.6v.105a4.925,4.925,0,0,1-1.235,3.529,4.384,4.384,0,0,1-3.344,1.305,4.434,4.434,0,0,1-3.261-1.217,4.761,4.761,0,0,1-1.327-3.3Zm2.962.185a3.538,3.538,0,0,0,.413,1.934,1.376,1.376,0,0,0,1.222.615q1.582,0,1.617-2.435v-.3q0-2.558-1.635-2.558-1.485,0-1.608,2.206Zm12.5,1.986a.684.684,0,0,0-.4-.606,6.016,6.016,0,0,0-1.5-.475,6.853,6.853,0,0,1-1.828-.646,3.062,3.062,0,0,1-1.1-.971,2.319,2.319,0,0,1-.378-1.31,2.628,2.628,0,0,1,1.081-2.158,4.453,4.453,0,0,1,2.83-.848,4.934,4.934,0,0,1,3.023.853,2.666,2.666,0,0,1,1.143,2.241h-2.971q0-1.143-1.2-1.143a1.194,1.194,0,0,0-.782.259.8.8,0,0,0-.316.646.737.737,0,0,0,.387.642,3.654,3.654,0,0,0,1.235.4,10.671,10.671,0,0,1,1.49.378A2.706,2.706,0,0,1,196.4,14.24a2.491,2.491,0,0,1-1.156,2.118,5.068,5.068,0,0,1-2.993.817,5.172,5.172,0,0,1-2.18-.439,3.645,3.645,0,0,1-1.494-1.2,2.707,2.707,0,0,1-.536-1.591h2.769a1.145,1.145,0,0,0,.439.962,1.808,1.808,0,0,0,1.081.3,1.422,1.422,0,0,0,.91-.246A.787.787,0,0,0,193.54,14.328Z" transform="translate(1063 1862)" fill="#12263f"/>
    <g id="llamar" transform="translate(1154.963 1690)">
      <g id="Group_97154" data-name="Group 97154" transform="translate(1.76 1.761)">
        <path id="Path_152343" data-name="Path 152343" d="M62.344,152.655a5.862,5.862,0,0,0,6.891.808l8.217-4.667a3.908,3.908,0,0,1,3.9.02l23.035,11.333a3.908,3.908,0,0,1,1.523,5.139l-1.178,3.262-4.336,8.588A9.778,9.778,0,0,1,88.2,181.87c-24.592-9.292-47.324-32.735-47.324-32.735S17.435,126.4,8.143,101.81a9.778,9.778,0,0,1,4.733-12.189l8.588-4.336,3.027-.944a3.908,3.908,0,0,1,5.139,1.523l11.567,22.8a3.908,3.908,0,0,1,.02,3.9l-4.667,8.217a5.862,5.862,0,0,0,.808,6.891Z" transform="translate(-7.508 -66.027)" fill="#f5e878"/>
        <path id="Path_152344" data-name="Path 152344" d="M305.6,56.791c11.3-11.3,11.122-28.641-.059-40.012-6.554-6.665-14.9-9.957-23.557-8.916a29.036,29.036,0,0,0-22.143,42.52,2.509,2.509,0,0,1,.208,1.831l-3.073,11.467a1.261,1.261,0,0,0,1.545,1.544l11.467-3.073a2.515,2.515,0,0,1,1.835.211,29.008,29.008,0,0,0,10.165,3.2C290.554,66.6,299.025,63.366,305.6,56.791Z" transform="translate(-198.07 -7.655)" fill="#ffb74d"/>
        <g id="Group_97152" data-name="Group 97152" transform="translate(83.914)">
          <path id="Path_152345" data-name="Path 152345" d="M389.7,16.248A29.084,29.084,0,0,0,365.444,7.8a29.058,29.058,0,0,1,0,57.694A29.076,29.076,0,0,0,389.7,16.248Z" transform="translate(-365.444 -7.592)" fill="#ff9800"/>
        </g>
        <path id="Path_152346" data-name="Path 152346" d="M150.421,157.852l-23.5-13.677a3.908,3.908,0,0,0-3.9-.02l-8.217,4.667a5.862,5.862,0,0,1-6.891-.808L85.271,125.372a5.862,5.862,0,0,1-.808-6.891l4.667-8.217a3.908,3.908,0,0,0-.02-3.9l-13.677-23.5a3.908,3.908,0,0,0-5.139-1.523l-3.262,1.647A4.149,4.149,0,0,1,68.7,84.581L83.29,109.658a4.169,4.169,0,0,1,.022,4.157l-4.98,8.767a6.255,6.255,0,0,0,.862,7.353l24.158,24.157a6.254,6.254,0,0,0,7.352.862l8.767-4.98a4.17,4.17,0,0,1,4.157.022L148.7,164.587a4.151,4.151,0,0,1,1.593,1.665l1.647-3.262a3.908,3.908,0,0,0-1.523-5.139Z" transform="translate(-53.078 -63.73)" fill="#e4cf44"/>
      </g>
      <g id="Group_97155" data-name="Group 97155" transform="translate(0 0)">
        <path id="Path_152349" data-name="Path 152349" d="M374.734,90.98a1.758,1.758,0,0,0,1.758-1.758V70.383a1.758,1.758,0,1,0-3.517,0V89.222A1.758,1.758,0,0,0,374.734,90.98Z" transform="translate(-285.536 -52.555)"/>
        <path id="Path_152350" data-name="Path 152350" d="M372.976,181.216a1.758,1.758,0,1,0,1.758-1.758A1.758,1.758,0,0,0,372.976,181.216Z" transform="translate(-285.536 -137.404)"/>
        <path id="Path_152353" data-name="Path 152353" d="M154.8,303.065l-8.366-4.868a1.758,1.758,0,1,0-1.769,3.039l8.366,4.868a2.152,2.152,0,0,1,.838,2.827l-5.983,11.849a8.007,8.007,0,0,1-10,3.88c-23.929-9.041-46.459-32.083-46.684-32.315l-.038-.038a177.928,177.928,0,0,1-16.4-19.012,1.758,1.758,0,1,0-2.816,2.106A182.492,182.492,0,0,0,88.7,294.812a172.575,172.575,0,0,0,14.585,13.013c8.089,6.487,20.443,15.244,33.362,20.125a11.518,11.518,0,0,0,14.381-5.585l5.983-11.849A5.673,5.673,0,0,0,154.8,303.065Z" transform="translate(-54.811 -208.703)"/>
        <path id="Path_152354" data-name="Path 152354" d="M4.042,93.15a8.007,8.007,0,0,1,3.881-10l11.849-5.983a2.153,2.153,0,0,1,2.827.838l13.677,23.5a2.157,2.157,0,0,1,.011,2.143L31.62,111.87a7.589,7.589,0,0,0,1.05,8.958l.043.045,22.642,22.642.045.043a7.59,7.59,0,0,0,8.958,1.05l8.217-4.667a2.157,2.157,0,0,1,2.143.011l8.474,4.931a1.758,1.758,0,0,0,1.769-3.04l-8.474-4.931a5.685,5.685,0,0,0-5.649-.03l-8.217,4.667a4.087,4.087,0,0,1-4.8-.546L35.224,118.41a4.087,4.087,0,0,1-.546-4.8l4.667-8.217a5.686,5.686,0,0,0-.03-5.649l-13.678-23.5a5.673,5.673,0,0,0-7.452-2.208L6.338,80.013A11.516,11.516,0,0,0,.753,94.394a109.548,109.548,0,0,0,11.9,22.236,1.758,1.758,0,1,0,2.913-1.97A106.062,106.062,0,0,1,4.042,93.15Z" transform="translate(-0.001 -56.228)"/>
        <path id="Path_152355" data-name="Path 152355" d="M302.718,9.262A30.624,30.624,0,0,0,280.934.08h-.22A30.771,30.771,0,0,0,250.2,26.472a1.758,1.758,0,0,0,3.481.5A27.323,27.323,0,1,1,300.045,50.2a27.079,27.079,0,0,1-15.478,7.732A27.547,27.547,0,0,1,267.87,55a4.258,4.258,0,0,0-3.118-.358l-10.635,2.85,2.85-10.635a4.251,4.251,0,0,0-.356-3.114,27.164,27.164,0,0,1-2.933-8.986,1.758,1.758,0,1,0-3.481.5A30.668,30.668,0,0,0,253.509,45.4a.746.746,0,0,1,.061.547L250.5,57.411a3.019,3.019,0,0,0,3.7,3.7l11.467-3.073a.757.757,0,0,1,.552.064,31.058,31.058,0,0,0,14.563,3.615A30.835,30.835,0,0,0,302.718,9.262Z" transform="translate(-191.527 -0.079)"/>
      </g>
    </g>
  </g>
</svg>
