<svg xmlns="http://www.w3.org/2000/svg" width="400" height="290" viewBox="0 0 400 290">
  <g id="t4-i4" transform="translate(-600 -1638)">
    <rect id="Rectangle_32668" data-name="Rectangle 32668" width="400" height="290" rx="20" transform="translate(600 1638)" fill="#fff1db"/>
    <path id="Path_152385" data-name="Path 152385" d="M140.652,10.865a7.562,7.562,0,0,1-.589,3.1,5.385,5.385,0,0,1-1.626,2.123l2.065,1.635L138.6,19.338l-2.751-2.215a5.718,5.718,0,0,1-.773.053,5.547,5.547,0,0,1-2.9-.756,5.141,5.141,0,0,1-1.973-2.162,7.343,7.343,0,0,1-.734-3.234v-.677a7.572,7.572,0,0,1,.69-3.322,5.142,5.142,0,0,1,1.969-2.215,5.854,5.854,0,0,1,5.832-.009A5.211,5.211,0,0,1,139.935,7a7.362,7.362,0,0,1,.716,3.274Zm-3.138-.536a5.381,5.381,0,0,0-.637-2.9,2.2,2.2,0,0,0-3.661-.013,5.451,5.451,0,0,0-.624,2.856v.589a5.531,5.531,0,0,0,.624,2.9,2.043,2.043,0,0,0,1.854,1.006,2.014,2.014,0,0,0,1.806-.993,5.414,5.414,0,0,0,.637-2.856Zm10.239,5.643a3.054,3.054,0,0,1-2.54,1.2,3,3,0,0,1-2.369-.91,3.826,3.826,0,0,1-.8-2.615V7.49H145v6.179a1.065,1.065,0,0,0,1.187,1.222,1.548,1.548,0,0,0,1.45-.729V7.49h2.979V17h-2.777Zm9.088,1.2a4.889,4.889,0,0,1-3.542-1.305,4.507,4.507,0,0,1-1.354-3.4v-.246a5.84,5.84,0,0,1,.541-2.575,3.955,3.955,0,0,1,1.578-1.727,4.763,4.763,0,0,1,2.461-.611,4.117,4.117,0,0,1,3.164,1.244,4.887,4.887,0,0,1,1.16,3.467v1.151H154.96a2.135,2.135,0,0,0,.694,1.257,2.066,2.066,0,0,0,1.389.457,2.662,2.662,0,0,0,2.2-.984l1.354,1.6a3.784,3.784,0,0,1-1.569,1.217A5.3,5.3,0,0,1,156.841,17.176ZM156.507,9.6q-1.3,0-1.547,1.723h2.988v-.229a1.467,1.467,0,0,0-.36-1.1A1.434,1.434,0,0,0,156.507,9.6Zm8.719-2.109v9.835a3.452,3.452,0,0,1-.967,2.6,3.714,3.714,0,0,1-2.672.914,6.308,6.308,0,0,1-1.4-.149V18.45a5.667,5.667,0,0,0,.835.079,1.084,1.084,0,0,0,1.23-1.222V7.49Zm-3.19-2.461a1.334,1.334,0,0,1,.457-1.043,1.934,1.934,0,0,1,2.373,0,1.334,1.334,0,0,1,.457,1.043,1.334,1.334,0,0,1-.457,1.043,1.934,1.934,0,0,1-2.373,0A1.334,1.334,0,0,1,162.036,5.029ZM172.257,17a3.344,3.344,0,0,1-.281-.853,2.754,2.754,0,0,1-2.285,1.028,3.374,3.374,0,0,1-2.285-.813,2.588,2.588,0,0,1-.94-2.043,2.66,2.66,0,0,1,1.143-2.338,5.821,5.821,0,0,1,3.322-.791h.914v-.5q0-1.316-1.134-1.316a.927.927,0,0,0-1.055,1.042h-2.962a2.655,2.655,0,0,1,1.173-2.239,4.931,4.931,0,0,1,2.993-.86,4.323,4.323,0,0,1,2.874.888,3.086,3.086,0,0,1,1.081,2.435v4.21a4.311,4.311,0,0,0,.4,2V17ZM170.4,15.066a1.652,1.652,0,0,0,.918-.237,1.487,1.487,0,0,0,.523-.536V12.772h-.861q-1.547,0-1.547,1.389a.848.848,0,0,0,.272.655A.986.986,0,0,0,170.4,15.066Zm11.03-.738a.684.684,0,0,0-.4-.606,6.016,6.016,0,0,0-1.5-.475,6.853,6.853,0,0,1-1.828-.646,3.062,3.062,0,0,1-1.1-.971,2.319,2.319,0,0,1-.378-1.31,2.628,2.628,0,0,1,1.081-2.158,4.453,4.453,0,0,1,2.83-.848,4.934,4.934,0,0,1,3.023.853,2.666,2.666,0,0,1,1.143,2.241h-2.971q0-1.143-1.2-1.143a1.194,1.194,0,0,0-.782.259.8.8,0,0,0-.316.646.737.737,0,0,0,.387.642,3.654,3.654,0,0,0,1.235.4,10.671,10.671,0,0,1,1.49.378,2.706,2.706,0,0,1,2.145,2.646,2.491,2.491,0,0,1-1.156,2.118,5.068,5.068,0,0,1-2.993.817,5.172,5.172,0,0,1-2.18-.439,3.645,3.645,0,0,1-1.494-1.2,2.707,2.707,0,0,1-.536-1.591H178.7a1.145,1.145,0,0,0,.439.962,1.808,1.808,0,0,0,1.081.3,1.422,1.422,0,0,0,.91-.246A.787.787,0,0,0,181.433,14.328Z" transform="translate(643 1862)" fill="#12263f"/>
    <g id="chat" transform="translate(740 1689.166)">
      <g id="Group_97150" data-name="Group 97150" transform="translate(1.764 2.597)">
        <path id="Path_152326" data-name="Path 152326" d="M162.289,173.847h67.742a5.879,5.879,0,0,1,5.879,5.879v51.117a5.879,5.879,0,0,1-5.879,5.879h-14a2.351,2.351,0,0,0-2.351,2.351v11.151a1.176,1.176,0,0,1-2.007.831L198.025,237.41a2.352,2.352,0,0,0-1.663-.689H162.289a5.879,5.879,0,0,1-5.879-5.879V179.726A5.879,5.879,0,0,1,162.289,173.847Z" transform="translate(-121.396 -134.928)" fill="#f5e878"/>
        <g id="Group_97148" data-name="Group 97148" transform="translate(103.932 38.919)" style="mix-blend-mode: multiply;isolation: isolate">
          <path id="Path_152327" data-name="Path 152327" d="M456.554,173.847H449.5a5.879,5.879,0,0,1,5.879,5.879v51.117a5.879,5.879,0,0,1-5.879,5.879h7.054a5.879,5.879,0,0,0,5.879-5.879V179.726A5.879,5.879,0,0,0,456.554,173.847Z" transform="translate(-449.5 -173.847)" fill="#eee490"/>
        </g>
        <path id="Path_152328" data-name="Path 152328" d="M81.12,8.332H13.379A5.879,5.879,0,0,0,7.5,14.211V65.328a5.879,5.879,0,0,0,5.879,5.879H29.733a2.351,2.351,0,0,1,2.351,2.351V84.708a1.176,1.176,0,0,0,2.007.831L47.736,71.9a2.352,2.352,0,0,1,1.663-.689H81.12A5.879,5.879,0,0,0,87,65.328V14.211A5.878,5.878,0,0,0,81.12,8.332Z" transform="translate(-7.5 -8.332)" fill="#ffb74d"/>
        <g id="Group_97149" data-name="Group 97149" transform="translate(68.917)">
          <path id="Path_152329" data-name="Path 152329" d="M307.643,8.332h-7.054a5.879,5.879,0,0,1,5.879,5.879V65.328a5.879,5.879,0,0,1-5.879,5.879h7.054a5.879,5.879,0,0,0,5.879-5.879V14.211a5.879,5.879,0,0,0-5.879-5.879Z" transform="translate(-300.589 -8.332)" fill="#ff9800"/>
        </g>
        <path id="Path_152330" data-name="Path 152330" d="M46.753,416.745a4.925,4.925,0,0,0,3.511,4.718,5.033,5.033,0,0,0,1.412-.03,4.688,4.688,0,1,0,0-9.376,5.033,5.033,0,0,0-1.412-.03A4.925,4.925,0,0,0,46.753,416.745Z" transform="translate(-37.523 -317.062)" fill="#eae299"/>
        <path id="Path_152332" data-name="Path 152332" d="M423.374,64.224a4.925,4.925,0,0,0,3.511,4.718,5.032,5.032,0,0,0,1.412-.03,4.688,4.688,0,1,0,0-9.376,5.032,5.032,0,0,0-1.412-.03A4.925,4.925,0,0,0,423.374,64.224Z" transform="translate(-325.585 -47.433)" fill="#eee490"/>
      </g>
      <g id="Group_97151" data-name="Group 97151" transform="translate(0 0.834)">
        <path id="Path_152334" data-name="Path 152334" d="M270.262,300.044H221.916a1.764,1.764,0,1,0,0,3.527h48.347a1.764,1.764,0,0,0,0-3.527Z" transform="translate(-168.385 -229.687)"/>
        <path id="Path_152335" data-name="Path 152335" d="M270.262,361.932H221.916a1.764,1.764,0,1,0,0,3.527h48.347a1.764,1.764,0,0,0,0-3.527Z" transform="translate(-168.385 -277.023)"/>
        <path id="Path_152336" data-name="Path 152336" d="M84.962,136.293a1.764,1.764,0,1,0-1.764,1.764A1.764,1.764,0,0,0,84.962,136.293Z" transform="translate(-62.286 -103.092)"/>
        <path id="Path_152337" data-name="Path 152337" d="M177.571,136.293a1.764,1.764,0,1,0-1.764,1.764A1.764,1.764,0,0,0,177.571,136.293Z" transform="translate(-133.119 -103.092)"/>
        <path id="Path_152338" data-name="Path 152338" d="M270.181,136.293a1.764,1.764,0,1,0-1.764,1.764A1.764,1.764,0,0,0,270.181,136.293Z" transform="translate(-203.953 -103.092)"/>
        <path id="Path_152339" data-name="Path 152339" d="M45.939,403.826a6.687,6.687,0,1,0,6.687,6.687A6.694,6.694,0,0,0,45.939,403.826Zm0,9.846a3.159,3.159,0,1,1,3.16-3.159A3.163,3.163,0,0,1,45.939,413.672Z" transform="translate(-30.023 -309.066)"/>
        <path id="Path_152340" data-name="Path 152340" d="M422.56,64.679a6.686,6.686,0,1,0-6.686-6.686A6.694,6.694,0,0,0,422.56,64.679Zm0-9.846a3.159,3.159,0,1,1-3.159,3.16,3.163,3.163,0,0,1,3.159-3.16Z" transform="translate(-318.085 -39.438)"/>
        <path id="Path_152341" data-name="Path 152341" d="M54.124,102.628H42.657a4.12,4.12,0,0,1-4.115-4.115V72.135c0-.007,0-.015,0-.022l4.706-4.706a.584.584,0,0,1,.416-.172H77.735a7.651,7.651,0,0,0,7.618-7.07h16.524a1.764,1.764,0,0,0,0-3.527h-16.5V43.281H92.7a1.764,1.764,0,0,0,0-3.527h-7.32V8.476A7.651,7.651,0,0,0,77.735.834H7.642A7.651,7.651,0,0,0,0,8.476v8.638a1.764,1.764,0,0,0,3.527,0V8.476A4.12,4.12,0,0,1,7.642,4.361H77.735A4.12,4.12,0,0,1,81.85,8.476V59.593a4.12,4.12,0,0,1-4.115,4.115H43.662a4.088,4.088,0,0,0-2.91,1.205L28.112,77.555V67.823A4.12,4.12,0,0,0,24,63.708H7.642a4.12,4.12,0,0,1-4.115-4.115V24.8A1.764,1.764,0,0,0,0,24.8V59.593a7.651,7.651,0,0,0,7.642,7.642H24a.589.589,0,0,1,.588.588V78.974A2.938,2.938,0,0,0,29.6,81.052l5.413-5.413V98.513a7.651,7.651,0,0,0,7.642,7.642H54.124a1.763,1.763,0,1,0,0-3.527Z" transform="translate(0 -0.834)"/>
        <path id="Path_152342" data-name="Path 152342" d="M308.066,166.349H295.7a1.764,1.764,0,1,0,0,3.527h12.367a4.12,4.12,0,0,1,4.115,4.115v51.117a4.12,4.12,0,0,1-4.115,4.115H291.711a4.12,4.12,0,0,0-4.115,4.115v9.731l-12.641-12.641a4.087,4.087,0,0,0-2.91-1.205h-14.92a1.764,1.764,0,0,0,0,3.527h14.92a.584.584,0,0,1,.416.172l13.645,13.645a2.939,2.939,0,0,0,5.018-2.078V233.338a.589.589,0,0,1,.588-.588h16.355a7.651,7.651,0,0,0,7.642-7.642V173.991A7.651,7.651,0,0,0,308.066,166.349Z" transform="translate(-195.316 -127.43)"/>
      </g>
    </g>
  </g>
</svg>
