<svg xmlns="http://www.w3.org/2000/svg" width="400" height="290" viewBox="0 0 400 290">
  <g id="t4-i7" transform="translate(-810 -1970)">
    <rect id="Rectangle_32672" data-name="Rectangle 32672" width="400" height="290" rx="20" transform="translate(810 1970)" fill="#fff1db"/>
    <path id="Path_152388" data-name="Path 152388" d="M109.38,11.9h-4.975V17h-3.085V4.2h8.561V6.585h-5.476V9.529h4.975Zm6.064,5.273a4.889,4.889,0,0,1-3.542-1.305,4.507,4.507,0,0,1-1.354-3.4v-.246a5.84,5.84,0,0,1,.541-2.575,3.955,3.955,0,0,1,1.578-1.727,4.763,4.763,0,0,1,2.461-.611,4.117,4.117,0,0,1,3.164,1.244,4.887,4.887,0,0,1,1.16,3.467v1.151h-5.889a2.135,2.135,0,0,0,.694,1.257,2.066,2.066,0,0,0,1.389.457,2.662,2.662,0,0,0,2.2-.984l1.354,1.6a3.784,3.784,0,0,1-1.569,1.217A5.3,5.3,0,0,1,115.445,17.176ZM115.111,9.6q-1.3,0-1.547,1.723h2.988v-.229a1.467,1.467,0,0,0-.36-1.1A1.434,1.434,0,0,0,115.111,9.6Zm8.657,7.4H120.8V3.5h2.971Zm4.948,0h-2.971V7.49h2.971ZM125.57,5.029a1.334,1.334,0,0,1,.457-1.043,1.934,1.934,0,0,1,2.373,0,1.334,1.334,0,0,1,.457,1.043,1.334,1.334,0,0,1-.457,1.043,1.934,1.934,0,0,1-2.373,0A1.334,1.334,0,0,1,125.57,5.029Zm8.991,9.861a1.317,1.317,0,0,0,.967-.338,1.241,1.241,0,0,0,.334-.945h2.777a3.288,3.288,0,0,1-1.121,2.566,4.168,4.168,0,0,1-2.887,1,4.22,4.22,0,0,1-3.27-1.3,5.125,5.125,0,0,1-1.2-3.6v-.123A5.792,5.792,0,0,1,130.7,9.6a3.872,3.872,0,0,1,1.534-1.7,4.573,4.573,0,0,1,2.373-.593,4.116,4.116,0,0,1,2.944,1.028,3.647,3.647,0,0,1,1.09,2.786h-2.777A1.626,1.626,0,0,0,135.5,10a1.244,1.244,0,0,0-.967-.4q-1.151,0-1.345,1.468a10.357,10.357,0,0,0-.062,1.283,4.068,4.068,0,0,0,.343,1.986A1.187,1.187,0,0,0,134.561,14.891ZM143.016,17h-2.971V7.49h2.971ZM139.87,5.029a1.334,1.334,0,0,1,.457-1.043,1.934,1.934,0,0,1,2.373,0,1.334,1.334,0,0,1,.457,1.043,1.334,1.334,0,0,1-.457,1.043,1.934,1.934,0,0,1-2.373,0A1.334,1.334,0,0,1,139.87,5.029Zm8.42.1V7.49h1.564V9.547h-1.564V13.9a1.111,1.111,0,0,0,.193.747,1.037,1.037,0,0,0,.765.211,4.345,4.345,0,0,0,.738-.053v2.118a5.466,5.466,0,0,1-1.67.255,3.1,3.1,0,0,1-2.259-.721,2.954,2.954,0,0,1-.729-2.188V9.547h-1.213V7.49h1.213V5.126ZM156.375,17a3.344,3.344,0,0,1-.281-.853,2.754,2.754,0,0,1-2.285,1.028,3.374,3.374,0,0,1-2.285-.813,2.588,2.588,0,0,1-.94-2.043,2.66,2.66,0,0,1,1.143-2.338,5.821,5.821,0,0,1,3.322-.791h.914v-.5q0-1.316-1.134-1.316a.927.927,0,0,0-1.055,1.042h-2.962a2.655,2.655,0,0,1,1.173-2.239,4.931,4.931,0,0,1,2.993-.86,4.323,4.323,0,0,1,2.874.888,3.086,3.086,0,0,1,1.081,2.435v4.21a4.311,4.311,0,0,0,.4,2V17Zm-1.854-1.934a1.652,1.652,0,0,0,.918-.237,1.487,1.487,0,0,0,.523-.536V12.772H155.1q-1.547,0-1.547,1.389a.848.848,0,0,0,.272.655A.986.986,0,0,0,154.521,15.066Zm10.072-.176a1.317,1.317,0,0,0,.967-.338,1.241,1.241,0,0,0,.334-.945h2.777a3.288,3.288,0,0,1-1.121,2.566,4.168,4.168,0,0,1-2.887,1,4.22,4.22,0,0,1-3.27-1.3,5.125,5.125,0,0,1-1.2-3.6v-.123A5.792,5.792,0,0,1,160.73,9.6a3.872,3.872,0,0,1,1.534-1.7,4.573,4.573,0,0,1,2.373-.593,4.116,4.116,0,0,1,2.944,1.028,3.647,3.647,0,0,1,1.09,2.786h-2.777a1.626,1.626,0,0,0-.36-1.134,1.244,1.244,0,0,0-.967-.4q-1.151,0-1.345,1.468a10.357,10.357,0,0,0-.062,1.283,4.068,4.068,0,0,0,.343,1.986A1.187,1.187,0,0,0,164.593,14.891ZM173.048,17h-2.971V7.49h2.971ZM169.9,5.029a1.334,1.334,0,0,1,.457-1.043,1.934,1.934,0,0,1,2.373,0,1.334,1.334,0,0,1,.457,1.043,1.334,1.334,0,0,1-.457,1.043,1.934,1.934,0,0,1-2.373,0A1.334,1.334,0,0,1,169.9,5.029Zm4.6,7.128a5.613,5.613,0,0,1,.554-2.536,3.96,3.96,0,0,1,1.591-1.709,4.791,4.791,0,0,1,2.435-.6,4.373,4.373,0,0,1,3.366,1.323,5.076,5.076,0,0,1,1.23,3.6v.105a4.925,4.925,0,0,1-1.235,3.529,4.384,4.384,0,0,1-3.344,1.305,4.434,4.434,0,0,1-3.261-1.217,4.761,4.761,0,0,1-1.327-3.3Zm2.962.185a3.538,3.538,0,0,0,.413,1.934,1.376,1.376,0,0,0,1.222.615q1.582,0,1.617-2.435v-.3q0-2.558-1.635-2.558-1.485,0-1.608,2.206ZM187.7,7.49l.1,1.116a3.225,3.225,0,0,1,2.716-1.292,2.713,2.713,0,0,1,2.219.888,4.226,4.226,0,0,1,.76,2.672V17h-2.971V11a1.6,1.6,0,0,0-.29-1.059,1.342,1.342,0,0,0-1.055-.338,1.413,1.413,0,0,0-1.292.686V17h-2.962V7.49Zm12.032,9.686a4.889,4.889,0,0,1-3.542-1.305,4.507,4.507,0,0,1-1.354-3.4v-.246a5.84,5.84,0,0,1,.541-2.575,3.955,3.955,0,0,1,1.578-1.727,4.763,4.763,0,0,1,2.461-.611,4.117,4.117,0,0,1,3.164,1.244,4.887,4.887,0,0,1,1.16,3.467v1.151h-5.889a2.135,2.135,0,0,0,.694,1.257,2.066,2.066,0,0,0,1.389.457,2.662,2.662,0,0,0,2.2-.984l1.354,1.6a3.784,3.784,0,0,1-1.569,1.217A5.3,5.3,0,0,1,199.732,17.176ZM199.4,9.6q-1.3,0-1.547,1.723h2.988v-.229a1.467,1.467,0,0,0-.36-1.1A1.434,1.434,0,0,0,199.4,9.6Zm10.512,4.729a.684.684,0,0,0-.4-.606,6.016,6.016,0,0,0-1.5-.475,6.853,6.853,0,0,1-1.828-.646,3.062,3.062,0,0,1-1.1-.971,2.319,2.319,0,0,1-.378-1.31,2.628,2.628,0,0,1,1.081-2.158,4.453,4.453,0,0,1,2.83-.848,4.934,4.934,0,0,1,3.023.853,2.666,2.666,0,0,1,1.143,2.241h-2.971q0-1.143-1.2-1.143a1.194,1.194,0,0,0-.782.259.8.8,0,0,0-.316.646.737.737,0,0,0,.387.642,3.654,3.654,0,0,0,1.235.4,10.671,10.671,0,0,1,1.49.378,2.706,2.706,0,0,1,2.145,2.646,2.491,2.491,0,0,1-1.156,2.118,5.068,5.068,0,0,1-2.993.817,5.172,5.172,0,0,1-2.18-.439,3.645,3.645,0,0,1-1.494-1.2,2.707,2.707,0,0,1-.536-1.591h2.769a1.145,1.145,0,0,0,.439.962,1.808,1.808,0,0,0,1.081.3,1.422,1.422,0,0,0,.91-.246A.787.787,0,0,0,209.91,14.328Z" transform="translate(853 2194)" fill="#12263f"/>
    <g id="pulgares-hacia-arriba" transform="translate(950 2028.118)">
      <g id="Group_97162" data-name="Group 97162" transform="translate(1.758 7.054)">
        <path id="Path_152356" data-name="Path 152356" d="M124.662,152.437a5.859,5.859,0,0,0,2.153.41h50.913c4.377,0,7.442-3.614,7.31-8.022a7.583,7.583,0,0,0-7.636-7.543h6.065a7.844,7.844,0,0,0,7.88-7.88c-.057-4.253-3.048-7.685-7.313-7.685h3.626c4.266,0,7.257-3.431,7.313-7.684a7.844,7.844,0,0,0-7.88-7.881h-1.909a7.583,7.583,0,0,0,7.636-7.543c.132-4.408-2.932-8.022-7.31-8.022h-38.65a1.172,1.172,0,0,1-1.165-1.3l3.265-29.815a10.547,10.547,0,0,0-10.484-11.695,5.152,5.152,0,0,0-5.126,4.8c-2.466,33.464-30.173,48.418-30.173,48.418l-2.344,27.35,2.344,15.6Z" transform="translate(-78.959 -47.777)" fill="#fed2a4"/>
        <path id="Path_152357" data-name="Path 152357" d="M7.5,297.956A2.344,2.344,0,0,0,9.844,300.3H27.031a2.344,2.344,0,0,0,2.344-2.344V244.265a2.344,2.344,0,0,0-2.344-2.344H9.844A2.344,2.344,0,0,0,7.5,244.265Z" transform="translate(-7.5 -196.419)" fill="#ffb74d"/>
        <path id="Path_152358" data-name="Path 152358" d="M77.865,241.921H70.834a2.344,2.344,0,0,1,2.344,2.344v53.691a2.344,2.344,0,0,1-2.344,2.344h7.031a2.344,2.344,0,0,0,2.344-2.344V244.265A2.344,2.344,0,0,0,77.865,241.921Z" transform="translate(-55.99 -196.419)" fill="#ff9800"/>
        <path id="Path_152359" data-name="Path 152359" d="M374.658,292.691h7.031a7.783,7.783,0,0,0,7.779-8.022,8,8,0,0,0-8.1-7.543h6.478a7.9,7.9,0,0,0,7.935-7.934,7.783,7.783,0,0,0-7.781-7.631h3.627a7.783,7.783,0,0,0,7.781-7.631A7.905,7.905,0,0,0,391.467,246h-2.322a8,8,0,0,0,8.105-7.543,7.782,7.782,0,0,0-7.779-8.022H382.44a7.782,7.782,0,0,1,7.779,8.022q-.005.178-.019.353a5.981,5.981,0,0,1-6.007,5.432l-15.364.234a1.422,1.422,0,0,0-1.6,1.469,1.392,1.392,0,0,0,1.523,1.577l17.584.234a6,6,0,0,1,6.017,5.542q.02.314.014.634,0,.179-.015.356a5.985,5.985,0,0,1-6.015,5.517l-17.512.234a1.422,1.422,0,0,0-1.6,1.47,1.392,1.392,0,0,0,1.523,1.577l13.959.234a5.985,5.985,0,0,1,6.015,5.517q.011.177.015.357.006.32-.014.634a6,6,0,0,1-6.017,5.542l-13.884.234a1.422,1.422,0,0,0-1.6,1.469,1.392,1.392,0,0,0,1.523,1.577l7.655.234a5.982,5.982,0,0,1,6.007,5.432q.014.175.019.353A7.783,7.783,0,0,1,374.658,292.691Z" transform="translate(-282.919 -187.622)" fill="#ffbd86"/>
      </g>
      <g id="Group_97163" data-name="Group 97163" transform="translate(0 5.296)">
        <path id="Path_152365" data-name="Path 152365" d="M55.183,315.472V275.547a1.758,1.758,0,0,0-3.516,0v39.926a1.758,1.758,0,0,0,3.516,0Z" transform="translate(-39.558 -219.059)"/>
        <path id="Path_152366" data-name="Path 152366" d="M87.4,129.78a1.758,1.758,0,0,0,0,3.516H100.2a6.242,6.242,0,0,1,6.348,5.838,6.025,6.025,0,0,1-6.022,6.212H49.615a4.082,4.082,0,0,1-1.508-.287l-20.373-8.051V96.259a64.682,64.682,0,0,0,13.7-11.486A62.607,62.607,0,0,0,57.9,46.959a3.414,3.414,0,0,1,3.373-3.169,8.789,8.789,0,0,1,8.737,9.746L66.748,83.352A2.93,2.93,0,0,0,69.66,86.6h6.03a1.758,1.758,0,1,0,0-3.516H70.314l3.194-29.165A12.3,12.3,0,0,0,61.276,40.275,6.943,6.943,0,0,0,54.4,46.7,59.117,59.117,0,0,1,38.93,82.3a64.077,64.077,0,0,1-11.2,9.767V89.88a4.106,4.106,0,0,0-4.1-4.1H13.4a1.758,1.758,0,1,0,0,3.516H23.633a.586.586,0,0,1,.586.586v53.691a.586.586,0,0,1-.586.586H4.1a.586.586,0,0,1-.586-.586V89.88a.586.586,0,0,1,.586-.586H5.743a1.758,1.758,0,1,0,0-3.516H4.1A4.106,4.106,0,0,0,0,89.88v53.691a4.106,4.106,0,0,0,4.1,4.1H23.633a4.106,4.106,0,0,0,4.1-4.1v-2.783l19.081,7.54a7.584,7.584,0,0,0,2.8.533h50.913a9.541,9.541,0,0,0,9.536-9.832,9.272,9.272,0,0,0-2.294-5.8,9.84,9.84,0,0,0,5.875-2.87,9.384,9.384,0,0,0,2.728-6.793,9.5,9.5,0,0,0-2.674-6.413,9.6,9.6,0,0,0,6.3-8.781,9.385,9.385,0,0,0-2.728-6.793,9.788,9.788,0,0,0-2.659-1.921,9.475,9.475,0,0,0-6.3-16.577H83.351a1.758,1.758,0,1,0,0,3.516H108.31a6.024,6.024,0,0,1,6.022,6.212,6.242,6.242,0,0,1-6.348,5.838H87.4a1.758,1.758,0,1,0,0,3.516h22.91a6.282,6.282,0,0,1,4.455,1.879,5.9,5.9,0,0,1,1.722,4.264,6.054,6.054,0,0,1-6.023,5.906H87.4a1.758,1.758,0,0,0,0,3.516h19.437a6.054,6.054,0,0,1,6.023,5.907,5.9,5.9,0,0,1-1.722,4.264,6.283,6.283,0,0,1-4.455,1.879H87.4Z" transform="translate(0 -40.275)"/>
      </g>
    </g>
  </g>
</svg>
